<?xml version="1.0" encoding="utf-8"?>
<!-- Generator: Adobe Illustrator 20.1.0, SVG Export Plug-In . SVG Version: 6.00 Build 0)  -->
<svg version="1.1" xmlns="http://www.w3.org/2000/svg" xmlns:xlink="http://www.w3.org/1999/xlink" x="0px" y="0px"
	 viewBox="0 0 729 341" style="enable-background:new 0 0 729 341;" xml:space="preserve">
<style type="text/css">
	.st0{display:none;}
	.st1{display:inline;}
	.st2{fill:#841811;}
	.st3{fill:#888483;}
</style>
<g id="Layer_1" class="st0">
	<g class="st1">
		<g>
			<path class="st2" d="M64.7,291.1h49.8c16.1,0,22,11.2,22,21.4c0,9.8-4.7,17-13.5,19.8v0.2c7.1,1,11.3,7.7,11.7,17.1
				c0.7,15,1.1,18.7,3.8,21.9H126c-1.9-2.3-1.9-5.6-2.5-15.3c-0.8-14.4-5.6-18.8-15.6-18.8H76.7v34.2h-12V291.1z M110.1,327
				c11.7,0,14.5-7.1,14.5-12.7c0-7.7-4.6-12.9-14.2-12.9H76.7V327H110.1z"/>
			<path class="st2" d="M148.1,290.4h11.3v31h0.2c5.3-8.2,14.7-10.9,23.1-10.9c14.2,0,24.8,6.1,24.8,20.9v40.3h-11.3v-38
				c0-8.7-5.4-13.6-17.5-13.6c-10.3,0-19.4,6-19.4,17.6v34.1h-11.3V290.4z"/>
			<path class="st2" d="M230.6,345.4c0.9,12.2,11.7,18.7,21.8,18.7c6.4,0,15.2-2.1,19.1-10.5h12c-5.6,14.2-18.8,20-30.4,20
				c-23,0-34.3-14.5-34.3-31.6c0-17,11.3-31.6,34.3-31.6c15.6,0,32,9,32,33.5v1.5H230.6z M273,336.6c-1.7-10.7-10-16.7-20.6-16.7
				c-10.4,0-19.7,6.1-21.4,16.7H273z"/>
			<path class="st2" d="M296.5,290.4h11.3v12.4h-11.3V290.4z M296.5,312.5h11.3v59.1h-11.3V312.5z"/>
			<path class="st2" d="M321.5,312.5h11.3v8.9h0.2c5.3-8.2,14.7-10.9,23.1-10.9c14.2,0,24.8,6.1,24.8,20.9v40.3h-11.3v-38
				c0-8.7-5.4-13.6-17.5-13.6c-10.3,0-19.4,6-19.4,17.6v34.1h-11.3V312.5z"/>
			<path class="st3" d="M394.6,291.1H438c15.4,0,23.5,7.2,23.5,19.8c0,7.9-3.6,15.9-15.8,18.5v0.2c15.7,1.6,18.5,13,18.5,19.8
				c0,8.7-4.7,22.1-27,22.1h-42.6V291.1z M399.8,327.6h35.9c4.2,0,20.6,0,20.6-16.4c0-15.7-12.9-15.7-21.4-15.7h-35.1V327.6z
				 M399.8,367.1h36.3c4.1,0,22.9,0,22.9-18c0-16.9-15.3-16.9-24.2-16.9h-35V367.1z"/>
			<path class="st3" d="M475.6,313.8h5.2v13.6h0.2c3.8-10.1,12.6-15.4,23.9-15.4c1.6,0,2.7,0.2,4.3,0.7v5.2c-1.2-0.5-2.7-0.7-6-0.7
				c-15,0-22.4,11.4-22.4,23.1v31.2h-5.2V313.8z"/>
			<path class="st3" d="M571.5,371.6h-5.2v-11.5h-0.2c-3.6,6.9-11.2,13.3-24.4,13.3c-26.5,0-26.5-16.9-26.5-23.9v-35.6h5.2v35.4
				c0,11.7,4.4,19.6,21.4,19.6c17,0,24.5-10.6,24.5-21.3v-33.7h5.2V371.6z M528.9,292.2h5.2v12h-5.2V292.2z M552.8,292.2h5.2v12
				h-5.2V292.2z"/>
			<path class="st3" d="M637.8,332c-0.7-7.3-10.6-15.4-24.5-15.4c-18.3,0-27.4,13-27.4,26.7c0,9.4,6.5,25.6,27.4,25.6
				c11.6,0,22.7-5.5,25.3-17.5h5.2c-3,15.1-15.9,22-30.4,22c-18.9,0-32.6-12.2-32.6-30.1c0-20.3,14.9-31.2,32.6-31.2
				c17.7,0,29,10.1,29.7,20H637.8z"/>
			<path class="st3" d="M653.1,291.1h5.2v53.4l41.2-30.7h7.7l-29.2,21.8l31.9,36h-7.1l-28.9-32.7l-15.6,11.5v21.2h-5.2V291.1z"/>
			<path class="st3" d="M717.6,343.8c0.3,14.4,10.1,25,27.5,25c17.9,0,22.6-11.3,24.6-16.5h5.2c-4.8,14.5-15,21-30.3,21
				c-19.7,0-32.1-12-32.1-31.1c0-12.1,7.7-30.2,32.3-30.2c20.1,0,31.6,13.3,31.8,31.8H717.6z M770.6,339.3
				c-2.1-15.8-13.2-22.8-26.5-22.8c-14.9,0-24.2,9-26.5,22.8H770.6z"/>
		</g>
		<g>
			<path class="st3" d="M395.4,389.1h4.2v28.2h-4.2V389.1z"/>
			<path class="st3" d="M413.5,392.8h-10.7v-3.6h25.5v3.6h-10.7v24.6h-4.2V392.8z"/>
			<path class="st3" d="M467.6,399.3c-0.6-3.9-3.7-7.2-9.6-7.2c-6.7,0-10.9,3.8-10.9,11.5c0,5.3,2.9,10.8,10.7,10.8
				c4.9,0,8.7-2.4,9.9-7.9h4.2c-0.7,6.2-6,11.5-14.1,11.5c-7.1,0-14.8-3.9-14.8-14.9c0-8.2,5.1-14.7,14.8-14.7
				c5.6,0,13.4,2.4,14.1,10.9H467.6z"/>
			<path class="st3" d="M486.9,395.9c8,0,12,5.1,12,11.1c0,6-3.9,11.1-12,11.1c-8.1,0-12-5.1-12-11.1
				C474.9,401,478.9,395.9,486.9,395.9z M486.9,399.2c-5.7,0-7.8,4-7.8,7.7c0,3.7,2.1,7.7,7.8,7.7c5.7,0,7.8-4,7.8-7.7
				C494.7,403.2,492.6,399.2,486.9,399.2z"/>
			<path class="st3" d="M502.7,396.6h4v3.1h0.1c1.9-2.9,5.1-3.8,8.1-3.8c5,0,8.7,2.1,8.7,7.3v14.1h-3.9V404c0-3-1.9-4.8-6.1-4.8
				c-3.6,0-6.8,2.1-6.8,6.2v11.9h-4V396.6z"/>
			<path class="st3" d="M531,410.8c0,1.9,1.5,4.1,6.5,4.1c5.1,0,6.3-1.8,6.3-3.2c0-1.5-0.7-2.3-3.9-2.8l-6.5-0.9
				c-3-0.4-5.6-2.3-5.6-5.5c0-4.2,3.6-6.7,9.4-6.7c6.8,0,9.7,2.9,10.1,6.9h-3.9c-0.1-2.1-2.1-3.9-6.2-3.9c-2.5,0-5.4,0.7-5.4,3.2
				c0,1.4,0.6,2.2,3.4,2.6l5.6,0.8c5.2,0.7,7.2,2.6,7.2,5.5c0,4.8-4.1,7.1-10.4,7.1c-4.7,0-10.1-1.2-10.6-7.2H531z"/>
			<path class="st3" d="M572.3,417.3h-3.9v-3.1h-0.1c-1.9,2.9-5.1,3.8-8.1,3.8c-5,0-8.7-2.1-8.7-7.3v-14.1h3.9v13.3
				c0,3,1.9,4.8,6.1,4.8c3.6,0,6.8-2.1,6.8-6.2v-11.9h3.9V417.3z"/>
			<path class="st3" d="M577,388.9h3.9v28.4H577V388.9z"/>
			<path class="st3" d="M587.4,390.3h4v6.4h5.9v3.1h-5.9v12.7c0,1.7,1.2,2.2,3.2,2.2c0.9,0,1.8-0.1,2.7-0.3v3.3
				c-1.3,0.2-2.8,0.3-4.4,0.3c-3.9,0-5.5-1.9-5.5-4.9v-13.4h-4.3v-3.1h4.3V390.3z"/>
			<path class="st3" d="M600.1,388.9h3.9v4.3h-3.9V388.9z M600.1,396.6h3.9v20.7h-3.9V396.6z"/>
			<path class="st3" d="M608.8,396.6h4v3.1h0.1c1.9-2.9,5.1-3.8,8.1-3.8c5,0,8.7,2.1,8.7,7.3v14.1h-3.9V404c0-3-1.9-4.8-6.1-4.8
				c-3.6,0-6.8,2.1-6.8,6.2v11.9h-4V396.6z"/>
			<path class="st3" d="M652.8,396.6h3.9v18.9c0,7.4-3.6,10.4-12,10.4c-4.5,0-9.6-0.7-10.4-6.4h3.9c0.7,2.7,3.1,3.4,6.9,3.4
				c5.6,0,7.7-2.8,7.7-6.2v-3h-0.1c-2.2,3.2-5.3,3.8-8,3.8c-5.5,0-11.3-3-11.3-10.7c0-7.7,5.8-10.7,11.3-10.7c3.4,0,6.5,1.1,8,3.5
				h0.1V396.6z M645.2,399.5c-4.8,0-7.6,3.2-7.6,7.4c0,4.3,2.8,7.3,7.6,7.3c4.8,0,7.6-3,7.6-7.3
				C652.8,402.6,649.9,399.5,645.2,399.5z"/>
		</g>
		<circle class="st2" cx="250.1" cy="136.4" r="25"/>
		<circle class="st2" cx="350" cy="136.4" r="25"/>
		<circle class="st2" cx="449.9" cy="136.4" r="25"/>
		<circle class="st2" cx="549.8" cy="136.4" r="25"/>
		<circle class="st2" cx="300.1" cy="211.3" r="25"/>
		<circle class="st3" cx="400" cy="211.3" r="25"/>
		<circle class="st2" cx="499.9" cy="211.3" r="25"/>
	</g>
	<g class="st1">
		<path class="st3" d="M97.1,447l-7.6,27.5H86l-6.6-23.9l-6.6,23.9h-3.5L61.7,447h3.8l5.5,22.4l6.2-22.4h4.4l6.2,22.4l5.5-22.4H97.1
			z"/>
		<path class="st3" d="M103.7,450.9h-3.5V447h3.5V450.9z M103.7,474.6h-3.5v-19.9h3.5V474.6z"/>
		<path class="st3" d="M119.2,457.9c-0.5-0.1-1.2-0.2-2.2-0.2c-1.8,0-3.3,0.9-4.6,2.8v14.1h-3.5v-19.9h3.5v2.8
			c1.5-2.2,3.2-3.2,5.2-3.2c0.5,0,1,0,1.6,0.1V457.9z"/>
		<path class="st3" d="M148,454.6l-7.5,19.9h-3.2l-7.5-19.9h3.8l5.3,15.6l5.3-15.6H148z"/>
		<path class="st3" d="M159.6,475c-2.9,0-5.3-0.9-7.1-2.7c-1.8-1.8-2.7-4.4-2.7-7.7c0-3.3,0.9-5.8,2.6-7.6c1.7-1.8,4-2.8,6.7-2.8
			c2.8,0,5.1,0.9,6.8,2.7c1.7,1.8,2.5,4.4,2.5,7.7v0.8h-15c0.2,2.3,0.8,4,1.9,5.1c1.1,1.1,2.5,1.7,4.1,1.7c1.2,0,2.4-0.3,3.4-0.9
			c1-0.6,1.5-1.5,1.6-2.7h3.7c-0.3,2.1-1.2,3.6-2.8,4.7C163.8,474.5,161.8,475,159.6,475z M164.8,462.7c-0.3-1.9-0.9-3.3-1.9-4.3
			c-1-1-2.2-1.4-3.7-1.4c-1.4,0-2.6,0.5-3.6,1.4c-1,0.9-1.7,2.4-1.9,4.3H164.8z"/>
		<path class="st3" d="M182.8,457.9c-0.5-0.1-1.2-0.2-2.2-0.2c-1.8,0-3.3,0.9-4.6,2.8v14.1h-3.5v-19.9h3.5v2.8
			c1.5-2.2,3.2-3.2,5.2-3.2c0.5,0,1,0,1.6,0.1V457.9z"/>
		<path class="st3" d="M188.8,457c1.6-1.9,3.5-2.8,5.7-2.8c2.6,0,4.6,0.9,6,2.8c1.4,1.8,2.1,4.3,2.1,7.5c0,3.3-0.8,5.8-2.4,7.7
			c-1.6,1.9-3.6,2.8-6,2.8c-2.2,0-4-0.7-5.4-2v1.5h-3.5V447h3.5V457z M188.8,469.8c1.5,1.6,3.3,2.4,5.2,2.4c1.5,0,2.7-0.7,3.6-2
			c0.9-1.3,1.4-3.3,1.4-5.8c0-2.5-0.4-4.3-1.3-5.6c-0.9-1.3-2-1.9-3.6-1.9c-2,0-3.8,1.1-5.4,3.4V469.8z"/>
		<path class="st3" d="M210.2,450.9h-3.5V447h3.5V450.9z M210.2,474.6h-3.5v-19.9h3.5V474.6z"/>
		<path class="st3" d="M219,457.2c1.8-2,3.7-3,5.9-3c4.5,0,6.7,2.4,6.7,7.3v13h-3.5v-12.9c0-1.6-0.3-2.8-0.9-3.5
			c-0.6-0.7-1.5-1.1-2.9-1.1c-1.8,0-3.6,1.1-5.4,3.2v14.3h-3.5v-19.9h3.5V457.2z"/>
		<path class="st3" d="M249.4,472.2c-1.6,1.9-3.5,2.9-5.7,2.9c-2.6,0-4.6-0.9-6-2.8c-1.4-1.9-2.1-4.3-2.1-7.5c0-3.3,0.8-5.8,2.4-7.7
			c1.6-1.9,3.6-2.8,6-2.8c2.2,0,4,0.7,5.5,2V447h3.5v27.5h-3.5V472.2z M249.4,468.8v-9.5c-1.5-1.6-3.3-2.4-5.2-2.4
			c-1.5,0-2.7,0.7-3.6,2c-0.9,1.3-1.4,3.3-1.4,5.8c0,2.5,0.4,4.3,1.3,5.6c0.9,1.3,2,1.9,3.6,1.9C246,472.2,247.8,471.1,249.4,468.8z
			"/>
		<path class="st3" d="M266.6,475c-2.9,0-5.3-0.9-7.1-2.7c-1.8-1.8-2.7-4.4-2.7-7.7c0-3.3,0.9-5.8,2.6-7.6c1.7-1.8,4-2.8,6.7-2.8
			c2.8,0,5.1,0.9,6.8,2.7c1.7,1.8,2.5,4.4,2.5,7.7v0.8h-15c0.2,2.3,0.8,4,1.9,5.1c1.1,1.1,2.5,1.7,4.1,1.7c1.2,0,2.4-0.3,3.4-0.9
			c1-0.6,1.5-1.5,1.6-2.7h3.7c-0.3,2.1-1.2,3.6-2.8,4.7C270.8,474.5,268.9,475,266.6,475z M271.9,462.7c-0.3-1.9-0.9-3.3-1.9-4.3
			c-1-1-2.2-1.4-3.7-1.4c-1.4,0-2.6,0.5-3.6,1.4c-1,0.9-1.7,2.4-1.9,4.3H271.9z"/>
		<path class="st3" d="M283.1,457.2c1.8-2,3.7-3,5.9-3c4.5,0,6.7,2.4,6.7,7.3v13h-3.5v-12.9c0-1.6-0.3-2.8-0.9-3.5
			c-0.6-0.7-1.5-1.1-2.9-1.1c-1.8,0-3.6,1.1-5.4,3.2v14.3h-3.5v-19.9h3.5V457.2z"/>
		<path class="st3" d="M337.5,474.6H334v-23.4l-7.8,23.4h-3.3l-7.8-23.4v23.4h-3.5V447h5.5l7.5,22.9L332,447h5.5V474.6z"/>
		<path class="st3" d="M351.6,475c-2.9,0-5.3-0.9-7.1-2.7c-1.8-1.8-2.7-4.4-2.7-7.7c0-3.3,0.9-5.8,2.6-7.6c1.7-1.8,4-2.8,6.7-2.8
			c2.8,0,5.1,0.9,6.8,2.7c1.7,1.8,2.5,4.4,2.5,7.7v0.8h-15c0.2,2.3,0.8,4,1.9,5.1c1.1,1.1,2.5,1.7,4.1,1.7c1.2,0,2.4-0.3,3.4-0.9
			c1-0.6,1.5-1.5,1.6-2.7h3.7c-0.3,2.1-1.2,3.6-2.8,4.7C355.8,474.5,353.9,475,351.6,475z M356.8,462.7c-0.3-1.9-0.9-3.3-1.9-4.3
			c-1-1-2.2-1.4-3.7-1.4c-1.4,0-2.6,0.5-3.6,1.4c-1,0.9-1.7,2.4-1.9,4.3H356.8z"/>
		<path class="st3" d="M368.1,457.2c1.8-2,3.7-3,5.9-3c4.5,0,6.7,2.4,6.7,7.3v13h-3.5v-12.9c0-1.6-0.3-2.8-0.9-3.5
			c-0.6-0.7-1.5-1.1-2.9-1.1c-1.8,0-3.6,1.1-5.4,3.2v14.3h-3.5v-19.9h3.5V457.2z"/>
		<path class="st3" d="M393,475c-5.4,0-8.3-2.1-8.5-6.4h3.5c0,2.4,1.7,3.6,5,3.6c1.5,0,2.6-0.3,3.4-0.9c0.8-0.6,1.2-1.4,1.2-2.3
			c0-0.9-0.4-1.5-1.1-1.9c-0.8-0.4-2.3-0.8-4.6-1.4c-2.3-0.6-4.1-1.2-5.1-2c-1.1-0.7-1.6-2-1.6-3.8c0-1.7,0.7-3,2-4.1
			c1.3-1.1,3.1-1.6,5.4-1.6c5.2,0,7.9,1.9,8,5.6h-3.5c-0.1-1.9-1.5-2.8-4.2-2.8c-1.2,0-2.2,0.2-3,0.7c-0.8,0.4-1.2,1.1-1.2,2
			c0,0.8,0.3,1.3,0.9,1.7c0.6,0.3,2.1,0.8,4.5,1.4c2.4,0.6,4.2,1.3,5.4,2c1.2,0.8,1.8,2.1,1.8,4c0,1.8-0.7,3.3-2.2,4.5
			C397.4,474.4,395.5,475,393,475z"/>
		<path class="st3" d="M413.2,475c-2.8,0-5.1-0.9-6.8-2.7c-1.7-1.8-2.5-4.4-2.5-7.7c0-3.3,0.8-5.9,2.5-7.7c1.7-1.8,4-2.7,6.8-2.7
			c2.2,0,4,0.5,5.5,1.7c1.5,1.1,2.3,2.7,2.6,4.8h-3.6c-0.1-1.2-0.5-2.1-1.3-2.7c-0.8-0.6-1.9-0.9-3-0.9c-1.7,0-3.1,0.6-4.1,1.9
			c-1.1,1.3-1.6,3.2-1.6,5.7c0,2.5,0.5,4.4,1.6,5.7c1.1,1.3,2.4,1.9,4.1,1.9c1.2,0,2.2-0.3,3-0.9c0.8-0.6,1.3-1.5,1.3-2.7h3.6
			c-0.3,2.1-1.1,3.7-2.6,4.8C417.2,474.5,415.4,475,413.2,475z"/>
		<path class="st3" d="M427.9,457.2c1.8-2,3.7-3,6-3c4.5,0,6.7,2.4,6.7,7.3v13H437v-12.9c0-1.6-0.3-2.8-0.9-3.5
			c-0.6-0.7-1.5-1.1-2.9-1.1c-1.8,0-3.6,1.1-5.4,3.2v14.3h-3.5V447h3.5V457.2z"/>
		<path class="st3" d="M454.2,475c-2.9,0-5.3-0.9-7.1-2.7c-1.8-1.8-2.7-4.4-2.7-7.7c0-3.3,0.9-5.8,2.6-7.6c1.7-1.8,4-2.8,6.7-2.8
			c2.8,0,5.1,0.9,6.8,2.7c1.7,1.8,2.5,4.4,2.5,7.7v0.8h-15c0.1,2.3,0.8,4,1.9,5.1c1.1,1.1,2.5,1.7,4.1,1.7c1.2,0,2.4-0.3,3.4-0.9
			c1-0.6,1.5-1.5,1.6-2.7h3.7c-0.3,2.1-1.2,3.6-2.8,4.7C458.4,474.5,456.5,475,454.2,475z M459.4,462.7c-0.3-1.9-0.9-3.3-1.9-4.3
			c-1-1-2.2-1.4-3.7-1.4c-1.4,0-2.6,0.5-3.6,1.4c-1,0.9-1.7,2.4-1.9,4.3H459.4z"/>
		<path class="st3" d="M470.6,457.2c1.8-2,3.7-3,6-3c4.5,0,6.7,2.4,6.7,7.3v13h-3.5v-12.9c0-1.6-0.3-2.8-0.9-3.5
			c-0.6-0.7-1.5-1.1-2.9-1.1c-1.8,0-3.6,1.1-5.4,3.2v14.3h-3.5v-19.9h3.5V457.2z"/>
		<path class="st3" d="M511.3,472c-1.8,2-3.7,3-5.9,3c-4.5,0-6.7-2.5-6.7-7.4v-13h3.5v12.9c0,1.6,0.3,2.8,0.9,3.5
			c0.6,0.7,1.5,1.1,2.9,1.1c2,0,3.8-1.1,5.4-3.2v-14.3h3.5v19.9h-3.5V472z"/>
		<path class="st3" d="M523.6,457.2c1.8-2,3.7-3,6-3c4.5,0,6.7,2.4,6.7,7.3v13h-3.5v-12.9c0-1.6-0.3-2.8-0.9-3.5
			c-0.6-0.7-1.5-1.1-2.9-1.1c-1.8,0-3.6,1.1-5.4,3.2v14.3h-3.5v-19.9h3.5V457.2z"/>
		<path class="st3" d="M554.1,472.2c-1.6,1.9-3.5,2.9-5.7,2.9c-2.6,0-4.6-0.9-6-2.8c-1.4-1.9-2.1-4.3-2.1-7.5c0-3.3,0.8-5.8,2.4-7.7
			c1.6-1.9,3.6-2.8,6-2.8c2.2,0,4,0.7,5.5,2V447h3.5v27.5h-3.5V472.2z M554.1,468.8v-9.5c-1.5-1.6-3.3-2.4-5.2-2.4
			c-1.5,0-2.7,0.7-3.6,2c-0.9,1.3-1.4,3.3-1.4,5.8c0,2.5,0.4,4.3,1.3,5.6c0.9,1.3,2,1.9,3.6,1.9
			C550.6,472.2,552.4,471.1,554.1,468.8z"/>
		<path class="st3" d="M593.1,450.3h-9.1v24.2h-3.7v-24.2h-9V447h21.8V450.3z"/>
		<path class="st3" d="M605,475c-2.9,0-5.3-0.9-7.1-2.7c-1.8-1.8-2.7-4.4-2.7-7.7c0-3.3,0.9-5.8,2.6-7.6c1.7-1.8,4-2.8,6.7-2.8
			c2.8,0,5.1,0.9,6.8,2.7c1.7,1.8,2.5,4.4,2.5,7.7v0.8h-15c0.1,2.3,0.8,4,1.9,5.1c1.1,1.1,2.5,1.7,4.1,1.7c1.2,0,2.4-0.3,3.4-0.9
			c1-0.6,1.5-1.5,1.6-2.7h3.7c-0.3,2.1-1.2,3.6-2.8,4.7C609.2,474.5,607.2,475,605,475z M610.2,462.7c-0.3-1.9-0.9-3.3-1.9-4.3
			c-1-1-2.2-1.4-3.7-1.4c-1.4,0-2.6,0.5-3.6,1.4c-1,0.9-1.7,2.4-1.9,4.3H610.2z"/>
		<path class="st3" d="M626,475c-2.8,0-5.1-0.9-6.8-2.7c-1.7-1.8-2.5-4.4-2.5-7.7c0-3.3,0.8-5.9,2.5-7.7c1.7-1.8,4-2.7,6.8-2.7
			c2.2,0,4,0.5,5.5,1.7c1.5,1.1,2.3,2.7,2.6,4.8h-3.6c-0.1-1.2-0.5-2.1-1.3-2.7c-0.8-0.6-1.9-0.9-3-0.9c-1.7,0-3.1,0.6-4.1,1.9
			c-1.1,1.3-1.6,3.2-1.6,5.7c0,2.5,0.5,4.4,1.6,5.7c1.1,1.3,2.4,1.9,4.1,1.9c1.2,0,2.2-0.3,3-0.9c0.8-0.6,1.3-1.5,1.3-2.7h3.6
			c-0.3,2.1-1.1,3.7-2.6,4.8C629.9,474.5,628.1,475,626,475z"/>
		<path class="st3" d="M640.6,457.2c1.8-2,3.7-3,6-3c4.5,0,6.7,2.4,6.7,7.3v13h-3.5v-12.9c0-1.6-0.3-2.8-0.9-3.5
			c-0.6-0.7-1.5-1.1-2.9-1.1c-1.8,0-3.6,1.1-5.4,3.2v14.3h-3.5V447h3.5V457.2z"/>
		<path class="st3" d="M662,457.2c1.8-2,3.7-3,6-3c4.5,0,6.7,2.4,6.7,7.3v13h-3.5v-12.9c0-1.6-0.3-2.8-0.9-3.5
			c-0.6-0.7-1.5-1.1-2.9-1.1c-1.8,0-3.6,1.1-5.4,3.2v14.3h-3.5v-19.9h3.5V457.2z"/>
		<path class="st3" d="M687.9,454.2c2.8,0,5.1,0.9,6.8,2.7c1.7,1.8,2.5,4.4,2.5,7.7c0,3.3-0.8,5.9-2.5,7.7c-1.7,1.8-4,2.7-6.8,2.7
			c-2.8,0-5.1-0.9-6.8-2.7c-1.7-1.8-2.5-4.4-2.5-7.7c0-3.3,0.8-5.9,2.5-7.7C682.8,455.1,685.1,454.2,687.9,454.2z M687.9,472.2
			c1.7,0,3.1-0.6,4.1-1.9c1.1-1.3,1.6-3.2,1.6-5.7c0-2.5-0.5-4.4-1.6-5.7c-1.1-1.3-2.4-1.9-4.1-1.9c-1.7,0-3.1,0.6-4.1,1.9
			c-1.1,1.3-1.6,3.2-1.6,5.7c0,2.5,0.5,4.4,1.6,5.7C684.9,471.6,686.2,472.2,687.9,472.2z"/>
		<path class="st3" d="M704.8,474.6h-3.5V447h3.5V474.6z"/>
		<path class="st3" d="M718.1,454.2c2.8,0,5.1,0.9,6.8,2.7c1.7,1.8,2.5,4.4,2.5,7.7c0,3.3-0.8,5.9-2.5,7.7c-1.7,1.8-4,2.7-6.8,2.7
			c-2.8,0-5.1-0.9-6.8-2.7c-1.7-1.8-2.5-4.4-2.5-7.7c0-3.3,0.8-5.9,2.5-7.7C713,455.1,715.2,454.2,718.1,454.2z M718.1,472.2
			c1.7,0,3.1-0.6,4.1-1.9c1.1-1.3,1.6-3.2,1.6-5.7c0-2.5-0.5-4.4-1.6-5.7c-1.1-1.3-2.4-1.9-4.1-1.9c-1.7,0-3.1,0.6-4.1,1.9
			c-1.1,1.3-1.6,3.2-1.6,5.7c0,2.5,0.5,4.4,1.6,5.7C715,471.6,716.4,472.2,718.1,472.2z"/>
		<path class="st3" d="M747.5,473c0,6.4-2.9,9.6-8.7,9.6c-2.5,0-4.5-0.5-5.9-1.6c-1.4-1.1-2.2-2.6-2.2-4.4h3.7
			c0,2.2,1.5,3.3,4.4,3.3c1.7,0,2.9-0.5,3.8-1.4c0.9-0.9,1.4-2.7,1.4-5.3v-1c-1.6,1.9-3.5,2.9-5.7,2.9c-2.6,0-4.6-0.9-6-2.8
			c-1.4-1.9-2.1-4.3-2.1-7.5c0-3.3,0.8-5.8,2.4-7.7c1.6-1.9,3.6-2.8,6-2.8c2.2,0,4,0.7,5.5,2v-1.5h3.5V473z M744,468.8v-9.5
			c-1.5-1.6-3.3-2.4-5.2-2.4c-1.5,0-2.7,0.7-3.6,2c-0.9,1.3-1.4,3.3-1.4,5.8c0,2.5,0.4,4.3,1.3,5.6c0.9,1.3,2,1.9,3.6,1.9
			C740.6,472.2,742.4,471.1,744,468.8z"/>
		<path class="st3" d="M756.3,450.9h-3.5V447h3.5V450.9z M756.3,474.6h-3.5v-19.9h3.5V474.6z"/>
		<path class="st3" d="M770,475c-2.9,0-5.3-0.9-7.1-2.7c-1.8-1.8-2.7-4.4-2.7-7.7c0-3.3,0.9-5.8,2.6-7.6c1.7-1.8,4-2.8,6.7-2.8
			c2.8,0,5.1,0.9,6.8,2.7c1.7,1.8,2.5,4.4,2.5,7.7v0.8h-15c0.1,2.3,0.8,4,1.9,5.1c1.1,1.1,2.5,1.7,4.1,1.7c1.2,0,2.4-0.3,3.4-0.9
			c1-0.6,1.5-1.5,1.6-2.7h3.7c-0.3,2.1-1.2,3.6-2.8,4.7C774.2,474.5,772.3,475,770,475z M775.2,462.7c-0.3-1.9-0.9-3.3-1.9-4.3
			c-1-1-2.2-1.4-3.7-1.4c-1.4,0-2.6,0.5-3.6,1.4c-1,0.9-1.7,2.4-1.9,4.3H775.2z"/>
	</g>
</g>
<g id="Layer_2">
	<g>
		<g>
			<path class="st2" d="M12.7,191.1h49.8c16.1,0,22,11.2,22,21.4c0,9.8-4.7,17-13.5,19.8v0.2c7.1,1,11.3,7.7,11.7,17.1
				c0.7,15,1.1,18.7,3.8,21.9H74c-1.9-2.3-1.9-5.6-2.5-15.3c-0.8-14.4-5.6-18.8-15.6-18.8H24.7v34.2h-12V191.1z M58.1,227
				c11.7,0,14.5-7.1,14.5-12.7c0-7.7-4.6-12.9-14.2-12.9H24.7V227H58.1z"/>
			<path class="st2" d="M96.1,190.4h11.3v31h0.2c5.3-8.2,14.7-10.9,23.1-10.9c14.2,0,24.8,6.1,24.8,20.9v40.3h-11.3v-38
				c0-8.7-5.4-13.6-17.5-13.6c-10.3,0-19.4,6-19.4,17.6v34.1H96.1V190.4z"/>
			<path class="st2" d="M178.6,245.4c0.9,12.2,11.7,18.7,21.8,18.7c6.4,0,15.2-2.1,19.1-10.5h12c-5.6,14.2-18.8,20-30.4,20
				c-23,0-34.3-14.5-34.3-31.6c0-17,11.3-31.6,34.3-31.6c15.6,0,32,9,32,33.5v1.5H178.6z M221,236.6c-1.7-10.7-10-16.7-20.6-16.7
				c-10.4,0-19.7,6.1-21.4,16.7H221z"/>
			<path class="st2" d="M244.5,190.4h11.3v12.4h-11.3V190.4z M244.5,212.5h11.3v59.1h-11.3V212.5z"/>
			<path class="st2" d="M269.5,212.5h11.3v8.9h0.2c5.3-8.2,14.7-10.9,23.1-10.9c14.2,0,24.8,6.1,24.8,20.9v40.3h-11.3v-38
				c0-8.7-5.4-13.6-17.5-13.6c-10.3,0-19.4,6-19.4,17.6v34.1h-11.3V212.5z"/>
			<path class="st3" d="M342.6,191.1H386c15.4,0,23.5,7.2,23.5,19.8c0,7.9-3.6,15.9-15.8,18.5v0.2c15.7,1.6,18.5,13,18.5,19.8
				c0,8.7-4.7,22.1-27,22.1h-42.6V191.1z M347.8,227.6h35.9c4.2,0,20.6,0,20.6-16.4c0-15.7-12.9-15.7-21.4-15.7h-35.1V227.6z
				 M347.8,267.1h36.3c4.1,0,22.9,0,22.9-18c0-16.9-15.3-16.9-24.2-16.9h-35V267.1z"/>
			<path class="st3" d="M423.6,213.8h5.2v13.6h0.2c3.8-10.1,12.6-15.4,23.9-15.4c1.6,0,2.7,0.2,4.3,0.7v5.2c-1.2-0.5-2.7-0.7-6-0.7
				c-15,0-22.4,11.4-22.4,23.1v31.2h-5.2V213.8z"/>
			<path class="st3" d="M519.5,271.6h-5.2v-11.5h-0.2c-3.6,6.9-11.2,13.3-24.4,13.3c-26.5,0-26.5-16.9-26.5-23.9v-35.6h5.2v35.4
				c0,11.7,4.4,19.6,21.4,19.6c17,0,24.5-10.6,24.5-21.3v-33.7h5.2V271.6z M476.9,192.2h5.2v12h-5.2V192.2z M500.8,192.2h5.2v12
				h-5.2V192.2z"/>
			<path class="st3" d="M585.8,232c-0.7-7.3-10.6-15.4-24.5-15.4c-18.3,0-27.4,13-27.4,26.7c0,9.4,6.5,25.6,27.4,25.6
				c11.6,0,22.7-5.5,25.3-17.5h5.2c-3,15.1-15.9,22-30.4,22c-18.9,0-32.6-12.2-32.6-30.1c0-20.3,14.9-31.2,32.6-31.2
				c17.7,0,29,10.1,29.7,20H585.8z"/>
			<path class="st3" d="M601.1,191.1h5.2v53.4l41.2-30.7h7.7l-29.2,21.8l31.9,36h-7.1l-28.9-32.7l-15.6,11.5v21.2h-5.2V191.1z"/>
			<path class="st3" d="M665.6,243.8c0.3,14.4,10.1,25,27.5,25c17.9,0,22.6-11.3,24.6-16.5h5.2c-4.8,14.5-15,21-30.3,21
				c-19.7,0-32.1-12-32.1-31.1c0-12.1,7.7-30.2,32.3-30.2c20.1,0,31.6,13.3,31.8,31.8H665.6z M718.6,239.3
				c-2.1-15.8-13.2-22.8-26.5-22.8c-14.9,0-24.2,9-26.5,22.8H718.6z"/>
		</g>
		<g>
			<path class="st3" d="M343.4,289.1h4.2v28.2h-4.2V289.1z"/>
			<path class="st3" d="M361.5,292.8h-10.7v-3.6h25.5v3.6h-10.7v24.6h-4.2V292.8z"/>
			<path class="st3" d="M415.6,299.3c-0.6-3.9-3.7-7.2-9.6-7.2c-6.7,0-10.9,3.8-10.9,11.5c0,5.3,2.9,10.8,10.7,10.8
				c4.9,0,8.7-2.4,9.9-7.9h4.2c-0.7,6.2-6,11.5-14.1,11.5c-7.1,0-14.8-3.9-14.8-14.9c0-8.2,5.1-14.7,14.8-14.7
				c5.6,0,13.4,2.4,14.1,10.9H415.6z"/>
			<path class="st3" d="M434.9,295.9c8,0,12,5.1,12,11.1c0,6-3.9,11.1-12,11.1c-8.1,0-12-5.1-12-11.1
				C422.9,301,426.9,295.9,434.9,295.9z M434.9,299.2c-5.7,0-7.8,4-7.8,7.7c0,3.7,2.1,7.7,7.8,7.7c5.7,0,7.8-4,7.8-7.7
				C442.7,303.2,440.6,299.2,434.9,299.2z"/>
			<path class="st3" d="M450.7,296.6h4v3.1h0.1c1.9-2.9,5.1-3.8,8.1-3.8c5,0,8.7,2.1,8.7,7.3v14.1h-3.9V304c0-3-1.9-4.8-6.1-4.8
				c-3.6,0-6.8,2.1-6.8,6.2v11.9h-4V296.6z"/>
			<path class="st3" d="M479,310.8c0,1.9,1.5,4.1,6.5,4.1c5.1,0,6.3-1.8,6.3-3.2c0-1.5-0.7-2.3-3.9-2.8l-6.5-0.9
				c-3-0.4-5.6-2.3-5.6-5.5c0-4.2,3.6-6.7,9.4-6.7c6.8,0,9.7,2.9,10.1,6.9h-3.9c-0.1-2.1-2.1-3.9-6.2-3.9c-2.5,0-5.4,0.7-5.4,3.2
				c0,1.4,0.6,2.2,3.4,2.6l5.6,0.8c5.2,0.7,7.2,2.6,7.2,5.5c0,4.8-4.1,7.1-10.4,7.1c-4.7,0-10.1-1.2-10.6-7.2H479z"/>
			<path class="st3" d="M520.3,317.3h-3.9v-3.1h-0.1c-1.9,2.9-5.1,3.8-8.1,3.8c-5,0-8.7-2.1-8.7-7.3v-14.1h3.9v13.3
				c0,3,1.9,4.8,6.1,4.8c3.6,0,6.8-2.1,6.8-6.2v-11.9h3.9V317.3z"/>
			<path class="st3" d="M525,288.9h3.9v28.4H525V288.9z"/>
			<path class="st3" d="M535.4,290.3h4v6.4h5.9v3.1h-5.9v12.7c0,1.7,1.2,2.2,3.2,2.2c0.9,0,1.8-0.1,2.7-0.3v3.3
				c-1.3,0.2-2.8,0.3-4.4,0.3c-3.9,0-5.5-1.9-5.5-4.9v-13.4h-4.3v-3.1h4.3V290.3z"/>
			<path class="st3" d="M548.1,288.9h3.9v4.3h-3.9V288.9z M548.1,296.6h3.9v20.7h-3.9V296.6z"/>
			<path class="st3" d="M556.8,296.6h4v3.1h0.1c1.9-2.9,5.1-3.8,8.1-3.8c5,0,8.7,2.1,8.7,7.3v14.1h-3.9V304c0-3-1.9-4.8-6.1-4.8
				c-3.6,0-6.8,2.1-6.8,6.2v11.9h-4V296.6z"/>
			<path class="st3" d="M600.8,296.6h3.9v18.9c0,7.4-3.6,10.4-12,10.4c-4.5,0-9.6-0.7-10.4-6.4h3.9c0.7,2.7,3.1,3.4,6.9,3.4
				c5.6,0,7.7-2.8,7.7-6.2v-3h-0.1c-2.2,3.2-5.3,3.8-8,3.8c-5.5,0-11.3-3-11.3-10.7c0-7.7,5.8-10.7,11.3-10.7c3.4,0,6.5,1.1,8,3.5
				h0.1V296.6z M593.2,299.5c-4.8,0-7.6,3.2-7.6,7.4c0,4.3,2.8,7.3,7.6,7.3c4.8,0,7.6-3,7.6-7.3
				C600.8,302.6,597.9,299.5,593.2,299.5z"/>
		</g>
		<circle class="st2" cx="198.1" cy="36.4" r="25"/>
		<circle class="st2" cx="298" cy="36.4" r="25"/>
		<circle class="st2" cx="397.9" cy="36.4" r="25"/>
		<circle class="st2" cx="497.8" cy="36.4" r="25"/>
		<circle class="st2" cx="248.1" cy="111.3" r="25"/>
		<circle class="st3" cx="348" cy="111.3" r="25"/>
		<circle class="st2" cx="447.9" cy="111.3" r="25"/>
	</g>
</g>
</svg>
