<?xml version="1.0" encoding="utf-8"?>
<!-- Generator: Adobe Illustrator 20.1.0, SVG Export Plug-In . SVG Version: 6.00 Build 0)  -->
<svg version="1.1" id="Layer_1" xmlns="http://www.w3.org/2000/svg" xmlns:xlink="http://www.w3.org/1999/xlink" x="0px" y="0px"
	 viewBox="0 0 1019.3 264.1" style="enable-background:new 0 0 1019.3 264.1;" xml:space="preserve">
<style type="text/css">
	.st0{fill:#800000;}
	.st1{fill:#7F7F7F;}
	.st2{fill:#1E1B1B;}
	.st3{fill:#FFFFFF;}
</style>
<ellipse transform="matrix(0.6947 -0.7193 0.7193 0.6947 28.1162 267.0743)" class="st0" cx="328.7" cy="100.4" rx="97.5" ry="97.5"/>
<path class="st1" d="M4.6,193.6V4.2h56.6L107,122.6l46-118.4h56.6v189.4h-40.3V57.1l-53.4,136.6H98.3L44.9,57.1v136.6H4.6z"/>
<path class="st1" d="M446.8,193.6V4.2h88.6c19.4,0,34.9,5.7,46.5,17c11.6,11.4,17.4,26,17.4,44c0,7.9-1.2,15.3-3.6,22
	c-2.4,6.8-5.6,12.4-9.7,16.8c-4.1,4.5-8.5,8.2-13.2,11.1c-4.8,2.9-9.8,5-15.2,6.3l42.8,72.1h-46.6l-37.2-67.2h-29.5v67.2H446.8z
	 M487.1,90.9h42.6c8.1,0,14.9-2.3,20.2-7c5.3-4.7,8-11,8-18.9c0-7.7-2.7-13.8-8-18.4c-5.3-4.6-12-6.9-20.2-6.9h-42.6V90.9z"/>
<path class="st1" d="M627.6,193.6V4.2h40.3v153.9h80.3v35.5H627.6z"/>
<path class="st1" d="M775.4,193.6V4.2h40.3v189.4H775.4z"/>
<path class="st1" d="M844.5,193.6V4.2H886l87.8,119V4.2h40.3v189.4h-39L884.9,70.1v123.5H844.5z"/>
<g>
	<path class="st2" d="M463.5,216.3l-0.7,4l-0.7,0.2c-2-1.5-4.3-2.4-6.5-2.4c-4,0-6.2,2.8-6.2,5.4c0,6.6,15,5.9,15,15.5
		c0,5.2-4.4,9.5-11,9.5c-2.8,0-6.1-0.8-8.8-2.3l0.5-4.2l0.6-0.3c2.5,2.5,5.7,3.5,8.1,3.5c4.1,0,6.6-2.7,6.6-5.6c0-7-15-6-15-15.6
		c0-5.1,4.4-9.2,10.7-9.2C458.1,214.8,460.7,215.2,463.5,216.3z"/>
	<path class="st2" d="M481.8,243.9l0.5,0.3l-0.4,2.7c-1.9,0.9-3.4,1.3-5.1,1.5c-3.9-0.8-5.5-2.7-5.5-6.8l0.2-3.7l-0.1-10.7h-3.2
		l-0.2-0.3l0.3-2.4h3.1v-3.8l3.5-1.5l0.4,0.4l-0.1,5h7l0.2,0.3l-0.3,2.4h-6.9l-0.3,14c-0.1,2.8,1,3.7,3.2,3.7
		C479.2,245,480.3,244.7,481.8,243.9z"/>
	<path class="st2" d="M499.1,224.5v4l-0.5,0.2c-0.7-0.2-1.4-0.3-1.8-0.3c-2.2,0-4.1,1.7-5.9,5.7l-0.1,3.6l0.3,10.4h-4l0.3-10
		l-0.3-13.4l3.9-0.4l-0.1,4.9h0.3c2.1-3.7,4.6-4.8,6.6-4.8C498.2,224.4,498.8,224.5,499.1,224.5z"/>
	<path class="st2" d="M518,230.3c0,1.8-0.6,10.9-0.6,12.8c0,1.5,0.4,2,1.6,2c0.4,0,0.9-0.1,1.7-0.3l0.4,0.4l-0.4,2.3
		c-0.9,0.5-1.9,0.9-2.9,1c-2.1-0.2-3.4-1.5-3.5-3.8h-0.4c-1.7,1.8-3.5,3.1-5.5,3.9c-4.6,0-7.3-2.5-7.3-6.5c0-3.1,1.7-4.8,4.8-5.5
		l8.3-2l0.1-3.4c0-2.7-1.5-4.2-4-4.2c-2.3,0-4.6,1.1-7.2,3.4l-0.4-0.2l-0.5-2.9c2.8-2.1,5.8-3.2,8.8-3.2
		C515.3,224.1,518,226.4,518,230.3z M506.8,239c-1.3,0.4-1.9,1-1.9,2.5c0,2.3,1.4,3.6,3.5,3.6c2,0,3.9-1.3,5.7-3.7l0.2-4.2
		L506.8,239z"/>
	<path class="st2" d="M537.8,243.9l0.5,0.3l-0.4,2.7c-1.9,0.9-3.4,1.3-5.1,1.5c-3.9-0.8-5.5-2.7-5.5-6.8l0.2-3.7l-0.1-10.7h-3.2
		L524,227l0.3-2.4h3.1v-3.8l3.5-1.5l0.4,0.4l-0.1,5h7l0.2,0.3l-0.3,2.4h-6.9l-0.3,14c-0.1,2.8,1,3.7,3.2,3.7
		C535.2,245,536.4,244.7,537.8,243.9z"/>
	<path class="st2" d="M544.2,236.2c0,5.6,2.3,9,7,9c2.2,0,4.7-0.8,6.9-2.3l0.5,0.3l-0.4,3.5c-2.2,1.1-4.7,1.9-7.1,1.9
		c-6.7,0-10.7-4.6-10.7-12.1c0-7.6,4.3-12.3,11-12.3c5.1,0,8.1,3.3,8.1,8.9c0,0.6-0.1,1.8-0.1,2.4l-0.9,0.7l-14.3,0.1V236.2z
		 M544.5,233.4l11.3-0.3l0.1-0.6c0-3.7-2-5.4-4.8-5.4C547.5,227,545.2,229.3,544.5,233.4z"/>
	<path class="st2" d="M585.7,226.5c-1.5,0.5-3.1,0.8-4.7,1.1l-0.1,0.2c0.8,1.2,1.1,2.7,1.1,4.4c0,5-3.5,8.2-9.2,8.2
		c-1.2,0-2.3-0.2-3.2-0.4c-1.1,0.9-1.5,1.3-1.5,2c0,3.8,15.2,0.7,15.2,8.3c0,4.4-4.9,7.8-11,7.8c-5.6,0-8.7-2.9-8.7-6.8
		c1-2,2.6-3.3,4.5-4.5v-0.3c-2.2-0.7-3.8-1.8-3.8-4.1c0.7-1.2,1.8-2.3,3.1-3.1v-0.2c-2.2-1.3-3.3-3.6-3.3-6.6c0-5.2,3.6-8.3,9.1-8.3
		c1.8,0,3.3,0.3,4.6,0.9c2.5-0.5,5-1.1,7.4-1.8l0.4,0.3V226.5z M571.2,247.2c-2.5,1.5-3.9,2.9-3.9,4.5c0,1.9,1.9,3.5,5.5,3.5
		c3.9,0,7-1.8,7-4.2C579.7,248.1,575.3,247.9,571.2,247.2z M578.4,232.1c0-3.3-1.8-5.2-5.2-5.2c-3.4,0-5.4,1.9-5.4,5.4
		c0,3.3,1.8,5.3,5.2,5.3C576.4,237.6,578.4,235.5,578.4,232.1z"/>
	<path class="st2" d="M594.3,216.2c0,1.5-0.9,2.5-2.4,2.5c-1.4,0-2.3-0.9-2.3-2.4c0-1.4,0.9-2.4,2.4-2.4
		C593.4,213.9,594.3,214.8,594.3,216.2z M593.9,248.1h-4l0.3-10l-0.3-13.4l4-0.4l-0.3,13.4L593.9,248.1z"/>
	<path class="st2" d="M616.8,225.5l-0.7,3.6l-0.5,0.2c-1.5-1-3.4-1.8-5.3-1.8c-4,0-6.4,3.3-6.4,8.8c0,5.5,2.5,9,6.7,9
		c1.8,0,4-0.7,5.7-1.8l0.5,0.3l-0.5,3.5c-1.8,0.8-4.1,1.3-6.2,1.3c-6.2,0-10-4.6-10-12.1c0-7.6,3.9-12.4,10.4-12.4
		C612.7,224.1,615.1,224.6,616.8,225.5z"/>
	<path class="st2" d="M647.2,216.3l-0.7,4l-0.7,0.2c-2-1.5-4.3-2.4-6.5-2.4c-4,0-6.2,2.8-6.2,5.4c0,6.6,15,5.9,15,15.5
		c0,5.2-4.4,9.5-11,9.5c-2.8,0-6.1-0.8-8.8-2.3l0.5-4.2l0.6-0.3c2.5,2.5,5.7,3.5,8.1,3.5c4.1,0,6.6-2.7,6.6-5.6c0-7-15-6-15-15.6
		c0-5.1,4.4-9.2,10.7-9.2C641.8,214.8,644.4,215.2,647.2,216.3z"/>
	<path class="st2" d="M672.2,236c0,7.9-3.8,12.5-10.7,12.5c-6.4,0-10.1-4.3-10.1-11.9c0-7.9,3.9-12.5,10.7-12.5
		C668.5,224.1,672.2,228.4,672.2,236z M655.3,235.7c0,6.7,2.3,9.9,6.5,9.9c4.3,0,6.6-2.9,6.6-8.7c0-6.6-2.3-10-6.5-10
		C657.6,227,655.3,230,655.3,235.7z"/>
	<path class="st2" d="M695.9,243.1c0,1.4,0.5,2,1.5,2c0.5,0,1-0.1,1.8-0.3l0.4,0.4l-0.4,2.3c-0.9,0.5-1.9,0.9-2.9,1
		c-2.1-0.2-3.3-1.5-3.5-3.6h-0.4c-2.1,1.9-4.3,3.1-6.4,3.6c-5.1,0-7.7-2.5-7.7-7l0.1-6.6l-0.2-10.2l4.1-0.4l-0.3,16.1
		c-0.1,2.8,1.3,4.5,3.9,4.5c2.1,0,4.3-1.1,6.4-3.1v-17.1l3.9-0.4L695.9,243.1z"/>
	<path class="st2" d="M716.8,224.5v4l-0.5,0.2c-0.7-0.2-1.4-0.3-1.8-0.3c-2.2,0-4.1,1.7-5.9,5.7l-0.1,3.6l0.3,10.4h-4l0.3-10
		l-0.3-13.4l3.9-0.4l-0.1,4.9h0.3c2.1-3.7,4.6-4.8,6.6-4.8C715.9,224.4,716.4,224.5,716.8,224.5z"/>
	<path class="st2" d="M735.6,225.5l-0.7,3.6l-0.5,0.2c-1.5-1-3.4-1.8-5.3-1.8c-4,0-6.4,3.3-6.4,8.8c0,5.5,2.5,9,6.7,9
		c1.8,0,4-0.7,5.7-1.8l0.5,0.3l-0.5,3.5c-1.8,0.8-4.1,1.3-6.2,1.3c-6.2,0-10-4.6-10-12.1c0-7.6,3.9-12.4,10.4-12.4
		C731.5,224.1,733.9,224.6,735.6,225.5z"/>
	<path class="st2" d="M745,216.2c0,1.5-0.9,2.5-2.4,2.5c-1.4,0-2.3-0.9-2.3-2.4c0-1.4,0.9-2.4,2.4-2.4
		C744.1,213.9,745,214.8,745,216.2z M744.6,248.1h-4l0.3-10l-0.3-13.4l4-0.4l-0.3,13.4L744.6,248.1z"/>
	<path class="st2" d="M767.5,232.1c0.1-2.7-1.3-4.5-4-4.5c-2.3,0-4.7,1.3-6.9,3.7l-0.1,6.5l0.2,10.4h-4l0.3-10l-0.2-13.4l3.9-0.4
		l-0.1,3.5h0.3c2.2-1.9,4.5-3.1,6.5-3.7c5.2,0,7.9,2.5,7.8,7l-0.1,6.7l0.2,10.3h-4.1L767.5,232.1z"/>
	<path class="st2" d="M799.9,226.5c-1.5,0.5-3.1,0.8-4.7,1.1l-0.1,0.2c0.8,1.2,1.1,2.7,1.1,4.4c0,5-3.5,8.2-9.2,8.2
		c-1.2,0-2.3-0.2-3.2-0.4c-1.1,0.9-1.5,1.3-1.5,2c0,3.8,15.2,0.7,15.2,8.3c0,4.4-4.9,7.8-11,7.8c-5.6,0-8.7-2.9-8.7-6.8
		c1-2,2.6-3.3,4.5-4.5v-0.3c-2.2-0.7-3.8-1.8-3.8-4.1c0.7-1.2,1.8-2.3,3.1-3.1v-0.2c-2.2-1.3-3.3-3.6-3.3-6.6c0-5.2,3.6-8.3,9.1-8.3
		c1.8,0,3.3,0.3,4.6,0.9c2.5-0.5,5-1.1,7.4-1.8l0.4,0.3V226.5z M785.4,247.2c-2.5,1.5-3.9,2.9-3.9,4.5c0,1.9,1.9,3.5,5.5,3.5
		c3.9,0,7-1.8,7-4.2C794,248.1,789.5,247.9,785.4,247.2z M792.6,232.1c0-3.3-1.8-5.2-5.2-5.2c-3.4,0-5.4,1.9-5.4,5.4
		c0,3.3,1.8,5.3,5.2,5.3C790.6,237.6,792.6,235.5,792.6,232.1z"/>
	<path class="st2" d="M829.5,216.3l-0.7,4l-0.7,0.2c-2-1.5-4.3-2.4-6.5-2.4c-4,0-6.2,2.8-6.2,5.4c0,6.6,15,5.9,15,15.5
		c0,5.2-4.4,9.5-11,9.5c-2.8,0-6.1-0.8-8.8-2.3l0.5-4.2l0.6-0.3c2.5,2.5,5.7,3.5,8.1,3.5c4.1,0,6.6-2.7,6.6-5.6c0-7-15-6-15-15.6
		c0-5.1,4.4-9.2,10.7-9.2C824.1,214.8,826.7,215.2,829.5,216.3z"/>
	<path class="st2" d="M841.2,216.2c0,1.5-0.9,2.5-2.4,2.5c-1.4,0-2.3-0.9-2.3-2.4c0-1.4,0.9-2.4,2.4-2.4
		C840.3,213.9,841.2,214.8,841.2,216.2z M840.7,248.1h-4l0.3-10l-0.3-13.4l4-0.4l-0.3,13.4L840.7,248.1z"/>
	<path class="st2" d="M878.3,232.1c0.1-2.7-1.3-4.5-4-4.5c-2.3,0-4.6,1.3-6.8,3.6l-0.1,6.7l0.2,10.3h-4.1l0.3-16.1
		c0.1-2.7-1.3-4.5-4-4.5c-2.3,0-4.7,1.4-6.9,3.7l-0.1,6.5l0.2,10.4h-4l0.3-10l-0.2-13.4l3.9-0.4l-0.1,3.5h0.4
		c2.1-1.9,4.4-3.1,6.5-3.7c3.9,0,6.4,1.4,7.3,3.9h0.3c2.3-2.1,4.8-3.4,7-3.9c5.2,0,7.8,2.5,7.8,7l-0.1,6.7l0.2,10.3H878L878.3,232.1
		z"/>
	<path class="st2" d="M909.4,235.6c0,8.3-4.2,13-11.4,13c-1.4,0-3-0.2-4.5-0.5l0.1,9.6h-4l0.3-19.6l-0.3-13.4l3.9-0.4l-0.1,3.4h0.3
		c2.4-2,4-2.9,6.5-3.5C906.4,224.2,909.4,228.5,909.4,235.6z M905.6,236c-0.1-5.4-2-8.5-5.6-8.5c-2.1,0-4.1,1.1-6.5,3.7l-0.1,6.5
		l0.1,6.5c1.7,0.9,3.4,1.3,5,1.3C902.8,245.5,905.7,242.4,905.6,236z"/>
	<path class="st2" d="M919.9,248.1h-4l0.3-10.1l-0.3-25.8l4-0.4l-0.3,25.9L919.9,248.1z"/>
	<path class="st2" d="M932.7,216.2c0,1.5-0.9,2.5-2.4,2.5c-1.4,0-2.3-0.9-2.3-2.4c0-1.4,0.9-2.4,2.4-2.4
		C931.8,213.9,932.7,214.8,932.7,216.2z M932.3,248.1h-4l0.3-10l-0.3-13.4l4-0.4l-0.3,13.4L932.3,248.1z"/>
	<path class="st2" d="M958,212.8l-0.5,3.4l-0.5,0.2c-2.2-1-3.9-1.6-6-1.6c-3.7,0-5.4,1.8-5.4,5.8l-0.1,3.9h12.6l2.4-0.3l0.3,0.2
		l-0.3,13.5l0.3,10.3h-4.1l0.3-10l-0.2-10.9h-11.3l-0.2,10.5l0.3,10.3h-4l0.3-10l-0.1-10.8h-3.5L938,227l0.3-2.4h3.4v-3.1
		c0-6.6,3-9.6,9.7-9.6C953.6,211.8,955.6,212.1,958,212.8z"/>
	<path class="st2" d="M970.5,236.2c0,5.6,2.3,9,7,9c2.2,0,4.7-0.8,6.9-2.3l0.5,0.3l-0.4,3.5c-2.2,1.1-4.7,1.9-7.1,1.9
		c-6.7,0-10.7-4.6-10.7-12.1c0-7.6,4.3-12.3,11-12.3c5.1,0,8.1,3.3,8.1,8.9c0,0.6-0.1,1.8-0.1,2.4l-0.9,0.7l-14.3,0.1V236.2z
		 M970.7,233.4L982,233l0.1-0.6c0-3.7-2-5.4-4.8-5.4C973.8,227,971.4,229.3,970.7,233.4z"/>
	<path class="st2" d="M1009.3,243.1c0.1,1.4,0.4,2,1.5,2c0.5,0,1-0.1,1.7-0.3l0.4,0.4l-0.4,2.3c-0.9,0.5-1.9,0.9-2.9,1
		c-2.1-0.2-3.3-1.5-3.6-3.6h-0.4c-2,1.8-3.4,2.7-5.6,3.6c-6.8,0-10.4-4.4-10.4-12c0-7.8,4.3-12.3,11.4-12.3c1.4,0,3,0.2,4.5,0.5
		l-0.1-12.3l4-0.4l-0.3,25.9L1009.3,243.1z M993.5,236c0.1,5.7,2.6,8.9,6.5,8.9c1.8,0,3.6-0.8,5.6-3.1l0.1-3.7l-0.1-9.8
		c-1.8-0.8-3.4-1.3-5-1.3C996.3,227,993.4,230,993.5,236z"/>
</g>
<rect x="378.3" y="22.3" transform="matrix(0.7551 -0.6556 0.6556 0.7551 67.5306 265.4583)" class="st0" width="21.5" height="40.2"/>
<g>
	<path class="st3" d="M391.4,42.4c1.8,1.9,3.5,4,5.2,6.3c1.7,2.3,3.4,4.6,5.1,7.1L306.3,143c4.2,2.4,8.8,4.3,13.6,5.6
		c4.8,1.3,9.7,1.7,14.7,1.3c5-0.4,9.9-1.6,14.7-3.6c4.8-2,9.5-5.1,13.9-9.1c5.4-4.9,9.9-10.8,13.6-17.5c3.7-6.8,5.8-13.4,6.5-19.8
		l36,1.6c-2.6,13.8-6.7,25.5-12.3,35.3c-5.6,9.8-12.8,18.7-21.6,26.8c-8.9,8.2-18.8,14.2-29.6,18c-10.8,3.8-21.6,5.5-32.5,5.1
		c-10.9-0.4-21.5-2.9-31.8-7.5c-10.3-4.6-19.4-11.3-27.3-19.9c-7.9-8.7-13.7-18.3-17.4-29c-3.7-10.7-5.2-21.5-4.6-32.4
		c0.6-10.9,3.3-21.6,8-31.9c4.7-10.4,11.4-19.6,20.2-27.6c8.4-7.7,17.9-13.5,28.4-17.5c10.5-4,21.3-5.9,32.2-5.8
		c11,0.1,21.6,2.4,32.1,6.9C373.5,26.3,383,33.2,391.4,42.4z M349.6,59.3c-9.3-5.4-19-7.7-29.2-6.8c-10.2,0.9-19.1,4.8-26.7,11.7
		c-7.4,6.8-12,15.2-13.7,25.2c-1.7,10-0.3,19.9,4.3,29.6L349.6,59.3z"/>
</g>
</svg>
