<?xml version="1.0" encoding="utf-8"?>
<!-- Generator: Adobe Illustrator 20.1.0, SVG Export Plug-In . SVG Version: 6.00 Build 0)  -->
<svg version="1.1" id="Capa_1" xmlns="http://www.w3.org/2000/svg" xmlns:xlink="http://www.w3.org/1999/xlink" x="0px" y="0px"
	 viewBox="0 0 512 512" style="enable-background:new 0 0 512 512;" xml:space="preserve">
<style type="text/css">
	.st0{fill:#7B1315;}
</style>
<g>
	<g>
		<g>
			<path class="st0" d="M511.4,382.7l-9.5-48.3c-3.8-19.4-13.2-37-27.2-51L458,266.8V210c10.4-4.1,17.9-14.3,17.9-26.2
				c0-3.2-0.5-6.3-1.5-9.2c11.8-3.3,20.5-14.2,20.5-27.1c0-3.4-0.6-6.7-1.7-9.7c11-3.8,18.9-14.3,18.9-26.6
				c0-12.3-7.9-22.7-18.9-26.6c1.1-3,1.7-6.3,1.7-9.7c0-15.5-12.6-28.2-28.2-28.2h-56.5c5.2-6.3,7.7-14.7,6.2-23.2
				C415,16,410.8,9.4,404.4,5c-6.4-4.4-14.1-6-21.7-4.5l-48.3,9.5c-19.4,3.8-37,13.2-51,27.2L266.8,54H210
				c-4.1-10.4-14.3-17.9-26.2-17.9c-3.2,0-6.3,0.5-9.2,1.5c-3.3-11.8-14.2-20.5-27.1-20.5c-3.4,0-6.7,0.6-9.7,1.7
				C134,7.9,123.5,0,111.3,0C99,0,88.5,7.9,84.7,18.9c-3-1.1-6.3-1.7-9.7-1.7c-15.5,0-28.2,12.6-28.2,28.2v56.5
				c-6.3-5.2-14.7-7.7-23.2-6.2C16,97,9.4,101.2,5,107.6c-4.4,6.4-6,14.1-4.5,21.7l9.5,48.3c3.8,19.4,13.2,37,27.2,51L54,245.2V302
				c-10.4,4.1-17.9,14.3-17.9,26.2c0,3.2,0.5,6.3,1.5,9.2c-11.8,3.3-20.5,14.2-20.5,27.1c0,3.4,0.6,6.7,1.7,9.7
				C7.9,378,0,388.5,0,400.7c0,12.3,7.9,22.7,18.9,26.6c-1.1,3-1.7,6.3-1.7,9.7c0,15.5,12.6,28.2,28.2,28.2h56.5
				c-5.2,6.3-7.7,14.7-6.2,23.2c1.3,7.6,5.6,14.2,12,18.6c4.8,3.3,10.4,5,16.1,5c1.9,0,3.7-0.2,5.6-0.5l48.3-9.5
				c19.4-3.8,37-13.2,51-27.2l16.7-16.7H302c4.1,10.4,14.3,17.9,26.2,17.9c3.2,0,6.3-0.5,9.2-1.5c3.3,11.8,14.2,20.5,27.1,20.5
				c3.4,0,6.7-0.6,9.7-1.7c3.8,11,14.3,18.9,26.6,18.9c12.3,0,22.7-7.9,26.6-18.9c3,1.1,6.3,1.7,9.7,1.7c15.5,0,28.2-12.6,28.2-28.2
				v-56.5c6.3,5.2,14.7,7.7,23.2,6.2c7.6-1.3,14.2-5.6,18.6-12S512.9,390.3,511.4,382.7z M212,131.8v-27.3V74h59
				c2.7,0,5.2-1.1,7.1-2.9l19.6-19.6c11.1-11.2,25.2-18.7,40.7-21.7l48.3-9.5c2.3-0.4,4.6,0,6.5,1.3s3.2,3.3,3.6,5.6
				c0.8,4.4-2,8.7-6.4,9.8l-20.1,4.9c-6.3,1.5-10.4,7.4-9.6,13.8s6.1,11.2,12.6,11.2h93.4c4.5,0,8.2,3.7,8.2,8.2
				c0,4.2-3.1,7.6-7.2,8.1l-55.3,0.1c-5.5,0-10,4.5-10,10s4.5,10,10,10l71.5-0.1c4.5,0,8.2,3.7,8.2,8.2s-3.7,8.2-8.2,8.2h-71.5
				c-5.5,0-10,4.5-10,10c0,5.5,4.5,10,10,10h55.4c4,0.5,7.2,3.9,7.2,8.1c0,4.5-3.7,8.2-8.2,8.2h-54.4c-5.5,0-10,4.5-10,10
				s4.5,10,10,10h36.4c4,0.5,7.2,3.9,7.2,8.1c0,4.5-3.7,8.2-8.2,8.2h-101c-21.2,0-41-8.3-56-23.2l-12.7-12.7
				c-1.9-1.9-4.4-2.9-7.1-2.9h-59L212,131.8L212,131.8z M51.4,214.4c-11.2-11.1-18.7-25.2-21.7-40.7l-9.5-48.3
				c-0.5-2.3,0-4.6,1.3-6.5s3.3-3.2,5.6-3.6c4.4-0.8,8.7,2,9.8,6.4l4.9,20.1c1.5,6.3,7.4,10.3,13.8,9.6c6.5-0.8,11.2-6.1,11.2-12.6
				V45.3c0-4.5,3.7-8.2,8.2-8.2c4.2,0,7.6,3.1,8.1,7.2l0.1,55.3c0,5.5,4.5,10,10,10s10-4.5,10-10V45.3c0-0.6,0-1.2-0.1-1.8V28.2
				c0-4.5,3.7-8.2,8.2-8.2s8.2,3.7,8.2,8.2v15.4c0,0.6-0.1,1.2-0.1,1.8l0.1,54.4c0,5.5,4.5,10,10,10s10-4.5,10-10V44.4
				c0.5-4,3.9-7.2,8.1-7.2c4.5,0,8.2,3.7,8.2,8.2c0,0,0,48.6,0,49v5.4c0,5.5,4.5,10,10,10s10-4.5,10-10V63.4c0.5-4,3.9-7.2,8.1-7.2
				c4.5,0,8.2,3.7,8.2,8.2v101c0,20.8-8.5,41.3-23.2,56L156.1,234c-1.9,1.9-2.9,4.4-2.9,7.1v59h-20v-26.6c0-5.5-4.5-10-10-10
				s-10,4.5-10,10V300H74v-59c0-2.7-1.1-5.2-2.9-7.1L51.4,214.4z M300,438h-59v0c-2.7,0-5.2,1.1-7.1,2.9l-19.6,19.6
				c-11.1,11.2-25.2,18.7-40.7,21.7l-48.3,9.5c-2.3,0.5-4.6,0-6.5-1.3s-3.2-3.3-3.6-5.6c-0.8-4.4,2-8.7,6.4-9.8l20.1-4.9
				c6.3-1.6,10.3-7.4,9.6-13.8c-0.8-6.5-6.1-11.2-12.6-11.2H45.3c-4.5,0-8.2-3.7-8.2-8.2c0-4.2,3.2-7.6,7.2-8.1l55.3-0.1
				c5.5,0,10-4.5,10-10s-4.5-10-10-10l-71.5,0.1c-4.5,0-8.2-3.7-8.2-8.2c0-4.5,3.7-8.2,8.2-8.2h71.5c5.5,0,10-4.5,10-10
				s-4.5-10-10-10H44.4c-4-0.5-7.2-3.9-7.2-8.1c0-4.5,3.7-8.2,8.2-8.2h54.4c5.5,0,10-4.5,10-10s-4.5-10-10-10H63.4
				c-4-0.5-7.2-3.9-7.2-8.1c0-4.5,3.7-8.2,8.2-8.2h101c21.2,0,41,8.3,56,23.2l12.7,12.7c1.9,1.9,4.4,2.9,7.1,2.9h59V438z
				 M300.3,338.9h-55.1l-9.7-9.8c-16.9-16.9-38.8-27-62.3-28.8v-55.1l9.8-9.7c16.6-16.6,26.9-39,28.8-62.3h55.1l9.7,9.8
				c16.9,16.9,38.8,27,62.3,28.8v55.1l-9.8,9.7C312.2,293.4,302.1,315.3,300.3,338.9z M490.5,393.1c-1.3,1.9-3.3,3.2-5.6,3.6
				c-4.4,0.8-8.7-2-9.8-6.4l-4.9-20.1c-1.6-6.3-7.4-10.3-13.8-9.6c-6.5,0.8-11.2,6.1-11.2,12.6v93.4c0,4.5-3.7,8.2-8.2,8.2
				c-4.2,0-7.6-3.2-8.1-7.2l-0.1-55.3c0-5.5-4.5-10-10-10s-10,4.5-10,10l0.1,71.5c0,4.5-3.7,8.2-8.2,8.2c-4.5,0-8.2-3.7-8.2-8.2
				v-71.5c0-5.5-4.5-10-10-10s-10,4.5-10,10v55.3c-0.5,4-3.9,7.2-8.1,7.2c-4.5,0-8.2-3.7-8.2-8.2v-54.4c0-5.5-4.5-10-10-10
				s-10,4.5-10,10v36.4c-0.5,4-3.9,7.2-8.1,7.2c-4.5,0-8.2-3.7-8.2-8.2v-40.2v-27.3v-33.5c0-21.2,8.3-41,23.2-56l12.7-12.7
				c1.9-1.9,2.9-4.4,2.9-7.1v-59h21.3h17.3v30.3c0,5.5,4.5,10,10,10s10-4.5,10-10V212H438v59c0,2.7,1.1,5.2,2.9,7.1l19.6,19.6
				c11.2,11.1,18.7,25.2,21.7,40.7l9.5,48.3C492.3,388.9,491.8,391.2,490.5,393.1z"/>
		</g>
	</g>
	<g>
		<g>
			<path class="st0" d="M414.5,272.9c-1.9-1.9-4.4-2.9-7.1-2.9c-2.6,0-5.2,1.1-7.1,2.9c-1.9,1.9-2.9,4.4-2.9,7.1
				c0,2.6,1.1,5.2,2.9,7.1c1.9,1.9,4.4,2.9,7.1,2.9s5.2-1.1,7.1-2.9c1.9-1.9,2.9-4.4,2.9-7.1S416.4,274.8,414.5,272.9z"/>
		</g>
	</g>
	<g>
		<g>
			<path class="st0" d="M130.2,228.8c-1.9-1.9-4.4-2.9-7.1-2.9s-5.2,1.1-7.1,2.9c-1.9,1.9-2.9,4.4-2.9,7.1c0,2.6,1.1,5.2,2.9,7.1
				s4.4,2.9,7.1,2.9s5.2-1.1,7.1-2.9c1.9-1.9,2.9-4.4,2.9-7.1C133.1,233.2,132.1,230.6,130.2,228.8z"/>
		</g>
	</g>
</g>
</svg>
