<svg xmlns="http://www.w3.org/2000/svg" width="88.011" height="61.597" viewBox="0 0 88.011 61.597">
  <g id="Group_123" data-name="Group 123" transform="translate(-45 -1867.403)">
    <g id="software_14144253" transform="translate(43.005 1856.403)">
      <path id="Path_58" data-name="Path 58" d="M84.131,58.077V15.4a4.4,4.4,0,0,0-4.4-4.4H12.269a4.4,4.4,0,0,0-4.4,4.4V58.077A7.333,7.333,0,0,0,9.335,72.6H82.665a7.333,7.333,0,0,0,1.467-14.519ZM12.269,13.933H79.732A1.467,1.467,0,0,1,81.2,15.4V57.931H78.265v-39.6A1.467,1.467,0,0,0,76.8,16.866H15.2a1.467,1.467,0,0,0-1.467,1.467v39.6H10.8V15.4A1.467,1.467,0,0,1,12.269,13.933Zm63.063,44H60.182a1.467,1.467,0,0,0-1.467,1l-.572,1.936H33.857l-.645-1.936a1.467,1.467,0,0,0-1.467-1H16.668V19.8H75.332Zm7.333,11.733H9.335a4.4,4.4,0,1,1,0-8.8H30.762l.645,1.936a1.467,1.467,0,0,0,1.393,1H59.2a1.467,1.467,0,0,0,1.467-1l.572-1.936H82.665a4.4,4.4,0,1,1,0,8.8Z" transform="translate(0 0)" fill="#082326"/>
    </g>
    <g id="cloud_1575806" transform="translate(74.801 1881.952)">
      <path id="Path_66" data-name="Path 66" d="M24.619,20.877a3.791,3.791,0,0,0-3.754,3.314H18.65a.838.838,0,0,1-.185-.473V19.931h3.787a3.787,3.787,0,1,0-1.519-7.255,6.616,6.616,0,0,0-2.268-3.969V4.782a.473.473,0,0,1,.473-.473h1.926a3.787,3.787,0,1,0,0-.947H18.939a1.42,1.42,0,0,0-1.42,1.42V8.041a6.62,6.62,0,0,0-6.627-.006V4.782a1.42,1.42,0,0,0-1.42-1.42H7.545a3.787,3.787,0,1,0,0,.947H9.471a.473.473,0,0,1,.473.473V8.7a6.654,6.654,0,0,0-1.476,1.759,4.734,4.734,0,0,0,.055,9.468h1.894v3.787a.473.473,0,0,1-.473.473h-2.4a3.787,3.787,0,1,0,0,.947h2.4a1.42,1.42,0,0,0,1.42-1.42V19.931h6.154v3.787c0,.65.513,1.42.947,1.42h2.4a3.787,3.787,0,1,0,3.754-4.26ZM24.619,1a2.84,2.84,0,1,1-2.84,2.84A2.84,2.84,0,0,1,24.619,1ZM3.79,6.676a2.84,2.84,0,1,1,2.84-2.84A2.84,2.84,0,0,1,3.79,6.676Zm0,20.829a2.84,2.84,0,1,1,2.84-2.84A2.84,2.84,0,0,1,3.79,27.5Zm4.734-8.521a3.787,3.787,0,1,1,0-7.574c.039,0,.076,0,.114.006l.081,0a.457.457,0,0,0,.444-.255,5.673,5.673,0,0,1,10.705,2.3.473.473,0,0,0,.747.361,2.84,2.84,0,1,1,1.637,5.158Zm16.1,8.521a2.84,2.84,0,1,1,2.84-2.84A2.84,2.84,0,0,1,24.619,27.5Zm0,0" transform="translate(0 0)" fill="#16808b" stroke="#16808b" stroke-width="1"/>
      <path id="Path_67" data-name="Path 67" d="M48.524,48.051h.947a.473.473,0,0,1,.473.473v.947a.473.473,0,0,1-.473.473h-.947a.473.473,0,0,1-.473-.473v-.947A.473.473,0,0,1,48.524,48.051Zm0,0" transform="translate(-45.207 -45.162)" fill="#16808b" stroke="#16808b" stroke-width="1"/>
      <path id="Path_68" data-name="Path 68" d="M48.524,400.051h.947a.473.473,0,0,1,.473.473v.947a.473.473,0,0,1-.473.473h-.947a.473.473,0,0,1-.473-.473v-.947A.473.473,0,0,1,48.524,400.051Zm0,0" transform="translate(-45.207 -376.333)" fill="#16808b" stroke="#16808b" stroke-width="1"/>
      <path id="Path_69" data-name="Path 69" d="M400.524,400.051h.947a.473.473,0,0,1,.473.473v.947a.473.473,0,0,1-.473.473h-.947a.473.473,0,0,1-.473-.473v-.947A.473.473,0,0,1,400.524,400.051Zm0,0" transform="translate(-376.379 -376.333)" fill="#16808b" stroke="#16808b" stroke-width="1"/>
      <path id="Path_70" data-name="Path 70" d="M400.524,48.051h.947a.473.473,0,0,1,.473.473v.947a.473.473,0,0,1-.473.473h-.947a.473.473,0,0,1-.473-.473v-.947A.473.473,0,0,1,400.524,48.051Zm0,0" transform="translate(-376.379 -45.162)" fill="#16808b" stroke="#16808b" stroke-width="1"/>
    </g>
  </g>
</svg>
