<svg id="settings_15143160" xmlns="http://www.w3.org/2000/svg" width="67.994" height="68.002" viewBox="0 0 67.994 68.002">
  <path id="Path_199" data-name="Path 199" d="M66.361,40.12l-3.121-1.247a19.669,19.669,0,0,0-1.813-4.364l1.318-3.088a2.417,2.417,0,0,0-.363-2.544,23.452,23.452,0,0,0-2.865-2.866,2.414,2.414,0,0,0-2.542-.365l-3.089,1.319a19.782,19.782,0,0,0-4.363-1.813l-1.247-3.119a2.488,2.488,0,0,0-.68-.929V9.067C47.6,3.173,35.334,0,23.8,0S0,3.173,0,9.067v40.8c0,5.893,12.261,9.067,23.8,9.067.623,0,1.225-.022,1.833-.037a2.337,2.337,0,0,0,.379.631,23.613,23.613,0,0,0,2.865,2.866,2.417,2.417,0,0,0,2.542.365l3.089-1.319a19.782,19.782,0,0,0,4.363,1.813l1.247,3.119a2.467,2.467,0,0,0,2.04,1.537c.706.063,1.413.094,2.1.094a19.857,19.857,0,0,0,1.986-.094,2.47,2.47,0,0,0,2.04-1.539l1.247-3.117a19.782,19.782,0,0,0,4.363-1.813l3.087,1.318a2.422,2.422,0,0,0,2.544-.365,23.525,23.525,0,0,0,2.865-2.865,2.415,2.415,0,0,0,.364-2.541l-1.319-3.092a19.669,19.669,0,0,0,1.8-4.368l3.122-1.247a2.466,2.466,0,0,0,1.531-2.029,20.719,20.719,0,0,0,0-4.1A2.469,2.469,0,0,0,66.361,40.12ZM23.8,2.267c12.693,0,21.533,3.584,21.533,6.8s-8.84,6.8-21.533,6.8S2.267,12.283,2.267,9.067,11.107,2.267,23.8,2.267ZM2.267,13.1c4.07,3.29,13,5.031,21.533,5.031S41.263,16.392,45.333,13.1v7.351a21.468,21.468,0,0,0-3.173.041,2.47,2.47,0,0,0-2.04,1.539L38.873,25.15a19.782,19.782,0,0,0-4.363,1.813l-3.087-1.318a2.412,2.412,0,0,0-2.545.365,23.667,23.667,0,0,0-2.864,2.865,2.336,2.336,0,0,0-.348.549c-.619.018-1.236.043-1.865.043-12.693,0-21.533-3.584-21.533-6.8Zm0,13.6c4.07,3.29,13,5.031,21.533,5.031.662,0,1.312-.026,1.963-.048l1.2,2.82a19.669,19.669,0,0,0-1.807,4.368L22.037,40.12a2.466,2.466,0,0,0-1.531,2.029c-.027.272-.025.546-.041.819-10.93-.581-18.2-3.858-18.2-6.7ZM25.8,56.622c-.661.023-1.32.044-2,.044-12.693,0-21.533-3.584-21.533-6.8v-9.64c2.96,2.481,8.907,4.551,18.184,5,.017.34.017.68.051,1.02a2.466,2.466,0,0,0,1.537,2.04l3.117,1.247A19.669,19.669,0,0,0,26.969,53.9ZM65.641,46.037a.2.2,0,0,1-.121.138l-3.647,1.456a1.133,1.133,0,0,0-.68.781,17.425,17.425,0,0,1-2,4.813,1.133,1.133,0,0,0-.071,1.03l1.544,3.619a.177.177,0,0,1-.014.189,21.419,21.419,0,0,1-2.607,2.607.179.179,0,0,1-.179,0l-3.613-1.542a1.133,1.133,0,0,0-1.029.071,17.413,17.413,0,0,1-4.811,2,1.133,1.133,0,0,0-.781.68L46.18,65.523a.2.2,0,0,1-.151.127,20.045,20.045,0,0,1-3.671,0,.2.2,0,0,1-.137-.124l-1.456-3.647a1.133,1.133,0,0,0-.781-.68,17.414,17.414,0,0,1-4.813-2,1.133,1.133,0,0,0-1.029-.071l-3.615,1.544a.173.173,0,0,1-.192-.017,21.4,21.4,0,0,1-2.6-2.607.178.178,0,0,1,0-.178l1.542-3.615a1.133,1.133,0,0,0-.071-1.03,17.425,17.425,0,0,1-2-4.813,1.133,1.133,0,0,0-.68-.781L22.886,46.18a.206.206,0,0,1-.127-.141v-.012a18.48,18.48,0,0,1,0-3.671.2.2,0,0,1,.121-.138l3.647-1.456a1.133,1.133,0,0,0,.68-.781,17.425,17.425,0,0,1,2-4.813,1.133,1.133,0,0,0,.071-1.03L27.731,30.52a.177.177,0,0,1,.014-.189,21.583,21.583,0,0,1,2.607-2.607.181.181,0,0,1,.179,0l3.613,1.542a1.124,1.124,0,0,0,1.029-.071,17.414,17.414,0,0,1,4.811-2,1.133,1.133,0,0,0,.781-.68l1.455-3.644a.2.2,0,0,1,.151-.127,19.844,19.844,0,0,1,3.671,0,.2.2,0,0,1,.137.124l1.456,3.647a1.133,1.133,0,0,0,.781.68,17.414,17.414,0,0,1,4.813,2,1.124,1.124,0,0,0,1.029.071l3.615-1.544a.175.175,0,0,1,.192.017,21.317,21.317,0,0,1,2.607,2.607.178.178,0,0,1,0,.178l-1.542,3.615a1.133,1.133,0,0,0,.071,1.03,17.425,17.425,0,0,1,2,4.813,1.133,1.133,0,0,0,.68.781l3.641,1.454a.205.205,0,0,1,.128.153,18.48,18.48,0,0,1-.006,3.669Z" fill="#fff"/>
  <path id="Path_200" data-name="Path 200" d="M40.733,26A14.733,14.733,0,1,0,55.466,40.733,14.733,14.733,0,0,0,40.733,26Zm0,27.2A12.467,12.467,0,1,1,53.2,40.733,12.467,12.467,0,0,1,40.733,53.2Z" transform="translate(3.466 3.466)" fill="#4ac8d5"/>
  <path id="Path_201" data-name="Path 201" d="M40.067,31a9.067,9.067,0,1,0,9.067,9.067A9.067,9.067,0,0,0,40.067,31Zm0,15.867a6.8,6.8,0,1,1,6.8-6.8A6.8,6.8,0,0,1,40.067,46.867Z" transform="translate(4.133 4.133)" fill="#4ac8d5"/>
  <path id="Path_202" data-name="Path 202" d="M4.653,19.36c.38.178.781.349,1.2.515a1.133,1.133,0,1,0,.832-2.108q-.56-.221-1.069-.46a1.134,1.134,0,0,0-.961,2.054Z" transform="translate(0.533 2.293)" fill="#fff"/>
  <path id="Path_203" data-name="Path 203" d="M9.879,21.084q.572.135,1.167.254a1.082,1.082,0,0,0,.227.022,1.133,1.133,0,0,0,.227-2.244c-.374-.075-.74-.155-1.1-.238a1.133,1.133,0,1,0-.515,2.207Z" transform="translate(1.197 2.512)" fill="#fff"/>
</svg>
