<svg xmlns="http://www.w3.org/2000/svg" width="47.314" height="47.312" viewBox="0 0 47.314 47.312">
  <g id="speech-bubble_4768834_1_" data-name="speech-bubble_4768834 (1)" transform="translate(0 -0.012)">
    <g id="Page-1_27_" transform="translate(0 0.012)">
      <g id="_x30_28---Repair-Messages" transform="translate(0 0)">
        <path id="Path_76_" d="M105.12,156.569l-8.242,8.243a.789.789,0,1,0,1.115,1.115l8.245-8.243a.789.789,0,1,0-1.115-1.115Z" transform="translate(-87.707 -141.976)" fill="#707070" fill-rule="evenodd"/>
        <path id="Shape_69_" d="M43.371,13.63h-5.52V7.321a3.948,3.948,0,0,0-3.943-3.943H27.021a1.96,1.96,0,0,0-.079-1.08A1.893,1.893,0,0,0,25.3,1.047a8.486,8.486,0,0,0-6.629,2.331H11.853a2.589,2.589,0,0,0-1.062-.867L7.6,1.148a1.656,1.656,0,0,0-1.83.349l-.56.56A1.644,1.644,0,0,0,4.74,3.378h-.8A3.947,3.947,0,0,0,0,7.321V29.4a3.948,3.948,0,0,0,3.943,3.943H5.52v2.224A2.5,2.5,0,0,0,9.34,37.7l.123-.079v2.03A3.948,3.948,0,0,0,13.406,43.6H30.893l7.077,4.353a2.5,2.5,0,0,0,3.823-2.129V43.6h1.577a3.948,3.948,0,0,0,3.943-3.943V17.573a3.947,3.947,0,0,0-3.943-3.943ZM24.546,2.59q.311,0,.626.028a.326.326,0,0,1,.287.225.373.373,0,0,1-.079.4L23.2,5.433a2.357,2.357,0,0,0-.672,1.986l.27,1.924a2.34,2.34,0,0,0,1.989,2l1.936.273a2.356,2.356,0,0,0,1.971-.666l2.2-2.2a.373.373,0,0,1,.394-.079.315.315,0,0,1,.224.276A6.971,6.971,0,0,1,22.02,16.07a.789.789,0,0,0-.846.176l-10.9,10.9a2.322,2.322,0,0,1-3.283-3.284l10.9-10.9a.788.788,0,0,0,.176-.845,6.972,6.972,0,0,1,6.48-9.524ZM21.124,18.519l6.7,6.7a.789.789,0,0,0,1.115-1.115l-6.2-6.2a8.511,8.511,0,0,0,3.4.05l4.48,4.479A3.157,3.157,0,1,1,26.15,26.9l-6.707-6.7Zm-8.008-12.7-.432-.86h4.685a8.49,8.49,0,0,0-1.311,3.839ZM6.33,3.172l.561-.56A.079.079,0,0,1,6.983,2.6l3.18,1.361a1.011,1.011,0,0,1,.487.46l1.111,2.215a.788.788,0,0,0,.144.2l4.252,4.3a8.554,8.554,0,0,0,.264,1.057l-.962.962-4.907-4.97a.788.788,0,0,0-.209-.151l-2.2-1.1a1.008,1.008,0,0,1-.462-.479L6.316,3.266A.084.084,0,0,1,6.33,3.172ZM8.511,36.356A.927.927,0,0,1,7.1,35.567V32.555a.788.788,0,0,0-.789-.789H3.943A2.366,2.366,0,0,1,1.577,29.4V7.321A2.366,2.366,0,0,1,3.943,4.956H5.324L6.23,7.078a2.6,2.6,0,0,0,1.2,1.268l2.09,1.046,4.824,4.889L5.872,22.747a3.9,3.9,0,0,0,5.514,5.514l6.947-6.948,6.708,6.708a4.733,4.733,0,1,0,6.7-6.692l-3.873-3.873A8.517,8.517,0,0,0,33.084,8.8a1.887,1.887,0,0,0-1.262-1.618,1.936,1.936,0,0,0-2.05.453l-2.208,2.2a.762.762,0,0,1-.64.214L25,9.779a.758.758,0,0,1-.646-.651L24.083,7.21a.773.773,0,0,1,.218-.655l1.594-1.6h8.013a2.366,2.366,0,0,1,2.366,2.366V29.4a2.366,2.366,0,0,1-2.366,2.366H16.2a.783.783,0,0,0-.412.117Zm37.226,3.3a2.366,2.366,0,0,1-2.366,2.366H41.005a.788.788,0,0,0-.789.789v3.012a.92.92,0,0,1-.478.811.907.907,0,0,1-.939-.024l-7.27-4.471a.788.788,0,0,0-.412-.117H13.406a2.366,2.366,0,0,1-2.366-2.366v-3l5.38-3.312H33.908A3.948,3.948,0,0,0,37.851,29.4V15.207h5.52a2.366,2.366,0,0,1,2.366,2.366v22.08Z" transform="translate(0 -1.012)" fill="#707070"/>
      </g>
    </g>
  </g>
</svg>
