<svg xmlns="http://www.w3.org/2000/svg" width="48" height="47.99" viewBox="0 0 48 47.99">
  <g id="purpose_7522995" transform="translate(-1.979 -2.004)">
    <path id="Path_1" data-name="Path 1" d="M40,33.782q.018.364,0,.728l1.6.144V32.91l-1.6.144q.018.364,0,.728Z" transform="translate(-7.609 -6.185)" fill="#707070"/>
    <path id="Path_2" data-name="Path 2" d="M17.6,33.776a6.791,6.791,0,0,1,.04-.7l-1.6-.192a7.2,7.2,0,0,0,0,1.792l1.6-.192A6.792,6.792,0,0,1,17.6,33.776Z" transform="translate(-2.802 -6.179)" fill="#707070"/>
    <path id="Path_3" data-name="Path 3" d="M38.79,27.6a10.575,10.575,0,0,0-1.9.176,1.441,1.441,0,0,1,0-.176,3.111,3.111,0,0,1,2.792-3.1.8.8,0,0,0,.7-.96,19.293,19.293,0,0,0-2.752-6.623.8.8,0,0,0-1.176-.184,3.1,3.1,0,0,1-3.511.256l3.343-3.335h3.015a.8.8,0,0,0,.56-.232l6.7-6.7a.8.8,0,0,0-.584-1.36H43.437V2.8a.8.8,0,0,0-1.36-.568l-6.7,6.7a.8.8,0,0,0-.232.56v3.015l-3.335,3.343a3.079,3.079,0,0,1,.256-3.511.8.8,0,0,0-.184-1.168A19.2,19.2,0,0,0,25.256,8.4a.793.793,0,0,0-.96.7,3.119,3.119,0,0,1-6.207,0,.8.8,0,0,0-.96-.7,19.2,19.2,0,0,0-6.623,2.76.8.8,0,0,0-.184,1.168A3.119,3.119,0,0,1,5.939,16.71a.793.793,0,0,0-1.168.184A19.2,19.2,0,0,0,2,23.533a.8.8,0,0,0,.7.96,3.119,3.119,0,0,1,0,6.207.8.8,0,0,0-.7.96,19.2,19.2,0,0,0,2.76,6.623.793.793,0,0,0,1.168.184,3.119,3.119,0,0,1,4.383,4.383.8.8,0,0,0-.168.632.864.864,0,0,0,.352.544,19.293,19.293,0,0,0,6.639,2.768.8.8,0,0,0,.96-.7,3.119,3.119,0,0,1,6.207,0,.788.788,0,0,0,.792.72h.168A19.26,19.26,0,0,0,29.663,45.3,11.2,11.2,0,1,0,38.79,27.6ZM36.7,18.47a17.381,17.381,0,0,1,1.92,4.615A4.7,4.7,0,0,0,35.278,27.6a4.392,4.392,0,0,0,0,.56,11.2,11.2,0,0,0-7.511,8.463,11.038,11.038,0,0,1-6.575,2.176,11.2,11.2,0,0,1,0-22.4,11.062,11.062,0,0,1,7.319,2.744l-2.264,2.264a8,8,0,0,0-12.59,3.527l1.5.528a6.4,6.4,0,0,1,9.95-2.912l-2.32,2.3A3.239,3.239,0,1,0,23.936,26l2.3-2.3a6.335,6.335,0,0,1,1.352,3.9,6.4,6.4,0,0,1-12.43,2.136l-1.5.528a8,8,0,1,0,13.726-7.719l2.272-2.272a11.2,11.2,0,0,1,2.512,5.087l1.6-.32a12.8,12.8,0,0,0-2.975-5.9l.992-.984A4.7,4.7,0,0,0,36.7,18.47ZM22.792,27.6a1.6,1.6,0,1,1-1.6-1.6,1.672,1.672,0,0,1,.408.056l-.976.976,1.136,1.136.976-.976a1.672,1.672,0,0,1,.056.408ZM36.742,9.831l5.1-5.1V6.152a.8.8,0,0,0,.8.8h1.424l-5.1,5.1H36.742ZM25.7,45.026a4.711,4.711,0,0,0-9.022,0,17.6,17.6,0,0,1-4.615-1.912,4.727,4.727,0,0,0-6.4-6.4,17.541,17.541,0,0,1-1.92-4.623,4.711,4.711,0,0,0,0-9.022,17.381,17.381,0,0,1,1.92-4.615,4.727,4.727,0,0,0,6.4-6.4,17.381,17.381,0,0,1,4.615-1.92,4.711,4.711,0,0,0,9.022,0,17.541,17.541,0,0,1,4.623,1.92,4.679,4.679,0,0,0,.312,4.927L29.647,18a12.638,12.638,0,0,0-8.455-3.2,12.8,12.8,0,1,0,6.4,23.868s0,.128,0,.128a11.2,11.2,0,0,0,1.24,5.1A17.158,17.158,0,0,1,25.7,45.026ZM38.79,48.393a9.6,9.6,0,1,1,9.6-9.6A9.6,9.6,0,0,1,38.79,48.393Z" transform="translate(0 0)" fill="#707070"/>
    <path id="Path_4" data-name="Path 4" d="M52,45H48.887l.712-7.119a.8.8,0,0,0-1.368-.648l-8,8A.8.8,0,0,0,40.8,46.6h3.111L43.2,53.715a.8.8,0,0,0,.456.8.752.752,0,0,0,.344.08.8.8,0,0,0,.568-.232l8-8A.8.8,0,0,0,52,45Zm-6.983,6.647.584-5.767a.809.809,0,0,0-.8-.88H42.728l5.055-5.047L47.2,45.716a.809.809,0,0,0,.8.88h2.072Z" transform="translate(-7.61 -7.001)" fill="#707070"/>
  </g>
</svg>
