<svg xmlns="http://www.w3.org/2000/svg" width="50.666" height="50.666" viewBox="0 0 50.666 50.666">
  <g id="group-communication_12629196" transform="translate(-243 -243)">
    <path id="Path_11" data-name="Path 11" d="M246.925,278.411a4.165,4.165,0,1,1,5.865,5.905,7.1,7.1,0,0,1,2.093,1.242,5.93,5.93,0,0,1,2,3.395q.346.191.7.371a.874.874,0,0,1-.653,1.613,3.307,3.307,0,0,1-.9,1.76,3.236,3.236,0,0,1-2.3.967H246.25a3.236,3.236,0,0,1-2.3-.967,3.308,3.308,0,0,1-.947-2.319v-.428a5.8,5.8,0,0,1,2.094-4.392,7.1,7.1,0,0,1,2.093-1.242,4.171,4.171,0,0,1-1.235-4.116q-.2-.367-.377-.739a.874.874,0,0,1,1.35-1.05Zm42.758-.061a23.546,23.546,0,0,0,.96-2.381.874.874,0,0,1,1.654.565,25.521,25.521,0,0,1-1.583,3.665,4.173,4.173,0,0,1-1.235,4.117,7.1,7.1,0,0,1,2.093,1.242,5.8,5.8,0,0,1,2.094,4.392v.428a3.308,3.308,0,0,1-.947,2.319,3.236,3.236,0,0,1-2.3.967h-7.476a3.236,3.236,0,0,1-2.3-.967,3.308,3.308,0,0,1-.947-2.319v-.428a5.8,5.8,0,0,1,2.094-4.392,7.1,7.1,0,0,1,2.093-1.242,4.165,4.165,0,1,1,5.807-5.966Zm-22.4,13.543a23.762,23.762,0,0,1-4.987-.766.873.873,0,1,0-.447,1.689,25.441,25.441,0,0,0,5.355.823.874.874,0,0,0,.079-1.745Zm9.885-1.689a23.39,23.39,0,0,1-4.851,1.379.873.873,0,1,0,.294,1.722,25.14,25.14,0,0,0,5.212-1.482.873.873,0,0,0-.656-1.619Zm-27.179-4.656a5.757,5.757,0,0,1,3.753,1.333,4.07,4.07,0,0,1,1.489,3.07v.428a1.555,1.555,0,0,1-.445,1.093,1.485,1.485,0,0,1-1.059.446H246.25a1.485,1.485,0,0,1-1.059-.446,1.555,1.555,0,0,1-.445-1.093v-.428a4.07,4.07,0,0,1,1.488-3.07A5.757,5.757,0,0,1,249.988,285.548Zm36.689,0a5.757,5.757,0,0,1,3.753,1.333,4.07,4.07,0,0,1,1.489,3.07v.428a1.555,1.555,0,0,1-.445,1.093,1.485,1.485,0,0,1-1.059.446h-7.476a1.485,1.485,0,0,1-1.059-.446,1.555,1.555,0,0,1-.445-1.093v-.428a4.07,4.07,0,0,1,1.489-3.07,5.757,5.757,0,0,1,3.753-1.333Zm-36.689-6.733a2.419,2.419,0,1,1-2.419,2.419A2.42,2.42,0,0,1,249.988,278.815Zm36.689,0a2.419,2.419,0,1,1-2.419,2.419A2.42,2.42,0,0,1,286.677,278.815Zm-24.013-3.183-3.638,3a.874.874,0,0,1-1.43-.663l-.035-3.079a4.07,4.07,0,0,1-3.205-3.973v-6.386a4.069,4.069,0,0,1,4.07-4.065H270.36a4.073,4.073,0,0,1,3.813,2.642h3.913a4.178,4.178,0,0,1,4.223,4.127v6.579a4.16,4.16,0,0,1-3.512,4.069l-.575,2.531a.875.875,0,0,1-1.394.492l-3.754-2.964h-6.617a4.234,4.234,0,0,1-3.794-2.315Zm1.318-8.391a2.431,2.431,0,0,1,2.476-2.382h11.629a2.431,2.431,0,0,1,2.476,2.382v6.579a2.431,2.431,0,0,1-2.476,2.382.873.873,0,0,0-.852.68l-.41,1.8-2.9-2.294a.877.877,0,0,0-.542-.188h-6.921a2.431,2.431,0,0,1-2.476-2.382Zm8.212-4.127a2.318,2.318,0,0,0-1.834-.9H258.426a2.322,2.322,0,0,0-2.323,2.319v6.386a2.322,2.322,0,0,0,2.323,2.319.873.873,0,0,1,.874.863l.023,2.024,2.913-2.4v-6.482a4.178,4.178,0,0,1,4.223-4.127Zm-26.773,10.839a23.45,23.45,0,0,1-.667-5,.873.873,0,1,0-1.746.044,25.15,25.15,0,0,0,.717,5.371.873.873,0,1,0,1.7-.417ZM291.806,266a23.628,23.628,0,0,1-.048,5.045.873.873,0,0,0,1.735.2,25.288,25.288,0,0,0,.052-5.418.873.873,0,1,0-1.738.17Zm-25.547,4.963h1.747a.873.873,0,1,0,0-1.745H266.26a.873.873,0,1,0,0,1.745Zm5.241,0h1.747a.873.873,0,1,0,0-1.745H271.5a.873.873,0,1,0,0,1.745Zm5.241,0h1.543a.873.873,0,1,0,0-1.745h-1.543a.873.873,0,1,0,0,1.745ZM244.706,259.2a25.459,25.459,0,0,0-1.255,4.395.874.874,0,1,0,1.716.328,23.8,23.8,0,0,1,1.261-4.328h7.3a3.236,3.236,0,0,0,2.3-.967,3.308,3.308,0,0,0,.947-2.319v-.428a5.8,5.8,0,0,0-2.094-4.392,7.1,7.1,0,0,0-2.093-1.242,4.166,4.166,0,1,0-5.6,0,7.1,7.1,0,0,0-2.093,1.242A5.8,5.8,0,0,0,243,255.883v.428a3.308,3.308,0,0,0,.947,2.319,3.269,3.269,0,0,0,.759.573Zm45.538.394q.292.73.532,1.47a.873.873,0,1,0,1.661-.539q-.216-.668-.473-1.329a3.248,3.248,0,0,0,.754-.57,3.308,3.308,0,0,0,.947-2.319v-.428a5.8,5.8,0,0,0-2.094-4.392,7.1,7.1,0,0,0-2.093-1.242,4.166,4.166,0,1,0-5.6,0,7.1,7.1,0,0,0-2.093,1.242,5.8,5.8,0,0,0-2.094,4.392v.428a3.308,3.308,0,0,0,.947,2.319,3.236,3.236,0,0,0,2.3.967Zm-40.255-8.117a5.757,5.757,0,0,1,3.753,1.333,4.07,4.07,0,0,1,1.488,3.07v.428a1.555,1.555,0,0,1-.445,1.093,1.485,1.485,0,0,1-1.059.446H246.25a1.485,1.485,0,0,1-1.059-.446,1.555,1.555,0,0,1-.445-1.093v-.428a4.07,4.07,0,0,1,1.489-3.07,5.757,5.757,0,0,1,3.753-1.333Zm36.689,0a5.757,5.757,0,0,1,3.753,1.333,4.07,4.07,0,0,1,1.489,3.07v.428a1.555,1.555,0,0,1-.445,1.093,1.485,1.485,0,0,1-1.059.446h-7.476a1.485,1.485,0,0,1-1.059-.446,1.555,1.555,0,0,1-.445-1.093v-.428a4.07,4.07,0,0,1,1.488-3.07,5.757,5.757,0,0,1,3.753-1.333Zm-36.689-6.733a2.419,2.419,0,1,1-2.419,2.419A2.42,2.42,0,0,1,249.988,244.747Zm36.689,0a2.419,2.419,0,1,1-2.419,2.419A2.42,2.42,0,0,1,286.677,244.747Zm-10.669,1.288a23.641,23.641,0,0,1,4.569,2.138.874.874,0,0,0,.9-1.495,25.409,25.409,0,0,0-4.907-2.3.874.874,0,1,0-.568,1.653Zm-19.51,1.9a23.581,23.581,0,0,1,4.608-2.054.874.874,0,0,0-.536-1.663,25.418,25.418,0,0,0-4.949,2.206.874.874,0,1,0,.877,1.511Zm9.546-3.076a23.626,23.626,0,0,1,5.045.056.873.873,0,0,0,.205-1.735,25.343,25.343,0,0,0-5.418-.06.874.874,0,0,0,.168,1.739Z" fill="#707070" fill-rule="evenodd"/>
  </g>
</svg>
