<svg xmlns="http://www.w3.org/2000/svg" width="56.001" height="56.063" viewBox="0 0 56.001 56.063">
  <g id="Layer_35" transform="translate(-5 -5)">
    <g id="Group_155" data-name="Group 155" transform="translate(5 5)">
      <g id="Group_154" data-name="Group 154">
        <path id="Path_204" data-name="Path 204" d="M57.516,45.993H55.9V43.94A5.55,5.55,0,0,0,50.361,38.4H45.383V36.784A3.479,3.479,0,0,0,41.9,33.3H24.1a3.479,3.479,0,0,0-3.484,3.484V38.4H15.64A5.55,5.55,0,0,0,10.1,43.94v2.053H8.484A3.479,3.479,0,0,0,5,49.478v11.2a3.479,3.479,0,0,0,3.484,3.484H10.1v2.053a5.55,5.55,0,0,0,5.538,5.538h34.72A5.55,5.55,0,0,0,55.9,66.216V64.163h1.618A3.479,3.479,0,0,0,61,60.678v-11.2a3.479,3.479,0,0,0-3.484-3.484ZM22.485,36.784A1.647,1.647,0,0,1,24.1,35.167H41.9a1.647,1.647,0,0,1,1.618,1.618V38.4H22.485Zm-14,25.449a1.647,1.647,0,0,1-1.618-1.618v-11.2A1.647,1.647,0,0,1,8.484,47.8H10.1V62.171H8.484Zm45.547,3.92a3.678,3.678,0,0,1-3.671,3.671H15.64a3.678,3.678,0,0,1-3.671-3.671V43.94a3.678,3.678,0,0,1,3.671-3.671h34.72a3.678,3.678,0,0,1,3.671,3.671Zm5.1-5.538a1.647,1.647,0,0,1-1.618,1.618H55.9V47.86h1.618a1.647,1.647,0,0,1,1.618,1.618Z" transform="translate(-5 -15.691)" fill="#707070"/>
        <path id="Path_205" data-name="Path 205" d="M53.827,49.3H23.96a3.346,3.346,0,0,0-3.36,3.36v16.8a3.346,3.346,0,0,0,3.36,3.36h8.213a3.346,3.346,0,0,0,3.36-3.36V67.78a1.514,1.514,0,0,1,1.493-1.493H40.7a1.514,1.514,0,0,1,1.493,1.493v1.68a3.346,3.346,0,0,0,3.36,3.36h8.276a3.346,3.346,0,0,0,3.36-3.36V52.66a3.346,3.346,0,0,0-3.36-3.36ZM31.676,51.167H46.049v1.369A1.381,1.381,0,0,1,44.68,53.9H33.107a1.436,1.436,0,0,1-1.431-1.369ZM55.32,69.522a1.514,1.514,0,0,1-1.493,1.493H45.614a1.514,1.514,0,0,1-1.493-1.493V67.78a3.346,3.346,0,0,0-3.36-3.36H37.089a3.346,3.346,0,0,0-3.36,3.36v1.68a1.514,1.514,0,0,1-1.493,1.493H23.96a1.514,1.514,0,0,1-1.493-1.493V52.66a1.514,1.514,0,0,1,1.493-1.493h5.849v1.369a3.267,3.267,0,0,0,3.3,3.236H44.68a3.253,3.253,0,0,0,3.236-3.236V51.167h5.911A1.514,1.514,0,0,1,55.32,52.66Z" transform="translate(-10.893 -21.735)" fill="#707070"/>
        <path id="Path_206" data-name="Path 206" d="M51.052,18.037a.936.936,0,0,0,.684-.249.9.9,0,0,0,0-1.307,6.873,6.873,0,0,0-9.707,0,.924.924,0,1,0,1.307,1.307,5,5,0,0,1,7.031,0A1.846,1.846,0,0,0,51.052,18.037Z" transform="translate(-18.883 -8.579)" fill="#707070"/>
        <path id="Path_207" data-name="Path 207" d="M36.774,10.04a10.816,10.816,0,0,1,15.307,0,1.066,1.066,0,0,0,1.369,0,.9.9,0,0,0,0-1.307A12.571,12.571,0,0,0,44.49,5a12.362,12.362,0,0,0-8.96,3.733.9.9,0,0,0,0,1.307.831.831,0,0,0,1.244,0Z" transform="translate(-16.428 -5)" fill="#707070"/>
        <path id="Path_208" data-name="Path 208" d="M48.5,24.733a.933.933,0,1,0,.933-.933A.916.916,0,0,0,48.5,24.733Z" transform="translate(-21.433 -12.102)" fill="#707070"/>
      </g>
    </g>
  </g>
</svg>
