<svg xmlns="http://www.w3.org/2000/svg" width="44.06" height="53.665" viewBox="0 0 44.06 53.665">
  <path id="organizational_17940819" d="M76.243,37.391l-.649-.649A8.27,8.27,0,0,0,76.316,35h.918a.734.734,0,0,0,.723-.609,9.987,9.987,0,0,0,0-3.42.734.734,0,0,0-.723-.608h-.919a8.328,8.328,0,0,0-.721-1.74l.649-.649a.734.734,0,0,0,.081-.941A9.889,9.889,0,0,0,73.9,24.616a.734.734,0,0,0-.941.083l-.646.648a8.262,8.262,0,0,0-1.74-.721v-.918a.734.734,0,0,0-.609-.723,10.041,10.041,0,0,0-3.421,0,.734.734,0,0,0-.609.723v.918a8.251,8.251,0,0,0-1.74.721l-.646-.648a.734.734,0,0,0-.941-.083,9.891,9.891,0,0,0-2.422,2.419.734.734,0,0,0,.081.941l.649.649a8.266,8.266,0,0,0-.722,1.741H59.28a.734.734,0,0,0-.723.608,9.987,9.987,0,0,0,0,3.42A.734.734,0,0,0,59.28,35H60.2a8.338,8.338,0,0,0,.721,1.737l-.649.649a.734.734,0,0,0-.081.941,9.9,9.9,0,0,0,2.422,2.422.734.734,0,0,0,.941-.083l.647-.649a8.38,8.38,0,0,0,1.739.721v.919a.734.734,0,0,0,.608.723,9.994,9.994,0,0,0,3.421,0,.734.734,0,0,0,.608-.723v-.919a8.385,8.385,0,0,0,1.739-.721l.647.649a.734.734,0,0,0,.941.083,9.9,9.9,0,0,0,2.422-2.422A.734.734,0,0,0,76.243,37.391Zm-1.219-3.271a6.83,6.83,0,0,1-.969,2.335.734.734,0,0,0,.1.919l.6.6a8.416,8.416,0,0,1-1.2,1.205l-.6-.6a.734.734,0,0,0-.919-.1,6.938,6.938,0,0,1-2.341.97.734.734,0,0,0-.581.718v.852a8.523,8.523,0,0,1-1.7,0V40.17a.734.734,0,0,0-.581-.718,6.935,6.935,0,0,1-2.341-.97.734.734,0,0,0-.919.1l-.6.6a8.416,8.416,0,0,1-1.2-1.205l.6-.6a.734.734,0,0,0,.1-.919,6.891,6.891,0,0,1-.97-2.337.734.734,0,0,0-.718-.581H59.92c-.029-.285-.043-.57-.043-.853s.014-.567.043-.85h.852a.734.734,0,0,0,.718-.584,6.823,6.823,0,0,1,.969-2.337.734.734,0,0,0-.1-.919l-.6-.6a8.41,8.41,0,0,1,1.2-1.2l.6.6a.734.734,0,0,0,.921.1,6.82,6.82,0,0,1,2.337-.969.734.734,0,0,0,.583-.718v-.852a8.515,8.515,0,0,1,1.7,0V25.2a.734.734,0,0,0,.583.718,6.819,6.819,0,0,1,2.337.969.734.734,0,0,0,.921-.1l.6-.6a8.406,8.406,0,0,1,1.2,1.2l-.6.6a.734.734,0,0,0-.1.919,6.888,6.888,0,0,1,.97,2.339.734.734,0,0,0,.718.582h.852c.028.283.043.567.043.85s-.014.568-.043.853h-.851A.734.734,0,0,0,75.024,34.119Zm-6.769-6.567a5.131,5.131,0,1,0,5.134,5.131A5.137,5.137,0,0,0,68.255,27.553Zm0,8.794a3.663,3.663,0,1,1,3.666-3.663A3.667,3.667,0,0,1,68.255,36.347Zm18,8.733a6.258,6.258,0,0,0,1.608-3.346,4.636,4.636,0,0,0,1.341-5.224,5.694,5.694,0,0,0-1.4-2.079c.023-.4.035-.783.035-1.152A19.594,19.594,0,0,0,74.6,14.743a4.269,4.269,0,0,0-3.263-1.819,6.256,6.256,0,0,0,1.612-3.352,4.634,4.634,0,0,0,1.34-5.221A6.3,6.3,0,0,0,67.91.511a6.689,6.689,0,0,0-4.952,2.23A5.09,5.09,0,0,0,62,6.906c0,.016.006.031.01.047a5.3,5.3,0,0,0,1.322,2.672,6.2,6.2,0,0,0,1.6,3.32,4.272,4.272,0,0,0-3.021,1.8A19.593,19.593,0,0,0,48.679,33.278c0,.308.008.625.022.945a4.993,4.993,0,0,0-.657.674,5.091,5.091,0,0,0-.957,4.168c0,.016.006.031.01.047a5.323,5.323,0,0,0,1.319,2.67,6.2,6.2,0,0,0,1.6,3.32,4.275,4.275,0,0,0-3.786,4.241v4.091a.734.734,0,0,0,.734.734H59.72a.734.734,0,0,0,.734-.734V51.24a19.63,19.63,0,0,0,15.616,0v2.193a.734.734,0,0,0,.734.734H89.558a.734.734,0,0,0,.734-.734V49.342a4.275,4.275,0,0,0-4.033-4.262ZM83.682,48.5l-.5.7-.5-.7.183-1.96H83.5Zm-4.008-7.15a9.064,9.064,0,0,1,.219-2.438,4.824,4.824,0,0,1,.356-.836,6.931,6.931,0,0,0,4.028,1.153c1.719.107,2.131.226,2.206,1.155,0,.067,0,.147,0,.23A4.407,4.407,0,0,1,83.954,44.9a.73.73,0,0,0-.076.025,2.691,2.691,0,0,1-.818.129C81.4,45.052,79.949,43.463,79.675,41.351Zm8.112-1.888c-.521-1.516-2.107-1.615-3.417-1.7-1.331-.083-2.706-.168-3.7-1.3a.734.734,0,0,0-.552-.25h-.015a.734.734,0,0,0-.556.272,6.076,6.076,0,0,0-1.062,2c0,.012-.007.023-.01.035-.031.119-.059.243-.085.37-.008-.033-.017-.065-.025-.1a3.612,3.612,0,0,1,.659-2.978,5.783,5.783,0,0,1,7.516-.55.751.751,0,0,0,.068.057,4.261,4.261,0,0,1,1.223,1.7A3.088,3.088,0,0,1,87.786,39.462ZM68.759,16.342l-.5.7-.5-.7.109-1.174c.13,0,.262,0,.4,0s.263,0,.39,0ZM64.1,3.659a5.242,5.242,0,0,1,3.879-1.682,4.842,4.842,0,0,1,4.932,2.892,3.085,3.085,0,0,1-.051,2.438c-.521-1.515-2.106-1.615-3.415-1.7-1.331-.083-2.707-.169-3.7-1.3a.734.734,0,0,0-.552-.25h-.015a.734.734,0,0,0-.556.272,6.094,6.094,0,0,0-1.062,1.995c0,.012-.007.024-.011.037-.031.119-.059.243-.085.369-.008-.033-.017-.065-.025-.1A3.61,3.61,0,0,1,64.1,3.659Zm.651,5.533a9.115,9.115,0,0,1,.216-2.438,4.9,4.9,0,0,1,.357-.835,6.934,6.934,0,0,0,4.029,1.155c1.718.107,2.129.227,2.2,1.156,0,.073.007.152.007.227a5.714,5.714,0,0,1-.034.618.738.738,0,0,0-.009.079c-.259,2.116-1.68,3.739-3.389,3.739-1.659,0-3.108-1.589-3.382-3.7Zm.661,5.193H66.46l-.2,2.095a.735.735,0,0,0,.135.5l1.26,1.75a.734.734,0,0,0,1.191,0l1.26-1.75a.734.734,0,0,0,.135-.5l-.193-2.1H71.1A2.8,2.8,0,0,1,73.47,15.7a.746.746,0,0,0,.046.076,2.779,2.779,0,0,1,.384,1.411v3.357H62.613V17.184A2.779,2.779,0,0,1,63,15.764c.01-.016.02-.032.029-.049A2.8,2.8,0,0,1,65.415,14.385ZM49.19,35.815a5.235,5.235,0,0,1,3.878-1.679A4.844,4.844,0,0,1,58,37.028a3.085,3.085,0,0,1-.05,2.435c-.521-1.517-2.107-1.617-3.418-1.7-1.331-.083-2.706-.168-3.7-1.3a.734.734,0,0,0-1.123.022,6.076,6.076,0,0,0-1.062,2c0,.012-.007.023-.01.035-.031.119-.059.243-.085.369-.008-.033-.017-.065-.025-.1a3.612,3.612,0,0,1,.659-2.978Zm.647,5.537a9.187,9.187,0,0,1,.219-2.439,4.828,4.828,0,0,1,.356-.836,6.931,6.931,0,0,0,4.028,1.153c1.719.107,2.131.226,2.206,1.155,0,.067,0,.147,0,.23A4.407,4.407,0,0,1,54.115,44.9a.712.712,0,0,0-.075.025,2.692,2.692,0,0,1-.819.129c-1.66,0-3.111-1.588-3.385-3.7ZM53.844,48.5l-.5.7-.5-.7.183-1.96h.642Zm5.141,4.2H47.7V49.342a2.8,2.8,0,0,1,2.8-2.8h1.045l-.2,2.1a.734.734,0,0,0,.135.5l1.26,1.75a.734.734,0,0,0,1.191,0l1.26-1.75a.734.734,0,0,0,.135-.5l-.195-2.1h1.048a2.8,2.8,0,0,1,2.8,2.8V52.7Zm9.276-1.307a17.9,17.9,0,0,1-7.808-1.767v-.283a4.275,4.275,0,0,0-4.032-4.262,6.257,6.257,0,0,0,1.608-3.346,4.634,4.634,0,0,0,1.343-5.223A6.3,6.3,0,0,0,53,32.67a7.951,7.951,0,0,0-2.848.652c0-.015,0-.03,0-.044A18.078,18.078,0,0,1,61.187,16.593a4.275,4.275,0,0,0-.042.59v4.091a.734.734,0,0,0,.734.734H74.634a.734.734,0,0,0,.734-.734V17.184a4.266,4.266,0,0,0-.042-.593,18.076,18.076,0,0,1,11.05,16.687c0,.042,0,.085,0,.127a6.883,6.883,0,0,0-3.54-.736A6.682,6.682,0,0,0,77.883,34.9a5.091,5.091,0,0,0-.957,4.168c0,.016.006.031.01.047a5.323,5.323,0,0,0,1.319,2.67,6.2,6.2,0,0,0,1.6,3.32,4.275,4.275,0,0,0-3.786,4.241v.283a17.9,17.9,0,0,1-7.808,1.767ZM88.824,52.7H77.537V49.342a2.8,2.8,0,0,1,2.8-2.8h1.045l-.2,2.1a.734.734,0,0,0,.135.5l1.26,1.75a.734.734,0,0,0,1.191,0l1.26-1.75a.734.734,0,0,0,.135-.5l-.195-2.1h1.048a2.8,2.8,0,0,1,2.8,2.8V52.7Z" transform="translate(-46.231 -0.502)" fill="#707070"/>
</svg>
