<svg xmlns="http://www.w3.org/2000/svg" width="68.001" height="68.001" viewBox="0 0 68.001 68.001">
  <g id="predictive-analysis_12122443" transform="translate(-1 -1)">
    <path id="Path_189" data-name="Path 189" d="M39.784,54.178H38.139V48.694h1.645V46.5H34.3v2.194h1.645v5.484H34.3v2.194h5.484Z" transform="translate(3.223 4.404)" fill="#4ac8d5"/>
    <path id="Path_190" data-name="Path 190" d="M26.95,56.371l.483-2.194h2.874l.483,2.194h2.248L31.03,47.355a1.093,1.093,0,0,0-1.075-.855H27.762a1.114,1.114,0,0,0-1.075.855L24.68,56.371h2.248Zm1.711-7.678H29.1l.735,3.29h-1.9l.735-3.29Z" transform="translate(2.292 4.404)" fill="#4ac8d5"/>
    <path id="Path_191" data-name="Path 191" d="M33.162,65.323A13.162,13.162,0,1,0,20,52.162,13.172,13.172,0,0,0,33.162,65.323Zm0-24.13A10.968,10.968,0,1,1,22.194,52.162,10.986,10.986,0,0,1,33.162,41.194Z" transform="translate(1.839 3.678)" fill="#fff"/>
    <path id="Path_192" data-name="Path 192" d="M46,50H64.646v2.194H46Z" transform="translate(4.356 4.743)" fill="#fff"/>
    <path id="Path_193" data-name="Path 193" d="M1,50H19.646v2.194H1Z" transform="translate(0 4.743)" fill="#fff"/>
    <path id="Path_194" data-name="Path 194" d="M12.774,50.226V26.1a1.1,1.1,0,0,0-1.1-1.1H5.1A1.1,1.1,0,0,0,4,26.1v24.13H6.194V27.194h4.387V50.226Z" transform="translate(0.29 2.323)" fill="#fff"/>
    <path id="Path_195" data-name="Path 195" d="M28.774,39.033V17.1a1.1,1.1,0,0,0-1.1-1.1H21.1A1.1,1.1,0,0,0,20,17.1V42.323h2.194V18.194h4.387V39.033Z" transform="translate(1.839 1.452)" fill="#fff"/>
    <path id="Path_196" data-name="Path 196" d="M43.678,22H37.1A1.1,1.1,0,0,0,36,23.1V39.549h2.194V24.194h4.387V41.742h2.194V23.1A1.1,1.1,0,0,0,43.678,22Z" transform="translate(3.388 2.033)" fill="#fff"/>
    <path id="Path_197" data-name="Path 197" d="M60.774,51.582V12.1a1.1,1.1,0,0,0-1.1-1.1H53.1A1.1,1.1,0,0,0,52,12.1V51.582h2.194V13.194h4.387V51.582Z" transform="translate(4.937 0.968)" fill="#fff"/>
    <path id="Path_198" data-name="Path 198" d="M43.388,13.065a3.237,3.237,0,0,0-2.5,1.185L29.13,9.84V9.785a3.29,3.29,0,0,0-6.581,0,3.12,3.12,0,0,0,.055.559L10.44,17.189a3.274,3.274,0,1,0,1.141,2.468,3.12,3.12,0,0,0-.055-.559l12.163-6.844a3.272,3.272,0,0,0,2.15.823,3.237,3.237,0,0,0,2.5-1.185L40.1,16.3v.055a3.29,3.29,0,1,0,6.581,0,3.567,3.567,0,0,0-.121-.845L59.006,6.945a3.284,3.284,0,1,0-1.36-2.654,3.567,3.567,0,0,0,.121.845L45.318,13.7A3.283,3.283,0,0,0,43.388,13.065ZM8.29,20.742a1.1,1.1,0,1,1,1.1-1.1A1.1,1.1,0,0,1,8.29,20.742Zm17.549-9.871a1.1,1.1,0,1,1,1.1-1.1A1.1,1.1,0,0,1,25.839,10.871Zm17.549,6.581a1.1,1.1,0,1,1,1.1-1.1A1.1,1.1,0,0,1,43.388,17.452ZM60.937,3.194a1.1,1.1,0,1,1-1.1,1.1A1.1,1.1,0,0,1,60.937,3.194Z" transform="translate(0.387)" fill="#4ac8d5"/>
  </g>
</svg>
