<svg xmlns="http://www.w3.org/2000/svg" width="50.769" height="44" viewBox="0 0 50.769 44">
  <g id="Icon" transform="translate(-2 -6)">
    <path id="Path_10" data-name="Path 10" d="M50.231,6H4.538A2.541,2.541,0,0,0,2,8.538V47.462A2.541,2.541,0,0,0,4.538,50H50.231a2.541,2.541,0,0,0,2.538-2.538V8.538A2.541,2.541,0,0,0,50.231,6ZM4.538,7.692H50.231a.847.847,0,0,1,.846.846v5.923H3.692V8.538A.847.847,0,0,1,4.538,7.692ZM50.231,48.308H4.538a.847.847,0,0,1-.846-.846V16.154H51.077V47.462A.847.847,0,0,1,50.231,48.308ZM46.846,13.615a2.538,2.538,0,1,0-2.538-2.538A2.538,2.538,0,0,0,46.846,13.615Zm0-3.385a.846.846,0,1,1-.846.846A.846.846,0,0,1,46.846,10.231Zm-5.923,3.385a2.538,2.538,0,1,0-2.538-2.538A2.538,2.538,0,0,0,40.923,13.615Zm0-3.385a.846.846,0,1,1-.846.846A.846.846,0,0,1,40.923,10.231Zm-33.846.846a.846.846,0,0,1,.846-.846H33.308a.846.846,0,0,1,0,1.692H7.923a.846.846,0,0,1-.846-.846ZM26.538,21.231H24.846a1.694,1.694,0,0,0-1.692,1.692v1.692a1.694,1.694,0,0,0,1.692,1.692h1.692a1.694,1.694,0,0,0,1.692-1.692V22.923A1.694,1.694,0,0,0,26.538,21.231Zm-1.692,3.385V22.923h1.692v1.692Zm23.692-.846a.846.846,0,0,1-.846.846H29.923a.846.846,0,0,1,0-1.692H47.692a.846.846,0,0,1,.846.846Zm-22,3.385H24.846a1.694,1.694,0,0,0-1.692,1.692v1.692a1.694,1.694,0,0,0,1.692,1.692h1.692a1.694,1.694,0,0,0,1.692-1.692V28.846a1.694,1.694,0,0,0-1.692-1.692Zm-1.692,3.385V28.846h1.692v1.692Zm23.692-.846a.846.846,0,0,1-.846.846H29.923a.846.846,0,0,1,0-1.692H47.692a.846.846,0,0,1,.846.846Zm-22,3.385H24.846a1.694,1.694,0,0,0-1.692,1.692v1.692a1.694,1.694,0,0,0,1.692,1.692h1.692a1.694,1.694,0,0,0,1.692-1.692V34.769A1.694,1.694,0,0,0,26.538,33.077Zm-1.692,3.385V34.769h1.692v1.692Zm23.692-.846a.846.846,0,0,1-.846.846H29.923a.846.846,0,0,1,0-1.692H47.692a.846.846,0,0,1,.846.846ZM26.538,39H24.846a1.694,1.694,0,0,0-1.692,1.692v1.692a1.694,1.694,0,0,0,1.692,1.692h1.692a1.694,1.694,0,0,0,1.692-1.692V40.692A1.694,1.694,0,0,0,26.538,39Zm-1.692,3.385V40.692h1.692v1.692Zm23.692-.846a.846.846,0,0,1-.846.846H29.923a.846.846,0,0,1,0-1.692H47.692a.846.846,0,0,1,.846.846ZM19.985,26.685a8.79,8.79,0,0,1-4.95-2.775,1.721,1.721,0,0,0-2.377,0,8.791,8.791,0,0,1-4.95,2.775,1.7,1.7,0,0,0-1.477,1.677v3.73c0,5.566,6.954,8.958,7.25,9.1a.845.845,0,0,0,.73,0c.3-.141,7.25-3.533,7.25-9.1v-3.73A1.7,1.7,0,0,0,19.985,26.685Zm-.216,5.407c0,3.857-4.579,6.646-5.923,7.381-1.344-.735-5.923-3.524-5.923-7.381l.007-3.73a10.457,10.457,0,0,0,5.916-3.248,10.448,10.448,0,0,0,5.923,3.248Zm-6.9,1.194,2.966-3.948a.846.846,0,1,1,1.354,1.016l-3.55,4.725a.847.847,0,0,1-.616.336l-.061,0a.846.846,0,0,1-.6-.246L10.276,33.1a.846.846,0,1,1,1.193-1.2Z" fill="#707070"/>
  </g>
</svg>
