<svg xmlns="http://www.w3.org/2000/svg" width="88.011" height="61.597" viewBox="0 0 88.011 61.597">
  <g id="Group_122" data-name="Group 122" transform="translate(-49.989 -1678.403)">
    <g id="Group_121" data-name="Group 121" transform="translate(8349 3130)">
      <g id="software_14144253" transform="translate(-8301.006 -1462.597)">
        <path id="Path_58" data-name="Path 58" d="M84.131,58.077V15.4a4.4,4.4,0,0,0-4.4-4.4H12.269a4.4,4.4,0,0,0-4.4,4.4V58.077A7.333,7.333,0,0,0,9.335,72.6H82.665a7.333,7.333,0,0,0,1.467-14.519ZM12.269,13.933H79.732A1.467,1.467,0,0,1,81.2,15.4V57.931H78.265v-39.6A1.467,1.467,0,0,0,76.8,16.866H15.2a1.467,1.467,0,0,0-1.467,1.467v39.6H10.8V15.4A1.467,1.467,0,0,1,12.269,13.933Zm63.063,44H60.182a1.467,1.467,0,0,0-1.467,1l-.572,1.936H33.857l-.645-1.936a1.467,1.467,0,0,0-1.467-1H16.668V19.8H75.332Zm7.333,11.733H9.335a4.4,4.4,0,1,1,0-8.8H30.762l.645,1.936a1.467,1.467,0,0,0,1.393,1H59.2a1.467,1.467,0,0,0,1.467-1l.572-1.936H82.665a4.4,4.4,0,1,1,0,8.8Z" transform="translate(0 0)" fill="#082326"/>
      </g>
      <g id="Group_120" data-name="Group 120" transform="translate(-8346.554 -3105.858)">
        <path id="Path_62" data-name="Path 62" d="M33.216,14.295a1.275,1.275,0,0,1-.839-2.02,1.655,1.655,0,0,0-.143-2.172L30.8,8.664a1.654,1.654,0,0,0-2.17-.144A1.28,1.28,0,0,1,26.6,7.683,1.657,1.657,0,0,0,24.967,6.25H22.932A1.656,1.656,0,0,0,21.3,7.683a1.275,1.275,0,0,1-2.021.838,1.658,1.658,0,0,0-2.171.144L15.664,10.1a1.655,1.655,0,0,0-.144,2.17,1.276,1.276,0,0,1-.838,2.022,1.656,1.656,0,0,0-1.433,1.637v2.035A1.656,1.656,0,0,0,14.683,19.6a1.277,1.277,0,0,1,.838,2.021,1.656,1.656,0,0,0,.143,2.171L17.1,25.234a1.652,1.652,0,0,0,2.17.144,1.275,1.275,0,0,1,2.021.837,1.657,1.657,0,0,0,1.637,1.434h2.035A1.656,1.656,0,0,0,26.6,26.216a1.277,1.277,0,0,1,2.02-.839,1.655,1.655,0,0,0,2.172-.143L32.234,23.8a1.654,1.654,0,0,0,.144-2.17,1.282,1.282,0,0,1,.838-2.022,1.657,1.657,0,0,0,1.433-1.637V15.932a1.656,1.656,0,0,0-1.433-1.637Zm-.06,3.672a.16.16,0,0,1-.138.157,2.784,2.784,0,0,0-1.824,4.409.157.157,0,0,1-.015.207L29.74,24.179a.163.163,0,0,1-.209.014,2.786,2.786,0,0,0-4.407,1.825.16.16,0,0,1-.157.138H22.932a.159.159,0,0,1-.156-.138,2.786,2.786,0,0,0-4.409-1.825.159.159,0,0,1-.208-.014L16.72,22.74a.16.16,0,0,1-.014-.209,2.783,2.783,0,0,0-1.825-4.407.16.16,0,0,1-.138-.157V15.932a.16.16,0,0,1,.138-.157,2.785,2.785,0,0,0,1.825-4.408.159.159,0,0,1,.014-.208L18.159,9.72a.16.16,0,0,1,.208-.014A2.783,2.783,0,0,0,22.775,7.88a.159.159,0,0,1,.156-.137h2.035a.16.16,0,0,1,.157.138,2.786,2.786,0,0,0,4.409,1.824.156.156,0,0,1,.207.015l1.439,1.439a.159.159,0,0,1,.014.209,2.788,2.788,0,0,0,1.825,4.407.16.16,0,0,1,.138.157v2.035Z" transform="translate(67.365 1666.233)" fill="#16808b" stroke="#16808b" stroke-width="1"/>
        <path id="Path_63" data-name="Path 63" d="M23.973,11.25A5.723,5.723,0,1,0,29.7,16.973,5.729,5.729,0,0,0,23.973,11.25Zm0,9.953a4.23,4.23,0,1,1,4.23-4.23A4.235,4.235,0,0,1,23.973,21.2Z" transform="translate(67.341 1666.21)" fill="#16808b" stroke="#16808b" stroke-width="1"/>
        <path id="Path_64" data-name="Path 64" d="M34.342,26.669a14.132,14.132,0,0,1-19.8.973H15.5a.747.747,0,0,0,0-1.493H12.683a.747.747,0,0,0-.746.746v2.815a.747.747,0,0,0,1.493,0V28.656a15.636,15.636,0,0,0,22.011-.975.747.747,0,0,0-1.1-1.011Z" transform="translate(67.371 1666.139)" fill="#16808b" stroke="#16808b" stroke-width="1"/>
        <path id="Path_65" data-name="Path 65" d="M13.546,7.3a14.132,14.132,0,0,1,19.8-.973H32.39a.748.748,0,0,0,0,1.493H35.2a.747.747,0,0,0,.746-.746V4.258a.747.747,0,0,0-1.493,0V5.313a15.636,15.636,0,0,0-22.011.975c-.632.688.444,1.722,1.1,1.011Z" transform="translate(67.369 1666.257)" fill="#16808b" stroke="#16808b" stroke-width="1"/>
      </g>
    </g>
  </g>
</svg>
