<svg id="online-shopping_1170687" xmlns="http://www.w3.org/2000/svg" width="42" height="42" viewBox="0 0 42 42">
  <path id="Path_100" data-name="Path 100" d="M38.309,0H3.691A3.7,3.7,0,0,0,0,3.691V38.309A3.7,3.7,0,0,0,3.691,42H38.309A3.7,3.7,0,0,0,42,38.309V3.691A3.7,3.7,0,0,0,38.309,0ZM3.691,2.461H38.309a1.232,1.232,0,0,1,1.23,1.23V9.926H2.461V3.691A1.232,1.232,0,0,1,3.691,2.461ZM38.309,39.539H3.691a1.232,1.232,0,0,1-1.23-1.23V12.387H39.539V38.309A1.232,1.232,0,0,1,38.309,39.539Zm0,0" fill="#707070"/>
  <path id="Path_101" data-name="Path 101" d="M63.461,61.23A1.23,1.23,0,1,1,62.23,60,1.23,1.23,0,0,1,63.461,61.23Zm0,0" transform="translate(-55.996 -55.078)" fill="#707070"/>
  <path id="Path_102" data-name="Path 102" d="M123.461,61.23A1.23,1.23,0,1,1,122.23,60,1.23,1.23,0,0,1,123.461,61.23Zm0,0" transform="translate(-111.074 -55.078)" fill="#707070"/>
  <path id="Path_103" data-name="Path 103" d="M183.461,61.23A1.23,1.23,0,1,1,182.23,60,1.23,1.23,0,0,1,183.461,61.23Zm0,0" transform="translate(-166.152 -55.078)" fill="#707070"/>
  <path id="Path_104" data-name="Path 104" d="M302.23,62.461h9.844a1.23,1.23,0,0,0,0-2.461H302.23a1.23,1.23,0,0,0,0,2.461Zm0,0" transform="translate(-276.309 -55.078)" fill="#707070"/>
  <path id="Path_105" data-name="Path 105" d="M81.918,184.461H68.6l-.239-1.433A1.231,1.231,0,0,0,67.152,182H62.23a1.23,1.23,0,0,0,0,2.461h3.88l1.347,8.081a3.69,3.69,0,0,0,2.157,6.685h9.844a1.23,1.23,0,0,0,0-2.461H69.613a1.23,1.23,0,0,1,0-2.461h9.844a1.231,1.231,0,0,0,1.167-.841l2.461-7.383A1.231,1.231,0,0,0,81.918,184.461Zm-3.348,7.383H69.835l-.82-4.922h11.2Zm0,0" transform="translate(-55.996 -167.07)" fill="#707070"/>
  <path id="Path_106" data-name="Path 106" d="M367.152,212H362.23a1.23,1.23,0,0,0,0,2.461h4.922a1.23,1.23,0,0,0,0-2.461Zm0,0" transform="translate(-331.387 -194.609)" fill="#707070"/>
  <path id="Path_107" data-name="Path 107" d="M367.152,272H362.23a1.23,1.23,0,0,0,0,2.461h4.922a1.23,1.23,0,0,0,0-2.461Zm0,0" transform="translate(-331.387 -249.688)" fill="#707070"/>
  <path id="Path_108" data-name="Path 108" d="M367.152,332H362.23a1.23,1.23,0,0,0,0,2.461h4.922a1.23,1.23,0,0,0,0-2.461Zm0,0" transform="translate(-331.387 -304.766)" fill="#707070"/>
  <path id="Path_109" data-name="Path 109" d="M367.152,392H362.23a1.23,1.23,0,0,0,0,2.461h4.922a1.23,1.23,0,0,0,0-2.461Zm0,0" transform="translate(-331.387 -359.844)" fill="#707070"/>
  <path id="Path_110" data-name="Path 110" d="M151,394.461A2.461,2.461,0,1,0,153.461,392,2.464,2.464,0,0,0,151,394.461Zm0,0" transform="translate(-138.613 -359.844)" fill="#707070"/>
  <path id="Path_111" data-name="Path 111" d="M241,394.461A2.461,2.461,0,1,0,243.461,392,2.464,2.464,0,0,0,241,394.461Zm0,0" transform="translate(-221.23 -359.844)" fill="#707070"/>
</svg>
