<svg xmlns="http://www.w3.org/2000/svg" width="48" height="44" viewBox="0 0 48 44">
  <path id="tool_13857032" d="M53.667,13.028h-40a4,4,0,0,0-4,4v32a4.005,4.005,0,0,0,4,4h15v2h-4a1,1,0,1,0,0,2h18a1,1,0,1,0,0-2h-4v-2h12.71a1,1,0,1,0,0-2H13.667a2.006,2.006,0,0,1-2-2v-4h44v3a1,1,0,1,0,2,0v-31A4,4,0,0,0,53.667,13.028Zm-42,4a2,2,0,0,1,2-2h40a2,2,0,0,1,2,2v26h-44Zm25,38h-6v-2h6Zm19.46-4.021a1.006,1.006,0,0,1-.3,1.39,1.021,1.021,0,0,1-.54.151.988.988,0,0,1-.84-.46,1.057,1.057,0,0,1-.074-.146,1.045,1.045,0,0,1-.066-.6,1.012,1.012,0,0,1,.43-.62.01.01,0,0,0,.01-.011,1.022,1.022,0,0,1,1.278.173.9.9,0,0,1,.1.127Zm-21.46-3.98a1,1,0,1,1,0,2h-2a1,1,0,0,1,0-2Zm-19-16.5v-5.5a1,1,0,1,1,2,0v5.5a1.517,1.517,0,0,0,3.034,0v-5.5a1,1,0,1,1,2,0v5.5a3.517,3.517,0,0,1-7.034,0Zm8.939,2.05,1.787-3.55-1.787-3.55a1,1,0,1,1,1.786-.9l1.12,2.225,1.12-2.225a1,1,0,1,1,1.786.9l-1.788,3.55,1.788,3.55a1,1,0,1,1-1.786.9l-1.12-2.225-1.12,2.225a1,1,0,0,1-1.786-.9Zm18.229-7.55v5.5a1.517,1.517,0,0,0,3.034,0v-5.5a1,1,0,1,1,2,0v5.5a3.517,3.517,0,0,1-7.034,0v-5.5a1,1,0,0,1,2,0Zm8.832,0v8a1,1,0,1,1-2,0v-8a1,1,0,1,1,2,0ZM33.215,36.969a1,1,0,0,1-.6-1.279l5.033-14a1,1,0,0,1,1.882.677l-5.033,14a1,1,0,0,1-1.279.6ZM51.667,18.028a1,1,0,0,1-1,1h-34a1,1,0,0,1,0-2h34A1,1,0,0,1,51.667,18.028Zm0,22a1,1,0,0,1-1,1h-34a1,1,0,0,1,0-2h34A1,1,0,0,1,51.667,40.028Z" transform="translate(-9.667 -13.028)" fill="#707070"/>
</svg>
