<svg xmlns="http://www.w3.org/2000/svg" width="46" height="46" viewBox="0 0 46 46">
  <g id="mobile-shopping_962843" transform="translate(-0.002)">
    <g id="Group_112" data-name="Group 112" transform="translate(0.002)">
      <g id="Group_111" data-name="Group 111" transform="translate(0)">
        <path id="Path_27" data-name="Path 27" d="M216.769,433.533h3.067a.767.767,0,1,0,0-1.533h-3.067a.767.767,0,0,0,0,1.533Z" transform="translate(-195.302 -390.6)" fill="#707070"/>
        <path id="Path_28" data-name="Path 28" d="M96.769,11.5a.767.767,0,0,0,.767-.767v-4.6h24.533v6.133a.767.767,0,1,0,1.533,0v-9.2c0-1.38-1.769-3.067-3.833-3.067H99.835A3.838,3.838,0,0,0,96,3.833v6.9A.767.767,0,0,0,96.769,11.5Zm.767-7.667a2.3,2.3,0,0,1,2.3-2.3h19.933a2.385,2.385,0,0,1,2.3,1.533V4.6H97.535Z" transform="translate(-86.802)" fill="#707070"/>
        <path id="Path_29" data-name="Path 29" d="M122.835,352a.767.767,0,0,0-.767.767V356.6H97.535v-3.067a.767.767,0,0,0-1.533,0v6.9a3.838,3.838,0,0,0,3.833,3.833h19.933a3.838,3.838,0,0,0,3.833-3.833v-7.667A.767.767,0,0,0,122.835,352Zm-.767,8.433a2.3,2.3,0,0,1-2.3,2.3H99.835a2.3,2.3,0,0,1-2.3-2.3v-2.3h24.533Z" transform="translate(-86.802 -318.267)" fill="#707070"/>
        <path id="Path_30" data-name="Path 30" d="M202.3,24h-1.533a.767.767,0,0,0,0,1.533H202.3a.767.767,0,0,0,0-1.533Z" transform="translate(-180.835 -21.7)" fill="#707070"/>
        <path id="Path_31" data-name="Path 31" d="M250.3,24h-1.533a.767.767,0,1,0,0,1.533H250.3a.767.767,0,1,0,0-1.533Z" transform="translate(-224.235 -21.7)" fill="#707070"/>
        <path id="Path_32" data-name="Path 32" d="M226.659,108.877h0a.767.767,0,0,0-.59-.277H205.945l-.391-2.637A2.315,2.315,0,0,0,203.279,104H200v1.533h3.277a.767.767,0,0,1,.759.655l2.679,18.082a2.315,2.315,0,0,0,2.275,1.963h1.884a2.286,2.286,0,0,0,4.318,0h3.349a2.3,2.3,0,1,0,0-1.533h-3.349a2.286,2.286,0,0,0-4.318,0h-1.884a.772.772,0,0,1-.759-.655l-.244-1.645h15.78a.767.767,0,0,0,.753-.625l2.3-12.267A.767.767,0,0,0,226.659,108.877ZM220.7,124.7a.767.767,0,1,1-.767.767A.767.767,0,0,1,220.7,124.7Zm-7.667,0a.767.767,0,1,1-.767.767A.767.767,0,0,1,213.035,124.7Zm10.1-3.833h-15.37l-1.589-10.733h18.976Z" transform="translate(-180.835 -94.033)" fill="#707070"/>
        <path id="Path_33" data-name="Path 33" d="M19.935,145.967a9.967,9.967,0,1,0-9.967,9.967A9.967,9.967,0,0,0,19.935,145.967Zm-18.4,0A8.433,8.433,0,1,1,9.969,154.4,8.433,8.433,0,0,1,1.535,145.967Z" transform="translate(-0.002 -122.967)" fill="#707070"/>
        <path id="Path_34" data-name="Path 34" d="M75.835,181.033v-.876a3.061,3.061,0,0,0-.767-6.024A1.533,1.533,0,1,1,76.6,172.6a.767.767,0,1,0,1.533,0,3.067,3.067,0,0,0-2.3-2.958v-.876a.767.767,0,1,0-1.533,0v.876a3.061,3.061,0,0,0,.767,6.024,1.533,1.533,0,1,1-1.533,1.533.767.767,0,0,0-1.533,0,3.067,3.067,0,0,0,2.3,2.958v.876a.767.767,0,1,0,1.533,0Z" transform="translate(-65.102 -151.9)" fill="#707070"/>
        <path id="Path_35" data-name="Path 35" d="M280.769,177.533H291.5a.767.767,0,0,0,0-1.533H280.769a.767.767,0,0,0,0,1.533Z" transform="translate(-253.169 -159.133)" fill="#707070"/>
        <path id="Path_36" data-name="Path 36" d="M416.769,177.533H418.3a.767.767,0,1,0,0-1.533h-1.533a.767.767,0,0,0,0,1.533Z" transform="translate(-376.135 -159.133)" fill="#707070"/>
      </g>
    </g>
  </g>
</svg>
