<svg xmlns="http://www.w3.org/2000/svg" width="46.129" height="49.333" viewBox="0 0 46.129 49.333">
  <g id="timer_562244" transform="translate(-16.63)">
    <g id="Group_97" data-name="Group 97" transform="translate(16.63 28.521)">
      <g id="Group_96" data-name="Group 96" transform="translate(0)">
        <path id="Path_15" data-name="Path 15" d="M57.586,304.4a3.724,3.724,0,0,0-4.749-.432l-.036.026-3.69,2.8a3.315,3.315,0,0,0-.885-1.662,2.872,2.872,0,0,0-2.044-.847H40.589a1.913,1.913,0,0,1-1.361-.563l-5.126-5.15a5.743,5.743,0,0,0-4.088-1.693H22.579a.963.963,0,0,0-.959-.88H17.594a.964.964,0,0,0-.964.964v17.151a.964.964,0,0,0,.964.964H21.62a.964.964,0,0,0,.964-.964V313.1l7.3,3.615a.964.964,0,0,0,.428.1H47.9a.964.964,0,0,0,.6-.209l8.81-7a3.5,3.5,0,0,0,.28-5.205Zm-36.93,7.148v1.606h-2.1V297.927h2.1Zm36.026-4.586a1.554,1.554,0,0,1-.58,1.139l-8.542,6.788H30.538l-7.954-3.938v-12.14h7.43a3.828,3.828,0,0,1,2.724,1.127l5.126,5.15a3.829,3.829,0,0,0,2.725,1.129h5.594a.957.957,0,0,1,.681.282,1.476,1.476,0,0,1,.4,1.074,1.278,1.278,0,0,1-.331.89.964.964,0,0,0,1.239,1.473l5.779-4.392a1.8,1.8,0,0,1,2.276.22A1.558,1.558,0,0,1,56.683,306.959Z" transform="translate(-16.63 -296)" fill="#707070"/>
      </g>
    </g>
    <g id="Group_99" data-name="Group 99" transform="translate(28.661 38.16)">
      <g id="Group_98" data-name="Group 98" transform="translate(0)">
        <path id="Path_16" data-name="Path 16" d="M153.587,399.067h-5.5a5.258,5.258,0,0,1-3.743-1.55l-1.2-1.2a.964.964,0,0,0-1.363,1.363l1.2,1.2a7.173,7.173,0,0,0,5.105,2.115h5.5a.964.964,0,0,0,0-1.927Z" transform="translate(-141.497 -396.035)" fill="#707070"/>
      </g>
    </g>
    <g id="Group_101" data-name="Group 101" transform="translate(43.256 41.191)">
      <g id="Group_100" data-name="Group 100">
        <path id="Path_17" data-name="Path 17" d="M294.869,428.271a.971.971,0,0,0-.055-.18.945.945,0,0,0-.089-.167.954.954,0,0,0-.267-.266.983.983,0,0,0-.166-.089,1,1,0,0,0-.18-.056.954.954,0,0,0-.377,0,.976.976,0,0,0-.18.056.946.946,0,0,0-.433.355.953.953,0,0,0-.089.167.98.98,0,0,0-.055.18.925.925,0,0,0,0,.376.974.974,0,0,0,.055.18.954.954,0,0,0,.089.167.923.923,0,0,0,.12.146.955.955,0,0,0,.146.12,1.029,1.029,0,0,0,.167.089.9.9,0,0,0,.18.055.948.948,0,0,0,.188.019.965.965,0,0,0,.189-.019.921.921,0,0,0,.18-.055.981.981,0,0,0,.166-.089.912.912,0,0,0,.146-.12.967.967,0,0,0,.283-.681A.948.948,0,0,0,294.869,428.271Z" transform="translate(-292.96 -427.495)" fill="#707070"/>
      </g>
    </g>
    <g id="Group_103" data-name="Group 103" transform="translate(32.444)">
      <g id="Group_102" data-name="Group 102" transform="translate(0)">
        <path id="Path_18" data-name="Path 18" d="M210.782,9.625a.964.964,0,0,0,0-1.363l-3.117-3.117a.963.963,0,0,0-1.363,0l-2.149,2.149a15,15,0,0,0-4.615-2.06,3.945,3.945,0,1,0-7.455,0,15.074,15.074,0,1,0,16.488,6.6Zm-3.8-2.435,1.754,1.754-1.3,1.3A15.106,15.106,0,0,0,205.7,8.47ZM195.812,1.927A2.017,2.017,0,0,1,197.6,4.872l-.127-.013-.229-.024-.17-.015L196.8,4.8l-.132-.008q-.176-.01-.352-.016l-.065,0c-.145,0-.291-.007-.437-.007s-.292,0-.437.007l-.058,0q-.181.006-.361.016l-.125.008-.288.021-.161.014-.243.025-.119.012a2.017,2.017,0,0,1,1.792-2.945Zm13.136,17.9A13.136,13.136,0,1,1,193.784,6.851q.2-.031.406-.056l.123-.014c.142-.016.285-.031.428-.042l.027,0q.249-.019.5-.029l.043,0q.5-.019,1,0l.048,0q.247.01.492.029l.042,0c.137.011.273.025.41.04l.133.015q.2.025.4.055A13.157,13.157,0,0,1,208.948,19.83Z" transform="translate(-180.749)" fill="#707070"/>
      </g>
    </g>
    <g id="Group_105" data-name="Group 105" transform="translate(36.966 9.29)">
      <g id="Group_104" data-name="Group 104">
        <path id="Path_19" data-name="Path 19" d="M238.226,96.413c-.08,0-.16,0-.239,0a10.541,10.541,0,1,0,10.78,10.592v-.055A10.552,10.552,0,0,0,238.226,96.413Zm5.791,16.917a8.613,8.613,0,1,1-6.754-14.935v8.613a.964.964,0,0,0,.964.964h8.552A8.645,8.645,0,0,1,244.017,113.33Zm-4.827-7.286v-7.65l.034,0c.11.013.22.027.329.044l.034.006q.159.025.316.056l.039.007c.106.021.211.045.316.071l.062.015q.153.038.3.082l.059.017c.1.031.207.063.309.1l.024.008q.147.051.292.107l.049.019q.145.057.288.119l.062.027q.141.063.28.13l.053.026c.093.046.185.093.276.143l.018.01c.092.05.183.1.273.156l.053.031q.131.079.258.162l.057.038q.128.085.252.173l.043.032q.12.087.238.178l.027.021q.123.1.241.2l.05.042q.115.1.226.2l.049.045c.075.07.149.142.222.214l.03.031q.1.105.2.214l.031.033q.1.114.2.232l.042.05q.1.117.191.237l.038.049c.064.084.127.168.188.254l.015.021q.088.125.172.254l.027.042q.084.13.163.264l.033.055q.078.134.152.271l.025.048c.05.1.1.191.146.288l0,.005c.047.1.092.2.136.3l.021.049q.062.145.119.292l.022.058c.037.1.074.2.107.3l.014.042q.05.152.1.307l.006.021c.03.105.058.212.084.319l.013.055q.037.156.068.314l.011.058c.021.108.04.216.056.325,0,.011,0,.023,0,.034q.024.161.041.323l0,.026Z" transform="translate(-227.686 -96.413)" fill="#707070"/>
      </g>
    </g>
  </g>
</svg>
