<svg xmlns="http://www.w3.org/2000/svg" width="88.011" height="61.597" viewBox="0 0 88.011 61.597">
  <g id="software_14144253" transform="translate(-1.995 -11)">
    <path id="Path_58" data-name="Path 58" d="M84.131,58.077V15.4a4.4,4.4,0,0,0-4.4-4.4H12.269a4.4,4.4,0,0,0-4.4,4.4V58.077A7.333,7.333,0,0,0,9.335,72.6H82.665a7.333,7.333,0,0,0,1.467-14.519ZM12.269,13.933H79.732A1.467,1.467,0,0,1,81.2,15.4V57.931H78.265v-39.6A1.467,1.467,0,0,0,76.8,16.866H15.2a1.467,1.467,0,0,0-1.467,1.467v39.6H10.8V15.4A1.467,1.467,0,0,1,12.269,13.933Zm63.063,44H60.182a1.467,1.467,0,0,0-1.467,1l-.572,1.936H33.857l-.645-1.936a1.467,1.467,0,0,0-1.467-1H16.668V19.8H75.332Zm7.333,11.733H9.335a4.4,4.4,0,1,1,0-8.8H30.762l.645,1.936a1.467,1.467,0,0,0,1.393,1H59.2a1.467,1.467,0,0,0,1.467-1l.572-1.936H82.665a4.4,4.4,0,1,1,0,8.8Z" transform="translate(0 0)" fill="#082326"/>
    <path id="Path_59" data-name="Path 59" d="M21,37.457a1.091,1.091,0,0,0,.6.971l10.911,5.456a1.091,1.091,0,0,0,.982,0L44.4,38.428a1.091,1.091,0,0,0,0-1.942L40.9,34.73l3.5-1.757a1.091,1.091,0,0,0,0-1.942l-3.5-1.757,3.5-1.757a1.091,1.091,0,0,0,0-1.942L33.493,20.12a1.091,1.091,0,0,0-.982,0L21.6,25.575a1.091,1.091,0,0,0,0,1.942l3.5,1.757-3.5,1.757a1.091,1.091,0,0,0,0,1.942l3.5,1.757-3.5,1.757A1.091,1.091,0,0,0,21,37.457ZM33,22.313l8.467,4.233L33,30.78l-8.467-4.233ZM27.547,30.5l4.965,2.477a1.091,1.091,0,0,0,.982,0L38.458,30.5,41.469,32,33,36.235,24.535,32Zm0,5.456,4.965,2.477a1.091,1.091,0,0,0,.982,0l4.965-2.477,3.011,1.506L33,41.691l-8.467-4.233Z" transform="translate(12.997 8.33)" fill="#16808b"/>
  </g>
</svg>
