<svg xmlns="http://www.w3.org/2000/svg" width="52.532" height="52.532" viewBox="0 0 52.532 52.532">
  <path id="analytics_16684057" d="M28.061,38.764H24.736a.744.744,0,0,0-.744.744v5.6a.744.744,0,0,0,.744.744h3.325a.744.744,0,0,0,.744-.744v-5.6A.744.744,0,0,0,28.061,38.764Zm-.744,5.6H25.481V40.253h1.836Zm6.656-8.405H30.648a.744.744,0,0,0-.744.744v8.405a.744.744,0,0,0,.744.744h3.325a.744.744,0,0,0,.744-.744V36.7A.744.744,0,0,0,33.973,35.959Zm-.744,8.405H31.392V37.448h1.836Zm6.6-6.431H36.5a.744.744,0,0,0-.744.744v6.431a.744.744,0,0,0,.744.744h3.325a.744.744,0,0,0,.744-.744V38.677A.744.744,0,0,0,39.827,37.933Zm-.744,6.431H37.246V39.422h1.836ZM45.8,33.8H42.47a.744.744,0,0,0-.744.744V45.109a.744.744,0,0,0,.744.744H45.8a.744.744,0,0,0,.744-.744V34.544A.744.744,0,0,0,45.8,33.8Zm-.744,10.565H43.215V35.288h1.836ZM35.907,33.056a2.315,2.315,0,1,0,4.338-1.124l2.865-2.865a2.316,2.316,0,1,0-1.053-1.054L39.14,30.93a2.308,2.308,0,0,0-2.5.439l-2.057-1.188A2.315,2.315,0,1,0,30,29.731a2.284,2.284,0,0,0,.052.486l-2.125,1.226a2.313,2.313,0,1,0,.791,1.74,2.332,2.332,0,0,0-.045-.451l2.144-1.238a2.308,2.308,0,0,0,3.021-.024l2.1,1.214a2.369,2.369,0,0,0-.03.37Zm8.226-6.889a.826.826,0,1,1-.826.826A.827.827,0,0,1,44.134,26.167Zm-5.911,6.063a.826.826,0,1,1-.826.826A.827.827,0,0,1,38.222,32.231ZM26.4,34.011a.826.826,0,1,1,.826-.826A.827.827,0,0,1,26.4,34.011Zm5.911-3.453a.826.826,0,1,1,.826-.826A.827.827,0,0,1,32.311,30.558Zm28.746.825-5.621-2.176a20.963,20.963,0,0,0-1.625-3.919l2.437-5.515a.745.745,0,0,0-.154-.827l-4.509-4.509a.745.745,0,0,0-.827-.154l-5.515,2.437A20.934,20.934,0,0,0,41.324,15.1L39.148,9.475A.743.743,0,0,0,38.454,9H32.078a.746.746,0,0,0-.694.475L29.208,15.1a20.983,20.983,0,0,0-3.918,1.625l-5.516-2.437a.745.745,0,0,0-.827.154l-4.509,4.509a.745.745,0,0,0-.154.827l2.437,5.515A20.946,20.946,0,0,0,15.1,29.208L9.475,31.383A.743.743,0,0,0,9,32.078v6.376a.746.746,0,0,0,.475.694L15.1,41.324a20.983,20.983,0,0,0,1.625,3.918l-2.437,5.516a.745.745,0,0,0,.154.827l4.509,4.509a.745.745,0,0,0,.827.154l5.515-2.437a20.946,20.946,0,0,0,3.919,1.625l2.176,5.621a.743.743,0,0,0,.694.475h6.376a.746.746,0,0,0,.694-.475l2.176-5.621a20.984,20.984,0,0,0,3.918-1.625l5.516,2.437a.745.745,0,0,0,.827-.154l4.509-4.509a.745.745,0,0,0,.154-.827L53.81,45.243a20.9,20.9,0,0,0,1.625-3.919l5.621-2.176a.743.743,0,0,0,.475-.694V32.078a.746.746,0,0,0-.475-.694Zm-1.013,6.56-5.488,2.124a.741.741,0,0,0-.448.493,19.472,19.472,0,0,1-1.775,4.28.745.745,0,0,0-.032.666l2.38,5.385-3.788,3.788L45.506,52.3a.745.745,0,0,0-.666.032,19.477,19.477,0,0,1-4.279,1.775.749.749,0,0,0-.493.448l-2.125,5.489H32.587l-2.125-5.488a.741.741,0,0,0-.493-.448,19.481,19.481,0,0,1-4.28-1.775.745.745,0,0,0-.666-.032l-5.385,2.38L15.85,50.892l2.38-5.386a.745.745,0,0,0-.032-.666,19.476,19.476,0,0,1-1.775-4.279.749.749,0,0,0-.448-.493l-5.489-2.125V32.587l5.488-2.124a.741.741,0,0,0,.448-.493A19.429,19.429,0,0,1,18.2,25.69a.745.745,0,0,0,.032-.666l-2.38-5.385,3.788-3.788,5.386,2.38a.745.745,0,0,0,.666-.032,19.476,19.476,0,0,1,4.279-1.775.749.749,0,0,0,.493-.448l2.125-5.489h5.356l2.125,5.489a.741.741,0,0,0,.493.448A19.434,19.434,0,0,1,44.84,18.2a.745.745,0,0,0,.666.032l5.386-2.38,3.788,3.788L52.3,25.025a.745.745,0,0,0,.032.666,19.463,19.463,0,0,1,1.775,4.28.749.749,0,0,0,.448.493l5.488,2.124v5.356ZM35.266,17.655a17.61,17.61,0,1,0,17.61,17.61,17.63,17.63,0,0,0-17.61-17.61Zm0,33.732A16.121,16.121,0,1,1,51.387,35.266,16.14,16.14,0,0,1,35.266,51.387Z" transform="translate(-9 -9)" fill="#707070"/>
</svg>
