<svg xmlns="http://www.w3.org/2000/svg" width="55.334" height="55.332" viewBox="0 0 55.334 55.332">
  <g id="ml_7017557" transform="translate(-1 -1.002)">
    <path id="Path_20" data-name="Path 20" d="M24.222,17c-3.363,0-6.1,2.4-6.1,5.355a4.14,4.14,0,0,0,.055.665A5.318,5.318,0,0,0,15,27.71a4.889,4.889,0,0,0,1.145,3.124A4.889,4.889,0,0,0,15,33.957a5.272,5.272,0,0,0,3.129,4.679c.129,2.853,2.813,5.139,6.093,5.139a6.371,6.371,0,0,0,4.839-2.116.894.894,0,0,0,.219-.586V19.7a.894.894,0,0,0-.219-.586A6.371,6.371,0,0,0,24.222,17Zm0,24.99a4.091,4.091,0,0,1-4.242-3.124,3.412,3.412,0,0,0,2.536-3.229H20.731a1.659,1.659,0,0,1-1.41,1.569,3.609,3.609,0,0,1-2.536-3.248,3.253,3.253,0,0,1,1.189-2.451.893.893,0,0,0,0-1.346,3.253,3.253,0,0,1-1.189-2.451A3.632,3.632,0,0,1,19.511,24.4l.007,0a1.672,1.672,0,0,1,1.543,1.584h1.785a3.445,3.445,0,0,0-2.909-3.328,2.375,2.375,0,0,1-.029-.3c0-1.969,1.935-3.57,4.313-3.57a4.648,4.648,0,0,1,3.273,1.27v8.3a4.345,4.345,0,0,0-3.243,2.878l-.043.128,1.693.565.043-.128a2.57,2.57,0,0,1,1.551-1.6V40.72a4.648,4.648,0,0,1-3.273,1.27Z" transform="translate(-1.505 -1.72)" fill="#707070"/>
    <path id="Path_21" data-name="Path 21" d="M35.921,21.1a.893.893,0,0,0,.72.364h1.621a2.671,2.671,0,1,0-.327-1.785h-.842l-1.7-2.313a.893.893,0,0,0-.72-.364H32v1.785h2.225Zm4.646-1.867a.892.892,0,1,1-.892.892.892.892,0,0,1,.892-.892Z" transform="translate(-3.333 -1.72)" fill="#707070"/>
    <path id="Path_22" data-name="Path 22" d="M42,26.677H38.34l-1.873-2.343a.894.894,0,0,0-.7-.335H32.2v1.785h3.141l1.873,2.343a.894.894,0,0,0,.7.335H42a2.677,2.677,0,1,0,0-1.785Zm3.405.892a.892.892,0,1,1-.892-.892.892.892,0,0,1,.892.892Z" transform="translate(-3.355 -2.473)" fill="#707070"/>
    <path id="Path_23" data-name="Path 23" d="M40.567,40.5a2.669,2.669,0,0,0-2.305,1.339H36.641a.893.893,0,0,0-.72.364l-1.7,2.313H32V46.3h2.677a.893.893,0,0,0,.72-.364l1.7-2.313h.842A2.674,2.674,0,1,0,40.567,40.5Zm0,3.57a.892.892,0,1,1,.892-.892A.892.892,0,0,1,40.567,44.07Z" transform="translate(-3.333 -4.247)" fill="#707070"/>
    <path id="Path_24" data-name="Path 24" d="M44.316,33A2.673,2.673,0,0,0,41.8,34.785H37.712a.894.894,0,0,0-.7.335l-1.874,2.343H32v1.785h3.57a.894.894,0,0,0,.7-.335l1.874-2.343H41.8A2.673,2.673,0,1,0,44.316,33Zm0,3.57a.892.892,0,1,1,.892-.892A.892.892,0,0,1,44.316,36.57Z" transform="translate(-3.333 -3.44)" fill="#707070"/>
    <path id="Path_25" data-name="Path 25" d="M54.934,22.62H53.2a1.7,1.7,0,0,1-1.584-1.238A23.964,23.964,0,0,0,50.041,17.6a1.7,1.7,0,0,1,.244-2l1.236-1.237a.893.893,0,0,0,.109-1.13A27.643,27.643,0,0,0,44.1,5.7a.893.893,0,0,0-1.13.109L41.733,7.049a1.7,1.7,0,0,1-2,.245,23.929,23.929,0,0,0-3.782-1.571,1.7,1.7,0,0,1-1.239-1.584V2.4a.892.892,0,0,0-.722-.876,27.444,27.444,0,0,0-10.651,0,.892.892,0,0,0-.722.876V4.139a1.7,1.7,0,0,1-1.239,1.584A23.964,23.964,0,0,0,17.6,7.293a1.7,1.7,0,0,1-2-.244L14.364,5.813a.89.89,0,0,0-1.13-.109,27.643,27.643,0,0,0-7.53,7.53.893.893,0,0,0,.109,1.13L7.049,15.6a1.7,1.7,0,0,1,.245,2,23.929,23.929,0,0,0-1.571,3.782A1.7,1.7,0,0,1,4.138,22.62H2.4a.892.892,0,0,0-.876.722,27.331,27.331,0,0,0,0,10.651.892.892,0,0,0,.876.722H4.139a1.7,1.7,0,0,1,1.584,1.239,23.964,23.964,0,0,0,1.571,3.781,1.7,1.7,0,0,1-.244,2L5.813,42.971A.893.893,0,0,0,5.7,44.1a27.643,27.643,0,0,0,7.53,7.53.888.888,0,0,0,1.13-.109L15.6,50.286a1.7,1.7,0,0,1,2-.245,23.929,23.929,0,0,0,3.782,1.571A1.7,1.7,0,0,1,22.62,53.2v1.739a.892.892,0,0,0,.722.876,27.332,27.332,0,0,0,10.651,0,.892.892,0,0,0,.722-.876V53.2a1.7,1.7,0,0,1,1.238-1.584,23.964,23.964,0,0,0,3.781-1.571,1.7,1.7,0,0,1,2,.244l1.237,1.236a.891.891,0,0,0,1.13.109,27.643,27.643,0,0,0,7.53-7.53.893.893,0,0,0-.109-1.13l-1.236-1.237a1.7,1.7,0,0,1-.245-2,23.929,23.929,0,0,0,1.571-3.782A1.7,1.7,0,0,1,53.2,34.714h1.739a.892.892,0,0,0,.876-.722,27.331,27.331,0,0,0,0-10.651.892.892,0,0,0-.876-.722Zm-.745,10.309H53.2a3.478,3.478,0,0,0-3.285,2.483,22.1,22.1,0,0,1-1.454,3.5A3.479,3.479,0,0,0,49.023,43l.709.709A25.825,25.825,0,0,1,43.7,49.732L43,49.024a3.473,3.473,0,0,0-4.086-.566,22.134,22.134,0,0,1-3.5,1.453A3.478,3.478,0,0,0,32.929,53.2v.994a25.533,25.533,0,0,1-8.524,0V53.2a3.478,3.478,0,0,0-2.483-3.285,22.1,22.1,0,0,1-3.5-1.454,3.476,3.476,0,0,0-4.085.567l-.709.709A25.825,25.825,0,0,1,7.6,43.705L8.311,43a3.478,3.478,0,0,0,.566-4.086,22.133,22.133,0,0,1-1.453-3.5,3.478,3.478,0,0,0-3.285-2.483H3.145a25.411,25.411,0,0,1,0-8.524h.994a3.478,3.478,0,0,0,3.285-2.483,22.1,22.1,0,0,1,1.454-3.5,3.479,3.479,0,0,0-.567-4.085L7.6,13.629A25.825,25.825,0,0,1,13.629,7.6l.709.709a3.475,3.475,0,0,0,4.086.566,22.133,22.133,0,0,1,3.5-1.453,3.478,3.478,0,0,0,2.483-3.285V3.145a25.533,25.533,0,0,1,8.524,0v.994a3.478,3.478,0,0,0,2.483,3.285,22.1,22.1,0,0,1,3.5,1.454A3.48,3.48,0,0,0,43,8.311L43.7,7.6a25.825,25.825,0,0,1,6.027,6.027l-.709.709a3.478,3.478,0,0,0-.566,4.086,22.134,22.134,0,0,1,1.453,3.5A3.478,3.478,0,0,0,53.2,24.405h.994a25.411,25.411,0,0,1,0,8.524Z" transform="translate(0 0)" fill="#707070"/>
    <path id="Path_26" data-name="Path 26" d="M29.635,10A19.635,19.635,0,1,0,49.269,29.635,19.635,19.635,0,0,0,29.635,10Zm0,37.484a17.85,17.85,0,1,1,17.85-17.85,17.85,17.85,0,0,1-17.85,17.85Z" transform="translate(-0.968 -0.967)" fill="#707070"/>
    <rect id="Rectangle_74" data-name="Rectangle 74" width="1.785" height="1.785" transform="translate(29.559 25.097)" fill="#707070"/>
    <rect id="Rectangle_75" data-name="Rectangle 75" width="1.785" height="1.785" transform="translate(31.344 28.667)" fill="#707070"/>
  </g>
</svg>
