<svg xmlns="http://www.w3.org/2000/svg" width="75.024" height="71.807" viewBox="0 0 75.024 71.807">
  <g id="software_18610808" transform="translate(-7 -17.63)">
    <path id="Path_128" data-name="Path 128" d="M9.42,30.882V71.313a1.829,1.829,0,0,0,1.826,1.821H52.884a1.21,1.21,0,1,1,0,2.42H11.246A4.258,4.258,0,0,1,7,71.313V21.876a4.26,4.26,0,0,1,4.246-4.246H74.885a4.254,4.254,0,0,1,4.241,4.246V63.519a1.21,1.21,0,1,1-2.42,0V30.882Zm67.286-2.42V21.876a1.829,1.829,0,0,0-1.821-1.826H11.246A1.831,1.831,0,0,0,9.42,21.876v6.586Zm-45.789,6.2a13.406,13.406,0,0,1,2.759,1.144l1.77-.787a1.21,1.21,0,0,1,1.348.25l2.75,2.75a1.21,1.21,0,0,1,.251,1.346l-.784,1.77A13.427,13.427,0,0,1,40.156,43.9l1.8.694a1.211,1.211,0,0,1,.776,1.13v3.89a1.211,1.211,0,0,1-.776,1.13l-1.8.694A13.5,13.5,0,0,1,39.011,54.2l.785,1.771a1.21,1.21,0,0,1-.251,1.346l-2.75,2.75a1.21,1.21,0,0,1-1.346.251l-1.768-.784a13.4,13.4,0,0,1-2.762,1.144l-.694,1.8a1.211,1.211,0,0,1-1.13.776H25.2a1.211,1.211,0,0,1-1.13-.776l-.694-1.8a13.5,13.5,0,0,1-2.764-1.145l-1.771.785a1.21,1.21,0,0,1-1.346-.251l-2.75-2.75a1.209,1.209,0,0,1-.25-1.348l.787-1.768a13.473,13.473,0,0,1-1.145-2.76l-1.806-.7a1.211,1.211,0,0,1-.776-1.13v-3.89a1.211,1.211,0,0,1,.776-1.13s1.806-.7,1.806-.694a13.5,13.5,0,0,1,1.147-2.764l-.787-1.77a1.21,1.21,0,0,1,.25-1.348l2.75-2.75a1.209,1.209,0,0,1,1.348-.25l1.768.787a13.419,13.419,0,0,1,2.76-1.144l.7-1.809a1.211,1.211,0,0,1,1.128-.774h3.89a1.211,1.211,0,0,1,1.13.776l.694,1.808Zm-2.036,1.446L28.262,34.5h-2.23l-.622,1.611a1.21,1.21,0,0,1-.849.741A11.058,11.058,0,0,0,21.326,38.2a1.21,1.21,0,0,1-1.127.076l-1.576-.7-1.575,1.575.7,1.575a1.21,1.21,0,0,1-.076,1.127,11.086,11.086,0,0,0-1.346,3.245,1.211,1.211,0,0,1-.741.847l-1.606.619v2.228l1.606.619a1.208,1.208,0,0,1,.741.846,11.114,11.114,0,0,0,1.345,3.24,1.213,1.213,0,0,1,.077,1.128l-.7,1.576,1.576,1.576,1.576-.7a1.214,1.214,0,0,1,1.122.074,11.128,11.128,0,0,0,3.243,1.343,1.212,1.212,0,0,1,.85.743l.619,1.606h2.228l.619-1.606a1.212,1.212,0,0,1,.85-.743,11,11,0,0,0,3.235-1.34,1.21,1.21,0,0,1,1.127-.077l1.576.7,1.576-1.576-.7-1.576a1.21,1.21,0,0,1,.074-1.122,11.1,11.1,0,0,0,1.343-3.24,1.212,1.212,0,0,1,.743-.85l1.606-.619V46.56l-1.606-.619a1.212,1.212,0,0,1-.743-.85,10.985,10.985,0,0,0-1.342-3.24,1.211,1.211,0,0,1-.076-1.125l.7-1.576L35.67,37.573l-1.575.7a1.21,1.21,0,0,1-1.127-.076,11.058,11.058,0,0,0-3.237-1.342,1.212,1.212,0,0,1-.85-.743Zm-1.735,3.562a8,8,0,1,1-8,8,7.995,7.995,0,0,1,8-8Zm0,2.42a5.578,5.578,0,1,0,5.578,5.575A5.573,5.573,0,0,0,27.146,42.095ZM54.86,67.113a1.21,1.21,0,1,1-.558,2.355,13.5,13.5,0,0,1-3.391-1.31l-1.771.785a1.21,1.21,0,0,1-1.346-.251l-2.75-2.75a1.209,1.209,0,0,1-.25-1.348l.787-1.768a13.473,13.473,0,0,1-1.145-2.76l-1.806-.7a1.211,1.211,0,0,1-.776-1.13V54.35a1.211,1.211,0,0,1,.776-1.13l1.806-.694a13.5,13.5,0,0,1,1.147-2.763l-.787-1.77a1.21,1.21,0,0,1,.25-1.348l2.75-2.75a1.209,1.209,0,0,1,1.348-.25l1.77.787a13.336,13.336,0,0,1,2.76-1.144l.7-1.809A1.209,1.209,0,0,1,55.5,40.7h3.89a1.211,1.211,0,0,1,1.13.776l.694,1.808a13.441,13.441,0,0,1,2.759,1.144l1.77-.787a1.21,1.21,0,0,1,1.348.25l2.75,2.75a1.21,1.21,0,0,1,.251,1.346l-.784,1.77a13.427,13.427,0,0,1,1.145,2.765l1.8.694a1.211,1.211,0,0,1,.776,1.13v3.89a1.211,1.211,0,0,1-.776,1.13l-1.8.694c-.085.29-.178.579-.283.864A1.21,1.21,0,0,1,67.9,60.1a11,11,0,0,0,.366-1.221,1.212,1.212,0,0,1,.743-.85l1.606-.619V55.18l-1.606-.619a1.212,1.212,0,0,1-.743-.85,10.968,10.968,0,0,0-1.342-3.24,1.211,1.211,0,0,1-.076-1.125l.7-1.576-1.576-1.576-1.576.7a1.21,1.21,0,0,1-1.127-.076,11.017,11.017,0,0,0-3.237-1.342,1.212,1.212,0,0,1-.85-.743l-.619-1.609H56.33l-.622,1.611a1.21,1.21,0,0,1-.849.741,11.058,11.058,0,0,0-3.237,1.342,1.215,1.215,0,0,1-1.127.076l-1.576-.7-1.575,1.575.7,1.576a1.21,1.21,0,0,1-.076,1.127,11.086,11.086,0,0,0-1.346,3.244,1.211,1.211,0,0,1-.741.847l-1.606.619V57.41l1.606.619a1.209,1.209,0,0,1,.741.846,11.114,11.114,0,0,0,1.345,3.24,1.213,1.213,0,0,1,.077,1.128l-.7,1.576,1.576,1.576,1.576-.7a1.21,1.21,0,0,1,1.122.074,11.129,11.129,0,0,0,3.243,1.343h0ZM57.442,48.3a8,8,0,1,1-8,8,8,8,0,0,1,8-8h0Zm0,2.42a5.578,5.578,0,1,0,5.58,5.575,5.573,5.573,0,0,0-5.58-5.575h0Zm-35.661,17.5a1.21,1.21,0,1,1,0-2.42H39.938a1.21,1.21,0,1,1,0,2.42H21.781Zm31.89-30.663a1.21,1.21,0,0,1,0-2.42H71.828a1.21,1.21,0,0,1,0,2.42Zm14.967,25.11A13.386,13.386,0,1,1,55.252,76.051,13.393,13.393,0,0,1,68.638,62.664Zm0,2.42A10.966,10.966,0,1,0,79.6,76.051,10.971,10.971,0,0,0,68.638,65.084Zm-51.991-.118a2.042,2.042,0,1,1-2.042,2.042A2.043,2.043,0,0,1,16.647,64.966ZM48.537,34.3A2.042,2.042,0,1,1,46.5,36.344,2.043,2.043,0,0,1,48.537,34.3Z" fill="#082326" fill-rule="evenodd"/>
    <path id="Path_129" data-name="Path 129" d="M59.593,53.271A1.77,1.77,0,1,1,61.366,51.5,1.773,1.773,0,0,1,59.593,53.271Z" transform="translate(-43.133 -27.245)" fill="#16808b" fill-rule="evenodd"/>
    <path id="Path_130" data-name="Path 130" d="M104.583,53.271a1.77,1.77,0,1,1,1.768-1.768A1.773,1.773,0,0,1,104.583,53.271Z" transform="translate(-81.318 -27.245)" fill="#16808b" fill-rule="evenodd"/>
    <path id="Path_131" data-name="Path 131" d="M149.533,53.271a1.77,1.77,0,1,1,1.773-1.768A1.773,1.773,0,0,1,149.533,53.271Z" transform="translate(-119.469 -27.245)" fill="#16808b" fill-rule="evenodd"/>
    <path id="Path_132" data-name="Path 132" d="M400.972,366.554a1.21,1.21,0,1,1,2.338.626l-2.434,9.083a1.21,1.21,0,0,1-2.339-.626Z" transform="translate(-332.279 -295.385)" fill="#16808b" fill-rule="evenodd"/>
    <path id="Path_133" data-name="Path 133" d="M437.7,372.445a1.21,1.21,0,0,1,1.711-1.711l3.857,3.857a1.211,1.211,0,0,1,0,1.711l-3.857,3.857a1.21,1.21,0,0,1-1.711-1.711l3-3-3-3Z" transform="translate(-365.256 -299.393)" fill="#16808b" fill-rule="evenodd"/>
    <path id="Path_134" data-name="Path 134" d="M354.361,370.724a1.21,1.21,0,0,1,1.711,1.711l-3,3,3,3a1.21,1.21,0,0,1-1.711,1.711L350.5,376.29a1.211,1.211,0,0,1,0-1.711l3.857-3.857Z" transform="translate(-291.246 -299.385)" fill="#16808b" fill-rule="evenodd"/>
  </g>
</svg>
