<svg xmlns="http://www.w3.org/2000/svg" width="61.534" height="70.995" viewBox="0 0 61.534 70.995">
  <g id="data-warehouse_12959319" transform="translate(-6 -2.005)">
    <path id="Path_71" data-name="Path 71" d="M65.12,21.536l-25.5-18.59a4.793,4.793,0,0,0-5.7,0l-25.5,18.59A6.173,6.173,0,0,0,6,26.565V57.557c0,3.29,2.367,5.976,5.266,5.976H16.65a1.183,1.183,0,0,0,0-2.367H15.467v-28.4h42.6v28.4H56.884a1.183,1.183,0,0,0,0,2.367h5.384c2.9,0,5.266-2.686,5.266-5.976V26.565A6.206,6.206,0,0,0,65.12,21.536ZM15.467,30.4V29.216a1.187,1.187,0,0,1,1.183-1.183H56.884a1.187,1.187,0,0,1,1.183,1.183V30.4Zm49.7,27.158c0,1.988-1.3,3.609-2.9,3.609H60.434V29.216a3.56,3.56,0,0,0-3.55-3.55H16.65a3.56,3.56,0,0,0-3.55,3.55v31.95H11.266c-1.6,0-2.9-1.621-2.9-3.609V26.565A3.881,3.881,0,0,1,9.81,23.453l25.5-18.59a2.4,2.4,0,0,1,2.923,0l25.5,18.59a3.881,3.881,0,0,1,1.444,3.112V57.557Z" transform="translate(0 0)" fill="#fff"/>
    <path id="Path_72" data-name="Path 72" d="M34.567,32C26.331,32,18,34.035,18,37.917V61.584c0,3.881,8.331,5.917,16.567,5.917s16.567-2.035,16.567-5.917V37.917C51.134,34.035,42.8,32,34.567,32Zm14.2,17.75c0,1.254-5.4,3.55-14.2,3.55s-14.2-2.3-14.2-3.55V41.112c3.053,1.8,8.65,2.722,14.2,2.722s11.147-.923,14.2-2.722Zm-14.2-15.384c8.8,0,14.2,2.3,14.2,3.55s-5.4,3.55-14.2,3.55-14.2-2.3-14.2-3.55S25.763,34.367,34.567,34.367Zm0,30.767c-8.8,0-14.2-2.3-14.2-3.55V52.945c3.053,1.8,8.65,2.722,14.2,2.722s11.147-.923,14.2-2.722v8.638C48.767,62.838,43.371,65.134,34.567,65.134Z" transform="translate(2.2 5.5)" fill="#4ac8d5"/>
    <circle id="Ellipse_10" data-name="Ellipse 10" cx="1" cy="1" r="1" transform="translate(36 65.005)" fill="#fff"/>
    <circle id="Ellipse_11" data-name="Ellipse 11" cx="1" cy="1" r="1" transform="translate(36 53.005)" fill="#fff"/>
    <path id="Path_73" data-name="Path 73" d="M32.733,10a4.733,4.733,0,1,0,4.733,4.733A4.732,4.732,0,0,0,32.733,10Zm0,7.1A2.367,2.367,0,1,1,35.1,14.733,2.374,2.374,0,0,1,32.733,17.1Z" transform="translate(4.034 1.466)" fill="#fff"/>
  </g>
</svg>
