<svg xmlns="http://www.w3.org/2000/svg" width="41.725" height="47" viewBox="0 0 41.725 47">
  <g id="money_15655134" transform="translate(-34.091 -6)">
    <path id="Path_5" data-name="Path 5" d="M73.78,346.325a2.463,2.463,0,0,0-2.406-1.306,6.057,6.057,0,0,0-2.274.733c-4.21,2.049-8.562,4.173-13.186,4.427a5.447,5.447,0,0,1-1.927-.2c.291,0,.583.009.874.009.367.009.752.019,1.137.009a5.282,5.282,0,0,0,3.806-1.3,3.169,3.169,0,0,0,.912-2.387,2.37,2.37,0,0,0-.883-1.776,4.021,4.021,0,0,0-2.913-.526,11.821,11.821,0,0,1-2.444.019,11.462,11.462,0,0,1-1.936-.489c-.244-.075-.479-.15-.724-.216a30.018,30.018,0,0,0-9.314-.865v-.724a.64.64,0,0,0-.639-.639H34.731a.664.664,0,0,0-.461.2.616.616,0,0,0-.179.47,8.223,8.223,0,0,0,.536,2.18c.094.291.188.564.254.808l2.678,9.765a.643.643,0,0,0,.611.47h2.895a.631.631,0,0,0,.592-.414l.5-1.335a28.514,28.514,0,0,0,12.687,3.365,19.757,19.757,0,0,0,4.22-.442,32.584,32.584,0,0,0,9.332-4.051c1.081-.63,2.171-1.288,3.233-1.927l.028-.019a6,6,0,0,0,1.7-1.353A2.424,2.424,0,0,0,73.78,346.325Zm-1.419,1.7a5.043,5.043,0,0,1-1.353,1.043l-.028.019c-1.053.639-2.133,1.288-3.214,1.917a30.815,30.815,0,0,1-8.966,3.9c-6.363,1.382-12.584-.94-16.682-3.13a.678.678,0,0,0-.3-.075.632.632,0,0,0-.226.038.645.645,0,0,0-.376.376l-.6,1.6H38.65l-2.556-9.295c-.075-.273-.179-.564-.282-.874-.132-.376-.263-.789-.357-1.165h5.752v.742a.664.664,0,0,0,.2.461.653.653,0,0,0,.47.179,29.761,29.761,0,0,1,9.567.789c.235.066.47.141.7.216a13.235,13.235,0,0,0,2.143.536,12.581,12.581,0,0,0,2.725-.009,3.007,3.007,0,0,1,2.021.263,1.112,1.112,0,0,1,.395.846,1.9,1.9,0,0,1-.536,1.41,4.165,4.165,0,0,1-2.942.93c-.357.009-.724,0-1.081-.009a11.68,11.68,0,0,0-2.669.141.622.622,0,0,0-.451.357.647.647,0,0,0,.019.573c.658,1.194,2.105,1.767,4.182,1.654,4.887-.263,9.351-2.444,13.684-4.549a5.046,5.046,0,0,1,1.786-.611,1.253,1.253,0,0,1,1.184.555,1.212,1.212,0,0,1-.244,1.175Z" transform="translate(0 -303.607)" fill="#707070"/>
    <path id="Path_6" data-name="Path 6" d="M180,22.616v8.627a2.152,2.152,0,0,0,4.3,0V22.616a8.449,8.449,0,1,0-4.3,0Zm2.152-15.347A7.173,7.173,0,0,1,183.5,21.488a.633.633,0,0,0-.508.724c.009.047.019.094.038.169v8.853a.883.883,0,0,1-1.767,0V22.372a.98.98,0,0,0,.038-.16.633.633,0,0,0-.507-.724,7.173,7.173,0,0,1,1.353-14.219Z" transform="translate(-126.489 0)" fill="#707070"/>
    <path id="Path_7" data-name="Path 7" d="M57.7,151.635c2.18,1.917,5.254,2.415,9.116,1.475.028-.009.056-.028.085-.038a13.745,13.745,0,0,0,1.955.912.613.613,0,0,0,.78-.385.542.542,0,0,0,.028-.132.63.63,0,0,0-.414-.658,18.691,18.691,0,0,1-9.21-8.242.614.614,0,1,0-1.09.564,18.862,18.862,0,0,0,6.428,7.011c-2.895.489-5.2.009-6.851-1.438-3.252-2.848-3.43-8.75-3.2-12.265,1.015.883,2.942,1.936,6.513,2.35a5.7,5.7,0,0,1,4.182,2.115c1.391,1.9,1.222,4.69.827,6.71a.617.617,0,0,0,1.212.235c.075-.4.15-.836.2-1.288A9.058,9.058,0,0,0,67,142.181a6.93,6.93,0,0,0-5.037-2.613c-5.573-.639-6.55-2.885-6.56-2.895a.617.617,0,0,0-1.194.141C53.864,140.038,53.5,147.942,57.7,151.635Z" transform="translate(-18.053 -118.023)" fill="#707070"/>
    <path id="Path_8" data-name="Path 8" d="M314.11,142.061a9.107,9.107,0,0,0-1.25,6.381c.056.451.122.883.2,1.288a.617.617,0,1,0,1.212-.235c-.385-2.021-.554-4.812.827-6.71a5.737,5.737,0,0,1,4.182-2.115c3.571-.414,5.5-1.466,6.513-2.35.226,3.524.038,9.417-3.2,12.265-1.654,1.447-3.947,1.927-6.851,1.438a18.788,18.788,0,0,0,6.428-7.011.614.614,0,0,0-1.09-.564,18.691,18.691,0,0,1-9.21,8.242.613.613,0,0,0-.413.658.66.66,0,0,0,.028.132.616.616,0,0,0,.78.385,16.174,16.174,0,0,0,1.955-.912.74.74,0,0,0,.085.038c3.863.94,6.926.442,9.116-1.476,4.2-3.693,3.844-11.6,3.5-14.821a.617.617,0,0,0-1.194-.141c0,.009-.987,2.256-6.56,2.895A6.884,6.884,0,0,0,314.11,142.061Z" transform="translate(-251.288 -117.913)" fill="#707070"/>
    <path id="Path_9" data-name="Path 9" d="M230.479,46.35l.226.1a5.879,5.879,0,0,0,2.077.686v1.043a.644.644,0,0,0,1.288,0V47.017a2.921,2.921,0,0,0,1.908-1.466,2.133,2.133,0,0,0-1.015-2.791,4.417,4.417,0,0,0-1.485-.367,2.772,2.772,0,0,1-1.156-.3.647.647,0,0,1-.15-.883,1.9,1.9,0,0,1,1.4-.7,4.872,4.872,0,0,1,1.983.254.634.634,0,0,0,.489-.047.666.666,0,0,0,.32-.376.634.634,0,0,0-.047-.489.7.7,0,0,0-.376-.32,6.624,6.624,0,0,0-1.8-.329v-.949a.65.65,0,0,0-.648-.648.642.642,0,0,0-.639.648v1.09a3.026,3.026,0,0,0-1.767,1.175,1.914,1.914,0,0,0,.5,2.641,3.7,3.7,0,0,0,1.72.517,3.4,3.4,0,0,1,1.071.244.837.837,0,0,1,.423,1.09,1.828,1.828,0,0,1-1.5.855,3.764,3.764,0,0,1-2.039-.564l-.226-.113a.633.633,0,0,0-.489-.028.663.663,0,0,0-.367.329.633.633,0,0,0-.028.489A.652.652,0,0,0,230.479,46.35Z" transform="translate(-177.601 -28.63)" fill="#707070"/>
  </g>
</svg>
