<svg xmlns="http://www.w3.org/2000/svg" width="66.499" height="66.496" viewBox="0 0 66.499 66.496">
  <g id="ml_7017557_1_" data-name="ml_7017557 (1)" transform="translate(-1 -1.002)">
    <path id="Path_121" data-name="Path 121" d="M26.083,17c-4.041,0-7.329,2.887-7.329,6.435a4.976,4.976,0,0,0,.066.8A6.391,6.391,0,0,0,15,29.871a5.876,5.876,0,0,0,1.376,3.754A5.876,5.876,0,0,0,15,37.379,6.336,6.336,0,0,0,18.76,43c.155,3.428,3.381,6.176,7.323,6.176A7.656,7.656,0,0,0,31.9,46.634a1.074,1.074,0,0,0,.263-.7V20.247a1.074,1.074,0,0,0-.263-.7A7.656,7.656,0,0,0,26.083,17Zm0,30.032a4.917,4.917,0,0,1-5.1-3.755A4.1,4.1,0,0,0,24.033,39.4H21.888a1.994,1.994,0,0,1-1.695,1.886,4.337,4.337,0,0,1-3.048-3.9,3.909,3.909,0,0,1,1.429-2.945,1.073,1.073,0,0,0,0-1.617,3.909,3.909,0,0,1-1.429-2.945A4.364,4.364,0,0,1,20.421,25.9l.009,0a2.009,2.009,0,0,1,1.855,1.9H24.43a4.14,4.14,0,0,0-3.5-4,2.855,2.855,0,0,1-.035-.361c0-2.366,2.325-4.29,5.184-4.29a5.586,5.586,0,0,1,3.933,1.526v9.974a5.221,5.221,0,0,0-3.9,3.458l-.051.154,2.034.679.051-.154a3.089,3.089,0,0,1,1.863-1.917V45.506a5.586,5.586,0,0,1-3.933,1.526Z" transform="translate(1.016 1.161)" fill="#4ac8d5"/>
    <path id="Path_122" data-name="Path 122" d="M36.712,21.925a1.073,1.073,0,0,0,.865.438h1.948a3.21,3.21,0,1,0-.393-2.145H38.121l-2.038-2.78A1.073,1.073,0,0,0,35.218,17H32v2.145h2.674ZM42.3,19.681a1.073,1.073,0,1,1-1.073,1.073A1.073,1.073,0,0,1,42.3,19.681Z" transform="translate(2.25 1.161)" fill="#4ac8d5"/>
    <path id="Path_123" data-name="Path 123" d="M43.981,27.218h-4.4L37.328,24.4a1.074,1.074,0,0,0-.838-.4H32.2v2.145h3.775l2.251,2.815a1.074,1.074,0,0,0,.838.4h4.917a3.218,3.218,0,1,0,0-2.145Zm4.093,1.073A1.073,1.073,0,1,1,47,27.218a1.073,1.073,0,0,1,1.073,1.073Z" transform="translate(2.264 1.669)" fill="#4ac8d5"/>
    <path id="Path_124" data-name="Path 124" d="M42.3,40.5a3.207,3.207,0,0,0-2.77,1.609H37.578a1.073,1.073,0,0,0-.865.438l-2.038,2.78H32v2.145h3.218a1.073,1.073,0,0,0,.865-.438l2.038-2.78h1.012A3.213,3.213,0,1,0,42.3,40.5Zm0,4.29a1.073,1.073,0,1,1,1.073-1.073A1.073,1.073,0,0,1,42.3,44.79Z" transform="translate(2.25 2.866)" fill="#4ac8d5"/>
    <path id="Path_125" data-name="Path 125" d="M46.8,33a3.212,3.212,0,0,0-3.02,2.145H38.865a1.074,1.074,0,0,0-.838.4l-2.252,2.815H32v2.145h4.29a1.074,1.074,0,0,0,.838-.4L39.38,37.29h4.4A3.212,3.212,0,1,0,46.8,33Zm0,4.29a1.073,1.073,0,1,1,1.073-1.073A1.073,1.073,0,0,1,46.8,37.29Z" transform="translate(2.25 2.322)" fill="#4ac8d5"/>
    <path id="Path_126" data-name="Path 126" d="M65.817,26.982h-2.09a2.043,2.043,0,0,1-1.9-1.488,28.8,28.8,0,0,0-1.887-4.544,2.044,2.044,0,0,1,.293-2.4l1.485-1.486a1.073,1.073,0,0,0,.131-1.357,33.221,33.221,0,0,0-9.05-9.05,1.073,1.073,0,0,0-1.357.131L49.953,8.269a2.046,2.046,0,0,1-2.4.294,28.757,28.757,0,0,0-4.545-1.889,2.043,2.043,0,0,1-1.488-1.9V2.682a1.073,1.073,0,0,0-.867-1.053,32.981,32.981,0,0,0-12.8,0,1.073,1.073,0,0,0-.867,1.053v2.09a2.043,2.043,0,0,1-1.488,1.9A28.8,28.8,0,0,0,20.95,8.562a2.04,2.04,0,0,1-2.4-.293L17.06,6.784A1.07,1.07,0,0,0,15.7,6.653a33.221,33.221,0,0,0-9.05,9.05,1.073,1.073,0,0,0,.131,1.357l1.485,1.486a2.044,2.044,0,0,1,.294,2.4,28.757,28.757,0,0,0-1.889,4.545,2.043,2.043,0,0,1-1.9,1.488H2.682a1.073,1.073,0,0,0-1.053.867,32.846,32.846,0,0,0,0,12.8,1.073,1.073,0,0,0,1.053.867h2.09A2.043,2.043,0,0,1,6.675,43a28.8,28.8,0,0,0,1.887,4.544,2.044,2.044,0,0,1-.293,2.4L6.784,51.439A1.073,1.073,0,0,0,6.653,52.8a33.221,33.221,0,0,0,9.05,9.05,1.067,1.067,0,0,0,1.357-.131l1.486-1.485a2.042,2.042,0,0,1,2.4-.294,28.758,28.758,0,0,0,4.545,1.889,2.043,2.043,0,0,1,1.488,1.9v2.09a1.073,1.073,0,0,0,.867,1.053,32.846,32.846,0,0,0,12.8,0,1.073,1.073,0,0,0,.867-1.053v-2.09A2.043,2.043,0,0,1,43,61.824a28.8,28.8,0,0,0,4.544-1.887,2.045,2.045,0,0,1,2.4.293l1.486,1.485a1.071,1.071,0,0,0,1.357.131,33.221,33.221,0,0,0,9.05-9.05,1.073,1.073,0,0,0-.131-1.357L60.23,49.952a2.044,2.044,0,0,1-.294-2.4A28.756,28.756,0,0,0,61.824,43a2.043,2.043,0,0,1,1.9-1.488h2.09a1.073,1.073,0,0,0,1.053-.867,32.846,32.846,0,0,0,0-12.8,1.073,1.073,0,0,0-1.053-.867Zm-.9,12.389H63.727a4.179,4.179,0,0,0-3.948,2.984,26.558,26.558,0,0,1-1.747,4.2,4.181,4.181,0,0,0,.681,4.909l.852.853a31.036,31.036,0,0,1-7.243,7.243l-.853-.852a4.174,4.174,0,0,0-4.91-.68,26.6,26.6,0,0,1-4.2,1.746,4.179,4.179,0,0,0-2.984,3.948v1.194a30.685,30.685,0,0,1-10.244,0V63.727a4.179,4.179,0,0,0-2.984-3.948,26.559,26.559,0,0,1-4.2-1.747,4.177,4.177,0,0,0-4.909.681l-.853.852a31.036,31.036,0,0,1-7.243-7.243l.852-.853a4.18,4.18,0,0,0,.68-4.91,26.6,26.6,0,0,1-1.746-4.2,4.179,4.179,0,0,0-3.948-2.984H3.578a30.539,30.539,0,0,1,0-10.244H4.772A4.179,4.179,0,0,0,8.72,26.143a26.558,26.558,0,0,1,1.747-4.2,4.181,4.181,0,0,0-.681-4.909l-.852-.853a31.036,31.036,0,0,1,7.243-7.243l.853.852a4.176,4.176,0,0,0,4.91.68,26.6,26.6,0,0,1,4.2-1.746,4.179,4.179,0,0,0,2.984-3.948V3.578a30.685,30.685,0,0,1,10.244,0V4.772a4.179,4.179,0,0,0,2.984,3.948,26.559,26.559,0,0,1,4.2,1.747,4.183,4.183,0,0,0,4.909-.681l.853-.852a31.036,31.036,0,0,1,7.243,7.243l-.852.853a4.18,4.18,0,0,0-.68,4.91,26.6,26.6,0,0,1,1.746,4.2,4.179,4.179,0,0,0,3.948,2.984h1.194a30.539,30.539,0,0,1,0,10.244Z" transform="translate(0 0)" fill="#fff"/>
    <path id="Path_127" data-name="Path 127" d="M33.6,10a23.6,23.6,0,1,0,23.6,23.6A23.6,23.6,0,0,0,33.6,10Zm0,45.048A21.451,21.451,0,1,1,55.048,33.6,21.451,21.451,0,0,1,33.6,55.048Z" transform="translate(0.653 0.653)" fill="#fff"/>
    <rect id="Rectangle_151" data-name="Rectangle 151" width="2" height="2" transform="translate(35 29.999)" fill="#4ac8d5"/>
    <rect id="Rectangle_152" data-name="Rectangle 152" width="3" height="2" transform="translate(37 33.999)" fill="#4ac8d5"/>
  </g>
</svg>
