<svg xmlns="http://www.w3.org/2000/svg" width="71.318" height="71.315" viewBox="0 0 71.318 71.315">
  <g id="visibility_945445" transform="translate(0 -0.009)">
    <g id="Group_126" data-name="Group 126" transform="translate(55.507 27.342)">
      <g id="Group_125" data-name="Group 125">
        <path id="Path_74" data-name="Path 74" d="M400.932,196.7l-.073-.072a1.393,1.393,0,1,0-1.947,1.992l.071.069a1.393,1.393,0,1,0,1.95-1.99Z" transform="translate(-398.492 -196.236)" fill="#fff"/>
      </g>
    </g>
    <g id="Group_128" data-name="Group 128" transform="translate(7.085 0.009)">
      <g id="Group_127" data-name="Group 127" transform="translate(0 0)">
        <path id="Path_75" data-name="Path 75" d="M101.006,52.083a5.124,5.124,0,0,0-2.524.66l-3.568-3.568a46.421,46.421,0,0,0,4.661-3.61,56.222,56.222,0,0,0,5.976-6.141c2.459-2.953,2.459-3.4,2.459-3.757,0-.483-.158-.741-.893-1.732-.363-.489-.973-1.282-1.825-2.287a1.393,1.393,0,1,0-2.125,1.8c.795.937,1.4,1.718,1.778,2.233a50.71,50.71,0,0,1-7.674,8.192c-4.183,3.585-10.673,7.857-17.836,7.857-12.715,0-23.239-13.054-25.5-16.091A50.741,50.741,0,0,1,61.6,27.459C65.782,23.875,72.273,19.6,79.436,19.6c5.24,0,10.73,2.236,16.318,6.646a1.393,1.393,0,1,0,1.726-2.187q-1.289-1.017-2.577-1.891l3.579-3.579a5.152,5.152,0,1,0-1.97-1.97l-4.027,4.027a26.785,26.785,0,0,0-11.658-3.785V10.124a5.154,5.154,0,1,0-2.786,0v6.74a27.287,27.287,0,0,0-11.656,3.782L62.359,16.62a5.152,5.152,0,1,0-1.97,1.97l3.568,3.568A46.439,46.439,0,0,0,59.3,25.769,56.221,56.221,0,0,0,53.32,31.91c-2.459,2.953-2.459,3.4-2.459,3.757,0,.5.2.788.823,1.638.323.439.869,1.155,1.637,2.074a57.418,57.418,0,0,0,5.973,6.143,46.64,46.64,0,0,0,4.679,3.636l-3.585,3.585a5.152,5.152,0,1,0,1.97,1.97L66.4,50.674a27.207,27.207,0,0,0,11.647,3.8v6.74a5.154,5.154,0,1,0,2.786,0v-6.74a27.286,27.286,0,0,0,11.656-3.782l4.025,4.025a5.155,5.155,0,1,0,4.494-2.63ZM99.331,12.422a2.368,2.368,0,1,1,0,3.349h0a2.368,2.368,0,0,1,0-3.349ZM77.066,5.163a2.368,2.368,0,1,1,2.368,2.368A2.371,2.371,0,0,1,77.066,5.163ZM59.54,15.77h0a2.368,2.368,0,1,1,.694-1.675A2.353,2.353,0,0,1,59.539,15.771Zm0,43.141a2.368,2.368,0,1,1,0-3.349h0a2.368,2.368,0,0,1,0,3.349ZM81.805,66.17A2.368,2.368,0,1,1,79.437,63.8,2.371,2.371,0,0,1,81.805,66.17Zm20.875-7.259a2.368,2.368,0,0,1-3.349-3.348h0a2.368,2.368,0,0,1,3.349,3.349Z" transform="translate(-50.861 -0.009)" fill="#fff"/>
      </g>
    </g>
    <g id="Group_130" data-name="Group 130" transform="translate(34.28 45.751)">
      <g id="Group_129" data-name="Group 129">
        <path id="Path_76" data-name="Path 76" d="M247.561,328.4h-.067a1.393,1.393,0,1,0,0,2.786h.071a1.393,1.393,0,0,0,0-2.786Z" transform="translate(-246.101 -328.396)" fill="#fff"/>
      </g>
    </g>
    <g id="Group_132" data-name="Group 132" transform="translate(22.789 20.425)">
      <g id="Group_131" data-name="Group 131">
        <path id="Path_77" data-name="Path 77" d="M176.486,146.579a1.393,1.393,0,0,0-1.393,1.393V149a12.886,12.886,0,0,0-4.205,24.416,1.393,1.393,0,0,0,1.212-2.509,10.163,10.163,0,0,1-5.712-9.1,10.044,10.044,0,0,1,2.045-6.083l7.068,7.068h0a1.389,1.389,0,0,0,.985.408h10a10.169,10.169,0,0,1-5.636,7.717,1.393,1.393,0,1,0,1.206,2.511,12.971,12.971,0,0,0,7.237-10.228h1.027a1.393,1.393,0,0,0,1.393-1.393A15.245,15.245,0,0,0,176.486,146.579Zm-1.393,11.865-4.69-4.69a10.046,10.046,0,0,1,4.69-1.95Zm2.786,1.97V149.442a12.465,12.465,0,0,1,10.971,10.971Z" transform="translate(-163.602 -146.579)" fill="#4ac8d5"/>
      </g>
    </g>
    <g id="Group_134" data-name="Group 134" transform="translate(66.094 34.291)">
      <g id="Group_133" data-name="Group 133">
        <path id="Path_78" data-name="Path 78" d="M478.331,246.127h-2.438a1.393,1.393,0,0,0,0,2.786h2.438a1.393,1.393,0,1,0,0-2.786Z" transform="translate(-474.5 -246.127)" fill="#fff"/>
      </g>
    </g>
    <g id="Group_136" data-name="Group 136" transform="translate(0 34.291)">
      <g id="Group_135" data-name="Group 135">
        <path id="Path_79" data-name="Path 79" d="M3.831,246.127H1.393a1.393,1.393,0,0,0,0,2.786H3.831a1.393,1.393,0,0,0,0-2.786Z" transform="translate(0 -246.127)" fill="#fff"/>
      </g>
    </g>
  </g>
</svg>
