<svg xmlns="http://www.w3.org/2000/svg" xmlns:xlink="http://www.w3.org/1999/xlink" width="48.328" height="48.328" viewBox="0 0 48.328 48.328">
  <defs>
    <clipPath id="clip-path">
      <path id="path459" d="M0-682.665H48.328v48.328H0Z" transform="translate(0 682.665)" fill="#707070"/>
    </clipPath>
  </defs>
  <g id="g453" transform="translate(0 682.665)">
    <g id="g455" transform="translate(0 -682.665)">
      <g id="g457" transform="translate(0 0)" clip-path="url(#clip-path)">
        <g id="g463" transform="translate(15.449 0.944)">
          <path id="path465" d="M-289.678-54.415a1,1,0,0,1-.575-.182,22.077,22.077,0,0,0-12.778-4.04,22.1,22.1,0,0,0-8.34,1.618,1,1,0,0,1-1.3-.551,1,1,0,0,1,.551-1.3,24.092,24.092,0,0,1,9.091-1.764,24.067,24.067,0,0,1,13.93,4.4,1,1,0,0,1,.242,1.393A1,1,0,0,1-289.678-54.415Z" transform="translate(311.747 59.637)" fill="#707070"/>
        </g>
        <g id="g467" transform="translate(42.533 11.21)">
          <path id="path469" d="M0-355.5a1,1,0,0,1-.612-.209,1,1,0,0,1-.178-1.4A22,22,0,0,0,3.851-370.7,22.109,22.109,0,0,0,.076-383.1a1,1,0,0,1,.271-1.388,1,1,0,0,1,1.388.271A24.1,24.1,0,0,1,5.851-370.7a24.169,24.169,0,0,1-1.341,7.966,24.124,24.124,0,0,1-3.72,6.853A1,1,0,0,1,0-355.5Z" transform="translate(0 383.656)" fill="#707070"/>
        </g>
        <g id="g471" transform="translate(0.944 9.958)">
          <path id="path473" d="M-45.309,38.426a24.069,24.069,0,0,1-9.428-1.9,24.138,24.138,0,0,1-7.7-5.19,24.138,24.138,0,0,1-5.19-7.7,24.069,24.069,0,0,1-1.9-9.428A24.169,24.169,0,0,1-68.188,6.24a24.124,24.124,0,0,1,3.72-6.853,1,1,0,0,1,1.4-.178,1,1,0,0,1,.178,1.4,22,22,0,0,0-4.642,13.594,22.245,22.245,0,0,0,22.22,22.22,22.1,22.1,0,0,0,8.34-1.618,1,1,0,0,1,1.3.551,1,1,0,0,1-.551,1.3A24.093,24.093,0,0,1-45.309,38.426Z" transform="translate(68.529)" fill="#707070"/>
        </g>
        <g id="g475" transform="translate(16.429 8.794)">
          <path id="path477" d="M-101.532-1A8.745,8.745,0,0,1-92.8,7.735v2.608a1,1,0,0,1-1,1h-3.868a1,1,0,0,1-1-1V7.735a2.871,2.871,0,0,0-2.868-2.868A2.871,2.871,0,0,0-104.4,7.735v2.608a1,1,0,0,1-1,1h-3.868a1,1,0,0,1-1-1V7.735A8.745,8.745,0,0,1-101.532-1ZM-94.8,9.344V7.735A6.743,6.743,0,0,0-101.532,1a6.743,6.743,0,0,0-6.735,6.735V9.344h1.868V7.735a4.873,4.873,0,0,1,4.868-4.868,4.873,4.873,0,0,1,4.868,4.868V9.344Z" transform="translate(109.268)" fill="#707070"/>
        </g>
        <g id="g479" transform="translate(21.494 23.01)">
          <path id="path481" d="M-72.776-38.723a3.675,3.675,0,0,1,3.671,3.671,3.643,3.643,0,0,1-.783,2.267v2.8A2.891,2.891,0,0,1-72.776-27.1a2.891,2.891,0,0,1-2.888-2.888v-2.8a3.642,3.642,0,0,1-.783-2.267A3.675,3.675,0,0,1-72.776-38.723Zm0,9.624a.889.889,0,0,0,.888-.888v-3.177a1,1,0,0,1,.293-.707,1.66,1.66,0,0,0,.49-1.182,1.672,1.672,0,0,0-1.671-1.671,1.672,1.672,0,0,0-1.671,1.671,1.659,1.659,0,0,0,.49,1.181,1,1,0,0,1,.293.707v3.177A.889.889,0,0,0-72.776-29.1Z" transform="translate(75.446 37.723)" fill="#707070"/>
        </g>
        <g id="g483" transform="translate(14.347 19.138)">
          <path id="path485" d="M-239.973-1h14.693a3.474,3.474,0,0,1,3.47,3.47V14.9a3.474,3.474,0,0,1-3.47,3.47h-14.693a3.474,3.474,0,0,1-3.47-3.47V2.47A3.474,3.474,0,0,1-239.973-1Zm14.693,17.368a1.472,1.472,0,0,0,1.47-1.47V2.47A1.472,1.472,0,0,0-225.28,1h-14.693a1.472,1.472,0,0,0-1.47,1.47V14.9a1.472,1.472,0,0,0,1.47,1.47Z" transform="translate(242.443)" fill="#707070"/>
        </g>
        <g id="g487" transform="translate(4.931 5.225)">
          <path id="path489" d="M-72.024-38.333a3.647,3.647,0,0,1,3.643,3.643,3.647,3.647,0,0,1-3.643,3.643,3.647,3.647,0,0,1-3.643-3.643A3.647,3.647,0,0,1-72.024-38.333Zm0,5.286a1.645,1.645,0,0,0,1.643-1.643,1.645,1.645,0,0,0-1.643-1.643,1.645,1.645,0,0,0-1.643,1.643A1.645,1.645,0,0,0-72.024-33.047Z" transform="translate(74.666 37.333)" fill="#707070"/>
        </g>
        <g id="g491" transform="translate(38.111 37.817)">
          <path id="path493" d="M2.643-38.333A3.647,3.647,0,0,1,6.286-34.69a3.647,3.647,0,0,1-3.643,3.643A3.647,3.647,0,0,1-1-34.69,3.647,3.647,0,0,1,2.643-38.333Zm0,5.286A1.645,1.645,0,0,0,4.286-34.69a1.645,1.645,0,0,0-1.643-1.643A1.645,1.645,0,0,0,1-34.69,1.645,1.645,0,0,0,2.643-33.047Z" transform="translate(0 37.333)" fill="#707070"/>
        </g>
        <g id="g495" transform="translate(40.754 7.918)">
          <path id="path497" fill="#707070"/>
        </g>
      </g>
    </g>
  </g>
</svg>
