<svg xmlns="http://www.w3.org/2000/svg" xmlns:xlink="http://www.w3.org/1999/xlink" width="41.499" height="41.499" viewBox="0 0 41.499 41.499">
  <defs>
    <clipPath id="clip-path">
      <path id="path1008" d="M0-682.665H41.5v41.5H0Z" transform="translate(0 682.665)" fill="#707070" stroke="#082326" stroke-width="2"/>
    </clipPath>
    <clipPath id="clip-path-2">
      <path id="path1032" d="M0-682.665H41.5v41.5H0Z" transform="translate(0 682.665)" fill="#707070"/>
    </clipPath>
  </defs>
  <g id="g1002" transform="translate(0 682.665)">
    <g id="g1004" transform="translate(0 -682.665)">
      <g id="g1006" clip-path="url(#clip-path)">
        <g id="g1012" transform="translate(0.811 7.943)">
          <path id="path1014" d="M39.878,1H0A1,1,0,0,1-1,0,1,1,0,0,1,0-1H39.878a1,1,0,0,1,1,1A1,1,0,0,1,39.878,1Z" fill="#707070"/>
        </g>
      </g>
    </g>
    <g id="g1016" transform="translate(5.674 -678.288)">
      <path id="path1018" fill="#707070"/>
    </g>
    <g id="g1020" transform="translate(10.024 -678.288)">
      <path id="path1022" fill="#707070"/>
    </g>
    <g id="g1024" transform="translate(17.224 -678.288)">
      <path id="path1026" d="M-294.911,1H-314a1,1,0,0,1-1-1,1,1,0,0,1,1-1h19.088a1,1,0,0,1,1,1A1,1,0,0,1-294.911,1Z" transform="translate(313.999)" fill="#707070"/>
    </g>
    <g id="g1028" transform="translate(0 -682.665)">
      <g id="g1030" clip-path="url(#clip-path-2)">
        <g id="g1036" transform="translate(0.811 0.811)">
          <path id="path1038" d="M-283.586-514.938h-2.107a1,1,0,0,1-1-1,1,1,0,0,1,1-1h2.107a.622.622,0,0,0,.621-.621v-30.152a.622.622,0,0,0-.621-.621h-36.636a.622.622,0,0,0-.621.621v30.152a.622.622,0,0,0,.621.621h17.944a1,1,0,0,1,1,1,1,1,0,0,1-1,1h-17.944a2.624,2.624,0,0,1-2.621-2.621v-30.152a2.624,2.624,0,0,1,2.621-2.621h36.636a2.624,2.624,0,0,1,2.621,2.621v30.152A2.624,2.624,0,0,1-283.586-514.938Z" transform="translate(321.843 549.332)" fill="#707070"/>
        </g>
        <g id="g1040" transform="translate(23.505 21.074)">
          <path id="path1042" d="M-175.319-59.109h-9.4a2.949,2.949,0,0,1-2.945-2.945A2.949,2.949,0,0,1-184.721-65h9.4a2.949,2.949,0,0,1,2.945,2.945A2.949,2.949,0,0,1-175.319-59.109Zm-9.4-3.891a.946.946,0,0,0-.945.945.946.946,0,0,0,.945.945h9.4a.946.946,0,0,0,.945-.945.946.946,0,0,0-.945-.945Z" transform="translate(186.666 64)" fill="#707070"/>
        </g>
        <g id="g1044" transform="translate(23.505 13.293)">
          <path id="path1046" d="M-15.444,1h-1a1,1,0,0,1-1-1,1,1,0,0,1,1-1h1a1,1,0,0,1,1,1A1,1,0,0,1-15.444,1Z" transform="translate(16.444)" fill="#707070"/>
        </g>
        <g id="g1048" transform="translate(28.152 13.293)">
          <path id="path1050" d="M8.646,1H0A1,1,0,0,1-1,0,1,1,0,0,1,0-1H8.646a1,1,0,0,1,1,1A1,1,0,0,1,8.646,1Z" fill="#707070"/>
        </g>
        <g id="g1052" transform="translate(23.505 17.183)">
          <path id="path1054" d="M-15.444,1h-1a1,1,0,0,1-1-1,1,1,0,0,1,1-1h1a1,1,0,0,1,1,1A1,1,0,0,1-15.444,1Z" transform="translate(16.444)" fill="#707070"/>
        </g>
        <g id="g1056" transform="translate(28.152 17.183)">
          <path id="path1058" d="M8.646,1H0A1,1,0,0,1-1,0,1,1,0,0,1,0-1H8.646a1,1,0,0,1,1,1A1,1,0,0,1,8.646,1Z" fill="#707070"/>
        </g>
        <g id="g1060" transform="translate(27.67 24.964)">
          <path id="path1062" d="M-86.238-241.942a1,1,0,0,1-.259-.034,1,1,0,0,1-.607-.466l-2.753-4.768-1.46.849a1,1,0,0,1-1,0,1,1,0,0,1-.5-.867v-11.44a1,1,0,0,1,.5-.866,1,1,0,0,1,1,0l9.908,5.72a1,1,0,0,1,.5.868,1,1,0,0,1-.5.866l-1.218.7,2.753,4.768a1,1,0,0,1-.366,1.366l-5.492,3.171A1,1,0,0,1-86.238-241.942Zm-3.254-7.637a1,1,0,0,1,.257.034,1,1,0,0,1,.609.466l2.754,4.771,3.759-2.171-2.754-4.77a1,1,0,0,1-.1-.76,1,1,0,0,1,.468-.607l.58-.333-6.9-3.985v7.971l.825-.479A1,1,0,0,1-89.492-249.578Z" transform="translate(91.82 258.666)" fill="#707070"/>
        </g>
        <g id="g1064" transform="translate(4.704 13.293)">
          <path id="path1066" d="M-201.677-105a7.33,7.33,0,0,1,7.322,7.322,7.33,7.33,0,0,1-7.322,7.322A7.33,7.33,0,0,1-209-97.678,7.33,7.33,0,0,1-201.677-105Zm0,12.644a5.328,5.328,0,0,0,5.322-5.322A5.328,5.328,0,0,0-201.677-103,5.328,5.328,0,0,0-207-97.678,5.328,5.328,0,0,0-201.677-92.355Z" transform="translate(207.999 104)" fill="#707070"/>
        </g>
        <g id="g1068" transform="translate(11.026 13.293)">
          <path id="path1070" d="M5.994,7.322H0a1,1,0,0,1-1-1V0A1,1,0,0,1,0-1,1,1,0,0,1,1,0V5.322H5.994a1,1,0,0,1,0,2Z" fill="#707070"/>
        </g>
        <g id="g1072" transform="translate(11.026 19.615)">
          <path id="path1074" d="M4.432,5.432a1,1,0,0,1-.707-.293L-.707.707a1,1,0,0,1,0-1.414,1,1,0,0,1,1.414,0L5.139,3.725a1,1,0,0,1-.707,1.707Z" fill="#707070"/>
        </g>
        <g id="g1076" transform="translate(24.023 34.204)">
          <path id="path1078" fill="#707070"/>
        </g>
      </g>
    </g>
  </g>
</svg>
