<svg xmlns="http://www.w3.org/2000/svg" width="53.333" height="53.329" viewBox="0 0 53.333 53.329">
  <g id="technology_4491529" transform="translate(0 0)">
    <path id="Path_222" data-name="Path 222" d="M44.212,29.332a42.342,42.342,0,0,1-6.4,1.457A2.157,2.157,0,0,0,36,32.928v7.4a13.346,13.346,0,0,0,8.024,12.239,2.207,2.207,0,0,0,1.729,0,13.325,13.325,0,0,0,8.024-12.23V32.928a2.155,2.155,0,0,0-1.813-2.139,42.635,42.635,0,0,1-6.4-1.455,2.133,2.133,0,0,0-1.357,0Zm7.467,3.212a.383.383,0,0,1,.319.383v7.411a11.549,11.549,0,0,1-6.956,10.6.373.373,0,0,1-.32,0A11.563,11.563,0,0,1,37.778,40.33v-7.4a.384.384,0,0,1,.321-.383,44.114,44.114,0,0,0,6.674-1.525.372.372,0,0,1,.235,0,44.493,44.493,0,0,0,6.674,1.525Z" transform="translate(-4 -3.247)" fill="#707070"/>
    <path id="Path_223" data-name="Path 223" d="M25.778,32.168v1.052a.889.889,0,1,0,1.778,0V32.168a2.667,2.667,0,1,0-1.778,0Zm.889-3.392a.889.889,0,1,1-.889.889A.889.889,0,0,1,26.667,28.776Z" transform="translate(-2.667 -2.999)" fill="#707070"/>
    <path id="Path_224" data-name="Path 224" d="M43.517,42.7a.889.889,0,1,0-1.257,1.257l.889.889a.883.883,0,0,0,.628.26h.04a.9.9,0,0,0,.644-.318l4.444-5.333a.89.89,0,0,0-1.367-1.14l-3.822,4.587Z" transform="translate(-4.667 -4.222)" fill="#707070"/>
    <path id="Path_225" data-name="Path 225" d="M4.444,29.333A2.667,2.667,0,0,0,1.778,32v3.719a2.667,2.667,0,1,0,1.778,0V32a.889.889,0,0,1,.889-.889h2.3a18.763,18.763,0,0,0,10.14,10.14v2.3a.889.889,0,0,1-.889.889H12.281a2.667,2.667,0,1,0,0,1.778H16a2.667,2.667,0,0,0,2.667-2.667V41.881a18.612,18.612,0,0,0,4.444.74v4.49a.889.889,0,1,0,1.778,0V42.63a18.667,18.667,0,0,0,4.267-.7A16.881,16.881,0,0,0,38.6,52.578l1.226.533a2.717,2.717,0,0,0,2.128,0l1.226-.533A16.881,16.881,0,0,0,53.333,37.091V27.037a2.672,2.672,0,0,0-2.316-2.644A49.432,49.432,0,0,1,42.6,22.674a18.726,18.726,0,0,0-.719-4.007h1.679A2.667,2.667,0,0,0,46.222,16V12.281a2.667,2.667,0,1,0-1.778,0V16a.889.889,0,0,1-.889.889h-2.3A18.578,18.578,0,0,0,31.111,6.722V4.444A.889.889,0,0,1,32,3.556h3.719a2.667,2.667,0,1,0,0-1.778H32a2.667,2.667,0,0,0-2.667,2.667V6.1a18.774,18.774,0,0,0-4.444-.726V.889a.889.889,0,1,0-1.778,0v4.49a18.612,18.612,0,0,0-4.444.74V4.444A2.667,2.667,0,0,0,16,1.778H12.281a2.667,2.667,0,1,0,0,1.778H16a.889.889,0,0,1,.889.889v2.3a18.763,18.763,0,0,0-10.14,10.14h-2.3A.889.889,0,0,1,3.556,16V12.281a2.667,2.667,0,1,0-1.778,0V16a2.667,2.667,0,0,0,2.667,2.667H6.119a18.612,18.612,0,0,0-.74,4.444H.889a.889.889,0,1,0,0,1.778h4.49a18.612,18.612,0,0,0,.74,4.444ZM2.667,39.111a.889.889,0,1,1,.889-.889A.889.889,0,0,1,2.667,39.111Zm7.111,7.111a.889.889,0,1,1,.889-.889A.889.889,0,0,1,9.778,46.222ZM45.333,8.889a.889.889,0,1,1-.889.889A.889.889,0,0,1,45.333,8.889ZM38.222,1.778a.889.889,0,1,1-.889.889A.889.889,0,0,1,38.222,1.778ZM9.778,3.556a.889.889,0,1,1,.889-.889A.889.889,0,0,1,9.778,3.556ZM2.667,8.889a.889.889,0,1,1-.889.889.889.889,0,0,1,.889-.889Zm24.889,9.778H20.444V15.111a3.556,3.556,0,0,1,7.111,0Zm1.778,1.778a1.778,1.778,0,0,1,1.778,1.778v2.124c-.114.015-.244.034-.35.047a2.667,2.667,0,0,0-2.316,2.644v7.629H18.667a1.778,1.778,0,0,1-1.778-1.778V22.222a1.778,1.778,0,0,1,1.778-1.778Zm22.222,6.593V37.091a15.107,15.107,0,0,1-9.088,13.858l-1.227.532a.889.889,0,0,1-.706,0l-1.228-.533a15.106,15.106,0,0,1-9.085-13.857V27.037a.889.889,0,0,1,.768-.88,45.752,45.752,0,0,0,9.578-2.094.855.855,0,0,1,.641,0,45.824,45.824,0,0,0,9.579,2.093A.889.889,0,0,1,51.555,27.037ZM24,7.111A16.808,16.808,0,0,1,40.776,22.233a2.636,2.636,0,0,0-.876.183,35.814,35.814,0,0,1-7.012,1.673V22.222a3.556,3.556,0,0,0-3.556-3.556V15.111a5.333,5.333,0,1,0-10.667,0v3.556a3.556,3.556,0,0,0-3.556,3.556V32.889a3.556,3.556,0,0,0,3.556,3.556h9.778v.647a16.915,16.915,0,0,0,.3,3.111A16.889,16.889,0,1,1,24,7.111Z" transform="translate(0 0)" fill="#707070"/>
  </g>
</svg>
