<svg xmlns="http://www.w3.org/2000/svg" width="42.429" height="42.333" viewBox="0 0 42.429 42.333">
  <g id="_x37_2" transform="translate(-2 -2)">
    <path id="Path_112" data-name="Path 112" d="M2,35.721a2.658,2.658,0,0,0,2.65,2.65h16.5a.662.662,0,1,0,0-1.325H4.65a1.329,1.329,0,0,1-1.325-1.325V11.606H39.1V26.512a7.669,7.669,0,0,0-2.65-1.325l-.265-2.252a.7.7,0,0,0-.662-.6H32.408a.7.7,0,0,0-.662.6l-.265,2.252A9.528,9.528,0,0,0,28.1,27.108l-2.054-.861a.725.725,0,0,0-.861.265L23.6,29.228a.645.645,0,0,0,.2.861l1.789,1.325a9.708,9.708,0,0,0,0,3.909L23.8,36.648a.723.723,0,0,0-.2.861l1.59,2.716a.725.725,0,0,0,.861.265l2.054-.927a7.511,7.511,0,0,0,3.379,1.921l.265,2.252a.7.7,0,0,0,.662.6h3.114a.7.7,0,0,0,.662-.6l.265-2.252a9.528,9.528,0,0,0,3.379-1.921l2.054.927a.725.725,0,0,0,.861-.265l1.59-2.716a.645.645,0,0,0-.2-.861l-1.789-1.325a9.708,9.708,0,0,0,0-3.909l1.789-1.325a.723.723,0,0,0,.2-.861l-1.59-2.716a.725.725,0,0,0-.861-.265l-1.457.662V4.65A2.658,2.658,0,0,0,37.774,2H4.65A2.658,2.658,0,0,0,2,4.65Zm40.875-6.36-1.722,1.259a.788.788,0,0,0-.265.729,7,7,0,0,1,0,4.041.662.662,0,0,0,.265.729l1.722,1.259L41.882,39.1l-1.921-.861a.6.6,0,0,0-.729.132,7.284,7.284,0,0,1-3.511,2.054.712.712,0,0,0-.53.6l-.265,2.054H33l-.265-2.12a.7.7,0,0,0-.53-.6A7.074,7.074,0,0,1,28.7,38.3a.6.6,0,0,0-.729-.132l-1.921.861-.994-1.656,1.722-1.259a.788.788,0,0,0,.265-.729,7,7,0,0,1,0-4.041.662.662,0,0,0-.265-.729l-1.722-1.259.994-1.656,1.921.861a.6.6,0,0,0,.729-.132,6.693,6.693,0,0,1,3.511-1.987.712.712,0,0,0,.53-.6L33,23.73h1.921l.265,2.12a.7.7,0,0,0,.53.6,7.474,7.474,0,0,1,3.511,1.987.8.8,0,0,0,.994.066l1.722-.729ZM3.325,4.65A1.329,1.329,0,0,1,4.65,3.325H37.774A1.329,1.329,0,0,1,39.1,4.65v5.631H3.325Z" fill="#707070"/>
    <path id="Path_113" data-name="Path 113" d="M9.987,6.2a1.987,1.987,0,1,0,1.987,1.987A1.993,1.993,0,0,0,9.987,6.2Zm0,2.65a.662.662,0,1,1,.662-.662A.664.664,0,0,1,9.987,8.85Z" transform="translate(-2.025 -1.418)" fill="#707070"/>
    <path id="Path_114" data-name="Path 114" d="M18.387,6.2a1.987,1.987,0,1,0,1.987,1.987A1.952,1.952,0,0,0,18.387,6.2Zm0,2.65a.662.662,0,1,1,.662-.662A.626.626,0,0,1,18.387,8.85Z" transform="translate(-4.86 -1.418)" fill="#707070"/>
    <path id="Path_115" data-name="Path 115" d="M26.887,6.2a1.987,1.987,0,1,0,1.987,1.987A1.993,1.993,0,0,0,26.887,6.2Zm0,2.65a.662.662,0,1,1,.662-.662A.664.664,0,0,1,26.887,8.85Z" transform="translate(-7.729 -1.418)" fill="#707070"/>
    <path id="Path_116" data-name="Path 116" d="M47.414,8.2H39.662a.662.662,0,0,0,0,1.325h7.751a.662.662,0,0,0,0-1.325Z" transform="translate(-12.488 -2.093)" fill="#707070"/>
    <path id="Path_117" data-name="Path 117" d="M8.451,26.951A2.451,2.451,0,1,0,10.9,29.4a2.389,2.389,0,0,0-.4-1.325l1.987-2.252a2.389,2.389,0,0,0,1.325.4,2.557,2.557,0,0,0,1.921-.927l2.915,1.789a1.291,1.291,0,0,0-.066.53,2.451,2.451,0,0,0,4.9,0,2.233,2.233,0,0,0-.331-1.126l2.186-2.517a2.354,2.354,0,0,0,.662.132,2.451,2.451,0,1,0-2.451-2.451,2.6,2.6,0,0,0,.6,1.59L22.165,25.56a2.479,2.479,0,0,0-1.192-.331,2.406,2.406,0,0,0-1.722.729L16.2,24.1v-.265a2.451,2.451,0,0,0-4.9,0,1.944,1.944,0,0,0,.265,1.06l-2.12,2.385a1.3,1.3,0,0,0-.994-.331Zm17.622-6.492a1.126,1.126,0,1,1-1.126,1.126A1.117,1.117,0,0,1,26.073,20.459Zm-5.035,6.029a1.126,1.126,0,1,1-1.126,1.126A1.117,1.117,0,0,1,21.038,26.487ZM8.451,30.529a1.126,1.126,0,0,1,0-2.252A1.117,1.117,0,0,1,9.577,29.4,1.161,1.161,0,0,1,8.451,30.529Zm5.366-7.884a1.126,1.126,0,1,1-1.126,1.126A1.211,1.211,0,0,1,13.817,22.645Z" transform="translate(-1.35 -5.805)" fill="#707070"/>
    <path id="Path_118" data-name="Path 118" d="M36.4,29.262v3.71a.662.662,0,1,0,1.325,0v-3.71a.626.626,0,0,0-.662-.662A.664.664,0,0,0,36.4,29.262Z" transform="translate(-11.61 -8.978)" fill="#707070"/>
    <path id="Path_119" data-name="Path 119" d="M6.762,44.9H24.517a.662.662,0,0,0,0-1.325h-2.65V37.282a.662.662,0,0,0-1.325,0v6.294H14.977V35.162a.662.662,0,0,0-1.325,0v8.414H9.28V40.131a.662.662,0,1,0-1.325,0v3.445H6.762a.662.662,0,0,0,0,1.325Z" transform="translate(-1.384 -10.969)" fill="#707070"/>
    <path id="Path_120" data-name="Path 120" d="M47.971,42.5a4.571,4.571,0,1,0,4.571,4.571A4.58,4.58,0,0,0,47.971,42.5Zm0,7.751A3.246,3.246,0,1,1,51.217,47,3.251,3.251,0,0,1,47.971,50.251Z" transform="translate(-13.973 -13.669)" fill="#707070"/>
  </g>
</svg>
