<svg xmlns="http://www.w3.org/2000/svg" width="50.283" height="45.838" viewBox="0 0 50.283 45.838">
  <path id="key-performance-indicator_10397130" d="M20.429,29.256a2.051,2.051,0,0,0-2.9,0l-5.27,5.27-1.435-1.806a2.046,2.046,0,0,0-3.2,2.547l2.8,3.524a2.051,2.051,0,0,0,3.114.255l6.893-6.893A2.051,2.051,0,0,0,20.429,29.256ZM19.315,31.04l-6.893,6.893a.475.475,0,0,1-.671,0,.487.487,0,0,1-.055-.065l-.029-.039L8.855,34.288a.472.472,0,0,1,.739-.588l1.984,2.5a.787.787,0,0,0,1.173.067l5.894-5.894a.474.474,0,0,1,.671.671Zm24.1,14.467a25.027,25.027,0,0,0-17.777-7.334q-.623,0-1.24.03A11.065,11.065,0,1,0,9.346,44.145q-.763.649-1.482,1.362A24.83,24.83,0,0,0,.5,63.217.787.787,0,0,0,1.287,64h8.09a.787.787,0,0,0,.787-.787A15.492,15.492,0,0,1,34.42,50.522l-7.228,7.2a5.706,5.706,0,1,0,4.177,5.5,5.679,5.679,0,0,0-.212-1.541l2.6-2.593a.787.787,0,0,0,.231-.589l-.048-1.212,1.221.047a.787.787,0,0,0,.817-.817L35.935,55.3l1.221.047a.787.787,0,0,0,.817-.817l-.026-.66a15.355,15.355,0,0,1,3.172,9.348.787.787,0,0,0,.787.787H50a.787.787,0,0,0,.787-.787A24.83,24.83,0,0,0,43.418,45.507Zm-18.564.742a16.98,16.98,0,0,0-7.047,1.884l-3.257-5.619a23.482,23.482,0,0,1,10.3-2.752Zm1.574-6.487a23.481,23.481,0,0,1,10.3,2.752l-3.252,5.61a16.9,16.9,0,0,0-7.052-1.876ZM4.613,34.151a9.491,9.491,0,1,1,18,4.2,24.934,24.934,0,0,0-11.863,4.68,9.472,9.472,0,0,1-6.138-8.882Zm4,28.278H2.088A23.234,23.234,0,0,1,4.853,52.171L10.5,55.416A16.815,16.815,0,0,0,8.608,62.429Zm2.681-8.374L5.646,50.81a23.7,23.7,0,0,1,7.541-7.51l3.258,5.62A17.155,17.155,0,0,0,11.289,54.055Zm23.554-5.142L38.1,43.3a23.705,23.705,0,0,1,7.541,7.51L40,54.052q-.246-.383-.514-.753a.785.785,0,0,0,.477-.671l.2-3.042a.787.787,0,0,0-.837-.838l-3.055.2a.787.787,0,0,0-.5.228l-.216.215q-.35-.25-.71-.48Zm2.293,2.8a.787.787,0,0,0-.817.817l.048,1.212-1.221-.047a.787.787,0,0,0-.817.817l.048,1.212-1.221-.047a.787.787,0,0,0-.817.817l.067,1.718L29.7,60.9a.788.788,0,0,0-.18.84,4.1,4.1,0,0,1,.272,1.474,4.146,4.146,0,1,1-2.67-3.861.787.787,0,0,0,.836-.178l8.71-8.675,1.863-.123-.092,1.381Zm5.539,10.72a16.923,16.923,0,0,0-1.886-7.015l5.641-3.244A23.234,23.234,0,0,1,49.2,62.429Zm-17.033-1.9a2.685,2.685,0,1,0,2.693,2.685,2.692,2.692,0,0,0-2.693-2.685Zm0,3.8a1.111,1.111,0,1,1,1.119-1.111,1.116,1.116,0,0,1-1.119,1.111Z" transform="translate(-0.5 -23.086)" fill="#707070"/>
</svg>
