<svg xmlns="http://www.w3.org/2000/svg" width="47.332" height="47.33" viewBox="0 0 47.332 47.33">
  <path id="strategy_7172326" d="M45.75,13.41H40.229a1.578,1.578,0,0,0-1.578,1.578v1.578a1.577,1.577,0,0,0,.8,1.375l-1.593,1.59-1.481-1.476a2.407,2.407,0,0,0-3.344,0l-7.008,7-1.481-1.476a2.4,2.4,0,0,0-3.344,0l-1.284,1.284a26.928,26.928,0,0,0-4.253-5.139,8.44,8.44,0,0,0,3.228-.7L22.2,20.813a4.575,4.575,0,0,0,5.589-1.172l.757-.907a2.734,2.734,0,0,0-.36-3.865L21.3,9.1V8.352A2.321,2.321,0,0,0,19.433,6.08L17.6,5.712l.285-.853a1.569,1.569,0,0,0-.932-1.946,8.881,8.881,0,0,0-1.964-.486V1.4A1.406,1.406,0,0,0,14.3.187,1.332,1.332,0,0,0,12.961.172a6.159,6.159,0,0,0-2.313,2.389C4.742,3.7,0,9.885,0,16.565a23.786,23.786,0,0,0,1.857,9.594A28.318,28.318,0,0,1,3.935,37.221a2.366,2.366,0,0,0-1.57,2.219v.934A2.366,2.366,0,0,0,.788,42.6v3.155a1.578,1.578,0,0,0,1.578,1.578H22.875a1.572,1.572,0,0,0,1.358-.789H45.75a1.578,1.578,0,0,0,1.578-1.578V43.384a1.572,1.572,0,0,0-.789-1.358V26.819a2.366,2.366,0,0,0-2.366-2.366H42.595a2.366,2.366,0,0,0-2.366,2.366V41.807H38.651V28.4a2.366,2.366,0,0,0-2.366-2.366H34.707A2.366,2.366,0,0,0,32.34,28.4v13.41H30.763v-7.1A2.366,2.366,0,0,0,28.4,32.341H26.819a2.366,2.366,0,0,0-2.366,2.366v7.1h-.145a2.366,2.366,0,0,0-1.432-1.432V39.44a2.366,2.366,0,0,0-1.354-2.13,23.147,23.147,0,0,0,.565-5.758,10.052,10.052,0,0,0-.205-1.966l.994-1,1.481,1.475a2.345,2.345,0,0,0,3.344,0l7.008-7,1.481,1.475a2.4,2.4,0,0,0,3.344,0L42.8,21.277a1.578,1.578,0,0,0,1.376.809H45.75a1.578,1.578,0,0,0,1.578-1.578V14.987A1.578,1.578,0,0,0,45.75,13.41ZM1.577,16.565c0-5.548,3.629-10.694,8.33-12.177a11.5,11.5,0,0,0-.353,1.794,11.475,11.475,0,0,0-6.4,10.383.789.789,0,1,0,1.578,0c0-3.96,2.508-7.867,5.832-9.089a.789.789,0,0,0,.514-.677,8.835,8.835,0,0,1,.8-3.18h0a4.864,4.864,0,0,1,1.533-1.862V4.733a.789.789,0,0,0,1.578,0v-.71a7.33,7.33,0,0,1,1.4.345l-.568,1.7a.789.789,0,0,0,.593,1.025l2.714.545a.74.74,0,0,1,.595.725V9.465A.789.789,0,0,0,20,10.07l7.184,6.015a1.157,1.157,0,0,1,.158,1.637h0l-.76.909a3.039,3.039,0,0,1-3.647.781l-3.629-1.964a.794.794,0,0,0-.728-.013,7.39,7.39,0,0,1-2.8.707,7.446,7.446,0,0,1-2.8-.7.789.789,0,0,0-.8,1.351c.338.252,8.332,6.225,8.332,12.76a20.77,20.77,0,0,1-.558,5.522H5.514A29.866,29.866,0,0,0,3.334,25.608a22.446,22.446,0,0,1-1.757-9.044ZM20.508,38.651a.789.789,0,0,1,.789.789v.789H3.943V39.44a.789.789,0,0,1,.789-.789Zm-18.143,7.1V42.6a.789.789,0,0,1,.789-.789H22.086a.789.789,0,0,1,.789.789v3.155Zm22.087-.789V43.384h21.3v1.578ZM41.806,26.819a.789.789,0,0,1,.789-.789h1.578a.789.789,0,0,1,.789.789V41.807H41.806ZM33.918,28.4a.789.789,0,0,1,.789-.789h1.578a.789.789,0,0,1,.789.789v13.41H33.918Zm-7.888,6.31a.789.789,0,0,1,.789-.789H28.4a.789.789,0,0,1,.789.789v7.1H26.03Zm19.72-14.2H44.173v-.931a.789.789,0,0,0-1.347-.558l-4.412,4.413a.783.783,0,0,1-1.1,0l-2.043-2.035a.789.789,0,0,0-1.115,0l-7.57,7.561a.783.783,0,0,1-1.1,0l-2.043-2.035a.789.789,0,0,0-1.115,0l-.932.929a14.721,14.721,0,0,0-.667-1.559l1.6-1.6a.783.783,0,0,1,1.1,0l2.043,2.035a.789.789,0,0,0,1.115,0l7.57-7.558a.783.783,0,0,1,1.1,0L37.3,21.2a.789.789,0,0,0,1.114,0l3.3-3.289a.789.789,0,0,0-.554-1.347h-.931V14.987H45.75Z" transform="translate(0.004 0.001)" fill="#707070"/>
</svg>
