<svg xmlns="http://www.w3.org/2000/svg" width="63.999" height="64" viewBox="0 0 63.999 64">
  <g id="internet_16452849" transform="translate(-4 -4)">
    <path id="Path_121" data-name="Path 121" d="M51.208,22.408l6.947-6.947a6.3,6.3,0,1,0-1.616-1.616l-6.947,6.947a20.315,20.315,0,0,0-12.449-5.163v-4.4a3.714,3.714,0,1,0-2.286,0v4.4a20.315,20.315,0,0,0-12.449,5.163l-6.947-6.947a6.3,6.3,0,1,0-1.616,1.616l6.947,6.947a20.315,20.315,0,0,0-5.162,12.449h-4.4a3.714,3.714,0,1,0,0,2.286h4.4a20.314,20.314,0,0,0,5.055,12.33l-6.852,7.056a6.306,6.306,0,1,0,1.62,1.614L22.29,51.1a20.317,20.317,0,0,0,12.567,5.27v4.4a3.714,3.714,0,1,0,2.286,0v-4.4a20.315,20.315,0,0,0,12.449-5.163l6.947,6.947a6.3,6.3,0,1,0,1.616-1.616l-6.947-6.947A20.315,20.315,0,0,0,56.37,37.143h4.4a3.714,3.714,0,1,0,0-2.286h-4.4a20.315,20.315,0,0,0-5.163-12.449ZM61.714,6.286a4,4,0,1,1-2.765,6.878c-.018-.021-.025-.048-.045-.068s-.047-.027-.068-.045a3.991,3.991,0,0,1,2.878-6.765ZM36,6.286a1.429,1.429,0,1,1-1.429,1.429A1.43,1.43,0,0,1,36,6.286Zm-29.714,4A4,4,0,1,1,13.18,13.03a1.063,1.063,0,0,0-.09.06,1.062,1.062,0,0,0-.06.09,3.989,3.989,0,0,1-6.745-2.895ZM7.714,37.428A1.429,1.429,0,1,1,9.143,36,1.43,1.43,0,0,1,7.714,37.428Zm2.571,28.285a4,4,0,1,1,4-4A4,4,0,0,1,10.286,65.714Zm25.714,0a1.429,1.429,0,1,1,1.429-1.429A1.43,1.43,0,0,1,36,65.714Zm29.714-4a4,4,0,1,1-4-4A4,4,0,0,1,65.714,61.714ZM36,54.142A18.143,18.143,0,1,1,54.142,36,18.163,18.163,0,0,1,36,54.142ZM64.285,34.571A1.429,1.429,0,1,1,62.857,36,1.43,1.43,0,0,1,64.285,34.571Z" transform="translate(0)" fill="#082326"/>
    <path id="Path_122" data-name="Path 122" d="M44.388,32.682A9.326,9.326,0,0,0,26.575,29.3a6.613,6.613,0,0,0,.274,13.22h15.04a4.969,4.969,0,0,0,1.764-.312,5.232,5.232,0,0,0,.735-9.529Zm-1.524,7.384a2.732,2.732,0,0,1-.975.171H26.848a4.331,4.331,0,1,1,4.331-4.331,1.143,1.143,0,1,0,2.286,0,6.5,6.5,0,0,0-.113-1.166c-.022-.123-.06-.24-.089-.361a6.563,6.563,0,0,0-.22-.745c-.05-.134-.108-.263-.166-.393a6.631,6.631,0,0,0-.325-.636c-.073-.125-.147-.248-.228-.368a6.7,6.7,0,0,0-.439-.575c-.087-.1-.17-.21-.263-.309A6.722,6.722,0,0,0,31,30.784c-.072-.059-.136-.126-.21-.182a6.626,6.626,0,0,0-.945-.589c-.1-.051-.206-.085-.308-.131-.2-.088-.386-.183-.591-.252a7.068,7.068,0,0,1,13.1,2.419c-.016,0-.03.007-.045.007-.036,0-.07-.009-.105-.009a1.143,1.143,0,1,0,0,2.286,2.88,2.88,0,0,1,.994.174,2.946,2.946,0,0,1-.019,5.559Z" transform="translate(2.319 2.831)" fill="#16808b"/>
  </g>
</svg>
