<svg xmlns="http://www.w3.org/2000/svg" width="64.799" height="68" viewBox="0 0 64.799 68">
  <g id="smartphone_18755920" transform="translate(-3.41 -2)">
    <path id="Path_123" data-name="Path 123" d="M28.414,55.193H17.884a1.133,1.133,0,0,0,0,2.267h10.53a1.133,1.133,0,0,0,0-2.267Z" transform="translate(1.779 7.092)" fill="#082326"/>
    <path id="Path_124" data-name="Path 124" d="M13.981,8.848H27.143a1.133,1.133,0,1,0,0-2.267H13.981a1.133,1.133,0,1,0,0,2.267Z" transform="translate(1.258 0.611)" fill="#082326"/>
    <path id="Path_125" data-name="Path 125" d="M29.465,8.848h1.828a1.133,1.133,0,0,0,0-2.267H29.465a1.133,1.133,0,1,0,0,2.267Z" transform="translate(3.323 0.611)" fill="#082326"/>
    <path id="Path_126" data-name="Path 126" d="M24.34,48.255A16.485,16.485,0,1,0,7.851,31.768,16.485,16.485,0,0,0,24.34,48.255ZM10.667,35.643a21.76,21.76,0,0,0,7.421,2.373,21.76,21.76,0,0,0,2.374,7.422A14.261,14.261,0,0,1,10.667,35.643ZM24.34,17.552c1.308,0,3.034,2.861,3.909,7.675-1.291-.124-2.607-.193-3.909-.193s-2.617.069-3.908.193C21.3,20.412,23.029,17.552,24.34,17.552Zm0,9.747a38.872,38.872,0,0,1,4.242.227,39.126,39.126,0,0,1,.227,4.241,39.125,39.125,0,0,1-.227,4.241,38.872,38.872,0,0,1-4.242.227,38.871,38.871,0,0,1-4.241-.227,39.591,39.591,0,0,1,0-8.482A39.157,39.157,0,0,1,24.34,27.3Zm6.543.567c4.816.875,7.676,2.6,7.676,3.908s-2.861,3.034-7.676,3.908c.125-1.291.194-2.607.194-3.908s-.074-2.62-.2-3.911ZM24.34,45.988c-1.307,0-3.033-2.862-3.908-7.676,1.291.124,2.607.193,3.908.193s2.618-.069,3.909-.193C27.369,43.127,25.643,45.988,24.34,45.988ZM17.8,35.675c-4.816-.874-7.676-2.6-7.676-3.908s2.861-3.033,7.676-3.908c-.125,1.291-.194,2.607-.194,3.908s.065,2.619.189,3.91Zm10.415,9.761a21.76,21.76,0,0,0,2.374-7.422,21.76,21.76,0,0,0,7.421-2.373,14.258,14.258,0,0,1-9.8,9.8Zm9.8-17.543a21.76,21.76,0,0,0-7.422-2.373,21.725,21.725,0,0,0-2.373-7.42A14.254,14.254,0,0,1,38,27.9ZM20.463,18.1a21.75,21.75,0,0,0-2.373,7.42A21.748,21.748,0,0,0,10.668,27.9,14.252,14.252,0,0,1,20.463,18.1Z" transform="translate(0.592 1.771)" fill="#16808b"/>
    <path id="Path_127" data-name="Path 127" d="M67.326,37.961a1.133,1.133,0,0,0,.883-1.1v-6.63a1.133,1.133,0,0,0-.883-1.1,5.3,5.3,0,0,1-4.14-5.2A5.167,5.167,0,0,1,64,21.111a1.177,1.177,0,0,0,.177-.624,1.133,1.133,0,0,0-.332-.8L59.158,15a1.133,1.133,0,0,0-1.4-.161,5.327,5.327,0,0,1-8.029-3.324,1.133,1.133,0,0,0-1.1-.883H46.443V5.389A3.393,3.393,0,0,0,43.054,2H6.8A3.393,3.393,0,0,0,3.41,5.389V66.611A3.393,3.393,0,0,0,6.8,70H43.054a3.393,3.393,0,0,0,3.389-3.389V56.442h2.182a1.133,1.133,0,0,0,1.1-.883,5.327,5.327,0,0,1,8.032-3.322,1.133,1.133,0,0,0,1.4-.159L63.845,47.4a1.133,1.133,0,0,0,.16-1.4,5.327,5.327,0,0,1,3.322-8.033ZM46.443,23.77a9.836,9.836,0,0,1,0,19.541ZM6.8,4.267H43.054a1.123,1.123,0,0,1,1.122,1.122V57.624H5.681V5.389A1.123,1.123,0,0,1,6.8,4.267ZM43.054,67.733H6.8a1.123,1.123,0,0,1-1.122-1.122V59.89h38.5v6.721a1.123,1.123,0,0,1-1.122,1.122ZM60.92,43.16a7.593,7.593,0,0,0,.724,3.231L58.16,49.876a7.593,7.593,0,0,0-10.386,4.3H46.443v-8.59a12.1,12.1,0,0,0,0-24.09V12.907h1.332a7.593,7.593,0,0,0,10.385,4.3l3.493,3.488a7.587,7.587,0,0,0,4.3,10.382v4.93A7.55,7.55,0,0,0,60.92,43.16Z" fill="#082326"/>
  </g>
</svg>
