<svg xmlns="http://www.w3.org/2000/svg" width="41" height="38.911" viewBox="0 0 41 38.911">
  <g id="Layer_x0020_1" transform="translate(0 -0.044)">
    <path id="Path_90" data-name="Path 90" d="M5.348,7.644A5.348,5.348,0,0,1,0,2.3.891.891,0,0,1,.891,1.4H40.109A.891.891,0,0,1,41,2.3,5.341,5.341,0,0,1,35.654,7.64l-30.306,0Zm0-1.783h30.3a4.363,4.363,0,0,0,2.521-1.044,3.558,3.558,0,0,0,.932-1.63H1.895A3.567,3.567,0,0,0,5.348,5.861Z" transform="translate(0 31.311)" fill="#707070"/>
    <path id="Path_91" data-name="Path 91" d="M2.153,2.667a.891.891,0,1,1,.892-.891A.891.891,0,0,1,2.153,2.667Z" transform="translate(29.043 19.352)" fill="#707070" fill-rule="evenodd"/>
    <path id="Path_92" data-name="Path 92" d="M1.263,2.89A.891.891,0,1,1,2.154,2,.891.891,0,0,1,1.263,2.89Z" transform="translate(8.542 24.478)" fill="#707070" fill-rule="evenodd"/>
    <g id="Group_147" data-name="Group 147" transform="translate(2.674 0.044)">
      <path id="Path_93" data-name="Path 93" d="M2.154,1.7a.891.891,0,0,0-1.783,0V6.158a.891.891,0,0,0,1.783,0Z" transform="translate(5.868 17.6)" fill="#707070"/>
      <path id="Path_94" data-name="Path 94" d="M3.044,1.887a.891.891,0,1,0-1.783,0v7.13a.891.891,0,0,0,1.783,0Z" transform="translate(26.369 21.871)" fill="#707070"/>
      <path id="Path_95" data-name="Path 95" d="M25.012.477a.891.891,0,0,0,0,1.783h3.732V20.085H2.005V2.259H5.737a.891.891,0,0,0,0-1.783H1.114a.891.891,0,0,0-.891.891V20.977a.891.891,0,0,0,.891.891H29.636a.891.891,0,0,0,.891-.891V1.368a.891.891,0,0,0-.891-.891H25.012Z" transform="translate(2.451 9.912)" fill="#707070"/>
      <path id="Path_96" data-name="Path 96" d="M10.819,2.148a.891.891,0,0,0,0-1.783H2.845A2.734,2.734,0,0,0,.111,3.1V26.214A.891.891,0,0,0,1,27.106q16.935,0,33.87,0c0,.022.891-.413.891-.888V3.1A2.734,2.734,0,0,0,33.031.365l-7.974,0a.888.888,0,0,0,0,1.776h7.974a6.9,6.9,0,0,1,.672.282.948.948,0,0,1,.278.672V25.326H1.894V3.1a.951.951,0,0,1,.951-.951h7.974Z" transform="translate(-0.111 7.349)" fill="#707070"/>
      <path id="Path_97" data-name="Path 97" d="M12.9.123l11.2,5.2c.3-.064.64.743.436,1.183a.888.888,0,0,1-.484.455l-11.2,5.2c.053.116-.728.016-.8-.024L.847,6.94C.545,7,.207,6.2.411,5.757A.888.888,0,0,1,.9,5.3L12.1.1c-.053-.116.728-.016.8.024Zm8.715,6.01L12.472,1.886,3.331,6.132l9.142,4.246Z" transform="translate(5.354 -0.044)" fill="#707070"/>
      <path id="Path_98" data-name="Path 98" d="M19.373.461l4.725,2.2c.349-.032.627.773.436,1.184-.31.665-10.251,4.991-11.687,5.658.053.116-.728.016-.8-.024l-11.2-5.2c-.3.064-.64-.744-.436-1.183a.889.889,0,0,1,.484-.455L5.622.438c-.053-.106.724-.018.8.023l6.051,2.811,6.1-2.835v0a.89.89,0,0,1,.8.025Zm2.242,3.005L18.948,2.225,12.9,5.037a.89.89,0,0,1-.8.025L6,2.225,3.33,3.466l9.143,4.247,9.143-4.247Z" transform="translate(5.354 7.062)" fill="#707070"/>
      <path id="Path_99" data-name="Path 99" d="M19.375.618,24.1,2.811c.3-.066.641.74.436,1.183a.888.888,0,0,1-.483.454l-11.2,5.2c.053.116-.728.016-.8-.024l-11.2-5.2c-.3.064-.64-.744-.436-1.183A.888.888,0,0,1,.9,2.788L5.622.593c-.053-.105.724-.018.8.024l6.049,2.811,6.1-2.834c-.053-.117.729-.016.8.024Zm2.238,3L18.948,2.381,12.9,5.191a.89.89,0,0,1-.8.026v0L6,2.381,3.331,3.618l9.141,4.246,9.141-4.246Z" transform="translate(5.354 11.347)" fill="#707070"/>
    </g>
  </g>
</svg>
