<svg xmlns="http://www.w3.org/2000/svg" width="39.333" height="49.166" viewBox="0 0 39.333 49.166">
  <g id="surface1" transform="translate(-0.25)">
    <path id="Path_209" data-name="Path 209" d="M588.855,363.484l-1.1,1.208,5.025,4.607a5.75,5.75,0,0,1,1.858,4.229v20.06h1.639v-20.06a7.394,7.394,0,0,0-2.391-5.437Zm0,0" transform="translate(-556.689 -344.421)" fill="#707070"/>
    <path id="Path_210" data-name="Path 210" d="M25.653,0H4.347A4.1,4.1,0,0,0,.25,4.1V45.069a4.1,4.1,0,0,0,4.1,4.1H24.833V47.7a18.63,18.63,0,0,1,3.14-10.371.819.819,0,0,0-.1-1.034l-5.736-5.736a2.658,2.658,0,0,1,.2-3.933A2.76,2.76,0,0,1,26,26.909L34.087,35l1.159-1.159-5.5-5.5V4.1A4.1,4.1,0,0,0,25.653,0Zm2.458,26.7-.954-.954a4.41,4.41,0,0,0-5.87-.388,4.3,4.3,0,0,0-.311,6.358l5.269,5.269A20.26,20.26,0,0,0,23.2,47.527H4.347a2.459,2.459,0,0,1-2.458-2.458V42.611H22.375V40.972H1.889V6.556H28.111Zm0-21.786H1.889V4.1A2.459,2.459,0,0,1,4.347,1.639H25.653A2.459,2.459,0,0,1,28.111,4.1Zm0,0" fill="#707070"/>
    <path id="Path_211" data-name="Path 211" d="M64.389,162.806h3.278a1.639,1.639,0,0,0,1.639-1.639v-3.278a1.639,1.639,0,0,0-1.639-1.639H64.389a1.639,1.639,0,0,0-1.639,1.639v3.278A1.639,1.639,0,0,0,64.389,162.806Zm0-4.917h3.278v3.278H64.389Zm0,0" transform="translate(-59.222 -148.056)" fill="#707070"/>
    <path id="Path_212" data-name="Path 212" d="M220.639,162.806h3.278a1.639,1.639,0,0,0,1.639-1.639v-3.278a1.639,1.639,0,0,0-1.639-1.639h-3.278A1.639,1.639,0,0,0,219,157.889v3.278A1.639,1.639,0,0,0,220.639,162.806Zm0-4.917h3.278v3.278h-3.278Zm0,0" transform="translate(-207.278 -148.056)" fill="#707070"/>
    <path id="Path_213" data-name="Path 213" d="M376.889,162.806h3.278a1.639,1.639,0,0,0,1.639-1.639v-3.278a1.639,1.639,0,0,0-1.639-1.639h-3.278a1.639,1.639,0,0,0-1.639,1.639v3.278A1.639,1.639,0,0,0,376.889,162.806Zm0-4.917h3.278v3.278h-3.278Zm0,0" transform="translate(-355.333 -148.056)" fill="#707070"/>
    <path id="Path_214" data-name="Path 214" d="M64.389,319.056h3.278a1.639,1.639,0,0,0,1.639-1.639v-3.278a1.639,1.639,0,0,0-1.639-1.639H64.389a1.639,1.639,0,0,0-1.639,1.639v3.278A1.639,1.639,0,0,0,64.389,319.056Zm0-4.917h3.278v3.278H64.389Zm0,0" transform="translate(-59.222 -296.111)" fill="#707070"/>
    <path id="Path_215" data-name="Path 215" d="M64.389,475.306h3.278a1.639,1.639,0,0,0,1.639-1.639v-3.278a1.639,1.639,0,0,0-1.639-1.639H64.389a1.639,1.639,0,0,0-1.639,1.639v3.278A1.639,1.639,0,0,0,64.389,475.306Zm0-4.917h3.278v3.278H64.389Zm0,0" transform="translate(-59.222 -444.167)" fill="#707070"/>
    <path id="Path_216" data-name="Path 216" d="M220.639,319.056h3.278a1.639,1.639,0,0,0,1.639-1.639v-3.278a1.639,1.639,0,0,0-1.639-1.639h-3.278A1.639,1.639,0,0,0,219,314.139v3.278A1.639,1.639,0,0,0,220.639,319.056Zm0-4.917h3.278v3.278h-3.278Zm0,0" transform="translate(-207.278 -296.111)" fill="#707070"/>
    <path id="Path_217" data-name="Path 217" d="M376.889,319.056h3.278a1.639,1.639,0,0,0,1.639-1.639v-3.278a1.639,1.639,0,0,0-1.639-1.639h-3.278a1.639,1.639,0,0,0-1.639,1.639v3.278A1.639,1.639,0,0,0,376.889,319.056Zm0-4.917h3.278v3.278h-3.278Zm0,0" transform="translate(-355.333 -296.111)" fill="#707070"/>
    <path id="Path_218" data-name="Path 218" d="M220.639,475.306h3.278a1.639,1.639,0,0,0,1.639-1.639v-3.278a1.639,1.639,0,0,0-1.639-1.639h-3.278A1.639,1.639,0,0,0,219,470.389v3.278A1.639,1.639,0,0,0,220.639,475.306Zm0-4.917h3.278v3.278h-3.278Zm0,0" transform="translate(-207.278 -444.167)" fill="#707070"/>
    <path id="Path_219" data-name="Path 219" d="M64.389,631.556h3.278a1.639,1.639,0,0,0,1.639-1.639v-3.278A1.639,1.639,0,0,0,67.667,625H64.389a1.639,1.639,0,0,0-1.639,1.639v3.278A1.639,1.639,0,0,0,64.389,631.556Zm0-4.917h3.278v3.278H64.389Zm0,0" transform="translate(-59.222 -592.222)" fill="#707070"/>
    <path id="Path_220" data-name="Path 220" d="M220.639,631.556h3.278a1.639,1.639,0,0,0,1.639-1.639v-3.278A1.639,1.639,0,0,0,223.917,625h-3.278A1.639,1.639,0,0,0,219,626.639v3.278A1.639,1.639,0,0,0,220.639,631.556Zm0-4.917h3.278v3.278h-3.278Zm0,0" transform="translate(-207.278 -592.222)" fill="#707070"/>
    <path id="Path_221" data-name="Path 221" d="M265.875,843.75h1.639v1.639h-1.639Zm0,0" transform="translate(-251.695 -799.5)" fill="#707070"/>
  </g>
</svg>
