<svg xmlns="http://www.w3.org/2000/svg" width="47.34" height="47.335" viewBox="0 0 47.34 47.335">
  <g id="Page-1" transform="translate(0.002 0.006)">
    <g id="_045---Analyse" data-name="045---Analyse" transform="translate(-0.002 -0.006)">
      <path id="Shape" d="M2.161,30.5a5.73,5.73,0,0,0,.818.473c.342.175.913.467.953.671a1.364,1.364,0,0,1-.092.8c-.118.252-.241.469-.347.657-.29.51-.773,1.365-.043,1.96.17.158.465.386.734.592a1.986,1.986,0,0,0-.257,1.138,1.138,1.138,0,0,0,.468.776c.175.123.362.231.547.335.466.266.648.39.71.637a2.17,2.17,0,0,1-.079.947c-.046.211-.092.423-.118.631a4.7,4.7,0,0,0,.259,2.125A2.954,2.954,0,0,0,8.5,44.385a3.13,3.13,0,0,0,.648-.069A59.546,59.546,0,0,0,15.8,42.327c1.776,1.042,2.9,4.214,3.192,5.4a.789.789,0,0,0,.766.6l19.8-.055a.789.789,0,0,0,.751-1.025,6.061,6.061,0,0,0-.8-1.5A7.344,7.344,0,0,1,39,44.895a14.843,14.843,0,0,1-.891-2.245,26.41,26.41,0,0,1-.933-4.667,13.344,13.344,0,0,1,1.036-6.926,10.479,10.479,0,0,1,.665-1.262.789.789,0,1,0-1.348-.82,12,12,0,0,0-.763,1.454,14.928,14.928,0,0,0-1.156,7.746,28.022,28.022,0,0,0,.995,4.948,16.368,16.368,0,0,0,.979,2.469,8.583,8.583,0,0,0,.613,1.033c.017.025.034.051.051.079l-17.893.047a12.577,12.577,0,0,0-2.777-5.038l.741-.259c.514-.179.9-.316,1.1-.379,3.38-1.067,5.07-2.6,5.024-4.575a.789.789,0,1,0-1.578.037c.019.812-.646,2-3.927,3.032-.211.068-.611.207-1.142.394-.591.207-1.347.473-2.183.755a61.3,61.3,0,0,1-6.784,2.051,1.4,1.4,0,0,1-1.628-1.052,3.149,3.149,0,0,1-.185-1.407c.021-.166.058-.331.095-.5a3.454,3.454,0,0,0,.068-1.679,2.618,2.618,0,0,0-1.459-1.612l-.164-.094a2.951,2.951,0,0,1,.3-.488.789.789,0,0,0-.151-1.123c-.189-.14-.636-.473-.962-.737.038-.069.079-.144.118-.212.124-.218.266-.473.4-.762a2.951,2.951,0,0,0,.211-1.765c-.189-.963-1.111-1.435-1.785-1.779a4.42,4.42,0,0,1-.65-.378,3.351,3.351,0,0,1-.473-.383c0-.119.128-.409.729-1.141A31.813,31.813,0,0,0,6.916,21.8a2.338,2.338,0,0,0,.3-1.065,2.755,2.755,0,0,0-1.153-1.972c-.316-.293-.62-.569-.655-.824a1.471,1.471,0,0,1,.122-.541c.129-.338.277-.669.426-1a11.533,11.533,0,0,0,.772-2.081l.079-.335a19.746,19.746,0,0,1,.646-2.331,13.534,13.534,0,0,1,2.83-4.623c1.51-1.6,3.884-2.727,7.071-3.36A51.254,51.254,0,0,1,24.76,2.6a16.435,16.435,0,0,1,5.794.71,11.02,11.02,0,0,0-4.312,8.733,10.9,10.9,0,0,0,1.492,5.531,1.578,1.578,0,0,0-1.492,1.569v6.311H24.665V22.3a1.578,1.578,0,0,0-1.578-1.578H21.51A1.578,1.578,0,0,0,19.932,22.3v3.155H18.354a.789.789,0,1,0,0,1.578h20.51a.789.789,0,0,0,0-1.578H37.286V23.086a11.005,11.005,0,0,0,7.781-3.216c.009-.008.02-.01.028-.019s.011-.019.019-.028A11.032,11.032,0,0,0,32.243,2.229a17.954,17.954,0,0,0-7.564-1.206,52.51,52.51,0,0,0-7.63,1.1c-3.556.71-6.142,1.956-7.907,3.821A15.134,15.134,0,0,0,5.978,11.1a21.254,21.254,0,0,0-.7,2.518l-.079.332a10.147,10.147,0,0,1-.676,1.8c-.158.359-.32.718-.463,1.092a2.66,2.66,0,0,0-.207,1.318A3.013,3.013,0,0,0,5,19.923c.386.354.639.6.642.82a1.375,1.375,0,0,1-.134.343A30.485,30.485,0,0,1,2.058,26.7a3.276,3.276,0,0,0-1.044,2.318A2.424,2.424,0,0,0,2.161,30.5Zm30.393-8.487v3.445H30.976V21.092A10.7,10.7,0,0,0,32.553,22.008ZM21.51,25.453V22.3h1.578v3.155Zm6.311,0V19.142H29.4v6.311Zm6.311,0V15.987h1.578v9.466Zm1.578-11.044H34.131a1.578,1.578,0,0,0-1.578,1.578v4.244a9.271,9.271,0,0,1-1.585-1.159,1.572,1.572,0,0,0-1.341-1.485,9.321,9.321,0,0,1-1.807-5.545A9.473,9.473,0,0,1,36.5,2.617v9.426a.8.8,0,0,0,.061.3.781.781,0,0,0,.171.257l6.663,6.663a9.422,9.422,0,0,1-6.106,2.244V15.987A1.578,1.578,0,0,0,35.709,14.409Zm8.8,3.74-5.318-5.318h7.522A9.417,9.417,0,0,1,44.508,18.149Zm2.2-6.9H38.075V2.617A9.471,9.471,0,0,1,46.712,11.254Z" transform="translate(-0.998 -0.994)" fill="#707070"/>
      <path id="Shape-2" data-name="Shape" d="M11.752,16.283l.079-.345a17.619,17.619,0,0,1,.528-1.946,10.4,10.4,0,0,1,2.165-3.55,8.249,8.249,0,0,1,3.637-2,.789.789,0,1,0-.461-1.51,9.776,9.776,0,0,0-4.323,2.423,11.969,11.969,0,0,0-2.5,4.089,18.667,18.667,0,0,0-.584,2.135l-.079.342a.789.789,0,0,0,1.536.359Z" transform="translate(-2.941 -2.242)" fill="#707070"/>
      <ellipse id="Oval" cx="0.5" cy="1" rx="0.5" ry="1" transform="translate(6.67 15.668)" fill="#707070"/>
    </g>
  </g>
</svg>
