<svg xmlns="http://www.w3.org/2000/svg" width="47.539" height="48.478" viewBox="0 0 47.539 48.478">
  <g id="kpi_17240472" transform="translate(-8.23 -7.761)">
    <path id="Path_12" data-name="Path 12" d="M40.352,22.969a1,1,0,0,0-1.413-.041l-5.5,5.191a3.749,3.749,0,1,0,1.568,1.27l5.3-5.006a1,1,0,0,0,.04-1.414ZM32,33.234a1.7,1.7,0,1,1,1.7-1.7A1.7,1.7,0,0,1,32,33.234Z" fill="#707070"/>
    <path id="Path_13" data-name="Path 13" d="M47.313,50.616h-3.13V37.991a1,1,0,0,0-1-1h-5.83a1,1,0,0,0-1,1v3.541H32.521V37.991a1,1,0,0,0-1-1H25.69a1,1,0,0,0-1,1v1.25H19.859a1,1,0,0,0-1,1V50.616H15.73a1,1,0,0,0-1,1v3.623a1,1,0,0,0,1,1H47.312a1,1,0,0,0,1-1V51.616a1,1,0,0,0-1-1Zm-8.96-11.625h3.83V50.616h-3.83V38.991Zm-2,4.541v7.084H32.521V43.532ZM26.69,38.991h3.831V50.616H26.69V38.991Zm-5.831,2.25H24.69v9.375H20.859Zm25.453,13H16.73V52.616H46.312Z" fill="#707070"/>
    <path id="Path_14" data-name="Path 14" d="M32,7.761A23.8,23.8,0,0,0,8.23,31.531a23.54,23.54,0,0,0,4.594,14.031,1,1,0,0,0,1.492.135l2.945-2.783a1,1,0,0,0,.088-1.354,17.7,17.7,0,0,1-3.1-10.028c0-.207.024-.408.031-.613a3.225,3.225,0,0,0,.9.378,3.369,3.369,0,0,0,.768.09,3.271,3.271,0,0,0,1.754-.512,3.321,3.321,0,0,0,1.481-2.125,13.117,13.117,0,0,1,25.639,0A3.321,3.321,0,0,0,46.3,30.874a3.286,3.286,0,0,0,2.521.422,3.227,3.227,0,0,0,.9-.377c.007.205.031.406.031.613a17.7,17.7,0,0,1-3.082,10,1,1,0,0,0,.07,1.381L49.684,45.7a1,1,0,0,0,.687.273c.03,0,.06,0,.09,0a1,1,0,0,0,.716-.4,23.54,23.54,0,0,0,4.594-14.031A23.8,23.8,0,0,0,32,7.761ZM17.226,28.327a1.334,1.334,0,0,1-.594.855,1.279,1.279,0,0,1-.993.166,1.322,1.322,0,0,1-.985-1.555,17.708,17.708,0,0,1,4.472-8.446l1.827,1.9a14.974,14.974,0,0,0-3.727,7.078Zm24.367-8.451A15.13,15.13,0,0,0,33,16.455V13.832a17.655,17.655,0,0,1,10.427,4.137ZM31,16.455a15.13,15.13,0,0,0-8.593,3.422l-1.834-1.907A17.656,17.656,0,0,1,31,13.832ZM48.361,29.349a1.282,1.282,0,0,1-.993-.166,1.334,1.334,0,0,1-.594-.855,14.974,14.974,0,0,0-3.727-7.078l1.827-1.9a17.707,17.707,0,0,1,4.472,8.446,1.321,1.321,0,0,1-.985,1.554Zm1.852,14.1-1.487-1.405A19.706,19.706,0,0,0,51.308,27.4c0-.022,0-.043-.007-.064s-.017-.033-.023-.052a19.726,19.726,0,0,0-5.654-10.017.931.931,0,0,0-.057-.082.941.941,0,0,0-.111-.071,19.64,19.64,0,0,0-26.912,0,.936.936,0,0,0-.112.071.931.931,0,0,0-.057.082,19.726,19.726,0,0,0-5.654,10.018c-.005.018-.018.032-.022.051s0,.042-.007.064a19.7,19.7,0,0,0,2.582,14.64l-1.487,1.405A21.545,21.545,0,0,1,10.23,31.531a21.77,21.77,0,1,1,43.539,0,21.544,21.544,0,0,1-3.557,11.915Z" fill="#707070"/>
  </g>
</svg>
