<svg xmlns="http://www.w3.org/2000/svg" width="74.997" height="74.99" viewBox="0 0 74.997 74.99">
  <g id="capacity_15898317" transform="translate(0.007 0.001)">
    <path id="Path_135" data-name="Path 135" d="M115.524,10.334a5.167,5.167,0,1,0-3.656-1.512A5.167,5.167,0,0,0,115.524,10.334Zm-2-7.165a2.8,2.8,0,1,1-.838,2,2.824,2.824,0,0,1,.838-2Z" transform="translate(-45.705 0)" fill="#fff"/>
    <path id="Path_136" data-name="Path 136" d="M5.17,110.36a5.167,5.167,0,1,0,3.656,1.512A5.167,5.167,0,0,0,5.17,110.36Zm2,7.165a2.8,2.8,0,1,1,.838-2A2.824,2.824,0,0,1,7.167,117.525Z" transform="translate(-0.005 -45.706)" fill="#fff"/>
    <path id="Path_137" data-name="Path 137" d="M115.53,110.36a5.167,5.167,0,1,0,3.656,1.512A5.167,5.167,0,0,0,115.53,110.36Zm2,7.165a2.806,2.806,0,1,1,.835-2,2.824,2.824,0,0,1-.835,2Z" transform="translate(-45.711 -45.706)" fill="#fff"/>
    <path id="Path_138" data-name="Path 138" d="M60.819,112h-.586a1.174,1.174,0,1,0-.135,2.343l.586.029h.07a1.172,1.172,0,0,0,.041-2.343Z" transform="translate(-24.434 -46.384)" fill="#fff"/>
    <path id="Path_139" data-name="Path 139" d="M26.55,30.564l.381-.422A1.172,1.172,0,1,0,25.2,28.561l-.41.457A1.173,1.173,0,0,0,26.55,30.57Z" transform="translate(-10.149 -11.671)" fill="#fff"/>
    <path id="Path_140" data-name="Path 140" d="M31.66,100.466a1.172,1.172,0,0,0-1.517,1.758,1.933,1.933,0,0,0,1.213.656,1.172,1.172,0,0,0,.738-2.08Z" transform="translate(-12.365 -41.53)" fill="#fff"/>
    <path id="Path_141" data-name="Path 141" d="M76.6,16.213l.545.158a1.172,1.172,0,0,0,.691-2.238l-.586-.176a1.173,1.173,0,1,0-.644,2.256Z" transform="translate(-31.378 -5.762)" fill="#fff"/>
    <path id="Path_142" data-name="Path 142" d="M83.955,18.971l.516.246a1.172,1.172,0,0,0,1.037-2.1l-.551-.264a1.173,1.173,0,0,0-1,2.121Z" transform="translate(-34.494 -6.932)" fill="#fff"/>
    <path id="Path_143" data-name="Path 143" d="M103.344,34.576a1.172,1.172,0,0,0,.949-1.863l-.363-.492a1.172,1.172,0,1,0-1.869,1.4l.34.457A1.172,1.172,0,0,0,103.344,34.576Z" transform="translate(-42.149 -13.117)" fill="#fff"/>
    <path id="Path_144" data-name="Path 144" d="M32.192,25.163l.439-.352a1.172,1.172,0,1,0-1.453-1.84l-.48.381a1.172,1.172,0,1,0,1.488,1.81Z" transform="translate(-12.539 -9.41)" fill="#fff"/>
    <path id="Path_145" data-name="Path 145" d="M96.7,98.352l-.41.387a1.173,1.173,0,0,0,1.594,1.722l.445-.422a1.172,1.172,0,1,0-1.623-1.687Z" transform="translate(-39.727 -40.582)" fill="#fff"/>
    <path id="Path_146" data-name="Path 146" d="M91.232,23.261a1.172,1.172,0,0,0,1.365-1.9l-.5-.352a1.172,1.172,0,1,0-1.324,1.933Z" transform="translate(-37.384 -8.615)" fill="#fff"/>
    <path id="Path_147" data-name="Path 147" d="M98.13,28.6a1.172,1.172,0,0,0,.826-2l-.439-.428A1.172,1.172,0,0,0,96.9,27.858l.4.393A1.172,1.172,0,0,0,98.13,28.6Z" transform="translate(-39.998 -10.716)" fill="#fff"/>
    <path id="Path_148" data-name="Path 148" d="M90.58,103.352l-.469.316a1.172,1.172,0,0,0,1.3,1.951l.5-.34a1.173,1.173,0,0,0-1.336-1.927Z" transform="translate(-37.106 -42.717)" fill="#fff"/>
    <path id="Path_149" data-name="Path 149" d="M111.657,46.776a1.172,1.172,0,1,0-2.22.75l.176.539a1.173,1.173,0,0,0,2.238-.7Q111.75,47.064,111.657,46.776Z" transform="translate(-45.3 -19.043)" fill="#fff"/>
    <path id="Path_150" data-name="Path 150" d="M113.643,54.766a1.173,1.173,0,0,0-2.314.381c.029.187.059.375.088.586a1.172,1.172,0,0,0,1.172,1h.17a1.172,1.172,0,0,0,.99-1.33Q113.7,55.082,113.643,54.766Z" transform="translate(-46.103 -22.275)" fill="#fff"/>
    <path id="Path_151" data-name="Path 151" d="M111.3,71.014c-.029.187-.064.369-.094.557a1.172,1.172,0,0,0,.943,1.377,1.212,1.212,0,0,0,.211,0,1.172,1.172,0,0,0,1.172-.961q.053-.3.105-.586a1.172,1.172,0,1,0-2.314-.369Z" transform="translate(-46.049 -29.009)" fill="#fff"/>
    <path id="Path_152" data-name="Path 152" d="M101.959,92.5l-.346.445a1.173,1.173,0,1,0,1.845,1.447l.375-.486a1.172,1.172,0,1,0-1.875-1.406Z" transform="translate(-41.982 -38.114)" fill="#fff"/>
    <path id="Path_153" data-name="Path 153" d="M114.343,63.65v-.738a1.172,1.172,0,1,0-2.343,0v.68a1.172,1.172,0,0,0,1.172,1.172h0A1.172,1.172,0,0,0,114.343,63.65Z" transform="translate(-46.387 -25.57)" fill="#fff"/>
    <path id="Path_154" data-name="Path 154" d="M76.32,110.077l-.545.152a1.172,1.172,0,1,0,.586,2.261l.586-.164a1.172,1.172,0,1,0-.656-2.25Z" transform="translate(-30.984 -45.569)" fill="#fff"/>
    <path id="Path_155" data-name="Path 155" d="M109.889,80.689a1.172,1.172,0,0,0,1.5-.715q.105-.293.2-.586a1.172,1.172,0,0,0-2.22-.744q-.088.269-.187.539a1.172,1.172,0,0,0,.709,1.506Z" transform="translate(-45.19 -32.257)" fill="#fff"/>
    <path id="Path_156" data-name="Path 156" d="M107.782,85.365a1.172,1.172,0,0,0-1.582.492l-.269.5a1.172,1.172,0,1,0,2.05,1.131l.293-.539a1.172,1.172,0,0,0-.492-1.588Z" transform="translate(-43.804 -35.298)" fill="#fff"/>
    <path id="Path_157" data-name="Path 157" d="M68.628,111.64l-.586.064a1.173,1.173,0,0,0,.117,2.343h.123l.586-.07a1.18,1.18,0,0,0-.281-2.343Z" transform="translate(-27.721 -46.23)" fill="#fff"/>
    <path id="Path_158" data-name="Path 158" d="M106.323,40.312l.258.5a1.172,1.172,0,1,0,2.091-1.055l-.281-.545a1.172,1.172,0,1,0-2.068,1.1Z" transform="translate(-43.979 -15.982)" fill="#fff"/>
    <path id="Path_159" data-name="Path 159" d="M24.36,94.721a1.172,1.172,0,0,0-.129,1.652l.4.463a1.173,1.173,0,1,0,1.758-1.553l-.375-.428a1.172,1.172,0,0,0-1.658-.135Z" transform="translate(-9.922 -39.112)" fill="#fff"/>
    <path id="Path_160" data-name="Path 160" d="M38.423,105.3l-.486-.287a1.172,1.172,0,0,0-1.213,2,2.244,2.244,0,0,0,1.113.469,1.172,1.172,0,0,0,.586-2.185Z" transform="translate(-14.992 -43.43)" fill="#fff"/>
    <path id="Path_161" data-name="Path 161" d="M15.667,74.519c-.047-.182-.088-.363-.129-.551a1.172,1.172,0,1,0-2.285.516q.07.3.141.586a1.174,1.174,0,0,0,2.273-.586Z" transform="translate(-5.476 -30.241)" fill="#fff"/>
    <path id="Path_162" data-name="Path 162" d="M13.483,57.086A1.172,1.172,0,0,0,12.2,58.134q-.029.3-.053.586a1.175,1.175,0,1,0,2.343.182,3.854,3.854,0,0,1,.047-.586A1.172,1.172,0,0,0,13.483,57.086Z" transform="translate(-5.032 -23.64)" fill="#fff"/>
    <path id="Path_163" data-name="Path 163" d="M15.034,49.2a1.172,1.172,0,0,0-1.435.832q-.076.3-.152.586a1.173,1.173,0,1,0,2.279.557q.064-.275.141-.551A1.172,1.172,0,0,0,15.034,49.2Z" transform="translate(-5.558 -20.361)" fill="#fff"/>
    <path id="Path_164" data-name="Path 164" d="M18.11,82l-.217-.521a1.172,1.172,0,1,0-2.174.879l.234.586a1.172,1.172,0,1,0,2.156-.92Z" transform="translate(-6.477 -33.442)" fill="#fff"/>
    <path id="Path_165" data-name="Path 165" d="M21.354,90.586a1.172,1.172,0,0,0,.357-1.617l-.269-.475a1.188,1.188,0,0,0-2.033,1.23l.322.521a1.172,1.172,0,0,0,1.617.357Z" transform="translate(-7.97 -36.413)" fill="#fff"/>
    <path id="Path_166" data-name="Path 166" d="M53.089,110.9l-.551-.117a1.172,1.172,0,0,0-.51,2.285,3.925,3.925,0,0,0,.832.152,1.177,1.177,0,0,0,.228-2.343Z" transform="translate(-21.192 -45.875)" fill="#fff"/>
    <path id="Path_167" data-name="Path 167" d="M83.755,107.266l-.51.234a1.172,1.172,0,0,0,.48,2.238,2.537,2.537,0,0,0,1.037-.363,1.172,1.172,0,1,0-1.008-2.115Z" transform="translate(-34.194 -44.37)" fill="#fff"/>
    <path id="Path_168" data-name="Path 168" d="M68.908,14.672a6.315,6.315,0,0,0,.721.082,1.174,1.174,0,1,0,.158-2.343l-.586-.076a1.179,1.179,0,0,0-.269,2.343Z" transform="translate(-28.118 -5.105)" fill="#fff"/>
    <path id="Path_169" data-name="Path 169" d="M13.224,65.119a1.172,1.172,0,0,0-1.1,1.242,4.058,4.058,0,0,0,.041.586,1.172,1.172,0,0,0,1.172,1.078h.1a1.172,1.172,0,0,0,1.049-1.219,4.394,4.394,0,0,0-.041-.586,1.172,1.172,0,0,0-1.224-1.1Z" transform="translate(-5.025 -26.969)" fill="#fff"/>
    <path id="Path_170" data-name="Path 170" d="M45.51,108.715l-.533-.205a1.172,1.172,0,0,0-.873,2.174,2.771,2.771,0,0,0,.984.3,1.172,1.172,0,0,0,.416-2.267Z" transform="translate(-17.978 -44.91)" fill="#fff"/>
    <path id="Path_171" data-name="Path 171" d="M37.467,18.689a1.172,1.172,0,0,0,.586,2.185,2.308,2.308,0,0,0,1.084-.428A1.172,1.172,0,0,0,38,18.4Z" transform="translate(-15.278 -7.558)" fill="#fff"/>
    <path id="Path_172" data-name="Path 172" d="M61.018,14.343h.639A1.172,1.172,0,1,0,61.6,12h-.586a1.172,1.172,0,1,0,.047,2.343Z" transform="translate(-24.798 -4.97)" fill="#fff"/>
    <path id="Path_173" data-name="Path 173" d="M45.289,17.5a1.172,1.172,0,0,0,.416-.076l.533-.2a1.172,1.172,0,0,0-.8-2.2l-.586.211a1.172,1.172,0,0,0,.416,2.267Z" transform="translate(-18.266 -6.196)" fill="#fff"/>
    <path id="Path_174" data-name="Path 174" d="M52.943,15.268a4.511,4.511,0,0,0,.791-.135,1.172,1.172,0,0,0-.428-2.3l-.586.117a1.178,1.178,0,0,0,.234,2.343Z" transform="translate(-21.398 -5.309)" fill="#fff"/>
    <path id="Path_175" data-name="Path 175" d="M20.228,37.18a1.172,1.172,0,0,0,1.617-.363l.31-.48A1.172,1.172,0,1,0,20.2,35.047l-.328.516a1.172,1.172,0,0,0,.357,1.617Z" transform="translate(-8.156 -14.297)" fill="#fff"/>
    <path id="Path_176" data-name="Path 176" d="M16.277,42.277q-.129.281-.246.586a1.172,1.172,0,1,0,2.156.914l.228-.516a1.172,1.172,0,0,0-2.138-.961Z" transform="translate(-6.596 -17.233)" fill="#fff"/>
    <path id="Path_177" data-name="Path 177" d="M46.192,21A25.192,25.192,0,1,0,71.383,46.192,25.192,25.192,0,0,0,46.192,21Zm0,48.04A22.848,22.848,0,1,1,69.04,46.192,22.848,22.848,0,0,1,46.192,69.04Z" transform="translate(-8.7 -8.697)" fill="#fff"/>
    <path id="Path_178" data-name="Path 178" d="M66.564,46.645H65.006a14.693,14.693,0,0,0-1.277-3.082l1.119-1.119A3.029,3.029,0,0,0,64.7,38.18L63.312,36.8a3.029,3.029,0,0,0-4.265-.152l-1.119,1.113a14.7,14.7,0,0,0-3.082-1.277V34.928A3.029,3.029,0,0,0,51.718,32H49.768a3.029,3.029,0,0,0-3.123,2.929V36.5a14.717,14.717,0,0,0-3.082,1.277L42.45,36.668a3.035,3.035,0,0,0-4.271.152L36.8,38.2a3.029,3.029,0,0,0-.152,4.265l1.113,1.113a14.646,14.646,0,0,0-1.283,3.064H34.928A3.023,3.023,0,0,0,32,49.768v1.951a3.023,3.023,0,0,0,2.929,3.128H36.5a14.728,14.728,0,0,0,1.277,3.082l-1.119,1.119a3.029,3.029,0,0,0,.152,4.265L38.2,64.7a3.035,3.035,0,0,0,4.265.152l1.113-1.119a14.71,14.71,0,0,0,3.07,1.283v1.553a3.029,3.029,0,0,0,3.128,2.929h1.951a3.023,3.023,0,0,0,3.123-2.929V65.012a14.716,14.716,0,0,0,3.082-1.277l1.119,1.119a3.035,3.035,0,0,0,4.265-.158L64.7,63.313a3.035,3.035,0,0,0,.152-4.265l-1.113-1.113a14.74,14.74,0,0,0,1.271-3.087h1.558a3.023,3.023,0,0,0,2.929-3.123V49.768a3.023,3.023,0,0,0-2.929-3.123Zm.586,5.079c0,.416-.264.779-.586.779h-3.41l-.2.92a12.432,12.432,0,0,1-1.664,4.06l-.51.791,2.4,2.431a.715.715,0,0,1-.135.949l-1.394,1.394a.715.715,0,0,1-.955.158l-2.425-2.431-.8.516a12.391,12.391,0,0,1-4.054,1.681l-.92.182v3.41c0,.3-.363.586-.785.586H49.768c-.416,0-.785-.264-.785-.586v-3.41l-.92-.2a12.385,12.385,0,0,1-4.054-1.664l-.8-.51L40.786,63.19a.715.715,0,0,1-.949-.141l-1.394-1.394a.715.715,0,0,1-.141-.949l2.425-2.425-.527-.8a12.42,12.42,0,0,1-1.681-4.06l-.182-.92h-3.41c-.3,0-.586-.363-.586-.779V49.768c0-.422.258-.779.586-.779h3.433l.2-.92a12.361,12.361,0,0,1,1.64-4.06l.51-.8L38.3,40.787a.709.709,0,0,1,.141-.949l1.388-1.394a.715.715,0,0,1,.955-.141l2.425,2.425.8-.527a12.4,12.4,0,0,1,4.054-1.681l.926-.182v-3.41c0-.3.357-.586.785-.586h1.951c.422,0,.785.258.785.586v3.433l.92.2a12.391,12.391,0,0,1,4.048,1.64l.791.51L60.705,38.3a.715.715,0,0,1,.955.152l1.388,1.383a.715.715,0,0,1,.141.949l-2.425,2.425.527.8a12.391,12.391,0,0,1,1.681,4.054l.182.926h3.41c.3,0,.586.357.586.779Z" transform="translate(-13.254 -13.252)" fill="#4ac8d5"/>
    <path id="Path_179" data-name="Path 179" d="M52.3,52.508a8.2,8.2,0,0,0,5.9,13.9h.146a8.2,8.2,0,1,0-6.046-13.9Zm10.112,9.766a5.859,5.859,0,1,1-4.318-9.93H58.2a5.859,5.859,0,0,1,4.212,9.93Z" transform="translate(-20.712 -20.709)" fill="#4ac8d5"/>
    <path id="Path_180" data-name="Path 180" d="M5.164,10.334A5.167,5.167,0,1,0,1.509,8.823a5.167,5.167,0,0,0,3.656,1.511Zm-2-7.165a2.806,2.806,0,1,1-.835,2,2.824,2.824,0,0,1,.835-2Z" transform="translate(0 0)" fill="#fff"/>
    <path id="Path_181" data-name="Path 181" d="M90.576,12.4h.111l2.343-2.343a4.9,4.9,0,0,1,6.362-.586,7.552,7.552,0,0,1-.211-1.758,7.619,7.619,0,0,1,.076-1.008,7.323,7.323,0,0,0-7.915,1.722L89,10.772A3.515,3.515,0,0,1,90.576,12.4Z" transform="translate(-36.862 -2.57)" fill="#fff"/>
    <path id="Path_182" data-name="Path 182" d="M117.071,21.4a7.065,7.065,0,0,1-2.754-.135,4.6,4.6,0,0,1,.92,2.882,5.068,5.068,0,0,1-1.506,3.515l-2.092,2.091a3.515,3.515,0,0,1,1.084,1.219l.3.586a.128.128,0,0,0,.035.088l2.343-2.343a7.4,7.4,0,0,0,2.191-5.1A7.03,7.03,0,0,0,117.071,21.4Z" transform="translate(-46.238 -8.809)" fill="#fff"/>
    <path id="Path_183" data-name="Path 183" d="M27.642,10.078,29.5,11.958a3.48,3.48,0,0,1,.328-.228l.586-.328a3.515,3.515,0,0,1,1.435-.422L29.318,8.443a7.323,7.323,0,0,0-7.9-1.7,7.616,7.616,0,0,1,.076,1.008,7.552,7.552,0,0,1-.211,1.758,4.9,4.9,0,0,1,6.362.568Z" transform="translate(-8.816 -2.585)" fill="#fff"/>
    <path id="Path_184" data-name="Path 184" d="M7.742,21.473A7.569,7.569,0,0,1,6.728,21.4a7.03,7.03,0,0,0-.51,2.795,7.4,7.4,0,0,0,2.215,5.114l2.5,2.5a3.515,3.515,0,0,1,.879-.615,3.515,3.515,0,0,1,.176-1.64l-1.9-1.9A5.068,5.068,0,0,1,8.58,24.132,4.6,4.6,0,0,1,9.5,21.25a7.558,7.558,0,0,1-1.758.223Z" transform="translate(-2.577 -8.801)" fill="#fff"/>
    <path id="Path_185" data-name="Path 185" d="M29.862,112.339l-.457-.269L27.572,113.9a5.062,5.062,0,0,1-3.515,1.506,4.5,4.5,0,0,1-2.877-.914,7.124,7.124,0,0,1,.135,2.748,7.03,7.03,0,0,0,2.636.51H24.1a7.394,7.394,0,0,0,5.173-2.209l2.783-2.783a3.515,3.515,0,0,1-2.2-.422Z" transform="translate(-8.774 -46.414)" fill="#fff"/>
    <path id="Path_186" data-name="Path 186" d="M11.936,90.962a3.515,3.515,0,0,1-.375-2.174,3.514,3.514,0,0,1-.486-.3L8.45,91.132a7.4,7.4,0,0,0-2.191,5.1,7.03,7.03,0,0,0,.51,2.795,7.181,7.181,0,0,1,2.771.135,4.6,4.6,0,0,1-.92-2.882,5.068,5.068,0,0,1,1.506-3.515Z" transform="translate(-2.594 -36.648)" fill="#fff"/>
    <path id="Path_187" data-name="Path 187" d="M116.144,99.176a7.568,7.568,0,0,1,1.014.076,7.03,7.03,0,0,0,.51-2.795,7.4,7.4,0,0,0-2.215-5.114L113.11,89a3.515,3.515,0,0,1-.246.586l-.311.586a3.515,3.515,0,0,1-.7.885l1.957,1.957a5.068,5.068,0,0,1,1.506,3.515,4.6,4.6,0,0,1-.92,2.882,7.552,7.552,0,0,1,1.752-.234Z" transform="translate(-46.325 -36.86)" fill="#fff"/>
    <path id="Path_188" data-name="Path 188" d="M96.5,115.241a5.062,5.062,0,0,1-3.515-1.506L90.9,111.65a3.515,3.515,0,0,1-.808,0,3.515,3.515,0,0,1-1.1,1.377l2.343,2.343a7.393,7.393,0,0,0,5.1,2.191h.176a7.03,7.03,0,0,0,2.636-.51,7.124,7.124,0,0,1,.135-2.748A4.458,4.458,0,0,1,96.5,115.241Z" transform="translate(-36.862 -46.24)" fill="#fff"/>
  </g>
</svg>
