<?xml version="1.0" encoding="utf-8"?>
<!-- Generator: Adobe Illustrator 20.1.0, SVG Export Plug-In . SVG Version: 6.00 Build 0)  -->
<svg version="1.1" id="Layer_2" xmlns="http://www.w3.org/2000/svg" xmlns:xlink="http://www.w3.org/1999/xlink" x="0px" y="0px"
	 viewBox="0 0 812 380" style="enable-background:new 0 0 812 380;" xml:space="preserve">
<style type="text/css">
	.st0{fill:#2CC4F2;}
	.st1{fill:#808285;}
	.st2{clip-path:url(#SVGID_2_);}
	.st3{fill:#FFFFFF;}
	.st4{clip-path:url(#SVGID_4_);fill:#FFFFFF;}
</style>
<g>
	<path class="st0" d="M129.7,267.4v10.3H68.4v18.9h49.3V307H68.4v18.9h61.3v10.3H56.4v-68.8H129.7z"/>
	<path class="st0" d="M138.5,267.5H204c4,0,7.4,1.2,10.2,3.7c2.8,2.5,4.2,5.4,4.2,8.7v19.3c0,3.4-1.4,6.3-4.2,8.7
		c-2.8,2.5-6.2,3.7-10.2,3.7h-51.1c-0.6,0-1.4-0.1-2.4-0.2v24.7h-12V267.5z M206.4,299.2V280c0-0.6-0.2-1.1-0.7-1.5
		c-0.5-0.4-1.1-0.6-1.7-0.6h-51.1c-0.7,0-1.2,0.2-1.7,0.6c-0.5,0.4-0.7,0.9-0.7,1.5v19.3c0,0.6,0.2,1.1,0.7,1.5
		c0.5,0.4,1.1,0.6,1.7,0.6H204c0.7,0,1.2-0.2,1.7-0.6C206.2,300.3,206.4,299.8,206.4,299.2z"/>
	<path class="st0" d="M223.6,336.2v-68.8h12v68.8H223.6z"/>
	<path class="st0" d="M324.9,277.8h-65.3c-0.7,0-1.2,0.2-1.7,0.6c-0.5,0.4-0.7,0.9-0.7,1.5v43.9c0,0.6,0.2,1.1,0.7,1.5
		c0.5,0.4,1.1,0.6,1.7,0.6h65.3v10.3h-65.3c-4,0-7.4-1.2-10.2-3.6c-2.8-2.4-4.2-5.3-4.2-8.8v-43.9c0-3.4,1.4-6.4,4.2-8.8
		c2.8-2.4,6.2-3.6,10.2-3.6h65.3V277.8z"/>
</g>
<g>
	<path class="st1" d="M344,267.4h65.5c4,0,7.4,1.2,10.2,3.6c2.8,2.4,4.2,5.3,4.2,8.8v43.9c0,3.4-1.4,6.4-4.2,8.8
		c-2.8,2.4-6.2,3.6-10.2,3.6H344V267.4z M412,323.8v-43.9c0-0.6-0.2-1.1-0.7-1.5c-0.5-0.4-1.1-0.6-1.7-0.6h-51.1
		c-0.7,0-1.2,0.2-1.7,0.6c-0.5,0.4-0.7,0.9-0.7,1.5v43.9c0,0.6,0.2,1.1,0.7,1.5c0.5,0.4,1.1,0.6,1.7,0.6h51.1c0.7,0,1.2-0.2,1.7-0.6
		C411.7,324.9,412,324.4,412,323.8z"/>
	<path class="st1" d="M484.1,280.8c4,0,7.4,1.2,10.2,3.6c2.8,2.4,4.2,5.3,4.2,8.8v20.4h-53.5v10.1c0,0.6,0.2,1.1,0.7,1.5
		c0.5,0.4,1.1,0.6,1.7,0.6h51.1v10.3h-51.1c-4,0-7.4-1.2-10.2-3.6c-2.8-2.4-4.2-5.3-4.2-8.8v-30.6c0-3.4,1.4-6.4,4.2-8.8
		c2.8-2.4,6.2-3.6,10.2-3.6H484.1z M445.1,303.4h41.5v-10.1c0-0.6-0.2-1.1-0.7-1.5c-0.5-0.4-1.1-0.6-1.7-0.6h-36.6
		c-0.7,0-1.2,0.2-1.7,0.6c-0.5,0.4-0.7,0.9-0.7,1.5V303.4z"/>
	<path class="st1" d="M572.3,293.2v2.1h-12v-2.1c0-0.6-0.2-1.1-0.7-1.5c-0.5-0.4-1.1-0.6-1.7-0.6h-36.6c-0.7,0-1.2,0.2-1.7,0.6
		c-0.5,0.4-0.7,0.9-0.7,1.5v8c0,0.6,0.2,1.1,0.7,1.5c0.5,0.4,1.1,0.6,1.7,0.6h36.6c4,0,7.4,1.2,10.2,3.6c2.8,2.4,4.2,5.3,4.2,8.8v8
		c0,3.4-1.4,6.4-4.2,8.8c-2.8,2.4-6.2,3.6-10.2,3.6h-36.6c-4,0-7.4-1.2-10.2-3.6c-2.8-2.4-4.2-5.3-4.2-8.8v-2.1h12v2.1
		c0,0.6,0.2,1.1,0.7,1.5c0.5,0.4,1.1,0.6,1.7,0.6h36.6c0.7,0,1.2-0.2,1.7-0.6c0.5-0.4,0.7-0.9,0.7-1.5v-8c0-0.6-0.2-1.1-0.7-1.5
		c-0.5-0.4-1.1-0.6-1.7-0.6h-36.6c-4,0-7.4-1.2-10.2-3.6c-2.8-2.4-4.2-5.3-4.2-8.8v-8c0-3.4,1.4-6.4,4.2-8.8
		c2.8-2.4,6.2-3.6,10.2-3.6h36.6c4,0,7.4,1.2,10.2,3.6C570.9,286.9,572.3,289.8,572.3,293.2z"/>
	<path class="st1" d="M580.6,262.7h12V273h-12V262.7z M580.6,336.2v-55.4h12v55.4H580.6z"/>
	<path class="st1" d="M665.2,315.1L665.2,315.1v30.7c0,3.4-1.4,6.4-4.2,8.8c-2.8,2.4-6.2,3.6-10.2,3.6H611v-10.3h39.7
		c0.7,0,1.2-0.2,1.7-0.6c0.5-0.4,0.7-0.9,0.7-1.5v-9.5h-39.1c-4,0-7.4-1.2-10.2-3.6c-2.8-2.4-4.2-5.3-4.2-8.8v-30.6
		c0-3.4,1.4-6.4,4.2-8.8c2.8-2.4,6.2-3.6,10.2-3.6h36.6c4,0,7.4,1.2,10.2,3.6c2.8,2.4,4.2,5.3,4.2,8.8V315.1z M614.1,325.9h36.6
		c0.7,0,1.2-0.2,1.7-0.6c0.5-0.4,0.7-0.9,0.7-1.5v-30.6c0-0.6-0.2-1.1-0.7-1.5c-0.5-0.4-1.1-0.6-1.7-0.6h-36.6
		c-0.7,0-1.2,0.2-1.7,0.6c-0.5,0.4-0.7,0.9-0.7,1.5v30.6c0,0.6,0.2,1.1,0.7,1.5C612.9,325.7,613.5,325.9,614.1,325.9z"/>
	<path class="st1" d="M725.3,280.8c4,0,7.4,1.2,10.2,3.6c2.8,2.4,4.2,5.3,4.2,8.8v43h-12v-43c0-0.6-0.2-1.1-0.7-1.5
		c-0.5-0.4-1.1-0.6-1.7-0.6h-36.6c-0.7,0-1.2,0.2-1.7,0.6c-0.5,0.4-0.7,0.9-0.7,1.5v43h-12v-55.4H725.3z"/>
</g>
<g>
	<defs>
		<path id="SVGID_1_" d="M527.7,142c-2.8-18.7-16.7-33.4-35.2-37.2c-1.1-0.2-1.7-0.5-1.9-1.7c-5.5-32.3-39.5-50.3-69.3-36.6
			c-1.4,0.6-1.8,0.4-2.5-0.8c-20.2-35.3-66.2-44.7-98.2-19.7c-18.4,14.4-26.7,33.7-25.4,57c0.2,3.6,0.3,3.6-2.9,5
			c-17.7,8-28.3,27.3-25.5,46c3.4,22.3,21.8,38.1,44.4,38.1c28.7,0,57.4,0,86.1,0c28.8,0,57.5,0,86.3,0c3.1,0,6.2-0.3,9.3-0.9
			C515.3,186.6,531,164.5,527.7,142z"/>
	</defs>
	<clipPath id="SVGID_2_">
		<use xlink:href="#SVGID_1_"  style="overflow:visible;"/>
	</clipPath>
	<g class="st2">
		<path class="st0" d="M526.8,143.6c-2.8-18.7-16.7-33.4-35.2-37.2c-1.1-0.2-1.7-0.5-1.9-1.7c-5.5-32.3-39.5-50.3-69.3-36.6
			c-1.4,0.6-1.8,0.4-2.5-0.8c-20.2-35.3-66.2-44.7-98.2-19.7c-18.4,14.4-26.7,33.7-25.4,57c0.2,3.6,0.3,3.6-2.9,5
			c-17.7,8-28.3,27.3-25.5,46c3.4,22.3,21.8,38.1,44.4,38.1c28.7,0,57.4,0,86.1,0c28.8,0,57.5,0,86.3,0c3.1,0,6.2-0.3,9.3-0.9
			C514.4,188.2,530.2,166.1,526.8,143.6z"/>
		<g>
			<path class="st3" d="M425.1,173.3h-77.9v27.8c0,0.1,0,0.3,0,0.4h77.9c0-0.1,0-0.3,0-0.4V173.3z M425.1,173.3"/>
			<g>
				<defs>
					<rect id="SVGID_3_" x="311.9" y="63.1" width="154.1" height="141.7"/>
				</defs>
				<clipPath id="SVGID_4_">
					<use xlink:href="#SVGID_3_"  style="overflow:visible;"/>
				</clipPath>
				<path class="st4" d="M447.5,130.8v14.2h2.6v-36.6h11.5c1.4,0,2.7-0.6,3.5-1.7c0.9-1.1,1.2-2.5,0.8-3.8L459,74.5
					c-0.5-2-2.3-3.4-4.4-3.4h-18.1c-2.1,0-3.9,1.4-4.4,3.4l-6.9,28.5c-0.3,1.3,0,2.8,0.8,3.8c0.9,1.1,2.2,1.7,3.5,1.7H441v10.8
					C444.9,121.7,447.5,126,447.5,130.8L447.5,130.8z M447.5,130.8"/>
			</g>
			<path class="st3" d="M425.1,164.3v-6.8c0-6.9,5.6-12.4,12.4-12.4h1v-14.2c0-2.5-2-4.5-4.5-4.5h-95.7c-2.5,0-4.5,2-4.5,4.5v14.2h1
				c6.9,0,12.4,5.6,12.4,12.4v6.8H425.1z M425.1,164.3"/>
			<path class="st3" d="M338.1,157.5c0-1.9-1.5-3.4-3.4-3.4h-16.1c-1.9,0-3.4,1.5-3.4,3.4v43.7c0,1.9,1.5,3.4,3.4,3.4h16.1
				c1.9,0,3.4-1.5,3.4-3.4V157.5z M338.1,157.5"/>
			<path class="st3" d="M457,201.2v-43.7c0-1.9-1.5-3.4-3.4-3.4h-16.1c-1.9,0-3.4,1.5-3.4,3.4v43.7c0,1.9,1.5,3.4,3.4,3.4h16.1
				C455.5,204.6,457,203.1,457,201.2L457,201.2z M457,201.2"/>
		</g>
	</g>
</g>
</svg>
