<svg xmlns="http://www.w3.org/2000/svg" width="41.9" height="61.998" viewBox="0 0 41.9 61.998">
  <g id="strategy_2641813" transform="translate(-12.05 -2.001)">
    <g id="Group_7" data-name="Group 7" transform="translate(12.05 2.001)">
      <g id="Group_6" data-name="Group 6">
        <g id="Group_5" data-name="Group 5">
          <g id="Group_4" data-name="Group 4">
            <path id="Path_31" data-name="Path 31" d="M48.38,29.645a28.422,28.422,0,0,0-1.51-8.17c-4.33-12.42-14.83-18.5-16.61-19.45a.174.174,0,0,0-.26.16V9.6a.148.148,0,0,1-.19.14,8.913,8.913,0,0,0-1.95-.18,8.668,8.668,0,0,0-6.75,3.61c-3.02,4.17-8.42,8.06-9.04,8.5a.425.425,0,0,0-.02.11l3.41,6.62c.05.01.07.01.13.02,2.65-2.86,11.94-3.17,14.22-3.2a.112.112,0,0,1,.06.21c-2.27,1.44-5.49,8.32-7.4,12.82a20.257,20.257,0,0,0-1.62,7.95.222.222,0,0,1-.01.08h26.31a5.767,5.767,0,0,1,.34-1.38c1.19-3.44,1.07-11,.89-15.25ZM26.5,17.775a1.45,1.45,0,1,1,1.44-1.45A1.451,1.451,0,0,1,26.5,17.775Zm17.31,22.5-1.95-.42c3.34-15.64-5.05-23.15-5.14-23.22l1.31-1.51C38.42,15.455,47.39,23.485,43.81,40.275Z" transform="translate(-12.05 -2.001)" fill="#082326"/>
          </g>
        </g>
        <path id="Path_32" data-name="Path 32" d="M50.99,52.605v3.86H15.93v-3.86a4.753,4.753,0,0,0,2.87-1.76,13.183,13.183,0,0,0,1.55-2.57H47.19a6.49,6.49,0,0,0,.98,2.41,4.673,4.673,0,0,0,2.82,1.92Z" transform="translate(-12.05 -2.001)" fill="#082326"/>
        <path id="Path_33" data-name="Path 33" d="M12.959,58.465H53.95V64H12.959Z" transform="translate(-12.05 -2.001)" fill="#082326"/>
      </g>
    </g>
  </g>
</svg>
