<svg xmlns="http://www.w3.org/2000/svg" width="52.762" height="52.36" viewBox="0 0 52.762 52.36">
  <g id="roundabout_12572292" transform="translate(0.031 -1.919)">
    <path id="Path_24" data-name="Path 24" d="M150.9,5.9a1.3,1.3,0,0,0-2.255-.839l-2.47,2.68a23.918,23.918,0,0,0-15.661-5.823h-.02a23.884,23.884,0,0,0-8.911,1.714,24.247,24.247,0,0,0-7.656,4.915.515.515,0,0,0-.021.726l4.317,4.6a.515.515,0,0,0,.731.021,16.684,16.684,0,0,1,5.329-3.423h0A16.875,16.875,0,0,1,130.5,9.281h.015a16.893,16.893,0,0,1,6.2,1.19,16.5,16.5,0,0,1,4.479,2.675l-2.782,3.017a1.307,1.307,0,0,0-.226,1.436,1.28,1.28,0,0,0,1.178.758h.052l10.629-.4A1.306,1.306,0,0,0,151.3,16.6L150.9,5.9Z" transform="translate(-102.074 0)" fill="#082326"/>
    <path id="Path_25" data-name="Path 25" d="M23.789,138.221a.516.516,0,0,0-.307-.249,16.683,16.683,0,0,1-5.629-2.9h0A16.8,16.8,0,0,1,11.633,124.3a16.5,16.5,0,0,1,.077-5.217l4,.9a1.307,1.307,0,0,0,1.357-.522,1.281,1.281,0,0,0,.041-1.443l-5.659-9.006a1.306,1.306,0,0,0-1.8-.407L.582,114.3a1.3,1.3,0,0,0,.4,2.373l3.556.8a24.026,24.026,0,0,0,8.737,23.352A24.244,24.244,0,0,0,21.361,145a.514.514,0,0,0,.639-.345l1.828-6.04a.514.514,0,0,0-.04-.394Z" transform="translate(0 -95.517)" fill="#082326"/>
    <path id="Path_26" data-name="Path 26" d="M276.045,181.555a.515.515,0,0,0-.618-.381l-6.145,1.437a.515.515,0,0,0-.384.622,16.683,16.683,0,0,1,.3,6.326h0a16.8,16.8,0,0,1-6.211,10.767,16.5,16.5,0,0,1-4.556,2.542l-1.222-3.918a1.307,1.307,0,0,0-1.131-.914,1.282,1.282,0,0,0-1.27.686l-4.97,9.4a1.306,1.306,0,0,0,.547,1.761l9.467,5.01a1.3,1.3,0,0,0,1.446-.148,1.294,1.294,0,0,0,.409-1.385l-1.085-3.479a24.025,24.025,0,0,0,15.855-19.243,24.249,24.249,0,0,0-.429-9.088Z" transform="translate(-223.987 -160.772)" fill="#082326"/>
  </g>
</svg>
