<svg id="world_2195296" xmlns="http://www.w3.org/2000/svg" width="56" height="56" viewBox="0 0 56 56">
  <path id="Path_1" data-name="Path 1" d="M413.61,135.391A25.5,25.5,0,0,0,410.686,125h-9.159a40.1,40.1,0,0,1,1.714,10.391Z" transform="translate(-357.61 -111.328)" fill="#082326"/>
  <path id="Path_2" data-name="Path 2" d="M401.527,260.391h9.159A25.5,25.5,0,0,0,413.61,250H403.241A40.088,40.088,0,0,1,401.527,260.391Z" transform="translate(-357.61 -222.656)" fill="#082326"/>
  <path id="Path_3" data-name="Path 3" d="M277.485,385.391a25.535,25.535,0,0,0,18.175-7.528A26.071,26.071,0,0,0,298.135,375h-8.3a27.023,27.023,0,0,1-1.254,2.513C285.693,382.593,281.753,385.391,277.485,385.391Z" transform="translate(-247.135 -333.984)" fill="#082326"/>
  <path id="Path_4" data-name="Path 4" d="M109.335,0A25.535,25.535,0,0,0,91.16,7.528a26.071,26.071,0,0,0-2.475,2.862h8.3a27.015,27.015,0,0,1,1.254-2.513C101.128,2.8,105.068,0,109.335,0Z" transform="translate(-78.985)" fill="#082326"/>
  <path id="Path_5" data-name="Path 5" d="M302.843,135.391A36,36,0,0,0,300.959,125h-8.474v10.391Z" transform="translate(-260.494 -111.328)" fill="#082326"/>
  <path id="Path_6" data-name="Path 6" d="M292.485,260.391h8.474A36,36,0,0,0,302.843,250H292.485Z" transform="translate(-260.494 -222.656)" fill="#082326"/>
  <path id="Path_7" data-name="Path 7" d="M299.085,375.892q.248-.436.48-.892h-7.08v6.892C294.923,381.247,297.221,379.173,299.085,375.892Z" transform="translate(-260.494 -333.984)" fill="#082326"/>
  <path id="Path_8" data-name="Path 8" d="M198.233,37.986q-.248.436-.48.892h7.08V31.985C202.4,32.631,200.1,34.7,198.233,37.986Z" transform="translate(-176.124 -28.487)" fill="#082326"/>
  <path id="Path_9" data-name="Path 9" d="M299.565,38.878q-.232-.455-.48-.892c-1.864-3.281-4.163-5.355-6.6-6v6.892Z" transform="translate(-260.494 -28.488)" fill="#082326"/>
  <path id="Path_10" data-name="Path 10" d="M288.579,7.878a27.01,27.01,0,0,1,1.254,2.513h8.3a26.069,26.069,0,0,0-2.475-2.862A25.535,25.535,0,0,0,277.485,0C281.753,0,285.693,2.8,288.579,7.878Z" transform="translate(-247.135 0)" fill="#082326"/>
  <path id="Path_11" data-name="Path 11" d="M53.524,132.66A38.818,38.818,0,0,1,55.053,125H45.894a25.5,25.5,0,0,0-2.924,10.391h.3a10.928,10.928,0,0,1,10.259-2.731Z" transform="translate(-38.27 -111.328)" fill="#082326"/>
  <path id="Path_12" data-name="Path 12" d="M178.765,125h-8.474a35.287,35.287,0,0,0-1.807,9.028,11.013,11.013,0,0,1,1.732,1.363h8.549Z" transform="translate(-150.056 -111.328)" fill="#082326"/>
  <path id="Path_13" data-name="Path 13" d="M199.761,260.391h6.86V250h-6.207a10.918,10.918,0,0,1-.654,10.391Z" transform="translate(-177.912 -222.656)" fill="#082326"/>
  <path id="Path_14" data-name="Path 14" d="M230.948,375h-3.873a15.761,15.761,0,0,1,3.24,6.691c.21.078.421.145.633.2Z" transform="translate(-202.239 -333.984)" fill="#082326"/>
  <path id="Path_15" data-name="Path 15" d="M19.376,370.282a10.914,10.914,0,0,1-13.6,0A12.579,12.579,0,0,0,0,380.861v3.281a1.641,1.641,0,0,0,1.641,1.641H23.516a1.641,1.641,0,0,0,1.641-1.641v-3.281A12.579,12.579,0,0,0,19.376,370.282Z" transform="translate(0 -329.782)" fill="#082326"/>
  <path id="Path_16" data-name="Path 16" d="M52.656,237.313a7.656,7.656,0,1,1,7.656-7.656A7.665,7.665,0,0,1,52.656,237.313Z" transform="translate(-40.078 -197.719)" fill="#082326"/>
</svg>
