<svg xmlns="http://www.w3.org/2000/svg" width="55.997" height="55.997" viewBox="0 0 55.997 55.997">
  <g id="operation_5188267" transform="translate(0)">
    <path id="Path_45" data-name="Path 45" d="M207.209,196.682h.961a1.641,1.641,0,0,1,1.641,1.641v13.416a14.795,14.795,0,0,0,5.468,0V198.323a1.641,1.641,0,0,1,1.641-1.641h.961l-5.336-6.67Z" transform="translate(-184.547 -169.231)" fill="#082326"/>
    <path id="Path_46" data-name="Path 46" d="M135.765,121a14.764,14.764,0,0,0-6.015,28.247V138.5h-2.734a1.64,1.64,0,0,1-1.281-2.665l8.749-10.937a1.641,1.641,0,0,1,2.562,0l8.749,10.937a1.641,1.641,0,0,1-1.281,2.665H141.78v10.749A14.764,14.764,0,0,0,135.765,121Z" transform="translate(-107.766 -107.766)" fill="#082326"/>
    <path id="Path_47" data-name="Path 47" d="M54.952,22.095l-3.459-1.348a24.487,24.487,0,0,0-1.752-4.24l1.491-3.393a1.641,1.641,0,0,0-.342-1.82L44.7,5.107a1.64,1.64,0,0,0-1.82-.342L39.489,6.256A24.472,24.472,0,0,0,35.249,4.5L33.9,1.045A1.64,1.64,0,0,0,32.373,0H23.624a1.64,1.64,0,0,0-1.529,1.045L20.747,4.5a24.476,24.476,0,0,0-4.24,1.752L13.114,4.765a1.64,1.64,0,0,0-1.82.342L5.107,11.294a1.641,1.641,0,0,0-.342,1.82l1.491,3.393A24.487,24.487,0,0,0,4.5,20.747L1.045,22.095A1.641,1.641,0,0,0,0,23.624v8.749A1.641,1.641,0,0,0,1.045,33.9L4.5,35.249a24.489,24.489,0,0,0,1.752,4.24L4.765,42.883a1.641,1.641,0,0,0,.342,1.82l6.187,6.187a1.64,1.64,0,0,0,1.82.342l3.394-1.491a24.481,24.481,0,0,0,4.24,1.752l1.348,3.459A1.64,1.64,0,0,0,23.624,56h8.749A1.64,1.64,0,0,0,33.9,54.952l1.348-3.459a24.476,24.476,0,0,0,4.24-1.752l3.394,1.491a1.64,1.64,0,0,0,1.82-.342L50.889,44.7a1.641,1.641,0,0,0,.342-1.82l-1.491-3.394a24.489,24.489,0,0,0,1.752-4.24L54.952,33.9A1.64,1.64,0,0,0,56,32.373V23.624a1.641,1.641,0,0,0-1.045-1.529ZM28,46.044A18.046,18.046,0,1,1,46.044,28,18.066,18.066,0,0,1,28,46.044Z" fill="#082326"/>
  </g>
</svg>
