<svg xmlns="http://www.w3.org/2000/svg" width="55.984" height="56" viewBox="0 0 55.984 56">
  <g id="networking_7335211" transform="translate(-0.073)">
    <path id="Path_17" data-name="Path 17" d="M405.165,398.1a4.964,4.964,0,0,0-2.006.422l-3.2-3.2a23.659,23.659,0,0,1-2.3,2.339l3.092,3.092a4.993,4.993,0,1,0,4.412-2.658Z" transform="translate(-354.102 -352.089)" fill="#082326"/>
    <path id="Path_18" data-name="Path 18" d="M12.829,10.207,9.637,7.015l-.01.009A5,5,0,1,0,7.392,9.411l3.1,3.1a23.659,23.659,0,0,1,2.339-2.3Z" fill="#082326"/>
    <path id="Path_19" data-name="Path 19" d="M10.243,395.328l-3.188,3.188a5,5,0,1,0,2.414,2.226l3.076-3.076A23.633,23.633,0,0,1,10.243,395.328Z" transform="translate(0 -352.089)" fill="#082326"/>
    <path id="Path_20" data-name="Path 20" d="M397.406,12.509,400.513,9.4a5,5,0,1,0-2.2-2.332l-.056-.056-3.192,3.192A23.659,23.659,0,0,1,397.406,12.509Z" transform="translate(-351.793)" fill="#082326"/>
    <path id="Path_21" data-name="Path 21" d="M307.708,257.915H305.32a.9.9,0,0,0-.894.894v3.127a.9.9,0,0,0,.894.894h2.388Z" transform="translate(-271.064 -229.706)" fill="#082326"/>
    <path id="Path_22" data-name="Path 22" d="M177.338,262.828h2.388a.9.9,0,0,0,.894-.894v-3.127a.9.9,0,0,0-.894-.894h-2.388Z" transform="translate(-157.877 -229.704)" fill="#082326"/>
    <path id="Path_23" data-name="Path 23" d="M90.84,70.832A20.268,20.268,0,1,0,111.109,91.1,20.291,20.291,0,0,0,90.84,70.832Zm11.872,28.985a5.707,5.707,0,0,1-5.7,5.7H91.646v-3.282h5.366a2.422,2.422,0,0,0,2.419-2.419v-.326H97.044a4.18,4.18,0,0,1-4.176-4.176V92.188a4.18,4.18,0,0,1,4.176-4.176h2.388v-.929a8.591,8.591,0,0,0-17.182,0v.929h2.388a4.18,4.18,0,0,1,4.176,4.176v3.127a4.18,4.18,0,0,1-4.176,4.176H78.968V87.084a11.873,11.873,0,0,1,23.745,0Z" transform="translate(-62.788 -63.085)" fill="#082326"/>
  </g>
</svg>
