<svg xmlns="http://www.w3.org/2000/svg" width="61.001" height="61.001" viewBox="0 0 61.001 61.001">
  <g id="brainstorming_4296044" transform="translate(0 0)">
    <circle id="Ellipse_1" data-name="Ellipse 1" cx="5.5" cy="5.5" r="5.5" transform="translate(3.501 39.5)" fill="#082326"/>
    <path id="Path_34" data-name="Path 34" d="M12.51,422H5.361A5.368,5.368,0,0,0,0,427.362v3.574a1.787,1.787,0,0,0,1.787,1.787h14.3a1.787,1.787,0,0,0,1.787-1.787v-3.574A5.368,5.368,0,0,0,12.51,422Z" transform="translate(0 -371.723)" fill="#082326"/>
    <ellipse id="Ellipse_2" data-name="Ellipse 2" cx="5" cy="5.5" rx="5" ry="5.5" transform="translate(25.501 39.5)" fill="#082326"/>
    <path id="Path_35" data-name="Path 35" d="M193.51,422h-7.149A5.367,5.367,0,0,0,181,427.362v3.574a1.787,1.787,0,0,0,1.787,1.787h14.3a1.787,1.787,0,0,0,1.787-1.787v-3.574A5.367,5.367,0,0,0,193.51,422Z" transform="translate(-159.435 -371.723)" fill="#082326"/>
    <circle id="Ellipse_3" data-name="Ellipse 3" cx="5.5" cy="5.5" r="5.5" transform="translate(46.501 39.5)" fill="#082326"/>
    <path id="Path_36" data-name="Path 36" d="M374.51,422h-7.149A5.367,5.367,0,0,0,362,427.362v3.574a1.787,1.787,0,0,0,1.787,1.787h14.3a1.787,1.787,0,0,0,1.787-1.787v-3.574A5.368,5.368,0,0,0,374.51,422Z" transform="translate(-318.87 -371.723)" fill="#082326"/>
    <path id="Path_37" data-name="Path 37" d="M156.8,46.2h4.927V38.356l-3.053-3.063a1.787,1.787,0,0,1,2.532-2.523l2.3,2.306,2.309-2.308a1.787,1.787,0,0,1,2.527,2.527L165.3,38.334V46.2h4.915a12.51,12.51,0,1,0-13.416,0Z" transform="translate(-133.009 -20.374)" fill="#082326"/>
    <path id="Path_38" data-name="Path 38" d="M201,251.457a1.787,1.787,0,0,0,1.787,1.787h9.531a1.787,1.787,0,0,0,1.787-1.787v-4.69H201Z" transform="translate(-177.052 -217.367)" fill="#082326"/>
    <path id="Path_39" data-name="Path 39" d="M392,114.917a1.787,1.787,0,0,0,1.787,1.787h2.978a1.787,1.787,0,0,0,0-3.574h-2.978A1.787,1.787,0,0,0,392,114.917Z" transform="translate(-345.296 -99.651)" fill="#082326"/>
    <path id="Path_40" data-name="Path 40" d="M359.592,215.263a1.787,1.787,0,1,0,2.3-2.738l-2.282-1.914a1.787,1.787,0,0,0-2.3,2.738Z" transform="translate(-314.177 -185.149)" fill="#082326"/>
    <path id="Path_41" data-name="Path 41" d="M109.1,210.61l-2.282,1.915a1.787,1.787,0,1,0,2.3,2.738l2.282-1.914a1.787,1.787,0,0,0-2.3-2.738Z" transform="translate(-93.527 -185.149)" fill="#082326"/>
    <path id="Path_42" data-name="Path 42" d="M66.788,116.7h2.978a1.787,1.787,0,1,0,0-3.574H66.788a1.787,1.787,0,1,0,0,3.574Z" transform="translate(-57.257 -99.651)" fill="#082326"/>
    <path id="Path_43" data-name="Path 43" d="M106.816,3.156,109.1,5.071a1.787,1.787,0,0,0,2.3-2.738L109.113.418a1.787,1.787,0,0,0-2.3,2.738Z" transform="translate(-93.527 0)" fill="#082326"/>
    <path id="Path_44" data-name="Path 44" d="M359.608,5.071l2.282-1.915a1.787,1.787,0,0,0-2.3-2.738l-2.282,1.915a1.787,1.787,0,0,0,2.3,2.738Z" transform="translate(-314.177)" fill="#082326"/>
  </g>
</svg>
