<svg xmlns="http://www.w3.org/2000/svg" width="50.718" height="50.721" viewBox="0 0 50.718 50.721">
  <g id="excellence_17274228" transform="translate(-4.001 -4)">
    <path id="Path_27" data-name="Path 27" d="M13.058,31.97a2.728,2.728,0,0,1,2.4-2.7c-4.234-6.462.688-15.472,8.468-15.36,11.539.209,13.842,16.228,2.753,19.635a8.262,8.262,0,0,0,2.065,6.784,16.472,16.472,0,0,0,4.048-1.775l2.047,1.531A.9.9,0,0,0,36.017,40l3.994-3.985a.909.909,0,0,0,.082-1.186l-1.531-2.038A17.526,17.526,0,0,0,40.546,28l2.527-.362a.914.914,0,0,0,.779-.9V21.1a.921.921,0,0,0-.779-.9l-2.527-.362a17.227,17.227,0,0,0-1.984-4.791l.933-1.241c.39-.536,1.2-1.306.516-1.983L36.017,7.843a.9.9,0,0,0-1.177-.082L32.793,9.292A16.852,16.852,0,0,0,28,7.308L27.64,4.772a.9.9,0,0,0-.9-.77H21.11a.9.9,0,0,0-.9.77l-.362,2.536A16.852,16.852,0,0,0,15.06,9.292L13.013,7.761a.9.9,0,0,0-1.177.082L7.841,11.828a.909.909,0,0,0-.082,1.186L9.29,15.052a17.229,17.229,0,0,0-1.983,4.791l-2.527.362A.921.921,0,0,0,4,21.1v5.642a.914.914,0,0,0,.779.9L7.307,28A17.228,17.228,0,0,0,9.29,32.794L7.76,34.832a.909.909,0,0,0,.082,1.186L11.836,40c.692.679,1.419-.114,1.983-.525a2.692,2.692,0,0,1-.761-1.866Z" transform="translate(0 0)" fill="#082326"/>
    <path id="Path_28" data-name="Path 28" d="M55.072,32.57l-2.527-.362a17.228,17.228,0,0,0-1.983-4.791l1.531-2.038a.909.909,0,0,0-.082-1.186l-3.994-3.985a.9.9,0,0,0-1.177-.082l-.8.6a2.689,2.689,0,0,1,.752,1.875v5.642a2.735,2.735,0,0,1-2.337,2.69,11.51,11.51,0,0,1,1.485,5.362c-.237,11.6-16.3,13.775-19.644,2.744a10.069,10.069,0,0,1,6.865-12.371,8.171,8.171,0,0,0-2.056-6.784,16.468,16.468,0,0,0-4.048,1.775l-2.047-1.531a.9.9,0,0,0-1.177.082l-3.994,3.985a.909.909,0,0,0-.082,1.186l1.531,2.038a17.078,17.078,0,0,0-1.884,4.429c-.041.122-.066.239-.1.362l-2.355.335a1.089,1.089,0,0,0-.725.335.869.869,0,0,0-.226.589V39.11a.958.958,0,0,0,.371.725,16.413,16.413,0,0,0,2.934.534A17.226,17.226,0,0,0,21.29,45.16L19.759,47.2a.909.909,0,0,0,.082,1.186l3.994,3.985a.9.9,0,0,0,1.177.082l2.047-1.531A16.853,16.853,0,0,0,31.85,52.9l.362,2.536a.907.907,0,0,0,.9.779h5.633a.907.907,0,0,0,.9-.779L40,52.9a16.853,16.853,0,0,0,4.791-1.983l2.047,1.531a.9.9,0,0,0,1.177-.082l3.994-3.985a.909.909,0,0,0,.082-1.186l-1.531-2.038a17.227,17.227,0,0,0,1.983-4.791l2.527-.362a.914.914,0,0,0,.779-.9V33.467a.921.921,0,0,0-.779-.9Z" transform="translate(-1.131 -1.497)" fill="#082326"/>
    <path id="Path_29" data-name="Path 29" d="M50.785,9.491h.933v6.285a.9.9,0,0,0,.906.906H56.3a.908.908,0,0,0,.906-.906V9.491h.933a.911.911,0,0,0,.643-1.549L55.1,4.265a.9.9,0,0,0-1.277,0L50.141,7.942a.911.911,0,0,0-.2.987A.92.92,0,0,0,50.785,9.491Z" transform="translate(-4.325)" fill="#082326"/>
    <path id="Path_30" data-name="Path 30" d="M9.227,46.263a.9.9,0,0,0-1.277,0L4.264,49.94a.911.911,0,0,0,.643,1.549H5.84v6.285a.908.908,0,0,0,.906.906h3.677a.9.9,0,0,0,.906-.906V51.489h.933a.92.92,0,0,0,.842-.561.911.911,0,0,0-.2-.987Z" transform="translate(0 -3.959)" fill="#082326"/>
  </g>
</svg>
