<svg xmlns="http://www.w3.org/2000/svg" width="35.097" height="35.43" viewBox="0 0 35.097 35.43">
  <g id="Growth-analytics-stock-graph-document" transform="translate(-2 -2)">
    <path id="Path_84" data-name="Path 84" d="M37.1,34.983v5.849h-1.17V34.983a1.17,1.17,0,0,0-2.34,0v1.17a.585.585,0,0,1-1.17,0V34.4a1.17,1.17,0,0,0-2.34,0v1.755a.585.585,0,0,1-1.17,0v-2.34a1.17,1.17,0,1,0-2.34,0v2.34a.585.585,0,0,1-1.17,0V27.963a1.17,1.17,0,0,0-2.34,0v9.944a.585.585,0,0,1-1.094.292l-1.17-2.024a1.136,1.136,0,0,0-.708-.55,1.17,1.17,0,0,0-1.316,1.72l1.872,3.235-1.018.585-.193-.333H11.944v-.006h-.585V37.7a2.917,2.917,0,0,0-.421-1.5L9.686,34.117a.6.6,0,0,1-.006-.6l2.632-4.557a1.17,1.17,0,0,0-.427-1.6A1.205,1.205,0,0,0,11,27.244a1.17,1.17,0,0,0-.708.55l-3.51,6.078-1.012-.585.328-.573V22.336L3.655,27.63a5.287,5.287,0,0,0-.486,2.2v11H2v-11a6.484,6.484,0,0,1,.591-2.691l2.656-5.762a1.8,1.8,0,0,1,.848-.842V11h1.17V30.689l2.012-3.48A2.309,2.309,0,0,1,10.7,26.115a2.34,2.34,0,0,1,2.632,3.434l-2.463,4.258,1.076,1.79a4.11,4.11,0,0,1,.585,2.106v1.96h6.23l-1-1.731a2.34,2.34,0,0,1,4.054-2.34l.076.135V27.963a2.34,2.34,0,1,1,4.68,0v3.826a2.336,2.336,0,0,1,3.176.819A2.326,2.326,0,0,1,33,32.859V30.3h1.17v2.422a2.393,2.393,0,0,1,.585-.082,2.34,2.34,0,0,1,2.34,2.34Z" transform="translate(0 -3.736)" fill="#7e2442"/>
    <path id="Path_85" data-name="Path 85" d="M10.17,3.755a.585.585,0,0,1,.585-.585H35.322a.585.585,0,0,1,.585.585V25.4h1.17V3.755A1.755,1.755,0,0,0,35.322,2H10.755A1.755,1.755,0,0,0,9,3.755v2.34h1.17Z" transform="translate(-2.905)" fill="#7e2442"/>
    <path id="Path_86" data-name="Path 86" d="M28.01,17.627a.585.585,0,0,0-.765.054l-1.981,1.981L23.33,18.212a.585.585,0,0,0-.859.175l-2.34,4.095,1.015.58,2.011-3.52,1.81,1.36a.585.585,0,0,0,.765-.054l1.981-1.981,1.934,1.451a.585.585,0,0,0,.765-.054L34.678,16V17.51h1.17V14.585A.585.585,0,0,0,35.263,14H32.339v1.17h1.513l-3.907,3.907Z" transform="translate(-7.526 -4.981)" fill="#7e2442"/>
    <path id="Path_87" data-name="Path 87" d="M35.643,22.039H15.17V8H14V22.624a.585.585,0,0,0,.585.585H35.643Z" transform="translate(-4.981 -2.49)" fill="#7e2442"/>
    <path id="Path_88" data-name="Path 88" d="M20,8h1.17V9.17H20Z" transform="translate(-7.471 -2.49)" fill="#7e2442"/>
    <path id="Path_89" data-name="Path 89" d="M24,8h4.68V9.17H24Z" transform="translate(-9.131 -2.49)" fill="#7e2442"/>
    <path id="Path_90" data-name="Path 90" d="M20,12h7.019v1.17H20Z" transform="translate(-7.471 -4.151)" fill="#7e2442"/>
    <path id="Path_91" data-name="Path 91" d="M24,38h5.849v1.17H24Z" transform="translate(-9.131 -14.942)" fill="#7e2442"/>
    <path id="Path_92" data-name="Path 92" d="M24,42h3.51v1.17H24Z" transform="translate(-9.131 -16.602)" fill="#7e2442"/>
    <path id="Path_93" data-name="Path 93" d="M32,42h1.17v1.17H32Z" transform="translate(-12.452 -16.602)" fill="#7e2442"/>
    <path id="Path_94" data-name="Path 94" d="M24,46h5.849v1.17H24Z" transform="translate(-9.131 -18.263)" fill="#7e2442"/>
  </g>
</svg>
