<svg xmlns="http://www.w3.org/2000/svg" xmlns:xlink="http://www.w3.org/1999/xlink" width="40.637" height="41.101" viewBox="0 0 40.637 41.101">
  <defs>
    <clipPath id="clip-path">
      <rect id="Rectangle_30" data-name="Rectangle 30" width="40.637" height="41.101" fill="#7e2442"/>
    </clipPath>
  </defs>
  <g id="Group_45" data-name="Group 45" transform="translate(0 0)">
    <g id="Group_44" data-name="Group 44" transform="translate(0 0)" clip-path="url(#clip-path)">
      <path id="Path_18" data-name="Path 18" d="M34.928,29.783a4.853,4.853,0,0,0-2.723-8.87l-.082,0a12.876,12.876,0,0,0,.9-2.54H34.96a.644.644,0,0,0,.644-.645V12.844a.645.645,0,0,0-.644-.645H33.025a12.9,12.9,0,0,0-1.539-3.714l1.369-1.367a.644.644,0,0,0,0-.912L29.4,2.751a.642.642,0,0,0-.912,0L27.119,4.118a12.925,12.925,0,0,0-3.714-1.539V.645A.645.645,0,0,0,22.762,0H17.874a.645.645,0,0,0-.644.645V2.579a12.906,12.906,0,0,0-3.714,1.539L12.148,2.751a.644.644,0,0,0-.912,0L7.781,6.206a.642.642,0,0,0,0,.912L9.148,8.485A12.945,12.945,0,0,0,7.609,12.2H5.675a.645.645,0,0,0-.644.645V17.73a.644.644,0,0,0,.644.645H7.609a13.039,13.039,0,0,0,.9,2.541c-.028,0-.054,0-.082,0a4.853,4.853,0,0,0-2.723,8.87A8.445,8.445,0,0,0,0,37.764a.645.645,0,0,0,.644.645H12.138a8.356,8.356,0,0,0-.252,2.048.645.645,0,0,0,.645.645H28.1a.645.645,0,0,0,.645-.645,8.366,8.366,0,0,0-.252-2.048H39.992a.645.645,0,0,0,.644-.645A8.445,8.445,0,0,0,34.928,29.783Zm.84-4.017a3.568,3.568,0,0,1-3.561,3.565h0a3.564,3.564,0,1,1,3.565-3.565m-12.726,6.71a4.856,4.856,0,0,0,2.13-4.017,4.918,4.918,0,0,0-.1-.989,13.1,13.1,0,0,0,2.048-1.015l.344.342A4.859,4.859,0,0,0,29.49,29.79a8.536,8.536,0,0,0-4.511,3.643,8.467,8.467,0,0,0-1.937-.956m-7.385.956a8.529,8.529,0,0,0-4.511-3.643A4.859,4.859,0,0,0,13.173,26.8l.344-.342a13.114,13.114,0,0,0,2.05,1.015,4.8,4.8,0,0,0-.1.989A4.853,4.853,0,0,0,17.6,32.477,8.445,8.445,0,0,0,15.657,33.433Zm1.1-4.973a3.564,3.564,0,1,1,3.563,3.565,3.567,3.567,0,0,1-3.563-3.565m2.509-4.735c-.164-.021-.327-.046-.488-.075V15.942a.644.644,0,0,0-.645-.644H16.122l4.2-5.431,4.2,5.431H22.506a.644.644,0,0,0-.645.644v7.707c-.162.029-.324.054-.488.075a4.782,4.782,0,0,0-2.111,0m3.887-7.138h1.495a1.225,1.225,0,0,0,.969-1.975l-4.326-5.6a1.226,1.226,0,0,0-1.94,0l-4.326,5.6a1.225,1.225,0,0,0,.969,1.975h1.495v6.722a8.5,8.5,0,1,1,5.664,0ZM8.76,17.6a.645.645,0,0,0-.632-.517H6.32v-3.6H8.128a.646.646,0,0,0,.632-.519,11.681,11.681,0,0,1,1.747-4.216.645.645,0,0,0-.08-.814L9.148,6.661l2.545-2.543L12.97,5.4a.647.647,0,0,0,.815.08A11.65,11.65,0,0,1,18,3.73a.646.646,0,0,0,.519-.632V1.29h3.6V3.1a.647.647,0,0,0,.519.634,11.681,11.681,0,0,1,4.216,1.747.645.645,0,0,0,.814-.08l1.277-1.279,2.545,2.543L30.209,7.94a.645.645,0,0,0-.08.814,11.669,11.669,0,0,1,1.747,4.216.645.645,0,0,0,.632.519h1.808v3.6H32.508a.644.644,0,0,0-.632.517A11.678,11.678,0,0,1,30.5,21.223a4.865,4.865,0,0,0-3.093,3.8.643.643,0,0,0-.557.077,11.814,11.814,0,0,1-2.214,1.156,4.895,4.895,0,0,0-1.354-1.633,9.791,9.791,0,1,0-5.932,0A4.895,4.895,0,0,0,16,26.254,11.865,11.865,0,0,1,13.784,25.1a.643.643,0,0,0-.557-.077,4.865,4.865,0,0,0-3.093-3.8A11.662,11.662,0,0,1,8.76,17.6ZM4.868,25.766a3.564,3.564,0,1,1,3.565,3.565h0A3.568,3.568,0,0,1,4.868,25.766ZM1.318,37.119a7.15,7.15,0,0,1,7.111-6.5h0a7.2,7.2,0,0,1,6.2,3.612,8.492,8.492,0,0,0-2.058,2.885ZM13.2,39.812a7.143,7.143,0,0,1,14.228,0ZM28.06,37.119A8.492,8.492,0,0,0,26,34.233a7.2,7.2,0,0,1,6.2-3.612h0a7.15,7.15,0,0,1,7.111,6.5Z" transform="translate(0 -0.001)" fill="#7e2442"/>
    </g>
  </g>
</svg>
