<svg xmlns="http://www.w3.org/2000/svg" xmlns:xlink="http://www.w3.org/1999/xlink" width="36.829" height="41.58" viewBox="0 0 36.829 41.58">
  <defs>
    <clipPath id="clip-path">
      <rect id="Rectangle_31" data-name="Rectangle 31" width="36.829" height="41.58" fill="#082326"/>
    </clipPath>
  </defs>
  <g id="Group_47" data-name="Group 47" transform="translate(0 0)">
    <g id="Group_46" data-name="Group 46" transform="translate(0 0.001)" clip-path="url(#clip-path)">
      <path id="Path_19" data-name="Path 19" d="M16.937,39.338H2.109a.62.62,0,0,1-.623-.617V3.387a.62.62,0,0,1,.623-.617H5.933a.743.743,0,0,0,0-1.486H2.109A2.109,2.109,0,0,0,0,3.387V38.722a2.107,2.107,0,0,0,2.109,2.1H16.937a.742.742,0,0,0,0-1.485" transform="translate(0 0.756)" fill="#082326"/>
      <path id="Path_20" data-name="Path 20" d="M14.579,2.77H18.4a.62.62,0,0,1,.623.617V20.775a.743.743,0,0,0,1.486,0V3.386a2.107,2.107,0,0,0-2.109-2.1H14.579a.742.742,0,0,0,0,1.485" transform="translate(8.164 0.757)" fill="#082326"/>
      <path id="Path_21" data-name="Path 21" d="M6.618,5.561h9.389a1.484,1.484,0,0,0,1.485-1.485V1.485A1.484,1.484,0,0,0,16.006,0H6.618A1.484,1.484,0,0,0,5.133,1.485V4.077A1.484,1.484,0,0,0,6.618,5.561m0-4.077h9.389l0,2.592H6.618Z" transform="translate(3.026 -0.001)" fill="#082326"/>
      <path id="Path_22" data-name="Path 22" d="M7.954,7.283a.742.742,0,0,0-.742-.742H2.757a.743.743,0,0,0-.744.742v4.455a.742.742,0,0,0,.742.742H7.21a.743.743,0,0,0,.744-.742ZM6.468,11H3.5V8.026H6.468Z" transform="translate(1.187 3.855)" fill="#082326"/>
      <path id="Path_23" data-name="Path 23" d="M7.954,12.89a.744.744,0,0,0-.742-.744H2.757a.743.743,0,0,0-.744.742v4.457a.743.743,0,0,0,.742.742H7.21a.743.743,0,0,0,.744-.742ZM6.468,16.6H3.5V13.631H6.468Z" transform="translate(1.187 7.159)" fill="#082326"/>
      <path id="Path_24" data-name="Path 24" d="M7.21,17.752H2.757a.743.743,0,0,0-.744.742v4.455a.742.742,0,0,0,.742.742H7.21a.741.741,0,0,0,.744-.741V18.494a.742.742,0,0,0-.742-.742Zm-.742,4.455H3.5V19.237H6.468Z" transform="translate(1.187 10.463)" fill="#082326"/>
      <path id="Path_25" data-name="Path 25" d="M19.3,8.493a.742.742,0,0,0,0-1.485H7.424a.742.742,0,0,0,0,1.485Z" transform="translate(3.946 4.13)" fill="#082326"/>
      <path id="Path_26" data-name="Path 26" d="M7.422,10.361H19.3a.742.742,0,0,0,0-1.485H7.422a.742.742,0,0,0,0,1.485" transform="translate(3.946 5.231)" fill="#082326"/>
      <path id="Path_27" data-name="Path 27" d="M7.423,14.1H19.3a.742.742,0,0,0,0-1.485H7.423a.742.742,0,0,0,0,1.485" transform="translate(3.945 7.434)" fill="#082326"/>
      <path id="Path_28" data-name="Path 28" d="M20.051,15.224a.742.742,0,0,0-.742-.742H7.427a.742.742,0,1,0,0,1.485H19.308A.742.742,0,0,0,20.051,15.224Z" transform="translate(3.94 8.535)" fill="#082326"/>
      <path id="Path_29" data-name="Path 29" d="M7.421,18.219a.742.742,0,0,0,0,1.485h8.666a.742.742,0,0,0,0-1.485Z" transform="translate(3.946 10.738)" fill="#082326"/>
      <path id="Path_30" data-name="Path 30" d="M15.58,20.83a.742.742,0,0,0-.742-.742H7.427a.742.742,0,1,0,0,1.485h7.41A.742.742,0,0,0,15.58,20.83Z" transform="translate(3.94 11.84)" fill="#082326"/>
      <path id="Path_31" data-name="Path 31" d="M26.818,25.069l-1.032-.342a.743.743,0,0,0-.466,1.41l1.028.342a2.825,2.825,0,0,1,1.936,2.681v1.849a.274.274,0,0,1-.273.275H13.733a.275.275,0,0,1-.275-.275V29.16a2.829,2.829,0,0,1,1.934-2.681c1.156-.319,4.3-1.634,5.48-1.55a4.955,4.955,0,1,0-2.842-.893l-3.107,1.035a4.311,4.311,0,0,0-2.95,4.09v1.849a1.761,1.761,0,0,0,1.76,1.76h14.28a1.761,1.761,0,0,0,1.76-1.76V29.16a4.316,4.316,0,0,0-2.953-4.091m-5.946-8.635a3.5,3.5,0,0,1,0,7.009,3.5,3.5,0,0,1,0-7.009" transform="translate(7.057 8.811)" fill="#082326"/>
    </g>
  </g>
</svg>
