<svg xmlns="http://www.w3.org/2000/svg" xmlns:xlink="http://www.w3.org/1999/xlink" width="40.999" height="41" viewBox="0 0 40.999 41">
  <defs>
    <clipPath id="clip-path">
      <rect id="Rectangle_29" data-name="Rectangle 29" width="40.999" height="41" fill="#082326"/>
    </clipPath>
  </defs>
  <g id="Group_43" data-name="Group 43" transform="translate(0 0)">
    <g id="Group_42" data-name="Group 42" transform="translate(0 0)" clip-path="url(#clip-path)">
      <path id="Path_14" data-name="Path 14" d="M19.1,34.821A15.716,15.716,0,1,0,3.388,19.1,15.716,15.716,0,0,0,19.1,34.821M27.3,14.7l2.177,1.6c.03.021.052.051.08.075L27.3,18.042ZM29.11,29.371l-7.446-5.482,8.373-6.162v10.65Q29.6,28.9,29.11,29.371ZM10.145,30.3l8.505-6.262a.774.774,0,0,1,.908,0l8.5,6.262c-.185.148-.377.287-.568.425H10.713c-.191-.136-.383-.272-.568-.425M23.2,21.059,20.512,23.04l-.137-.1a2.142,2.142,0,0,0-2.534,0l-.141.1L15,21.059V13.552a2.744,2.744,0,0,0,1.964-1.963H21.24A2.744,2.744,0,0,0,23.2,13.552Zm2.733-2.012-1.367,1.005v-7.1a.683.683,0,0,0-.683-.682,1.367,1.367,0,0,1-1.367-1.367.683.683,0,0,0-.683-.683H16.37a.683.683,0,0,0-.683.683,1.367,1.367,0,0,1-1.367,1.367.683.683,0,0,0-.683.682v7.1L12.27,19.047V9.539a.683.683,0,0,1,.683-.683h12.3a.683.683,0,0,1,.683.683ZM10.9,18.042l-2.256-1.66c.028-.024.049-.052.079-.075L10.9,14.7Zm-2.733-.315,8.373,6.162L9.095,29.371q-.485-.479-.926-.994Zm4.861,14.36H25.175A14.165,14.165,0,0,1,13.033,32.087ZM19.1,4.756a14.319,14.319,0,0,1,12.3,21.7V17.411a2.715,2.715,0,0,0-1.111-2.2l-2.989-2.2V9.539a2.05,2.05,0,0,0-2.049-2.05h-12.3A2.05,2.05,0,0,0,10.9,9.539v3.468l-2.99,2.2a2.716,2.716,0,0,0-1.11,2.2v9.047a14.319,14.319,0,0,1,12.3-21.7" transform="translate(1.396 1.396)" fill="#082326"/>
      <path id="Path_15" data-name="Path 15" d="M1.7,24.085l.73.12a18.192,18.192,0,0,0,2.678,6.45l-.428.6a1.915,1.915,0,0,0,.035,2.314c.38.466.819.946,1.3,1.426.415.415.867.825,1.44,1.307a1.9,1.9,0,0,0,2.29.027l.606-.435a18.206,18.206,0,0,0,6.45,2.68l.12.727a1.91,1.91,0,0,0,1.653,1.6,18.026,18.026,0,0,0,3.863,0,1.913,1.913,0,0,0,1.649-1.6l.12-.729a18.229,18.229,0,0,0,6.45-2.678l.6.433a1.913,1.913,0,0,0,2.314-.044c.551-.465,1-.875,1.418-1.29a19.444,19.444,0,0,0,1.309-1.44,1.906,1.906,0,0,0,.027-2.289l-.435-.607a18.167,18.167,0,0,0,2.678-6.45l.73-.12a1.913,1.913,0,0,0,1.6-1.658,18.306,18.306,0,0,0,0-3.853v-.008a1.911,1.911,0,0,0-1.6-1.651l-.73-.119a18.193,18.193,0,0,0-2.678-6.45l.432-.606a1.911,1.911,0,0,0-.041-2.307,17,17,0,0,0-1.3-1.426A19.361,19.361,0,0,0,33.551,4.7a1.9,1.9,0,0,0-2.29-.027l-.607.435A18.218,18.218,0,0,0,24.2,2.431L24.086,1.7A1.914,1.914,0,0,0,22.427.1a18.013,18.013,0,0,0-3.862,0,1.91,1.91,0,0,0-1.651,1.6l-.12.73a18.194,18.194,0,0,0-6.448,2.677l-.606-.432a1.907,1.907,0,0,0-2.306.041A18.641,18.641,0,0,0,6.018,6a17.11,17.11,0,0,0-1.312,1.44,1.911,1.911,0,0,0-.032,2.3l.435.609A18.192,18.192,0,0,0,2.43,16.8l-.729.119A1.913,1.913,0,0,0,.1,18.575a18.4,18.4,0,0,0,0,3.863,1.913,1.913,0,0,0,1.6,1.648m-.239-5.361a.539.539,0,0,1,.46-.456l1.2-.2a.681.681,0,0,0,.562-.555A16.857,16.857,0,0,1,6.5,10.73a.685.685,0,0,0,0-.791l-.714-1A.547.547,0,0,1,5.77,8.3,15.481,15.481,0,0,1,6.976,6.977c.448-.449.894-.854,1.309-1.194a.546.546,0,0,1,.658,0l1,.713a.686.686,0,0,0,.789,0,16.868,16.868,0,0,1,6.784-2.817.683.683,0,0,0,.555-.563l.2-1.2a.535.535,0,0,1,.448-.459,16.744,16.744,0,0,1,3.568,0,.539.539,0,0,1,.456.46l.2,1.2a.683.683,0,0,0,.555.563A16.891,16.891,0,0,1,30.271,6.5a.683.683,0,0,0,.789,0l1-.714a.54.54,0,0,1,.641-.011A17.629,17.629,0,0,1,34.03,6.984a15.371,15.371,0,0,1,1.192,1.309.544.544,0,0,1-.008.651l-.712,1a.681.681,0,0,0,0,.789,16.868,16.868,0,0,1,2.817,6.784.684.684,0,0,0,.563.555l1.2.2a.536.536,0,0,1,.459.452,16.878,16.878,0,0,1,0,3.562.556.556,0,0,1-.46.457l-1.2.2a.681.681,0,0,0-.562.555A16.871,16.871,0,0,1,34.5,30.272a.686.686,0,0,0,0,.789l.72,1.005a.534.534,0,0,1,.007.634c-.353.431-.758.877-1.2,1.323-.388.388-.812.774-1.31,1.194a.546.546,0,0,1-.658,0l-.994-.713a.686.686,0,0,0-.789,0,16.874,16.874,0,0,1-6.786,2.817.683.683,0,0,0-.555.563l-.2,1.2a.538.538,0,0,1-.448.457,16.757,16.757,0,0,1-3.569,0,.535.535,0,0,1-.455-.459l-.2-1.2a.683.683,0,0,0-.555-.563A16.874,16.874,0,0,1,10.726,34.5a.681.681,0,0,0-.789,0l-1,.713a.541.541,0,0,1-.634.02c-.521-.439-.945-.825-1.331-1.211a17.61,17.61,0,0,1-1.193-1.31.538.538,0,0,1,0-.658l.712-.994a.683.683,0,0,0,.007-.792,16.871,16.871,0,0,1-2.818-6.784.683.683,0,0,0-.562-.555l-1.2-.2a.55.55,0,0,1-.459-.446,16.757,16.757,0,0,1,0-3.569Z" transform="translate(0 0)" fill="#082326"/>
      <path id="Path_16" data-name="Path 16" d="M15.316,12.1a2.733,2.733,0,1,0,2.733,2.733A2.734,2.734,0,0,0,15.316,12.1m0,4.1a1.367,1.367,0,1,1,1.367-1.367A1.366,1.366,0,0,1,15.316,16.2" transform="translate(5.183 4.984)" fill="#082326"/>
      <path id="Path_17" data-name="Path 17" d="M14.718,10.164a.683.683,0,1,1-.683.683.684.684,0,0,1,.683-.683" transform="translate(5.781 4.187)" fill="#082326"/>
    </g>
  </g>
</svg>
