<svg xmlns="http://www.w3.org/2000/svg" xmlns:xlink="http://www.w3.org/1999/xlink" width="43.625" height="37.243" viewBox="0 0 43.625 37.243">
  <defs>
    <clipPath id="clip-path">
      <rect id="Rectangle_28" data-name="Rectangle 28" width="43.625" height="37.243" fill="#7e2442"/>
    </clipPath>
  </defs>
  <g id="Group_41" data-name="Group 41" transform="translate(-5.671 -4.842)">
    <g id="Group_40" data-name="Group 40" transform="translate(5.671 4.842)" clip-path="url(#clip-path)">
      <path id="Path_13" data-name="Path 13" d="M43.151,18.8H40.8v-.134a1.456,1.456,0,1,0-2.913,0V18.8H35.445v-.134a1.456,1.456,0,1,0-2.913,0V18.8H30.087v-.134a1.456,1.456,0,1,0-2.913,0V18.8H24.73v-.134a1.458,1.458,0,0,0-1.457-1.457,1.439,1.439,0,0,0-.658.16,11.93,11.93,0,0,0-7.74-5.8,6.109,6.109,0,1,0-5.433,0,12.033,12.033,0,0,0-9.294,11.7.475.475,0,0,0,.473.475H8.814A24.722,24.722,0,0,1,5.539,27.51a1.558,1.558,0,0,0-1.532-1.288H1.557A1.559,1.559,0,0,0,0,27.78v7.282a1.559,1.559,0,0,0,1.557,1.558h2.45a1.557,1.557,0,0,0,1.336-.762,2.38,2.38,0,0,0,1.732.761h6.168c1.219,0,2.158-.968,2.45-2.528l.91-4.843a2.116,2.116,0,0,0-.484-1.763,2.628,2.628,0,0,0-1.966-.941h-2.19a8.283,8.283,0,0,0,1.216-2.793H19V36.77a.474.474,0,0,0,.473.473H43.151a.474.474,0,0,0,.473-.473V19.276A.474.474,0,0,0,43.151,18.8Zm-4.313-.134a.508.508,0,1,1,1.016,0v1.216a.508.508,0,1,1-1.016,0Zm-5.358,0a.508.508,0,1,1,1.016,0v1.216a.508.508,0,1,1-1.016,0Zm-5.358,0a.508.508,0,1,1,1.016,0v1.216a.508.508,0,1,1-1.016,0Zm-4.851-.509a.509.509,0,0,1,.509.509v1.216a.508.508,0,1,1-1.016,0V18.669a.509.509,0,0,1,.507-.509M7,6.108a5.159,5.159,0,1,1,5.16,5.16h0A5.164,5.164,0,0,1,7,6.108ZM4.615,35.062a.609.609,0,0,1-.609.61H1.557a.61.61,0,0,1-.609-.61V27.78a.609.609,0,0,1,.609-.609h2.45a.608.608,0,0,1,.609.609Zm6.054-8.332a.474.474,0,0,0,.377.762h3.1a1.681,1.681,0,0,1,1.237.6,1.179,1.179,0,0,1,.281.982l-.908,4.843c-.16.848-.642,1.755-1.519,1.755H7.075A1.6,1.6,0,0,1,5.565,34V28.746a23.645,23.645,0,0,0,5.677-7.225,1.1,1.1,0,0,1,.928.595C12.641,23.067,12.024,24.965,10.669,26.731ZM19,19.276V22.8H13.27a2.61,2.61,0,0,0-.249-1.107,2.165,2.165,0,0,0-2.081-1.142.474.474,0,0,0-.438.294A13.153,13.153,0,0,1,9.452,22.8H1.105A11.076,11.076,0,0,1,12.156,12.216h0A11.006,11.006,0,0,1,21.932,18.1a1.457,1.457,0,0,0-.115.569V18.8H19.469A.474.474,0,0,0,19,19.276ZM42.676,36.3H19.943V19.751h1.874v.134a1.456,1.456,0,1,0,2.913,0v-.134h2.445v.134a1.456,1.456,0,1,0,2.913,0v-.134h2.445v.134a1.456,1.456,0,1,0,2.913,0v-.134h2.444v.134a1.457,1.457,0,1,0,2.914,0v-.134h1.874Zm-9.091-6.924H29.035a.475.475,0,0,0-.475.475V34.4a.475.475,0,0,0,.475.473h4.551a.474.474,0,0,0,.473-.473V29.846a.474.474,0,0,0-.473-.475m-.475,4.551h-3.6v-3.6h3.6Zm-6.962-4.551H21.6a.475.475,0,0,0-.475.475V34.4a.475.475,0,0,0,.475.473h4.551a.474.474,0,0,0,.473-.473V29.846a.474.474,0,0,0-.473-.475m-.475,4.551h-3.6v-3.6h3.6Zm.475-11.352H21.6a.475.475,0,0,0-.475.475v4.549a.475.475,0,0,0,.475.475h4.551a.474.474,0,0,0,.473-.475V23.045a.474.474,0,0,0-.473-.475m-.475,4.551h-3.6v-3.6h3.6Zm10.8-4.551a.475.475,0,0,0-.475.475v4.549a.475.475,0,0,0,.475.475h4.551a.474.474,0,0,0,.473-.475V23.045a.474.474,0,0,0-.473-.475Zm4.076,4.551h-3.6v-3.6h3.6Zm.475,2.25H36.472a.474.474,0,0,0-.473.475V34.4a.474.474,0,0,0,.473.473h4.551A.474.474,0,0,0,41.5,34.4V29.846a.474.474,0,0,0-.473-.475m-.475,4.551h-3.6v-3.6h3.6ZM33.585,22.57H29.035a.475.475,0,0,0-.475.475v4.549a.475.475,0,0,0,.475.475h4.551a.474.474,0,0,0,.473-.475V23.045a.474.474,0,0,0-.473-.475m-.475,4.551h-3.6v-3.6h3.6Zm-1.8-11.353a7.619,7.619,0,1,0-7.619-7.619A7.626,7.626,0,0,0,31.309,15.768Zm0-14.289a6.67,6.67,0,1,1-6.67,6.67A6.678,6.678,0,0,1,31.309,1.479Zm-.473,1.512V2.273a.474.474,0,1,1,.948,0v.718a.474.474,0,0,1-.948,0M36,8.149a.474.474,0,0,1,.473-.473h.718a.474.474,0,1,1,0,.948h-.718A.474.474,0,0,1,36,8.149m-4.211,5.16v.718a.474.474,0,1,1-.948,0v-.718a.474.474,0,1,1,.948,0m-5.16-5.16a.474.474,0,0,1-.473.475h-.718a.474.474,0,1,1,0-.948h.718a.474.474,0,0,1,.473.473m.954,0a.474.474,0,0,1,.475-.473l2.782,0V4.622a.474.474,0,0,1,.948,0V8.149a.475.475,0,0,1-.475.475l-3.257,0a.475.475,0,0,1-.473-.475" transform="translate(0 0)" fill="#7e2442"/>
    </g>
  </g>
</svg>
