<svg xmlns="http://www.w3.org/2000/svg" xmlns:xlink="http://www.w3.org/1999/xlink" width="53.425" height="53.423" viewBox="0 0 53.425 53.423">
  <defs>
    <clipPath id="clip-path">
      <rect id="Rectangle_23" data-name="Rectangle 23" width="53.425" height="53.423" fill="#7e2442"/>
    </clipPath>
  </defs>
  <g id="Group_35" data-name="Group 35" transform="translate(0 0)">
    <g id="Group_34" data-name="Group 34" transform="translate(0 0)" clip-path="url(#clip-path)">
      <path id="Path_2" data-name="Path 2" d="M48.094,22.619a4.354,4.354,0,0,0,.748-2.448v-.838a4.389,4.389,0,0,0-7.489-3.109,15.445,15.445,0,0,0-29.285,0,4.389,4.389,0,0,0-7.489,3.109v.838a4.369,4.369,0,0,0,.748,2.448A6.725,6.725,0,0,0,0,29.189v2.1a1.042,1.042,0,0,0,1.042,1.042H6.469a1.043,1.043,0,1,0,0-2.086H2.086V29.189a4.633,4.633,0,0,1,4.628-4.628h4.938A15.367,15.367,0,0,0,13.7,29.448L1.8,41.353a3.911,3.911,0,0,0,5.53,5.532L13.89,40.32a1.044,1.044,0,1,0-1.476-1.476L5.851,45.408a1.824,1.824,0,1,1-2.579-2.579L14.959,31.143a15.437,15.437,0,0,0,26.813-6.582h4.938a4.633,4.633,0,0,1,4.628,4.628v1.058H41.528a1.043,1.043,0,1,0,0,2.086H52.379a1.044,1.044,0,0,0,1.044-1.042v-2.1a6.725,6.725,0,0,0-5.329-6.57M11.276,20.171a2.3,2.3,0,0,1-4.608,0v-.838a2.3,2.3,0,0,1,4.608,0ZM26.712,34.493A13.357,13.357,0,1,1,40.068,21.135,13.371,13.371,0,0,1,26.712,34.493M46.756,20.171a2.3,2.3,0,0,1-4.608,0v-.838a2.3,2.3,0,0,1,4.608,0Z" transform="translate(0 5.396)" fill="#7e2442"/>
      <path id="Path_3" data-name="Path 3" d="M19.2,7.836A11.264,11.264,0,0,0,11.469,27.3a1.336,1.336,0,0,0,.121.113,11.253,11.253,0,0,0,15.214,0,1.118,1.118,0,0,0,.121-.113A11.263,11.263,0,0,0,19.2,7.836m0,20.452a9.146,9.146,0,0,1-5.687-1.977,6.439,6.439,0,0,1,11.373,0A9.14,9.14,0,0,1,19.2,28.288M17,18.607v-.812a2.2,2.2,0,0,1,4.4,0v.812a2.2,2.2,0,1,1-4.4,0m9.412,6.174a8.459,8.459,0,0,0-3.993-3.352,4.263,4.263,0,0,0,1.065-2.822V17.8a4.285,4.285,0,1,0-8.57,0v.81a4.253,4.253,0,0,0,1.065,2.822,8.459,8.459,0,0,0-3.993,3.352,9.182,9.182,0,1,1,14.425,0" transform="translate(7.514 7.428)" fill="#7e2442"/>
      <path id="Path_4" data-name="Path 4" d="M9.43,21.429a1.044,1.044,0,1,0,.306.738,1.05,1.05,0,0,0-.306-.738" transform="translate(7.25 20.021)" fill="#7e2442"/>
      <path id="Path_5" data-name="Path 5" d="M14.233,0a1.044,1.044,0,0,0-1.044,1.044V4.593a1.044,1.044,0,1,0,2.088,0V1.044A1.044,1.044,0,0,0,14.233,0" transform="translate(12.5 0.001)" fill="#7e2442"/>
      <path id="Path_6" data-name="Path 6" d="M14.97,3.895a1.042,1.042,0,1,0,.306.738,1.047,1.047,0,0,0-.306-.738" transform="translate(12.501 3.402)" fill="#7e2442"/>
      <path id="Path_7" data-name="Path 7" d="M20.026,2.25a1.045,1.045,0,0,0-1.476,0L16.717,4.084a1.043,1.043,0,0,0,.738,1.78,1.032,1.032,0,0,0,.736-.306l1.835-1.833a1.045,1.045,0,0,0,0-1.476" transform="translate(15.554 1.843)" fill="#7e2442"/>
      <path id="Path_8" data-name="Path 8" d="M12.637,4.1,10.785,2.247A1.043,1.043,0,1,0,9.311,3.723l1.85,1.852A1.044,1.044,0,0,0,12.637,4.1" transform="translate(8.535 1.841)" fill="#7e2442"/>
    </g>
  </g>
</svg>
