<svg id="Group_49" data-name="Group 49" xmlns="http://www.w3.org/2000/svg" xmlns:xlink="http://www.w3.org/1999/xlink" width="39.174" height="36.989" viewBox="0 0 39.174 36.989">
  <defs>
    <clipPath id="clip-path">
      <rect id="Rectangle_32" data-name="Rectangle 32" width="39.174" height="36.989" fill="#7e2442"/>
    </clipPath>
  </defs>
  <g id="Group_48" data-name="Group 48" transform="translate(0 0)" clip-path="url(#clip-path)">
    <path id="Path_32" data-name="Path 32" d="M39.083,19.67a.771.771,0,0,0-.682-.409h-.808V17.987a7.738,7.738,0,0,0-4.711-7.114,5.336,5.336,0,1,0-6.029,0,7.734,7.734,0,0,0-4.71,7.114V19.26H20.764a.773.773,0,1,0,0,1.545h16.19l-9.42,14.1H22.277V33.008a9.849,9.849,0,0,0-6.423-9.223,6.723,6.723,0,1,0-6.819,0,9.851,9.851,0,0,0-6.424,9.223V34.9H.774a.773.773,0,1,0,0,1.547H27.948a.774.774,0,0,0,.644-.343L39.045,20.462A.773.773,0,0,0,39.083,19.67ZM26.075,6.486a3.792,3.792,0,1,1,3.809,3.775h-.016A3.787,3.787,0,0,1,26.075,6.486ZM36.046,19.26H23.688V17.987a6.179,6.179,0,0,1,12.358-.105V19.26ZM7.269,18.022a5.176,5.176,0,1,1,5.2,5.151h-.027A5.168,5.168,0,0,1,7.269,18.022ZM20.732,34.9H4.158V33.008a8.287,8.287,0,0,1,16.574-.121V34.9Z" transform="translate(0 0.541)" fill="#7e2442"/>
    <path id="Path_33" data-name="Path 33" d="M14.236,7.232l2.983,1.536a.774.774,0,0,0,1.126-.687V3.092A3.093,3.093,0,0,0,15.253,0H8.514A3.093,3.093,0,0,0,5.42,3.092V4.14A3.1,3.1,0,0,0,8.514,7.234ZM6.967,4.14V3.092A1.547,1.547,0,0,1,8.514,1.545h6.739A1.546,1.546,0,0,1,16.8,3.092V6.813l-2.02-1.042a.775.775,0,0,0-.354-.086H8.514A1.547,1.547,0,0,1,6.967,4.14" transform="translate(2.603 0)" fill="#7e2442"/>
  </g>
</svg>
