<?xml version="1.0" encoding="utf-8"?>
<!-- Generator: Adobe Illustrator 20.1.0, SVG Export Plug-In . SVG Version: 6.00 Build 0)  -->
<svg version="1.1" id="Layer_1" xmlns="http://www.w3.org/2000/svg" xmlns:xlink="http://www.w3.org/1999/xlink" x="0px" y="0px"
	 viewBox="0 0 512 512" style="enable-background:new 0 0 512 512;" xml:space="preserve">
<style type="text/css">
	.st0{fill:#7B1315;}
</style>
<g>
	<g>
		<g>
			<g>
				<path class="st0" d="M509.1,10.4c-0.5-4.4-4-7.9-8.4-8.4C461-2.9,420.1,1.3,382.3,14.3c-37.8,13-72.7,34.8-101,63.1l-64.5,64.5
					l-93.1,12c-2.1,0.3-4.1,1.2-5.6,2.8l-89.8,89.8c-2.5,2.5-3.5,6.3-2.4,9.7c1.1,3.4,3.9,6,7.5,6.6l67.9,12.6l13.3,13.3L86.3,304
					c-2.7,1.5-4.5,4.1-5,7.1s0.6,6.1,2.7,8.2l107.7,107.7c1.8,1.8,4.3,2.8,6.8,2.8c0.5,0,0.9,0,1.4-0.1c3-0.4,5.7-2.3,7.1-5
					l15.4-28.4l13.3,13.3l12.6,67.9c0.7,3.5,3.2,6.4,6.6,7.5c0.9,0.3,1.9,0.4,2.9,0.4c2.5,0,5-1,6.8-2.8l89.8-89.8
					c1.5-1.5,2.5-3.5,2.8-5.6l12-93.1l64.5-64.5c28.3-28.3,50.1-63.2,63.1-101C509.7,91,514,50.1,509.1,10.4z M102.8,255.9
					l-47.7-8.8l74.4-74.4l64.9-8.4L102.8,255.9z M196.2,404.2l-89.3-89.3l22-11.9l79.2,79.2L196.2,404.2z M338.4,381.6L264,456
					l-8.8-47.7l91.6-91.6L338.4,381.6z M420,216.1L244.7,391.4l-125-125L295,91.1c25.5-25.5,56.8-45.3,90.7-57.4
					c4.4,22.6,15.4,43.5,31.8,59.9c16.4,16.4,37.3,27.4,59.9,31.8C465.3,159.3,445.5,190.6,420,216.1z M483.2,106.8
					c-19.6-3.3-37.9-12.7-52-26.9c-14.2-14.2-23.6-32.4-26.9-52c28.1-7.6,57.5-10.1,86.4-7.5C493.4,49.3,490.8,78.7,483.2,106.8z"/>
				<path class="st0" d="M285.6,142.5c-22.9,22.9-22.9,60.1,0,83c11.4,11.4,26.5,17.2,41.5,17.2c15,0,30.1-5.7,41.5-17.2h0
					c22.9-22.9,22.9-60.1,0-83C345.7,119.6,308.5,119.6,285.6,142.5z M354.9,211.8c-15.3,15.3-40.3,15.3-55.7,0
					c-15.3-15.3-15.3-40.3,0-55.7c7.7-7.7,17.7-11.5,27.8-11.5c10.1,0,20.2,3.8,27.8,11.5C370.2,171.5,370.2,196.5,354.9,211.8z"/>
				<path class="st0" d="M126.9,386c-3.8-3.8-9.9-3.8-13.7,0l-83,83c-3.8,3.8-3.8,9.9,0,13.7c1.9,1.9,4.4,2.8,6.8,2.8
					c2.5,0,5-0.9,6.8-2.8l83-83C130.7,395.9,130.7,389.8,126.9,386z"/>
				<path class="st0" d="M139.7,412.5l-37.4,37.4c-3.8,3.8-3.8,9.9,0,13.7c1.9,1.9,4.4,2.8,6.8,2.8c2.5,0,5-0.9,6.8-2.8l37.4-37.4
					c3.8-3.8,3.8-9.9,0-13.7C149.6,408.7,143.5,408.7,139.7,412.5z"/>
				<path class="st0" d="M89.2,467c-4,0-7.7,2.6-9.1,6.4c-1.4,3.9-0.1,8.3,3.1,10.9c3.3,2.6,8.1,2.7,11.5,0.3
					c3.7-2.6,5.2-7.5,3.4-11.6C96.7,469.4,93,467,89.2,467z"/>
				<path class="st0" d="M98.1,472.9C98.4,473.5,97.9,472.4,98.1,472.9L98.1,472.9z"/>
				<path class="st0" d="M61.8,490.3l-5.2,5.2c-3.8,3.8-3.8,9.9,0,13.7c1.9,1.9,4.4,2.8,6.8,2.8c2.5,0,5-0.9,6.8-2.8l5.2-5.2
					c3.8-3.8,3.8-9.9,0-13.7C71.7,486.6,65.6,486.5,61.8,490.3z"/>
				<path class="st0" d="M54.8,405.2c-3.8-3.8-9.9-3.8-13.7,0L3.7,442.6c-3.8,3.8-3.8,9.9,0,13.7c1.9,1.9,4.4,2.8,6.8,2.8
					s5-0.9,6.8-2.8l37.4-37.4C58.6,415.1,58.6,408.9,54.8,405.2z"/>
				<path class="st0" d="M70.3,401.4c3.9-1,6.9-4.4,7.3-8.4c0.4-3.9-1.8-7.8-5.3-9.6c-3.7-1.9-8.4-1.1-11.3,1.9
					c-3.1,3.2-3.6,8.3-1.1,12c-0.1-0.1-0.1-0.2,0,0c0.2,0.2,0.1,0.2,0,0C62.2,400.8,66.4,402.4,70.3,401.4z"/>
				<path class="st0" d="M95.3,378.4l5.1-5.2c3.8-3.8,3.8-9.9,0-13.7c-3.8-3.8-9.9-3.8-13.7,0l-5.1,5.2c-3.8,3.8-3.8,9.9,0,13.7
					c1.9,1.9,4.4,2.8,6.8,2.8C90.9,381.2,93.4,380.3,95.3,378.4z"/>
			</g>
		</g>
	</g>
</g>
</svg>
