<?xml version="1.0" encoding="UTF-8"?><svg id="Layer_1" xmlns="http://www.w3.org/2000/svg" viewBox="0 0 841.89 336.86"><defs><style>.cls-1{fill:#fff;}</style></defs><path class="cls-1" d="M12.01,217.71h57.29c18.54,0,25.27,12.83,25.27,24.63s-5.44,19.57-15.55,22.81v.26c8.16,1.17,12.96,8.81,13.48,19.7.78,17.24,1.3,21.52,4.41,25.15h-14.52c-2.21-2.59-2.21-6.48-2.85-17.63-.91-16.59-6.48-21.65-17.89-21.65H25.75v39.27h-13.74v-92.55ZM64.12,259.06c13.48,0,16.72-8.16,16.72-14.65,0-8.81-5.31-14.78-16.33-14.78H25.75v29.42h38.37Z"/><path class="cls-1" d="M107.8,216.94h12.96v35.64h.26c6.09-9.46,16.85-12.57,26.57-12.57,16.33,0,28.52,7,28.52,23.98v46.27h-12.96v-43.68c0-9.98-6.22-15.68-20.09-15.68-11.79,0-22.29,6.87-22.29,20.22v39.14h-12.96v-93.32Z"/><path class="cls-1" d="M202.69,280.19c1.04,14,13.48,21.52,25.01,21.52,7.39,0,17.5-2.46,21.91-12.05h13.74c-6.48,16.33-21.65,22.94-35,22.94-26.44,0-39.4-16.72-39.4-36.29s12.96-36.29,39.4-36.29c17.89,0,36.81,10.37,36.81,38.5v1.69h-62.48ZM251.42,270.08c-1.94-12.31-11.54-19.18-23.72-19.18s-22.68,7-24.63,19.18h48.35Z"/><path class="cls-1" d="M278.39,216.94h12.96v14.26h-12.96v-14.26ZM278.39,242.34h12.96v67.92h-12.96v-67.92Z"/><path class="cls-1" d="M307.16,242.34h12.96v10.24h.26c6.09-9.46,16.85-12.57,26.57-12.57,16.33,0,28.52,7,28.52,23.98v46.27h-12.96v-43.68c0-9.98-6.22-15.68-20.09-15.68-11.79,0-22.29,6.87-22.29,20.22v39.14h-12.96v-67.92Z"/><path class="cls-1" d="M391.16,217.71h49.9c17.76,0,26.96,8.3,26.96,22.81,0,9.07-4.15,18.28-18.15,21.26v.26c18.02,1.82,21.26,14.91,21.26,22.81,0,9.98-5.44,25.4-30.98,25.4h-48.99v-92.55ZM397.12,259.71h41.22c4.79,0,23.72,0,23.72-18.79s-14.77-18.02-24.63-18.02h-40.31v36.81ZM397.12,305.08h41.74c4.66,0,26.31,0,26.31-20.74,0-19.44-17.63-19.44-27.87-19.44h-40.18v40.18Z"/><path class="cls-1" d="M484.23,243.9h5.97v15.68h.26c4.41-11.67,14.52-17.76,27.48-17.76,1.81,0,3.11.26,4.92.78v5.96c-1.42-.52-3.11-.78-6.87-.78-17.24,0-25.79,13.09-25.79,26.57v35.9h-5.97v-66.36Z"/><path class="cls-1" d="M594.53,310.26h-5.96v-13.22h-.26c-4.15,7.91-12.83,15.29-28,15.29-30.46,0-30.46-19.44-30.46-27.48v-40.96h5.97v40.7c0,13.48,5.06,22.55,24.63,22.55s28.13-12.18,28.13-24.5v-38.76h5.96v66.36ZM545.55,219.01h5.96v13.74h-5.96v-13.74ZM573.02,219.01h5.96v13.74h-5.96v-13.74Z"/><path class="cls-1" d="M670.76,264.77c-.78-8.43-12.18-17.76-28.13-17.76-21,0-31.5,14.91-31.5,30.72,0,10.76,7.52,29.42,31.5,29.42,13.35,0,26.05-6.35,29.04-20.09h5.96c-3.5,17.37-18.28,25.27-34.99,25.27-21.77,0-37.46-14-37.46-34.61,0-23.33,17.11-35.9,37.46-35.9s33.31,11.66,34.09,22.94h-5.97Z"/><path class="cls-1" d="M688.26,217.71h5.97v61.44l47.31-35.26h8.81l-33.58,25.02,36.69,41.35h-8.17l-33.18-37.59-17.89,13.22v24.37h-5.97v-92.55Z"/><path class="cls-1" d="M762.41,278.37c.39,16.59,11.66,28.77,31.62,28.77s25.93-12.96,28.26-18.92h5.96c-5.57,16.72-17.24,24.11-34.87,24.11-22.68,0-36.94-13.74-36.94-35.77,0-13.87,8.81-34.74,37.07-34.74,23.07,0,36.29,15.29,36.55,36.55h-67.66ZM823.33,273.19c-2.47-18.15-15.17-26.18-30.46-26.18-17.11,0-27.87,10.37-30.46,26.18h60.92Z"/><path class="cls-1" d="M253.84,39.89c0,15.86-12.85,28.71-28.71,28.71s-28.71-12.85-28.71-28.71,12.85-28.7,28.71-28.7,28.71,12.85,28.71,28.7Z"/><path class="cls-1" d="M368.67,39.89c0,15.86-12.85,28.71-28.71,28.71s-28.71-12.85-28.71-28.71,12.85-28.7,28.71-28.7,28.71,12.85,28.71,28.7Z"/><path class="cls-1" d="M483.49,39.89c0,15.86-12.85,28.71-28.7,28.71s-28.71-12.85-28.71-28.71,12.85-28.7,28.71-28.7,28.7,12.85,28.7,28.7Z"/><path class="cls-1" d="M598.32,39.89c0,15.86-12.85,28.71-28.71,28.71s-28.7-12.85-28.7-28.71,12.85-28.7,28.7-28.7,28.71,12.85,28.71,28.7Z"/><path class="cls-1" d="M311.25,126.01c0,15.86-12.85,28.71-28.71,28.71s-28.71-12.85-28.71-28.71,12.85-28.7,28.71-28.7,28.71,12.85,28.71,28.7Z"/><path class="cls-1" d="M426.08,126.01c0,15.86-12.85,28.71-28.71,28.71s-28.7-12.85-28.7-28.71,12.85-28.7,28.7-28.7,28.71,12.85,28.71,28.7Z"/><path class="cls-1" d="M540.91,126.01c0,15.86-12.85,28.71-28.71,28.71s-28.71-12.85-28.71-28.71,12.86-28.7,28.71-28.7,28.71,12.85,28.71,28.7Z"/></svg>