<svg xmlns="http://www.w3.org/2000/svg" xmlns:xlink="http://www.w3.org/1999/xlink" width="228" height="65.26" viewBox="0 0 228 65.26">
  <defs>
    <clipPath id="clip-path">
      <rect id="Rectangle_47" data-name="Rectangle 47" width="63.075" height="63.075"/>
    </clipPath>
    <linearGradient id="linear-gradient" x1="0.5" y1="27.759" x2="0.5" y2="26.755" gradientUnits="objectBoundingBox">
      <stop offset="0.056" stop-color="#2aac94"/>
      <stop offset="0.155" stop-color="#239c87"/>
      <stop offset="0.372" stop-color="#177e71"/>
      <stop offset="0.588" stop-color="#0e6961"/>
      <stop offset="0.799" stop-color="#095d57"/>
      <stop offset="1" stop-color="#085954"/>
    </linearGradient>
    <linearGradient id="linear-gradient-2" x1="0.818" y1="19.985" x2="0.334" y2="19.236" gradientUnits="objectBoundingBox">
      <stop offset="0.042" stop-color="#abe88e"/>
      <stop offset="0.549" stop-color="#2aaa92"/>
      <stop offset="0.906" stop-color="#117865"/>
    </linearGradient>
    <linearGradient id="linear-gradient-3" x1="-0.264" y1="19.772" x2="0.196" y2="19.549" gradientUnits="objectBoundingBox">
      <stop offset="0" stop-color="#6ad6f9" stop-opacity="0.8"/>
      <stop offset="1" stop-color="#6ad6f9" stop-opacity="0"/>
    </linearGradient>
    <linearGradient id="linear-gradient-4" x1="-0.006" y1="17.873" x2="0.96" y2="17.873" gradientUnits="objectBoundingBox">
      <stop offset="0.043" stop-color="#25ffd4"/>
      <stop offset="0.874" stop-color="#55ddb9"/>
    </linearGradient>
    <linearGradient id="linear-gradient-5" x1="0.369" y1="17.436" x2="0.576" y2="18.169" gradientUnits="objectBoundingBox">
      <stop offset="0" stop-color="#f4e084" stop-opacity="0.6"/>
      <stop offset="0.534" stop-color="#f4e084" stop-opacity="0"/>
    </linearGradient>
    <linearGradient id="linear-gradient-6" x1="0.309" y1="17.412" x2="0.588" y2="18.121" gradientUnits="objectBoundingBox">
      <stop offset="0" stop-color="#abf5e2"/>
      <stop offset="1" stop-color="#4ee6bd"/>
    </linearGradient>
    <linearGradient id="linear-gradient-7" x1="0.5" y1="17.368" x2="0.5" y2="18.374" gradientUnits="objectBoundingBox">
      <stop offset="0" stop-color="#1f937e"/>
      <stop offset="1" stop-color="#9ee09f"/>
    </linearGradient>
    <linearGradient id="linear-gradient-8" x1="0.5" y1="17.368" x2="0.5" y2="18.374" gradientUnits="objectBoundingBox">
      <stop offset="0" stop-color="#1f937e"/>
      <stop offset="1" stop-color="#c0ecc7"/>
    </linearGradient>
    <linearGradient id="linear-gradient-9" x1="0.029" y1="17.524" x2="0.899" y2="18.191" gradientUnits="objectBoundingBox">
      <stop offset="0" stop-color="#6ad6f9"/>
      <stop offset="0.229" stop-color="#60e9d0"/>
      <stop offset="0.651" stop-color="#6de9bb"/>
      <stop offset="0.993" stop-color="#abe88e"/>
    </linearGradient>
    <linearGradient id="linear-gradient-10" x1="0.081" y1="17.727" x2="0.554" y2="17.899" gradientUnits="objectBoundingBox">
      <stop offset="0" stop-color="#fff" stop-opacity="0"/>
      <stop offset="0.458" stop-color="#fff" stop-opacity="0.4"/>
      <stop offset="1" stop-color="#fff" stop-opacity="0"/>
    </linearGradient>
    <linearGradient id="linear-gradient-11" x1="0.499" y1="21.872" x2="0.514" y2="21.199" gradientUnits="objectBoundingBox">
      <stop offset="0.205" stop-color="#063d3b" stop-opacity="0"/>
      <stop offset="0.586" stop-color="#063d3b" stop-opacity="0.235"/>
      <stop offset="0.872" stop-color="#063d3b" stop-opacity="0.749"/>
    </linearGradient>
    <linearGradient id="linear-gradient-12" x1="-0.038" y1="21.685" x2="0.484" y2="21.839" gradientUnits="objectBoundingBox">
      <stop offset="0" stop-color="#fff" stop-opacity="0"/>
      <stop offset="0.458" stop-color="#fff" stop-opacity="0.2"/>
      <stop offset="1" stop-color="#fff" stop-opacity="0"/>
    </linearGradient>
    <linearGradient id="linear-gradient-13" x1="0.559" y1="29.519" x2="0.396" y2="28.462" gradientUnits="objectBoundingBox">
      <stop offset="0.064" stop-color="#063d3b" stop-opacity="0"/>
      <stop offset="0.17" stop-color="#063d3b" stop-opacity="0.133"/>
      <stop offset="0.562" stop-color="#063d3b" stop-opacity="0.6"/>
      <stop offset="0.85" stop-color="#063d3b" stop-opacity="0.902"/>
      <stop offset="1" stop-color="#063d3b"/>
    </linearGradient>
  </defs>
  <g id="Microsoft_Fabric_log-darko-01" transform="translate(-1.8 -1.6)">
    <g id="Group_177" data-name="Group 177" transform="translate(1.8 2.419)">
      <g id="Group_176" data-name="Group 176">
        <g id="Group_175" data-name="Group 175">
          <g id="Group_174" data-name="Group 174" clip-path="url(#clip-path)">
            <path id="Path_48" data-name="Path 48" d="M4.357,19.977l-.819,3.277c-.273,1.092-.819,2.731-1.092,4.1A11.735,11.735,0,0,0,1.9,30.626a8.666,8.666,0,0,0,7.919,8.738,11.728,11.728,0,0,0,4.369,0l7.372-1.092a4.749,4.749,0,0,0,3.823-3.277L30.3,16.7Z" transform="translate(-1.627 23.712)" fill-rule="evenodd" fill="url(#linear-gradient)"/>
            <path id="Path_49" data-name="Path 49" d="M11.284,34.121C3.638,35.486,2,41.22,2,41.22L9.372,14.188,47.873,9,42.685,28.114A2.317,2.317,0,0,1,40.5,30.025h-.273l-28.944,4.1Z" transform="translate(-1.454 10.387)" fill="url(#linear-gradient-2)"/>
            <path id="Path_50" data-name="Path 50" d="M11.284,34.121C3.638,35.486,2,41.22,2,41.22L9.372,14.188,47.873,9,42.685,28.114A2.317,2.317,0,0,1,40.5,30.025h-.273l-28.944,4.1Z" transform="translate(-1.454 10.387)" fill="url(#linear-gradient-3)"/>
            <path id="Path_51" data-name="Path 51" d="M12.711,29.032l42.6-6.28a2.646,2.646,0,0,0,2.184-1.911L61.86,5V4.457A2.447,2.447,0,0,0,59.4,2H59.13L18.445,7.734a11.546,11.546,0,0,0-9.011,8.192L3.7,37.224C4.519,32.855,5.338,30.4,12.711,29.032Z" transform="translate(1.488 -1.727)" fill="url(#linear-gradient-4)"/>
            <path id="Path_52" data-name="Path 52" d="M12.711,29.032l42.6-6.28a2.646,2.646,0,0,0,2.184-1.911L61.86,5V4.457A2.447,2.447,0,0,0,59.4,2H59.13L18.445,7.734a11.546,11.546,0,0,0-9.011,8.192L3.7,37.224C4.519,32.855,5.338,30.4,12.711,29.032Z" transform="translate(1.488 -1.727)" fill="url(#linear-gradient-5)"/>
            <path id="Path_53" data-name="Path 53" d="M12.711,29.032l42.6-6.28a2.646,2.646,0,0,0,2.184-1.911L61.86,5V4.457A2.447,2.447,0,0,0,59.4,2H59.13L18.445,7.734a11.546,11.546,0,0,0-9.011,8.192L3.7,37.224C4.519,32.855,5.338,30.4,12.711,29.032Z" transform="translate(1.488 -1.727)" fill="url(#linear-gradient-6)"/>
            <path id="Path_54" data-name="Path 54" d="M12.711,29.032l42.6-6.28a2.646,2.646,0,0,0,2.184-1.911L61.86,5V4.457A2.447,2.447,0,0,0,59.4,2H59.13L18.445,7.734a11.546,11.546,0,0,0-9.011,8.192L3.7,37.224C4.519,32.855,5.338,30.4,12.711,29.032Z" transform="translate(1.488 -1.727)" fill="url(#linear-gradient-7)"/>
            <path id="Path_55" data-name="Path 55" d="M12.711,29.032l42.6-6.28a2.646,2.646,0,0,0,2.184-1.911L61.86,5V4.457A2.447,2.447,0,0,0,59.4,2H59.13L18.445,7.734a11.546,11.546,0,0,0-9.011,8.192L3.7,37.224C4.519,32.855,5.338,30.4,12.711,29.032Z" transform="translate(1.488 -1.727)" fill="url(#linear-gradient-8)"/>
            <path id="Path_56" data-name="Path 56" d="M12.711,29.032l42.6-6.28a2.646,2.646,0,0,0,2.184-1.911L61.86,5V4.457A2.447,2.447,0,0,0,59.4,2H59.13L18.445,7.734a11.546,11.546,0,0,0-9.011,8.192L3.7,37.224C4.519,32.855,5.338,30.4,12.711,29.032Z" transform="translate(1.488 -1.727)" fill="url(#linear-gradient-9)"/>
            <path id="Path_57" data-name="Path 57" d="M12.711,29.032l42.6-6.28a2.646,2.646,0,0,0,2.184-1.911L61.86,5V4.457A2.447,2.447,0,0,0,59.4,2H59.13L18.445,7.734a11.546,11.546,0,0,0-9.011,8.192L3.7,37.224C4.519,32.855,5.338,30.4,12.711,29.032Z" transform="translate(1.488 -1.727)" fill="url(#linear-gradient-10)"/>
            <path id="Path_58" data-name="Path 58" d="M15.653,14.669c-6.28,1.092-7.646,3-8.738,6.28L2,38.971s1.638-5.734,9.284-7.1l28.944-4.1H40.5a2.645,2.645,0,0,0,2.184-1.911L47.054,10.3l-31.4,4.369Z" transform="translate(-1.454 12.637)" fill="url(#linear-gradient-11)"/>
            <path id="Path_59" data-name="Path 59" d="M15.653,14.669c-6.28,1.092-7.646,3-8.738,6.28L2,38.971s1.638-5.734,9.284-7.1l28.944-4.1H40.5a2.645,2.645,0,0,0,2.184-1.911L47.054,10.3l-31.4,4.369Z" transform="translate(-1.454 12.637)" fill="url(#linear-gradient-12)"/>
            <path id="Path_60" data-name="Path 60" d="M11.357,19.757a11.835,11.835,0,0,0-9.011,6.553A11.735,11.735,0,0,0,1.8,29.587a8.666,8.666,0,0,0,7.919,8.738,11.728,11.728,0,0,0,4.369,0l7.372-1.092a4.749,4.749,0,0,0,3.823-3.277L29.925,17.3,11.357,19.757Z" transform="translate(-1.8 24.75)" fill-rule="evenodd" fill="url(#linear-gradient-13)"/>
          </g>
        </g>
      </g>
    </g>
    <g id="Group_178" data-name="Group 178" transform="translate(71.429 1.6)">
      <path id="Path_61" data-name="Path 61" d="M48.052,25.437V11.784L41.5,22.979H39.041L32.215,12.057v13.38H27.3V2.5h4.369l8.465,14.2L48.6,2.5h4.369V25.437Z" transform="translate(-27.3 -0.043)"/>
      <path id="Path_62" data-name="Path 62" d="M39.219,6.242A2.479,2.479,0,0,1,38.4,4.331a2.479,2.479,0,0,1,.819-1.911,3.322,3.322,0,0,1,4.369,0,2.479,2.479,0,0,1,.819,1.911,3.1,3.1,0,0,1-.819,2.184,3.1,3.1,0,0,1-2.184.819A5.489,5.489,0,0,1,39.219,6.242Zm-.273,3.277h5.188V27.267H38.946Z" transform="translate(-8.091 -1.6)"/>
      <path id="Path_63" data-name="Path 63" d="M46.615,21.329a10.225,10.225,0,0,1-3.55-3.277A9.205,9.205,0,0,1,41.7,13.411a9.205,9.205,0,0,1,1.365-4.642,8.3,8.3,0,0,1,3.55-3.277A11.081,11.081,0,0,1,51.8,4.4a9.351,9.351,0,0,1,4.915,1.092,8.027,8.027,0,0,1,2.731,3.277l-4.1,2.184a4.235,4.235,0,0,0-4.1-2.457A4.522,4.522,0,0,0,47.98,9.861a5.191,5.191,0,0,0-1.365,3.55,4.717,4.717,0,0,0,1.365,3.55,4.522,4.522,0,0,0,3.277,1.365,4.814,4.814,0,0,0,4.1-2.457l4.1,2.184a6.948,6.948,0,0,1-3,3.277A8.975,8.975,0,0,1,51.8,22.422,10.4,10.4,0,0,1,46.615,21.329Z" transform="translate(-2.38 3.246)"/>
      <path id="Path_64" data-name="Path 64" d="M56.846,4.946A7.5,7.5,0,0,1,60.4,4.4V9.042H59.3a5.035,5.035,0,0,0-3.55,1.092,5.4,5.4,0,0,0-1.365,3.823v8.192H49.2V4.673h4.915V7.131A6.934,6.934,0,0,1,56.846,4.946Z" transform="translate(10.599 3.246)"/>
      <path id="Path_65" data-name="Path 65" d="M58.715,21.329a10.225,10.225,0,0,1-3.55-3.277A9.205,9.205,0,0,1,53.8,13.411a9.205,9.205,0,0,1,1.365-4.642,8.3,8.3,0,0,1,3.55-3.277A10,10,0,0,1,63.63,4.4a9.351,9.351,0,0,1,4.915,1.092,10.225,10.225,0,0,1,3.55,3.277,9.2,9.2,0,0,1,1.365,4.642,9.2,9.2,0,0,1-1.365,4.642,8.3,8.3,0,0,1-3.55,3.277,9.351,9.351,0,0,1-4.915,1.092A10.71,10.71,0,0,1,58.715,21.329Zm8.192-4.369a5.3,5.3,0,0,0,0-7.1,4.615,4.615,0,0,0-6.553,0,5.3,5.3,0,0,0,0,7.1,4.615,4.615,0,0,0,6.553,0Z" transform="translate(18.559 3.246)"/>
      <path id="Path_66" data-name="Path 66" d="M64.877,21.875A9.113,9.113,0,0,1,61.6,20.51l1.638-3.55a25.371,25.371,0,0,0,2.731,1.365,13.705,13.705,0,0,0,3.277.546q3.277,0,3.277-1.638c0-.546-.273-.819-.819-1.092a15.368,15.368,0,0,0-2.731-.546,35.615,35.615,0,0,1-3.55-.819,6.448,6.448,0,0,1-2.458-1.638,3.729,3.729,0,0,1-1.092-3,4.106,4.106,0,0,1,1.092-3A6.242,6.242,0,0,1,65.7,5.219,11.32,11.32,0,0,1,70.065,4.4a18.027,18.027,0,0,1,3.823.273,7.692,7.692,0,0,1,3,1.092l-1.638,3.55A11.294,11.294,0,0,0,70.065,7.95a5.452,5.452,0,0,0-2.457.546,1.463,1.463,0,0,0-.819,1.092c0,.546.273.819.819,1.092a6.852,6.852,0,0,0,2.731.546,35.616,35.616,0,0,1,3.55.819,11.068,11.068,0,0,1,2.457,1.365,4.969,4.969,0,0,1,1.092,3,4.106,4.106,0,0,1-1.092,3,4.83,4.83,0,0,1-3,1.911,20.7,20.7,0,0,1-4.369.819A7.255,7.255,0,0,1,64.877,21.875Z" transform="translate(32.057 3.246)"/>
      <path id="Path_67" data-name="Path 67" d="M73.015,21.329a10.225,10.225,0,0,1-3.55-3.277A9.2,9.2,0,0,1,68.1,13.411a9.2,9.2,0,0,1,1.365-4.642,8.3,8.3,0,0,1,3.55-3.277A10,10,0,0,1,77.93,4.4a9.351,9.351,0,0,1,4.915,1.092,10.225,10.225,0,0,1,3.55,3.277,9.2,9.2,0,0,1,1.365,4.642,9.2,9.2,0,0,1-1.365,4.642,8.3,8.3,0,0,1-3.55,3.277,9.351,9.351,0,0,1-4.915,1.092A9.351,9.351,0,0,1,73.015,21.329Zm8.192-4.369a5.3,5.3,0,0,0,0-7.1,4.615,4.615,0,0,0-6.553,0,5.3,5.3,0,0,0,0,7.1,4.615,4.615,0,0,0,6.553,0Z" transform="translate(43.306 3.246)"/>
      <path id="Path_68" data-name="Path 68" d="M83.346,9.272h4.642V13.1H83.619v13.38H78.431V13.368H75.7v-4.1h2.731V8.453a6.58,6.58,0,0,1,1.911-4.915A7.126,7.126,0,0,1,85.257,1.9a6.012,6.012,0,0,1,2.184.273c.819.273,1.365.273,1.638.819L87.714,6.815a2.942,2.942,0,0,0-2.184-.546,2.172,2.172,0,0,0-2.457,2.457v.546Z" transform="translate(56.458 -1.081)"/>
      <path id="Path_69" data-name="Path 69" d="M93.78,23.752a13.312,13.312,0,0,1-1.911.819,6.012,6.012,0,0,1-2.184.273,6.675,6.675,0,0,1-4.915-1.638,6.423,6.423,0,0,1-1.638-4.642v-7.1H80.4v-4.1h2.731V3h5.188V7.369h4.369v3.823H88.319v7.1a2.308,2.308,0,0,0,.546,1.638,2.308,2.308,0,0,0,1.638.546,6.426,6.426,0,0,0,2.184-.546Z" transform="translate(64.592 0.823)"/>
      <path id="Path_70" data-name="Path 70" d="M32.488,21.1V27.1H43.137v4.369H32.488v8.465H27.3V17H44.5v4.369H32.488Z" transform="translate(-27.3 25.05)"/>
      <path id="Path_71" data-name="Path 71" d="M48.945,20.582a8.046,8.046,0,0,1,2.184,6.007v10.1H46.214V34.507c-1.092,1.638-2.731,2.457-5.461,2.457a7.558,7.558,0,0,1-3.55-.819,5.059,5.059,0,0,1-2.184-1.911A4.613,4.613,0,0,1,34.2,31.5a4.132,4.132,0,0,1,1.911-3.823,10.4,10.4,0,0,1,5.734-1.365h4.1a2.662,2.662,0,0,0-1.092-2.457,4.392,4.392,0,0,0-3-.819,9.7,9.7,0,0,0-2.731.546,16.214,16.214,0,0,0-2.184,1.092l-1.911-3.55c1.092-.546,2.184-1.092,3.55-1.638a21.077,21.077,0,0,1,4.1-.546A7.856,7.856,0,0,1,48.945,20.582ZM44.576,32.6a3.483,3.483,0,0,0,1.365-1.911V28.773h-3.55c-2.184,0-3.277.819-3.277,2.184a2.36,2.36,0,0,0,.819,1.638c.546.546,1.092.546,2.184.546A2.785,2.785,0,0,0,44.576,32.6Z" transform="translate(-15.359 28.295)"/>
      <path id="Path_72" data-name="Path 72" d="M56.845,24.046a9.413,9.413,0,0,1,3.277,3.277,8.975,8.975,0,0,1,1.092,4.642,8.975,8.975,0,0,1-1.092,4.642,9.413,9.413,0,0,1-3.277,3.277,8.012,8.012,0,0,1-4.369,1.092,6.776,6.776,0,0,1-5.461-2.184V40.7H42.1V16.4h5.188v8.465a6.991,6.991,0,0,1,5.188-2.184A11.7,11.7,0,0,1,56.845,24.046ZM54.66,35.514a5.3,5.3,0,0,0,0-7.1,4.615,4.615,0,0,0-6.553,0,5.3,5.3,0,0,0,0,7.1,4.615,4.615,0,0,0,6.553,0Z" transform="translate(-1.688 24.012)"/>
      <path id="Path_73" data-name="Path 73" d="M57.846,19.346A7.5,7.5,0,0,1,61.4,18.8v4.642H60.3a5.035,5.035,0,0,0-3.55,1.092,5.4,5.4,0,0,0-1.365,3.823v8.192H50.2V18.8h4.915v2.457A9.807,9.807,0,0,1,57.846,19.346Z" transform="translate(12.329 28.165)"/>
      <path id="Path_74" data-name="Path 74" d="M56.119,20.642a2.64,2.64,0,0,1,0-3.823,3.322,3.322,0,0,1,4.369,0,2.479,2.479,0,0,1,.819,1.911,3.1,3.1,0,0,1-.819,2.184,5.144,5.144,0,0,1-2.184.546A2.688,2.688,0,0,1,56.119,20.642Zm-.273,3.277h5.188V41.667H55.846Z" transform="translate(21.155 23.32)"/>
      <path id="Path_75" data-name="Path 75" d="M63.415,35.729a10.224,10.224,0,0,1-3.55-3.277A9.2,9.2,0,0,1,58.5,27.811a9.2,9.2,0,0,1,1.365-4.642,8.3,8.3,0,0,1,3.55-3.277A11.081,11.081,0,0,1,68.6,18.8a9.351,9.351,0,0,1,4.915,1.092,6.948,6.948,0,0,1,3,3.277l-4.1,2.184a4.235,4.235,0,0,0-4.1-2.457,4.522,4.522,0,0,0-3.277,1.365,5.191,5.191,0,0,0-1.365,3.55,4.717,4.717,0,0,0,1.365,3.55,4.522,4.522,0,0,0,3.277,1.365,4.814,4.814,0,0,0,4.1-2.457l4.1,2.184a6.948,6.948,0,0,1-3,3.277A9.351,9.351,0,0,1,68.6,36.822,11.081,11.081,0,0,1,63.415,35.729Z" transform="translate(26.693 28.165)"/>
    </g>
  </g>
</svg>
