<svg xmlns="http://www.w3.org/2000/svg" width="37.128" height="33" viewBox="0 0 37.128 33">
  <g id="settings_2333176" transform="translate(0 -28.463)">
    <path id="Path_76" data-name="Path 76" d="M66.086,73.858a.544.544,0,0,0-.544-.544H47.377a.544.544,0,0,0,0,1.088H65.542A.544.544,0,0,0,66.086,73.858Z" transform="translate(-43.437 -41.599)" fill="#7e2442"/>
    <path id="Path_77" data-name="Path 77" d="M280.6,196.241h-9.269v0a1.607,1.607,0,1,0-3.214,0v0h-.981a.544.544,0,0,0,0,1.088h.983a1.606,1.606,0,0,0,3.211,0h9.27a.544.544,0,0,0,0-1.088Zm-10.356,1.031a.519.519,0,0,1-1.038,0v-1.035a.519.519,0,1,1,1.038,0Z" transform="translate(-247.26 -154.117)" fill="#7e2442"/>
    <path id="Path_78" data-name="Path 78" d="M280.6,273.376h-.982a1.606,1.606,0,0,0-3.213,0h-9.269a.544.544,0,0,0,0,1.088h9.269a1.606,1.606,0,0,0,3.213,0h.982a.544.544,0,0,0,0-1.088Zm-2.069,1.061a.519.519,0,1,1-1.038,0V273.4a.519.519,0,0,1,1.038,0Z" transform="translate(-247.26 -225.687)" fill="#7e2442"/>
    <path id="Path_79" data-name="Path 79" d="M67.7,185.952h.568a1.762,1.762,0,0,0,1.76-1.76V176.34a1.607,1.607,0,0,0-1.605-1.605H59.765a1.607,1.607,0,0,0-1.605,1.605v7.852a1.762,1.762,0,0,0,1.76,1.76h.568c1.15,0,2.367,1.1,1.571,3.029A3.8,3.8,0,0,0,61.7,190.6a2.391,2.391,0,1,0,4.781.042,3.92,3.92,0,0,0-.35-1.619C65.318,186.983,66.606,185.952,67.7,185.952Zm-8.454-9.611a.518.518,0,0,1,.518-.518h.995v3.258a.544.544,0,1,0,1.088,0v-3.258h1.7v3.258a.544.544,0,1,0,1.088,0v-3.258h1.7v3.258a.544.544,0,1,0,1.088,0v-3.258h.995a.518.518,0,0,1,.518.518v5.508H59.248Zm5.878,13.085a2.876,2.876,0,0,1,.271,1.214,1.309,1.309,0,0,1-1.277,1.3,1.336,1.336,0,0,1-1.328-1.344,2.763,2.763,0,0,1,.271-1.2c1.092-2.648-.665-4.531-2.576-4.531H59.92a.673.673,0,0,1-.672-.672v-1.256h9.694v1.256a.673.673,0,0,1-.672.672H67.7C65.849,184.864,64.017,186.661,65.126,189.425Z" transform="translate(-53.942 -135.665)" fill="#7e2442"/>
    <path id="Path_80" data-name="Path 80" d="M415.925,57a1.865,1.865,0,1,0-1.865,1.865A1.867,1.867,0,0,0,415.925,57Zm-2.642,0a.777.777,0,1,1,.777.777A.778.778,0,0,1,413.284,57Z" transform="translate(-382.305 -24.737)" fill="#7e2442"/>
    <path id="Path_81" data-name="Path 81" d="M342.892,57a1.865,1.865,0,1,0-1.865,1.865A1.867,1.867,0,0,0,342.892,57Zm-2.641,0a.777.777,0,1,1,.777.777A.778.778,0,0,1,340.251,57Z" transform="translate(-314.568 -24.737)" fill="#7e2442"/>
    <path id="Path_82" data-name="Path 82" d="M36.584,50.221a.544.544,0,0,0,.544-.544V30.539a2.078,2.078,0,0,0-2.076-2.076H2.076A2.078,2.078,0,0,0,0,30.539V59.388a2.078,2.078,0,0,0,2.076,2.076H35.053a2.078,2.078,0,0,0,2.076-2.076V52.22a.544.544,0,1,0-1.088,0v7.168a.989.989,0,0,1-.988.988H2.076a.989.989,0,0,1-.988-.988V36.056H2.517a.544.544,0,1,0,0-1.088H1.088V30.539a.989.989,0,0,1,.988-.988H35.053a.989.989,0,0,1,.988.988v4.429H5.06a.544.544,0,1,0,0,1.088H36.04V49.677A.544.544,0,0,0,36.584,50.221Z" transform="translate(0 0)" fill="#7e2442"/>
    <path id="Path_83" data-name="Path 83" d="M280.6,350.115H271.33a1.606,1.606,0,0,0-3.212,0h-.982a.544.544,0,1,0,0,1.088h.982a1.606,1.606,0,0,0,3.212,0H280.6a.544.544,0,1,0,0-1.088Zm-10.356,1.061a.519.519,0,0,1-1.038,0v-1.035a.519.519,0,0,1,1.038,0Z" transform="translate(-247.26 -296.861)" fill="#7e2442"/>
  </g>
</svg>
