<?xml version="1.0" encoding="utf-8"?>
<!-- Generator: Adobe Illustrator 20.1.0, SVG Export Plug-In . SVG Version: 6.00 Build 0)  -->
<svg version="1.1" xmlns="http://www.w3.org/2000/svg" xmlns:xlink="http://www.w3.org/1999/xlink" x="0px" y="0px"
	 viewBox="0 0 812 380" style="enable-background:new 0 0 812 380;" xml:space="preserve">
<style type="text/css">
	.st0{display:none;}
	.st1{fill:#2CC4F2;}
	.st2{fill:#808285;}
	.st3{clip-path:url(#SVGID_2_);}
	.st4{fill:#FFFFFF;}
</style>
<g id="Layer_1" class="st0">
</g>
<g id="Layer_2">
	<g>
		<g>
			<path class="st1" d="M171.7,257.3v10.3h-61.3v18.9h49.3v10.3h-49.3v18.9h61.3v10.3H98.4v-68.8H171.7z"/>
			<path class="st1" d="M180.4,257.4h65.5c4,0,7.4,1.2,10.2,3.7c2.8,2.5,4.2,5.4,4.2,8.7v19.3c0,3.4-1.4,6.3-4.2,8.7
				c-2.8,2.5-6.2,3.7-10.2,3.7h-51.1c-0.6,0-1.4-0.1-2.4-0.2v24.7h-12V257.4z M248.4,289.1v-19.3c0-0.6-0.2-1.1-0.7-1.5
				c-0.5-0.4-1.1-0.6-1.7-0.6h-51.1c-0.7,0-1.2,0.2-1.7,0.6c-0.5,0.4-0.7,0.9-0.7,1.5v19.3c0,0.6,0.2,1.1,0.7,1.5
				c0.5,0.4,1.1,0.6,1.7,0.6h51.1c0.7,0,1.2-0.2,1.7-0.6C248.1,290.2,248.4,289.7,248.4,289.1z"/>
			<path class="st1" d="M265.6,326.1v-68.8h12v68.8H265.6z"/>
			<path class="st1" d="M366.8,267.6h-65.3c-0.7,0-1.2,0.2-1.7,0.6c-0.5,0.4-0.7,0.9-0.7,1.5v43.9c0,0.6,0.2,1.1,0.7,1.5
				c0.5,0.4,1.1,0.6,1.7,0.6h65.3v10.3h-65.3c-4,0-7.4-1.2-10.2-3.6c-2.8-2.4-4.2-5.3-4.2-8.8v-43.9c0-3.4,1.4-6.4,4.2-8.8
				c2.8-2.4,6.2-3.6,10.2-3.6h65.3V267.6z"/>
		</g>
		<g>
			<path class="st2" d="M431.1,289.1l31-31.8h14.3v68.8h-12v-55l-33.3,34.1l-33.3-34.1v55h-12v-68.8H400L431.1,289.1z"/>
			<path class="st2" d="M536.6,270.7c4,0,7.4,1.2,10.2,3.6c2.8,2.4,4.2,5.3,4.2,8.8v43H500c-4,0-7.4-1.2-10.2-3.6
				c-2.8-2.4-4.2-5.3-4.2-8.8v-20.4h53.5v-10.1c0-0.6-0.2-1.1-0.7-1.5c-0.5-0.4-1.1-0.6-1.7-0.6h-51.1v-10.3H536.6z M539.1,315.7
				v-12.2h-41.5v10.1c0,0.6,0.2,1.1,0.7,1.5c0.5,0.4,1.1,0.6,1.7,0.6H539.1z"/>
			<path class="st2" d="M610.6,270.7h14.2v1.4l-27.6,26.3l27.6,26.3v1.4h-14.2l-24.1-22.5h-14.4v22.5h-12v-73.5h12v40.7h14.4
				L610.6,270.7z"/>
			<path class="st2" d="M677,270.7c4,0,7.4,1.2,10.2,3.6c2.8,2.4,4.2,5.3,4.2,8.8v20.4h-53.5v10.1c0,0.6,0.2,1.1,0.7,1.5
				c0.5,0.4,1.1,0.6,1.7,0.6h51.1v10.3h-51.1c-4,0-7.4-1.2-10.2-3.6c-2.8-2.4-4.2-5.3-4.2-8.8v-30.6c0-3.4,1.4-6.4,4.2-8.8
				c2.8-2.4,6.2-3.6,10.2-3.6H677z M637.9,293.2h41.5v-10.1c0-0.6-0.2-1.1-0.7-1.5c-0.5-0.4-1.1-0.6-1.7-0.6h-36.6
				c-0.7,0-1.2,0.2-1.7,0.6c-0.5,0.4-0.7,0.9-0.7,1.5V293.2z"/>
		</g>
	</g>
	<g>
		<defs>
			<path id="SVGID_1_" d="M525,144.4c-2.8-18.7-16.7-33.4-35.2-37.2c-1.1-0.2-1.6-0.5-1.9-1.7c-5.5-32.3-39.5-50.3-69.3-36.6
				c-1.4,0.6-1.8,0.4-2.5-0.8c-20.2-35.3-66.2-44.7-98.2-19.7c-18.4,14.4-26.7,33.7-25.4,57c0.2,3.6,0.3,3.6-2.9,5
				c-17.7,8-28.3,27.3-25.5,46c3.4,22.3,21.8,38.1,44.4,38.1c28.7,0,57.4,0,86.1,0c28.8,0,57.5,0,86.3,0c3.1,0,6.2-0.3,9.3-0.9
				C512.6,189.1,528.4,166.9,525,144.4z"/>
		</defs>
		<clipPath id="SVGID_2_">
			<use xlink:href="#SVGID_1_"  style="overflow:visible;"/>
		</clipPath>
		<g class="st3">
			<path class="st1" d="M523.6,143.8c-2.8-18.7-16.7-33.4-35.2-37.2c-1.1-0.2-1.6-0.5-1.9-1.7C481,72.5,447,54.6,417.2,68.2
				c-1.4,0.6-1.8,0.4-2.5-0.8c-20.2-35.3-66.2-44.7-98.2-19.7c-18.4,14.4-26.7,33.7-25.4,57c0.2,3.6,0.3,3.6-2.9,5
				c-17.7,8-28.3,27.3-25.5,46c3.4,22.3,21.8,38.1,44.4,38.1c28.7,0,57.4,0,86.1,0c28.8,0,57.5,0,86.3,0c3.1,0,6.2-0.3,9.3-0.9
				C511.2,188.5,526.9,166.3,523.6,143.8z"/>
			<path class="st4" d="M278.5,119.2c1.3,4.4,3.1,8.6,5.3,12.6l-6.4,8.1c-2.1,2.6-1.9,6.4,0.5,8.8l11,11c2.4,2.4,6.1,2.6,8.8,0.5
				l8-6.4c4.1,2.4,8.5,4.2,13.1,5.5l1.2,10.3c0.4,3.3,3.2,5.9,6.6,5.9h15.6c3.3,0,6.2-2.5,6.6-5.9l1.2-10c4.9-1.3,9.6-3.2,14-5.7
				l7.8,6.1c2.6,2.1,6.4,1.9,8.8-0.5l11-11c2.4-2.4,2.6-6.1,0.5-8.8l-6-7.7c2.5-4.3,4.5-9,5.8-13.8l9.3-1.1c3.3-0.4,5.9-3.2,5.9-6.6
				V95.2c0-3.3-2.5-6.2-5.9-6.6l-9.2-1.1c-1.3-4.8-3.1-9.4-5.5-13.6l5.6-7.1c2.1-2.6,1.9-6.4-0.5-8.8l-11-11
				c-2.4-2.4-6.1-2.6-8.8-0.5l-6.9,5.5c-4.5-2.6-9.3-4.7-14.4-6l-1-9c-0.4-3.3-3.2-5.9-6.6-5.9h-15.6c-3.3,0-6.2,2.5-6.6,5.9l-1,9
				c-5.2,1.4-10.1,3.5-14.7,6.2l-7.2-5.7c-2.6-2.1-6.4-1.9-8.8,0.5l-11,11c-2.4,2.4-2.6,6.1-0.5,8.8l6,7.6c-2.4,4.3-4.2,9-5.4,13.8
				l-9.6,1.1c-3.3,0.4-5.9,3.2-5.9,6.6v15.6c0,3.3,2.5,6.2,5.9,6.6L278.5,119.2z M335,77c14.2,0,25.8,11.6,25.8,25.8
				c0,14.2-11.6,25.8-25.8,25.8s-25.8-11.6-25.8-25.8C309.2,88.6,320.8,77,335,77L335,77z M335,77"/>
			<path class="st4" d="M480.8,130.6l-7.3-6.1c-2.2-1.9-5.5-1.8-7.6,0.2l-4,3.8c-3.4-1.6-7-2.8-10.7-3.5l-1.1-5.5
				c-0.6-2.9-3.2-4.8-6.1-4.6l-9.5,0.8c-2.9,0.3-5.2,2.6-5.3,5.5l-0.2,5.6c-3.6,1.3-7.1,3.1-10.2,5.4L414,129
				c-2.4-1.6-5.7-1.2-7.6,1.1l-6.1,7.3c-1.9,2.2-1.8,5.5,0.2,7.6l4.2,4.5c-1.5,3.3-2.5,6.7-3.1,10.2l-6,1.2
				c-2.9,0.6-4.8,3.2-4.6,6.1l0.8,9.5c0.3,2.9,2.6,5.2,5.5,5.3l6.5,0.2c1.2,3.1,2.7,6,4.6,8.7l-3.6,5.5c-1.6,2.4-1.2,5.7,1.1,7.6
				l7.3,6.1c2.2,1.9,5.5,1.8,7.6-0.2l4.7-4.4c3.1,1.5,6.4,2.5,9.7,3.2l1.3,6.5c0.6,2.9,3.2,4.8,6.1,4.6l9.5-0.8
				c2.9-0.3,5.2-2.6,5.3-5.5l0.2-6.4c3.5-1.2,6.7-2.9,9.7-4.9l5.2,3.5c2.4,1.6,5.7,1.2,7.6-1.1l6.1-7.3c1.9-2.2,1.8-5.5-0.2-7.6
				l-4.2-4.5c1.5-3.3,2.7-6.7,3.3-10.3l5.8-1.2c2.9-0.6,4.8-3.2,4.6-6.1l-0.8-9.5c-0.3-2.9-2.6-5.2-5.5-5.3l-5.8-0.2
				c-1.2-3.4-2.8-6.5-4.8-9.5l3.2-4.7C483.4,135.7,483,132.5,480.8,130.6L480.8,130.6z M445.1,185.3c-10.2,0.9-19.2-6.7-20.1-17
				c-0.9-10.2,6.7-19.2,17-20.1c10.2-0.9,19.2,6.7,20.1,17C462.9,175.4,455.3,184.4,445.1,185.3L445.1,185.3z M445.1,185.3"/>
		</g>
	</g>
</g>
</svg>
