<svg xmlns="http://www.w3.org/2000/svg" width="55.333" height="55.333" viewBox="0 0 55.333 55.333">
  <g id="software-development_4368389" transform="translate(-2 -2)">
    <path id="Path_45" data-name="Path 45" d="M56.411,9.378H35.2V5.689h8.466a2.767,2.767,0,1,0,0-1.844H34.278a.922.922,0,0,0-.922.922V9.378H25.978V4.767a.922.922,0,0,0-.922-.922H15.667a2.767,2.767,0,1,0,0,1.844h8.466V9.378H2.922A.922.922,0,0,0,2,10.3V45.344a.922.922,0,0,0,.922.922H23.211V51.8H13.989a.922.922,0,0,0-.922.922v3.689a.922.922,0,0,0,.922.922H45.344a.922.922,0,0,0,.922-.922V52.722a.922.922,0,0,0-.922-.922H36.122V46.266H56.411a.922.922,0,0,0,.922-.922V10.3A.922.922,0,0,0,56.411,9.378ZM46.267,3.844a.922.922,0,1,1-.922.922A.922.922,0,0,1,46.267,3.844Zm-33.2,1.844a.922.922,0,1,1,.922-.922A.922.922,0,0,1,13.067,5.689Zm20.289,5.533v9l-.812.8-.111-.046V19.522a.922.922,0,0,0-.922-.922H27.822a.922.922,0,0,0-.922.922v1.457l-.111.046-.812-.8v-9Zm1.18,13.972a5.349,5.349,0,0,1,.433,1.051.922.922,0,0,0,.922.655h1.153v1.844h-1.19a.922.922,0,0,0-.922.655A5.349,5.349,0,0,1,34.5,30.45a.922.922,0,0,0,.194,1.061l.839.839-1.254,1.337-.922-.839a.922.922,0,0,0-1.1-.157,5.35,5.35,0,0,1-1.051.433.922.922,0,0,0-.655.922V35.2H28.744V34.01a.922.922,0,0,0-.655-.922,5.349,5.349,0,0,1-1.051-.433.922.922,0,0,0-1.1.157l-.839.839-1.3-1.217.839-.839a.922.922,0,0,0,.157-1.1,5.349,5.349,0,0,1-.433-1.051.922.922,0,0,0-.922-.655H22.289V26.9h1.19a.922.922,0,0,0,.922-.655,5.349,5.349,0,0,1,.433-1.051.922.922,0,0,0-.194-1.061l-.839-.839,1.3-1.3.839.839a.922.922,0,0,0,1.1.157,5.349,5.349,0,0,1,1.051-.433.922.922,0,0,0,.655-.922v-1.19h1.844v1.19a.922.922,0,0,0,.655.922,5.349,5.349,0,0,1,1.051.433.922.922,0,0,0,1.061-.194l.839-.839,1.3,1.3-.839.839A.922.922,0,0,0,34.536,25.194Zm-10.4-13.972v9.093l-2.3,2.287a.922.922,0,0,0,0,1.31l1.033,1.033a.563.563,0,0,1-.046.111H21.367a.922.922,0,0,0-.922.922V26.9H11.056a2.767,2.767,0,1,0,0,1.844h9.388v.922a.922.922,0,0,0,.922.922h1.457a.563.563,0,0,1,.046.111l-1.033,1.033a.922.922,0,0,0-.267.655.968.968,0,0,0,.267.655l2.61,2.61a.922.922,0,0,0,1.31,0l1.033-1.033.111.046v1.457a.922.922,0,0,0,.922.922h3.689a.922.922,0,0,0,.922-.922V34.665l.111-.046,1.033,1.033a.922.922,0,0,0,1.31,0l2.61-2.61a.968.968,0,0,0,.267-.655.922.922,0,0,0-.267-.655L36.463,30.7a.562.562,0,0,1,.046-.111h1.457a.922.922,0,0,0,.922-.922v-.922h9.388a2.767,2.767,0,1,0,0-1.844H38.889v-.922a.922.922,0,0,0-.922-.922H36.509a.562.562,0,0,1-.046-.111L37.5,23.912a.922.922,0,0,0,0-1.31l-2.3-2.287V11.222H55.489V40.733H3.844V11.222ZM9.378,27.822a.922.922,0,1,1-.922-.922A.922.922,0,0,1,9.378,27.822Zm40.578,0a.922.922,0,1,1,.922.922A.922.922,0,0,1,49.955,27.822ZM44.422,55.489H14.911V53.644H44.422ZM34.278,51.8H25.055V46.266h9.222ZM3.844,44.422V42.578H55.489v1.844Z" transform="translate(0 0)" fill="#7b1315"/>
    <path id="Path_46" data-name="Path 46" d="M31.689,26a3.689,3.689,0,1,0,3.689,3.689A3.689,3.689,0,0,0,31.689,26Zm0,5.533a1.844,1.844,0,1,1,1.844-1.844A1.844,1.844,0,0,1,31.689,31.533Z" transform="translate(-2.022 -1.867)" fill="#7b1315"/>
    <path id="Path_47" data-name="Path 47" d="M6.922,15.844h4.611v7.378a.922.922,0,0,0,.922.922h5.533a.922.922,0,1,0,0-1.844H13.378V14.922A.922.922,0,0,0,12.456,14H6.922a.922.922,0,0,0,0,1.844Z" transform="translate(-0.311 -0.933)" fill="#7b1315"/>
    <path id="Path_48" data-name="Path 48" d="M55.989,14H50.456a.922.922,0,0,0-.922.922V22.3H44.922a.922.922,0,0,0,0,1.844h5.533a.922.922,0,0,0,.922-.922V15.844h4.611a.922.922,0,0,0,0-1.844Z" transform="translate(-3.267 -0.933)" fill="#7b1315"/>
  </g>
</svg>
