<svg xmlns="http://www.w3.org/2000/svg" width="54.667" height="51.25" viewBox="0 0 54.667 51.25">
  <g id="communication_13784919" transform="translate(0 -2)">
    <path id="Path_11" data-name="Path 11" d="M54.792,40.25H52.207a4.227,4.227,0,0,0,.876-2.563V34.271A4.276,4.276,0,0,0,48.813,30H47.1a4.276,4.276,0,0,0-4.271,4.271v3.417a4.227,4.227,0,0,0,.876,2.563H41.125A5.13,5.13,0,0,0,36,45.375v7.688a4.276,4.276,0,0,0,4.271,4.271H55.646a4.276,4.276,0,0,0,4.271-4.271V45.375A5.13,5.13,0,0,0,54.792,40.25Zm-10.25-2.563V34.271A2.566,2.566,0,0,1,47.1,31.708h1.708a2.566,2.566,0,0,1,2.563,2.563v3.417a2.566,2.566,0,0,1-2.563,2.563H47.1A2.566,2.566,0,0,1,44.542,37.688ZM58.208,53.063a2.566,2.566,0,0,1-2.563,2.563h-.854v-9.4a.854.854,0,1,0-1.708,0v9.4H42.833v-9.4a.854.854,0,0,0-1.708,0v9.4h-.854a2.566,2.566,0,0,1-2.563-2.563V45.375a3.42,3.42,0,0,1,3.417-3.417H54.792a3.42,3.42,0,0,1,3.417,3.417Z" transform="translate(-5.25 -4.083)" fill="#7b1315"/>
    <path id="Path_12" data-name="Path 12" d="M18.792,40.25H16.207a4.227,4.227,0,0,0,.876-2.563V34.271A4.276,4.276,0,0,0,12.813,30H11.1a4.276,4.276,0,0,0-4.271,4.271v3.417A4.227,4.227,0,0,0,7.71,40.25H5.125A5.13,5.13,0,0,0,0,45.375v7.688a4.276,4.276,0,0,0,4.271,4.271H19.646a4.276,4.276,0,0,0,4.271-4.271V45.375A5.13,5.13,0,0,0,18.792,40.25ZM8.542,37.688V34.271A2.566,2.566,0,0,1,11.1,31.708h1.708a2.566,2.566,0,0,1,2.563,2.563v3.417a2.566,2.566,0,0,1-2.563,2.563H11.1A2.566,2.566,0,0,1,8.542,37.688ZM22.208,53.063a2.566,2.566,0,0,1-2.563,2.563h-.854v-9.4a.854.854,0,1,0-1.708,0v9.4H6.833v-9.4a.854.854,0,1,0-1.708,0v9.4H4.271a2.566,2.566,0,0,1-2.563-2.563V45.375a3.42,3.42,0,0,1,3.417-3.417H18.792a3.42,3.42,0,0,1,3.417,3.417Z" transform="translate(0 -4.083)" fill="#7b1315"/>
    <path id="Path_13" data-name="Path 13" d="M23.646,2H6.563A2.566,2.566,0,0,0,4,4.563V18.229a2.566,2.566,0,0,0,2.563,2.563h.854v2.563a.854.854,0,0,0,1.328.711l4.91-3.273h9.991a2.566,2.566,0,0,0,2.563-2.563V4.563A2.566,2.566,0,0,0,23.646,2ZM24.5,18.229a.854.854,0,0,1-.854.854H13.4a.859.859,0,0,0-.474.143l-3.8,2.532V19.938a.853.853,0,0,0-.854-.854H6.563a.854.854,0,0,1-.854-.854V4.563a.854.854,0,0,1,.854-.854H23.646a.854.854,0,0,1,.854.854Z" transform="translate(-0.583)" fill="#7b1315"/>
    <path id="Path_14" data-name="Path 14" d="M21,9.666,17.585,6.252a.867.867,0,0,0-.276-.185A.852.852,0,0,0,16.979,6H11.854A.853.853,0,0,0,11,6.854V17.1a.853.853,0,0,0,.854.854H20.4a.853.853,0,0,0,.854-.854V10.271a.844.844,0,0,0-.067-.329A.833.833,0,0,0,21,9.666Zm-3.166-.75.5.5h-.5ZM12.708,16.25V7.708h3.417v2.563a.853.853,0,0,0,.854.854h2.563V16.25Z" transform="translate(-1.604 -0.583)" fill="#7b1315"/>
    <path id="Path_15" data-name="Path 15" d="M46.554,20.792l4.91,3.273a.854.854,0,0,0,1.328-.711V20.792h.854a2.566,2.566,0,0,0,2.563-2.563V4.563A2.566,2.566,0,0,0,53.646,2H36.563A2.566,2.566,0,0,0,34,4.563V18.229a2.566,2.566,0,0,0,2.563,2.563ZM35.708,18.229V4.563a.854.854,0,0,1,.854-.854H53.646a.854.854,0,0,1,.854.854V18.229a.854.854,0,0,1-.854.854H51.938a.853.853,0,0,0-.854.854v1.821l-3.8-2.532a.859.859,0,0,0-.474-.143H36.563A.854.854,0,0,1,35.708,18.229Z" transform="translate(-4.958)" fill="#7b1315"/>
    <path id="Path_16" data-name="Path 16" d="M46.125,17.25A5.125,5.125,0,1,0,41,12.125,5.13,5.13,0,0,0,46.125,17.25Zm0-8.542a3.417,3.417,0,1,1-3.417,3.417A3.42,3.42,0,0,1,46.125,8.708Z" transform="translate(-5.979 -0.729)" fill="#7b1315"/>
    <path id="Path_17" data-name="Path 17" d="M45.1,14.166a.854.854,0,0,0,1.078.107l2.563-1.708a.854.854,0,0,0-.948-1.421l-1.98,1.32-.359-.359a.854.854,0,0,0-1.208,1.208Z" transform="translate(-6.417 -1.312)" fill="#7b1315"/>
  </g>
</svg>
