<svg xmlns="http://www.w3.org/2000/svg" width="52.722" height="52.722" viewBox="0 0 52.722 52.722">
  <g id="crm_2464106" transform="translate(-1 -1)">
    <path id="Path_32" data-name="Path 32" d="M32.4,8.7a1.7,1.7,0,0,1,1.7,1.7h1.7a3.4,3.4,0,1,0-6.8,0v1.7a3.4,3.4,0,1,0,6.8,0H34.1a1.7,1.7,0,1,1-3.4,0V10.4A1.7,1.7,0,0,1,32.4,8.7Z" transform="translate(-4.19 -0.898)" fill="#082326"/>
    <path id="Path_33" data-name="Path 33" d="M43.252,7H39v8.5h1.7V12.1h2.551a.852.852,0,0,1,.85.85V15.5h1.7V12.952a2.535,2.535,0,0,0-.663-1.7A2.54,2.54,0,0,0,43.252,7ZM40.7,10.4V8.7h2.551a.85.85,0,0,1,0,1.7Z" transform="translate(-5.687 -0.898)" fill="#082326"/>
    <path id="Path_34" data-name="Path 34" d="M53.489,12.1h-.474L51.314,7H49v8.5h1.7V10.539L51.788,13.8h2.927L55.8,10.539V15.5h1.7V7H55.19Z" transform="translate(-7.183 -0.898)" fill="#082326"/>
    <path id="Path_35" data-name="Path 35" d="M5,21H6.7v1.7H5Z" transform="translate(-0.599 -2.993)" fill="#082326"/>
    <path id="Path_36" data-name="Path 36" d="M9,21h1.7v1.7H9Z" transform="translate(-1.197 -2.993)" fill="#082326"/>
    <path id="Path_37" data-name="Path 37" d="M13,21h1.7v1.7H13Z" transform="translate(-1.796 -2.993)" fill="#082326"/>
    <path id="Path_38" data-name="Path 38" d="M49.157,31H35.551A2.554,2.554,0,0,0,33,33.551v1.7A2.554,2.554,0,0,0,35.551,37.8v1.7A2.554,2.554,0,0,0,33,42.055v1.7a2.554,2.554,0,0,0,2.551,2.551v1.7A2.554,2.554,0,0,0,33,50.558v1.7a2.554,2.554,0,0,0,2.551,2.551H49.157a2.554,2.554,0,0,0,2.551-2.551v-1.7a2.554,2.554,0,0,0-2.551-2.551v-1.7a2.554,2.554,0,0,0,2.551-2.551v-1.7A2.554,2.554,0,0,0,49.157,39.5V37.8a2.554,2.554,0,0,0,2.551-2.551v-1.7A2.554,2.554,0,0,0,49.157,31Zm.85,19.558v1.7a.851.851,0,0,1-.85.85H35.551a.851.851,0,0,1-.85-.85v-1.7a.851.851,0,0,1,.85-.85H49.157A.851.851,0,0,1,50.007,50.558Zm-2.551-2.551h-10.2v-1.7h10.2Zm2.551-5.952v1.7a.851.851,0,0,1-.85.85H35.551a.851.851,0,0,1-.85-.85v-1.7a.851.851,0,0,1,.85-.85H49.157A.851.851,0,0,1,50.007,42.055ZM47.456,39.5h-10.2V37.8h10.2Zm2.551-4.252a.851.851,0,0,1-.85.85H35.551a.851.851,0,0,1-.85-.85v-1.7a.851.851,0,0,1,.85-.85H49.157a.851.851,0,0,1,.85.85Z" transform="translate(-4.789 -4.49)" fill="#082326"/>
    <path id="Path_39" data-name="Path 39" d="M49.47,1H25.66a4.257,4.257,0,0,0-4.252,4.252v9.354H3.551A2.554,2.554,0,0,0,1,17.157V51.171a2.554,2.554,0,0,0,2.551,2.551H47.769a2.554,2.554,0,0,0,2.551-2.551V19.622a4.259,4.259,0,0,0,3.4-4.166V5.252A4.257,4.257,0,0,0,49.47,1ZM3.551,16.306H21.494a4.259,4.259,0,0,0,4.166,3.4h3l1.418,1.7H2.7V17.157A.852.852,0,0,1,3.551,16.306ZM47.769,52.021H3.551a.851.851,0,0,1-.85-.85V23.109H31.5l.641.77a2.579,2.579,0,0,0,4.409-.77H48.62V51.171A.851.851,0,0,1,47.769,52.021ZM36.715,21.408v-1.7h11.9v1.7Zm15.306-5.952a2.554,2.554,0,0,1-2.551,2.551H35.014v4.215a.887.887,0,0,1-1.569.568L29.46,18.007h-3.8a2.554,2.554,0,0,1-2.551-2.551V5.252A2.554,2.554,0,0,1,25.66,2.7H49.47a2.554,2.554,0,0,1,2.551,2.551Z" fill="#082326"/>
    <path id="Path_40" data-name="Path 40" d="M16.354,47.708A9.354,9.354,0,1,0,7,38.354,9.365,9.365,0,0,0,16.354,47.708Zm0-1.7a7.609,7.609,0,0,1-4.771-1.679L16.706,39.2h7.251A7.662,7.662,0,0,1,16.354,46.007Zm5.974-12.424A7.616,7.616,0,0,1,23.957,37.5h-5.55Zm-1.2-1.2-4.771,4.771L11.583,32.38a7.617,7.617,0,0,1,9.543,0Zm-10.745,1.2,4.771,4.771L10.38,43.125a7.617,7.617,0,0,1,0-9.543Z" transform="translate(-0.898 -4.19)" fill="#082326"/>
    <path id="Path_41" data-name="Path 41" d="M5,53H6.7v1.7H5Z" transform="translate(-0.599 -7.782)" fill="#082326"/>
    <path id="Path_42" data-name="Path 42" d="M9,53H27.708v1.7H9Z" transform="translate(-1.197 -7.782)" fill="#082326"/>
    <path id="Path_43" data-name="Path 43" d="M5,57h5.1v1.7H5Z" transform="translate(-0.599 -8.38)" fill="#082326"/>
    <path id="Path_44" data-name="Path 44" d="M13,57H28.306v1.7H13Z" transform="translate(-1.796 -8.38)" fill="#082326"/>
  </g>
</svg>
