<svg xmlns="http://www.w3.org/2000/svg" width="50.02" height="57.332" viewBox="0 0 50.02 57.332">
  <path id="crm_16134542" d="M42.508,17.146a8.073,8.073,0,1,0-8.073-8.073,8.082,8.082,0,0,0,8.073,8.073ZM39.373,14.5a4.671,4.671,0,0,1,6.271,0,6.252,6.252,0,0,1-6.271,0Zm3.135-3.3A2.132,2.132,0,1,1,44.64,9.073,2.134,2.134,0,0,1,42.508,11.2Zm0-8.406a6.27,6.27,0,0,1,4.56,10.578,6.578,6.578,0,0,0-1.983-1.34,3.93,3.93,0,1,0-5.154,0,6.576,6.576,0,0,0-1.983,1.34A6.27,6.27,0,0,1,42.508,2.8ZM74.556,17.146a8.073,8.073,0,1,0-8.073-8.073A8.082,8.082,0,0,0,74.556,17.146ZM71.42,14.5a4.671,4.671,0,0,1,6.271,0,6.252,6.252,0,0,1-6.271,0Zm3.135-3.3a2.132,2.132,0,1,1,2.132-2.132A2.134,2.134,0,0,1,74.556,11.2Zm0-8.406a6.27,6.27,0,0,1,4.56,10.578,6.575,6.575,0,0,0-1.983-1.34,3.93,3.93,0,1,0-5.154,0A6.577,6.577,0,0,0,70,13.377,6.27,6.27,0,0,1,74.556,2.8Zm5.305,16.939a22.039,22.039,0,0,1,.649,4.715.9.9,0,0,1-.873.925h-.026a.9.9,0,0,1-.9-.873,20.242,20.242,0,0,0-.6-4.33.9.9,0,1,1,1.745-.437Zm-41.567-.654a.9.9,0,0,1,.654,1.091,20.246,20.246,0,0,0-.6,4.33.9.9,0,0,1-.9.873h-.026a.9.9,0,0,1-.873-.925,22.057,22.057,0,0,1,.649-4.715.9.9,0,0,1,1.091-.654ZM51.155,5.315a.9.9,0,0,1,.577-1.133,22.073,22.073,0,0,1,13.6,0,.9.9,0,1,1-.556,1.711,20.274,20.274,0,0,0-12.487,0,.9.9,0,0,1-1.133-.577ZM83.508,45.262l-3.45-17.319a1.785,1.785,0,0,0-2.1-1.4l-4.44.884a1.786,1.786,0,0,0-1.4,2.1l.022.11a9.51,9.51,0,0,1-3.869.5,10.822,10.822,0,0,0,.841-2.156h1.273a.9.9,0,0,0,.9-.9V23.118a.9.9,0,0,0-.9-.9H69.114a10.826,10.826,0,0,0-1.065-2.57l.9-.9a.9.9,0,0,0,0-1.272l-2.8-2.8a.9.9,0,0,0-1.272,0l-.9.9a10.827,10.827,0,0,0-2.57-1.065V13.241a.9.9,0,0,0-.9-.9H56.553a.9.9,0,0,0-.9.9v1.273a10.822,10.822,0,0,0-2.57,1.065l-.9-.9a.9.9,0,0,0-1.272,0l-2.8,2.8a.9.9,0,0,0,0,1.272l.9.9a10.832,10.832,0,0,0-1.065,2.57H46.676a.9.9,0,0,0-.9.9v3.957a.9.9,0,0,0,.9.9H47.95q.112.412.256.815H44.934a1.784,1.784,0,0,0-1.391-1.362l-4.44-.884a1.785,1.785,0,0,0-2.1,1.4l-3.45,17.318a1.785,1.785,0,0,0,1.4,2.1l4.44.884a1.782,1.782,0,0,0,2.07-1.293L51.846,57.329a3.412,3.412,0,0,0,2.43,1h0a3.428,3.428,0,0,0,3.293-2.455l1.318,1.318a3.435,3.435,0,0,0,5.726-1.462,3.435,3.435,0,0,0,5.679-2.755,3.428,3.428,0,0,0,2.586-1,3.468,3.468,0,0,0,.863-3.393l1.815-1.815.015.075a1.787,1.787,0,0,0,1.746,1.435,1.792,1.792,0,0,0,.351-.035l4.44-.884a1.785,1.785,0,0,0,1.4-2.1ZM49.544,26.9a.9.9,0,0,0-.882-.724H47.576V24.018h1.086a.9.9,0,0,0,.882-.724A9.072,9.072,0,0,1,50.9,20.016a.9.9,0,0,0-.112-1.135l-.768-.769,1.526-1.526.769.769a.9.9,0,0,0,1.135.112,9.073,9.073,0,0,1,3.278-1.359.9.9,0,0,0,.723-.882V14.141h2.158v1.086a.9.9,0,0,0,.724.882,9.072,9.072,0,0,1,3.278,1.359.9.9,0,0,0,1.135-.112l.769-.769,1.526,1.526-.769.769a.9.9,0,0,0-.112,1.135,9.073,9.073,0,0,1,1.359,3.278.9.9,0,0,0,.882.723h1.086v2.158H68.4a.9.9,0,0,0-.882.724,9.06,9.06,0,0,1-1.088,2.845,10.081,10.081,0,0,1-1.493-.627A7.564,7.564,0,1,0,51.93,28.79H50.142a9.106,9.106,0,0,1-.6-1.89Zm5.033,1.89h-.472a5.766,5.766,0,1,1,9.3-.61c-.318-.224-.64-.468-.968-.739a4.665,4.665,0,0,0-6.1-.124ZM39.732,46.476,35.323,45.6,38.767,28.31l4.409.878ZM71.606,50.7a1.639,1.639,0,0,1-2.316,0l-7.553-7.553a.9.9,0,1,0-1.272,1.272l7.553,7.553A1.637,1.637,0,0,1,65.7,54.292l-7.981-7.981a.9.9,0,0,0-1.272,1.272l6.024,6.024h0a1.637,1.637,0,0,1-2.316,2.316L53.706,49.47a.9.9,0,0,0-1.272,1.272l3,3h0a1.637,1.637,0,0,1-2.316,2.316L41.894,44.833l2.838-14.245h7.691l-2.035,1.7a3.218,3.218,0,0,0-1.206,3.207l1.806,8.275a.9.9,0,0,0,1.094.681c4.92-1.212,5.236-4.8,5.514-7.967.017-.2.035-.4.053-.595.371-.034,1.619.328,3.437,1.98L71.945,48.886a1.655,1.655,0,0,1-.339,1.819Zm1.089-3.619L62.35,36.589l-.035-.034c-2.147-1.956-4.1-2.807-5.365-2.336a1.665,1.665,0,0,0-1.084,1.42c0,.007,0,.014,0,.021-.021.223-.041.445-.06.666-.255,2.9-.446,5.065-3.267,6.109l-1.6-7.325a1.469,1.469,0,0,1,.6-1.443l5.953-4.97a2.911,2.911,0,0,1,3.8.13c4.5,3.715,8.284,3.486,11.205,2.582l2.637,13.237Zm4.636-.609L73.887,29.188,78.3,28.31,81.74,45.6Z" transform="translate(-33.522 -1)" fill="#7b1315"/>
</svg>
