<svg xmlns="http://www.w3.org/2000/svg" width="62" height="62" viewBox="0 0 62 62">
  <g id="solution_4129539" transform="translate(-1 -1)">
    <path id="Path_18" data-name="Path 18" d="M11.636,29.075a11.9,11.9,0,0,0-6.258,21.06,3.194,3.194,0,0,1,1.122,2.5v4.795A5.608,5.608,0,0,0,12.131,63h1.737A5.608,5.608,0,0,0,19.5,57.429V52.634a3.3,3.3,0,0,1,1.188-2.553,11.874,11.874,0,0,0,.343-18.015,12.1,12.1,0,0,0-9.4-2.991ZM8.5,57.429V57h9v.429a3.48,3.48,0,0,1-.059.571H8.559A3.479,3.479,0,0,1,8.5,57.429ZM12.131,61a3.645,3.645,0,0,1-2.509-1h6.754a3.644,3.644,0,0,1-2.508,1ZM19.7,33.556a9.874,9.874,0,0,1-.287,14.986,5.3,5.3,0,0,0-1.91,4.092V55H14V49a1,1,0,0,0-.375-.781L9.291,44.752a.771.771,0,0,1-.291-.6v-.377A.772.772,0,0,1,9.771,43h.28a.771.771,0,0,1,.642.344,2.771,2.771,0,0,0,4.612,0A.771.771,0,0,1,15.948,43h.28a.772.772,0,0,1,.772.771v.5a.764.764,0,0,1-.226.545l-2.481,2.481,1.414,1.414,2.48-2.48A2.753,2.753,0,0,0,19,44.267v-.5A2.774,2.774,0,0,0,16.229,41h-.28a2.767,2.767,0,0,0-2.306,1.234.772.772,0,0,1-1.284,0A2.767,2.767,0,0,0,10.052,41h-.28A2.774,2.774,0,0,0,7,43.771v.377a2.762,2.762,0,0,0,1.041,2.165L12,49.48V55H8.5V52.634a5.181,5.181,0,0,0-1.855-4.046A9.955,9.955,0,1,1,19.7,33.554Z" fill="#7b1315"/>
    <path id="Path_19" data-name="Path 19" d="M42,22H39a4,4,0,0,0-8,0H28a1,1,0,0,0-1,1V37a1,1,0,0,0,1,1h4a1,1,0,0,0,1-1V36a2,2,0,0,1,4,0v1a1,1,0,0,0,1,1h4a1,1,0,0,0,1-1V34a4,4,0,0,0,0-8V23a1,1,0,0,0-1-1Zm3,8a2,2,0,0,1-2,2H42a1,1,0,0,0-1,1v3H39a4,4,0,0,0-8,0H29V24h3a1,1,0,0,0,1-1V22a2,2,0,0,1,4,0v1a1,1,0,0,0,1,1h3v3a1,1,0,0,0,1,1h1a2,2,0,0,1,2,2Z" fill="#7b1315"/>
    <path id="Path_20" data-name="Path 20" d="M62,22.186H60.11a.9.9,0,0,1-.878-.646A23.984,23.984,0,0,0,57,16.148a.907.907,0,0,1,.162-1.082l1.34-1.34a1,1,0,0,0,0-1.414L51.687,5.5a1.029,1.029,0,0,0-1.414,0l-1.339,1.34A.906.906,0,0,1,47.852,7,24.043,24.043,0,0,0,42.46,4.768a.9.9,0,0,1-.646-.878V2a1,1,0,0,0-1-1h-9.63a1,1,0,0,0-1,1V3.89a.9.9,0,0,1-.646.878A24.055,24.055,0,0,0,24.148,7a.909.909,0,0,1-1.082-.161L21.727,5.5a1,1,0,0,0-1.414,0L13.5,12.313a1,1,0,0,0,0,1.414l1.339,1.34a.908.908,0,0,1,.163,1.082,23.962,23.962,0,0,0-2.237,5.391.9.9,0,0,1-.878.646H10a1,1,0,0,0-1,1V28h2V24.186h.89A2.909,2.909,0,0,0,14.7,22.074a22,22,0,0,1,2.051-4.941,2.912,2.912,0,0,0-.489-3.48l-.633-.633,5.4-5.395.632.633a2.909,2.909,0,0,0,3.481.487,22.024,22.024,0,0,1,4.94-2.05A2.909,2.909,0,0,0,32.185,3.89V3h7.63v.89A2.909,2.909,0,0,0,41.925,6.7a22.012,22.012,0,0,1,4.941,2.05,2.911,2.911,0,0,0,3.481-.487l.632-.633,5.4,5.395-.633.633a2.912,2.912,0,0,0-.488,3.48,22.016,22.016,0,0,1,2.05,4.941,2.909,2.909,0,0,0,2.805,2.111H61v7.629h-.89A2.909,2.909,0,0,0,57.3,33.926a22,22,0,0,1-2.051,4.941,2.912,2.912,0,0,0,.489,3.48l.633.633-5.4,5.395-.632-.633a2.911,2.911,0,0,0-3.481-.487,22.023,22.023,0,0,1-4.94,2.05,2.909,2.909,0,0,0-2.111,2.806V53h-7.63v-.89a2.909,2.909,0,0,0-2.11-2.806,22.012,22.012,0,0,1-4.941-2.05L24.148,49a24.043,24.043,0,0,0,5.392,2.237.9.9,0,0,1,.646.878V54a1,1,0,0,0,1,1h9.63a1,1,0,0,0,1-1V52.11a.9.9,0,0,1,.646-.878A24.055,24.055,0,0,0,47.852,49a.907.907,0,0,1,1.082.161l1.339,1.34a1,1,0,0,0,1.414,0l6.81-6.809a1,1,0,0,0,0-1.414l-1.339-1.34a.908.908,0,0,1-.163-1.082,23.963,23.963,0,0,0,2.237-5.391.9.9,0,0,1,.878-.646H62a1,1,0,0,0,1-1V23.186a1,1,0,0,0-1-1Z" fill="#7b1315"/>
    <path id="Path_21" data-name="Path 21" d="M36,47A19,19,0,1,0,17,28h2a16.99,16.99,0,1,1,8.5,14.727l-1,1.73A18.993,18.993,0,0,0,36,47Z" fill="#7b1315"/>
  </g>
</svg>
