<svg xmlns="http://www.w3.org/2000/svg" width="48.966" height="54.213" viewBox="0 0 48.966 54.213">
  <g id="erp_5627023" transform="translate(-24.667)">
    <path id="Path_27" data-name="Path 27" d="M70.069,40.4A3.569,3.569,0,0,0,66.6,43.169H49.408v-.91a1.845,1.845,0,0,0-1.475-1.8A13.774,13.774,0,0,1,38.257,21a13.672,13.672,0,0,1,9.673-7.538,1.848,1.848,0,0,0,1.477-1.8V10.584H66.6a3.564,3.564,0,1,0,0-1.6H49.408V4.663h7.616a3.564,3.564,0,1,0,0-1.6H49.408V1.837A1.836,1.836,0,0,0,47.328.017,27.633,27.633,0,0,0,40.7,1.774a2.467,2.467,0,0,0-1.288,3.364L40.852,8.1a.87.87,0,0,1-.337,1.128,20.566,20.566,0,0,0-4.751,3.8.867.867,0,0,1-1.169.081l-2.578-2.039a2.472,2.472,0,0,0-3.573.547A27.614,27.614,0,0,0,24.771,19.3a2.472,2.472,0,0,0,1.819,3.124l3.206.725a.867.867,0,0,1,.672.96,20.566,20.566,0,0,0,.024,6.086.87.87,0,0,1-.666.971l-3.206.743a2.472,2.472,0,0,0-1.8,3.133,27.518,27.518,0,0,0,3.715,7.67,2.472,2.472,0,0,0,3.576.526l2.583-2.068a.872.872,0,0,1,1.175.078,12.42,12.42,0,0,0,1.154,1.054.8.8,0,0,0,1.011-1.234,10.87,10.87,0,0,1-1-.913,2.476,2.476,0,0,0-3.334-.231L31.112,42a.862.862,0,0,1-.67.182.875.875,0,0,1-.6-.372,25.928,25.928,0,0,1-3.5-7.226.875.875,0,0,1,.079-.7.862.862,0,0,1,.557-.413l3.206-.743a2.472,2.472,0,0,0,1.883-2.767,18.976,18.976,0,0,1-.022-5.615,2.47,2.47,0,0,0-1.9-2.746l-3.206-.725a.863.863,0,0,1-.56-.41.875.875,0,0,1-.083-.7,26.023,26.023,0,0,1,3.46-7.241.875.875,0,0,1,.6-.375.862.862,0,0,1,.671.178L33.6,14.363a2.47,2.47,0,0,0,3.329-.248,18.971,18.971,0,0,1,4.383-3.509,2.472,2.472,0,0,0,.971-3.2L40.851,4.441a.87.87,0,0,1-.029-.7.851.851,0,0,1,.479-.489A26.04,26.04,0,0,1,47.543,1.6a.229.229,0,0,1,.186.056.241.241,0,0,1,.083.183v9.828a.244.244,0,0,1-.2.237,15.366,15.366,0,0,0-3.586,28.912,15.417,15.417,0,0,0,3.589,1.208.241.241,0,0,1,.2.236V52.376a.241.241,0,0,1-.083.183.228.228,0,0,1-.185.057,25.49,25.49,0,0,1-6.108-1.607.854.854,0,0,1-.482-.488.869.869,0,0,1,.026-.7l0-.01,1.617-3.5a2.021,2.021,0,0,0-.748-2.543c-.536-.341-1.058-.684-1.549-1.019a.8.8,0,1,0-.9,1.318c.505.345,1.041.7,1.591,1.047a.42.42,0,0,1,.156.529l-1.615,3.5a2.468,2.468,0,0,0,1.3,3.35,27.087,27.087,0,0,0,6.49,1.708,1.835,1.835,0,0,0,2.075-1.821v-1.69h7.616a3.564,3.564,0,1,0,0-1.6H49.408V44.764H66.6A3.563,3.563,0,1,0,70.069,40.4Zm0-32.585A1.968,1.968,0,1,1,68.1,9.787,1.97,1.97,0,0,1,70.069,7.818ZM60.5,1.9a1.968,1.968,0,1,1-1.968,1.968A1.97,1.97,0,0,1,60.5,1.9Zm0,46.022a1.968,1.968,0,1,1-1.968,1.968A1.97,1.97,0,0,1,60.5,47.919Zm9.573-1.984a1.968,1.968,0,1,1,1.968-1.968A1.971,1.971,0,0,1,70.069,45.935Z" transform="translate(0 0)" fill="#7b1315"/>
    <path id="Path_28" data-name="Path 28" d="M232.474,215.7a.8.8,0,1,0,0-1.6h-2.889a.8.8,0,0,0-.8.8v6.856a.8.8,0,0,0,.8.8h2.889a.8.8,0,1,0,0-1.6h-2.091v-1.832h1.878a.8.8,0,1,0,0-1.6h-1.878V215.7h2.091Z" transform="translate(-182.41 -191.335)" fill="#7b1315"/>
    <path id="Path_29" data-name="Path 29" d="M302.206,216.407a2.651,2.651,0,0,0-2.7-2.6h-1.841a.8.8,0,0,0-.8.8v6.919a.8.8,0,1,0,1.6,0v-2.136l2.344,2.663a.8.8,0,1,0,1.2-1.054l-1.83-2.079A2.621,2.621,0,0,0,302.206,216.407Zm-2.7,1-1.033,0c0-.367,0-.772,0-1,0-.2,0-.616,0-1h1.039a1.005,1.005,0,1,1,0,2Z" transform="translate(-243.251 -191.07)" fill="#7b1315"/>
    <path id="Path_30" data-name="Path 30" d="M375,221.528a.8.8,0,1,0,1.6,0v-2.212l1.129,0a2.75,2.75,0,1,0,0-5.5H375.8a.8.8,0,0,0-.8.8Zm2.724-6.121a1.155,1.155,0,1,1,0,2.31l-1.12,0c0-.416-.005-1.878-.007-2.314h1.126Z" transform="translate(-313.073 -191.071)" fill="#7b1315"/>
    <path id="Path_31" data-name="Path 31" d="M189.98,173.451h-5.892a8.656,8.656,0,1,0,0,17.313h14.463a8.656,8.656,0,1,0,0-17.313h-5.381a.8.8,0,0,0,0,1.6h5.381a7.061,7.061,0,1,1,0,14.122H184.088a7.061,7.061,0,1,1,0-14.122h5.892a.8.8,0,0,0,0-1.6Z" transform="translate(-134.729 -155.003)" fill="#7b1315"/>
  </g>
</svg>
