<svg xmlns="http://www.w3.org/2000/svg" width="55.25" height="55.25" viewBox="0 0 55.25 55.25">
  <g id="digital-services_3852560" transform="translate(-1 -1)">
    <path id="Path_22" data-name="Path 22" d="M51.794,47.911H31.209a2.679,2.679,0,0,0-.551-1.08l-4.922-5.737a.891.891,0,0,0-.676-.312h-9.8v-.891A.891.891,0,0,0,14.367,39H1.891A.891.891,0,0,0,1,39.891V59.5a.891.891,0,0,0,.891.891H9.02a.891.891,0,0,0,.891-.891V58.6h4.456a.891.891,0,0,0,.891-.891v-.891h5.971l5.122,3.415a.891.891,0,0,0,.492.15.925.925,0,0,0,.191-.021L55.55,54.129a.891.891,0,0,0,.7-.871v-.891a4.461,4.461,0,0,0-4.456-4.456ZM8.129,58.6H2.782V40.782H8.129Zm5.347-1.782H9.911V40.782h3.565Zm40.992-4.277-27.447,6L21.99,55.19a.9.9,0,0,0-.494-.15H15.258V42.565h9.393L29.3,47.991a.891.891,0,0,1,.215.58v1.123a.891.891,0,0,1-.891.891H27.581a.891.891,0,0,1-.631-.261L23.017,46.39l-1.26,1.26,3.933,3.933a2.654,2.654,0,0,0,1.891.783h1.044A2.673,2.673,0,0,0,31.3,49.694h20.5a2.673,2.673,0,0,1,2.673,2.673Z" transform="translate(0 -4.137)" fill="#7b1315"/>
    <path id="Path_23" data-name="Path 23" d="M55.359,27.734H53.577V8.129A2.673,2.673,0,0,0,50.9,5.456H44.617a.705.705,0,0,0-.042-.063l-2.52-2.521a.891.891,0,0,0-1.26,0L39.87,3.8a8.859,8.859,0,0,0-1.443-.6V1.891A.891.891,0,0,0,37.536,1H33.972a.891.891,0,0,0-.891.891V3.2a8.859,8.859,0,0,0-1.443.6l-.925-.925a.891.891,0,0,0-1.26,0L26.932,5.392a.706.706,0,0,0-.041.063H20.6a2.673,2.673,0,0,0-2.673,2.673v5.347H1.891A.891.891,0,0,0,1,14.367V25.06a.891.891,0,0,0,.891.891h16.04v1.782H16.149a.891.891,0,0,0-.891.891V32.19a2.673,2.673,0,0,0,2.673,2.673H53.577A2.673,2.673,0,0,0,56.25,32.19V28.625A.891.891,0,0,0,55.359,27.734Zm-3.565-19.6v19.6H50.012V9.911a.891.891,0,0,0-.891-.891H44.25a8.859,8.859,0,0,0-.6-1.443l.34-.34H50.9A.891.891,0,0,1,51.794,8.129ZM24.169,25.06V14.367a.891.891,0,0,0-.891-.891V10.8H25.06v2.673a.891.891,0,0,0,.891.891h1.306a8.859,8.859,0,0,0,.6,1.443l-.925.925a.891.891,0,0,0,0,1.26l2.521,2.521a.891.891,0,0,0,1.26,0l.925-.925a8.85,8.85,0,0,0,1.443.6V21.5a.891.891,0,0,0,.891.891h3.565a.891.891,0,0,0,.891-.891V20.19a8.85,8.85,0,0,0,1.443-.6l.925.926a.891.891,0,0,0,1.26,0l2.521-2.521a.891.891,0,0,0,0-1.26l-.924-.925a8.859,8.859,0,0,0,.6-1.443h1.306a.891.891,0,0,0,.891-.891V10.8H48.23V27.734H23.278V25.952A.891.891,0,0,0,24.169,25.06Zm4.639-14.951a7.055,7.055,0,0,1,.915-2.2A.891.891,0,0,0,29.6,6.8l-.777-.777,1.26-1.26.777.777a.891.891,0,0,0,1.106.124,7.055,7.055,0,0,1,2.2-.915.891.891,0,0,0,.693-.87v-1.1h1.782v1.1a.891.891,0,0,0,.693.87,7.055,7.055,0,0,1,2.2.915.891.891,0,0,0,1.106-.124l.777-.777,1.26,1.26-.777.777a.891.891,0,0,0-.124,1.106,7.055,7.055,0,0,1,.915,2.2.891.891,0,0,0,.87.693h1.1v1.782h-1.1a.891.891,0,0,0-.87.693,7.055,7.055,0,0,1-.915,2.2.891.891,0,0,0,.124,1.106l.777.777-1.26,1.26-.777-.777a.891.891,0,0,0-1.1-.124,7.069,7.069,0,0,1-2.2.915.891.891,0,0,0-.694.869v1.1H34.863v-1.1a.891.891,0,0,0-.694-.869,7.069,7.069,0,0,1-2.2-.915.891.891,0,0,0-1.105.124l-.777.777-1.26-1.26.777-.777a.891.891,0,0,0,.124-1.106,7.055,7.055,0,0,1-.915-2.2.891.891,0,0,0-.87-.693h-1.1V10.8h1.1A.891.891,0,0,0,28.809,10.109Zm-9.095-1.98a.891.891,0,0,1,.891-.891h6.912l.34.34a8.859,8.859,0,0,0-.6,1.443H22.387a.891.891,0,0,0-.891.891v3.565H19.714ZM2.782,15.258h19.6v8.911H2.782ZM19.714,25.952H21.5v1.782H19.714ZM54.468,32.19a.891.891,0,0,1-.891.891H17.931a.891.891,0,0,1-.891-.891V29.516H54.468Z" fill="#7b1315"/>
    <path id="Path_24" data-name="Path 24" d="M39.347,17.694A5.347,5.347,0,1,0,34,12.347,5.347,5.347,0,0,0,39.347,17.694Zm0-8.911a3.565,3.565,0,1,1-3.565,3.565A3.565,3.565,0,0,1,39.347,8.782Z" transform="translate(-3.593 -0.653)" fill="#7b1315"/>
    <path id="Path_25" data-name="Path 25" d="M7.935,18.293,5.261,20.966a.891.891,0,0,0,0,1.26L7.935,24.9l1.26-1.26L7.151,21.6l2.043-2.043Z" transform="translate(-0.436 -1.883)" fill="#7b1315"/>
    <path id="Path_26" data-name="Path 26" d="M19.553,18.293l-1.26,1.26L20.336,21.6,18.293,23.64l1.26,1.26,2.673-2.673a.891.891,0,0,0,0-1.26Z" transform="translate(-1.883 -1.883)" fill="#7b1315"/>
    <rect id="Rectangle_21" data-name="Rectangle 21" width="7.97" height="1.782" transform="matrix(0.447, -0.894, 0.894, 0.447, 10.006, 22.879)" fill="#7b1315"/>
  </g>
</svg>
